<svg xmlns="http://www.w3.org/2000/svg" xmlns:xlink="http://www.w3.org/1999/xlink" viewBox="0 0 101.3 139.32"><defs><style>.cls-1,.cls-3,.cls-4{fill:none;}.cls-2{clip-path:url(#clip-path);}.cls-3,.cls-4{stroke:#000;stroke-width:2px;}.cls-3{stroke-linecap:round;stroke-linejoin:round;}.cls-4{stroke-miterlimit:10;}</style><clipPath id="clip-path"><circle class="cls-1" cx="50.65" cy="51.2" r="49.65"/></clipPath></defs><g id="Layer_2" data-name="Layer 2"><g id="Layer_3" data-name="Layer 3"><g class="cls-2"><g id="done_v1"><path id="body" class="cls-3" d="M16.91,120.57l3.76-9-4.55,2.57s3.37-17.41,9.2-23.84L21,92.61s5.17-13.53,8.78-17.79a16.77,16.77,0,0,0-4.1,0,29.38,29.38,0,0,1,16.36-12.7C37.39,55.37,36,55,36,55s9.6,1,11.52,2.79c1.31-2.1,7.17-4.74,10.09-3.93-2,4.6-2.06,6-2.06,6s10.87,2.52,16.34,8.29c-3.93-.69-5.66.25-5.66.25s4.47,1.11,9.65,9.85a14.25,14.25,0,0,0-4.68-.36s13.07,17.94,17.17,31.89c-3.91-3.56-4.37-3.5-4.37-3.5s6,10.52,6,12.44C74.3,141.33,38.71,147.45,16.91,120.57Z"/><path class="cls-3" d="M38.71,105.94c8.19,37,23.62,33,28.19-.56l-6.31-2,1,3.12-9-3.12a56.69,56.69,0,0,1-7.86,3.42l.45-3.37Z"/><path class="cls-3" d="M41.24,105s2.47,8,4.59,8S49,105.13,49,105.13s-3.11,1.23-4.23,1.64l.45-3.37C44.15,103.81,42,104.59,41.24,105Z"/><path class="cls-3" d="M64.77,104.71s-2.56,8.2-4.69,8.2-3-8-3-8l4.51,1.56c-.17-.52-1-2.61-1-3.12C61.42,103.62,63.92,104.42,64.77,104.71Z"/><path class="cls-3" d="M36.49,84.78q4.74-3.93,9.49-.24"/><path class="cls-3" d="M58.15,84.78q4.74-3.93,9.49-.24"/><path id="mustache_line" class="cls-3" d="M34.72,98.56,32,102.85l3.84-.29,1.38,3.91,8-3.07-.45,3.37a56,56,0,0,0,7.86-3.42l9,3.12-1-3.12,8,2.58-.3-3.47,5.14.5s-.74-2.57-1.83-3.51"/><path class="cls-3" d="M54.18,125.16a10,10,0,0,0-1.49-1.71c-3.94-3.44-8.34,0-8.34,0s9,20.12,17.95.36c-1.38-3.4-7.86-3.17-9.61-.31Z"/><path id="eye2" d="M62.9,85.15A4.87,4.87,0,1,0,67.76,90,4.87,4.87,0,0,0,62.9,85.15ZM60.73,90a1.51,1.51,0,1,1,1.51-1.51A1.51,1.51,0,0,1,60.73,90Z"/><path id="eye1" d="M41.24,85.12A4.87,4.87,0,1,0,46.11,90,4.87,4.87,0,0,0,41.24,85.12ZM39.07,90a1.51,1.51,0,1,1,1.51-1.51A1.52,1.52,0,0,1,39.07,90Z"/></g></g><g id="right_horn"><path class="cls-3" d="M29.83,75s-12.6,7.57-14.47-4.54c-.94-7.22,8.65-4.75,6.72.44,0,0,7.09-2.08,5.9-8.11-1.71-6.43-10.32-5.51-10.32-5.51S.9,58.1,6,75.3c3.17,9.15,17.14,13.47,18.53,9A52.7,52.7,0,0,1,29.83,75Z"/><path class="cls-3" d="M24.35,58.42s1,5.59-3.5,8.38"/><path class="cls-3" d="M7.53,62s6.31-.9,8.73,4.85"/><path class="cls-3" d="M15.47,71.12s-6.25-1.67-9.63,3.63"/><path class="cls-3" d="M18.21,76.15s-4.63,1.29-2.28,8.54"/></g><g id="right_horn-2" data-name="right_horn"><path class="cls-3" d="M72.28,79.41s13,4.55,14.85-7.57c.94-7.22-8.66-4.74-6.73.45,0,0-7.08-2.08-5.9-8.11,1.72-6.43,10.33-5.51,10.33-5.51s16.75.79,11.66,18c-3.16,9.15-16.72,14.9-18.86,10.79C77.07,86.4,73.7,81.43,72.28,79.41Z"/><path class="cls-3" d="M78.14,59.79s-1,5.59,3.49,8.37"/><path class="cls-3" d="M95,63.32s-6.31-.91-8.72,4.84"/><path class="cls-3" d="M87,72.48s6.25-1.67,9.64,3.64"/><path class="cls-3" d="M84.27,77.9s5.09,1.68,2.74,8.92"/></g><path class="cls-4" d="M5.06,70.35A49.65,49.65,0,1,1,97.19,68"/><path class="cls-4" d="M82.74,88.53a49.64,49.64,0,0,1-69-4.66"/></g></g></svg>