<svg xmlns="http://www.w3.org/2000/svg" xmlns:xlink="http://www.w3.org/1999/xlink" viewBox="0 -6 293.88 309.67">
    <defs>
        <style>
            .cls-1,
            .cls-10,
            .cls-17,
            .cls-19,
            .cls-20,
            .cls-25,
            .cls-27,
            .cls-30,
            .cls-6 {
                fill: none;
            }

            .cls-2 {
                clip-path: url(#clip-path);
            }

            .cls-3,
            .cls-7 {
                fill: #fff2e9;
            }

            .cls-3,
            .cls-6 {
                stroke: #3d3d3d;
            }

            .cls-10,
            .cls-11,
            .cls-12,
            .cls-13,
            .cls-14,
            .cls-15,
            .cls-16,
            .cls-17,
            .cls-19,
            .cls-20,
            .cls-21,
            .cls-23,
            .cls-28,
            .cls-3,
            .cls-30,
            .cls-32,
            .cls-33,
            .cls-5,
            .cls-6,
            .cls-7,
            .cls-9 {
                stroke-linecap: round;
                stroke-linejoin: round;
            }

            .cls-10,
            .cls-12,
            .cls-21,
            .cls-28,
            .cls-3,
            .cls-31,
            .cls-6,
            .cls-7 {
                stroke-width: 2px;
            }

            .cls-4 {
                fill: #f2cba5;
            }

            .cls-5 {
                fill: #efa081;
                stroke: #efa081;
            }

            .cls-10,
            .cls-11,
            .cls-12,
            .cls-13,
            .cls-14,
            .cls-15,
            .cls-16,
            .cls-17,
            .cls-21,
            .cls-23,
            .cls-28,
            .cls-31,
            .cls-32,
            .cls-7 {
                stroke: #000;
            }

            .cls-33,
            .cls-8 {
                fill: #ffba6e;
            }

            .cls-9 {
                fill: #ef7443;
                stroke: #ef7443;
            }

            .cls-11 {
                fill: #5e5e5e;
            }

            .cls-12,
            .cls-22 {
                fill: #f2e8cc;
            }

            .cls-13 {
                fill: #efdf48;
            }

            .cls-14 {
                fill: #f969f2;
            }

            .cls-15 {
                fill: #3adeef;
            }

            .cls-16,
            .cls-18 {
                fill: #fff;
            }

            .cls-19 {
                stroke: #fff;
            }

            .cls-20 {
                stroke: #bbf9ff;
            }

            .cls-21 {
                fill: #fffbee;
            }

            .cls-23 {
                fill: #fffef8;
            }

            .cls-23,
            .cls-25 {
                stroke-width: 0.5px;
            }

            .cls-24 {
                fill: #ff78af;
            }

            .cls-25,
            .cls-27 {
                stroke: #af3544;
            }

            .cls-25,
            .cls-27,
            .cls-31 {
                stroke-miterlimit: 10;
            }

            .cls-25 {
                stroke-dasharray: 1.01 1.01 1.01 1.01 1.01 1.01;
            }

            .cls-26 {
                fill: #af3544;
            }

            .cls-27 {
                stroke-width: 0.25px;
            }

            .cls-28 {
                fill: #af0b56;
            }

            .cls-29 {
                fill: #8e1c55;
            }

            .cls-30 {
                stroke: #f498c6;
                stroke-width: 5px;
            }

            .cls-31 {
                fill: #4f1238;
            }

            .cls-32 {
                fill: #e0e0e0;
            }

            .cls-33 {
                stroke: #ffba6e;
            }

            /* ------------------------------------------------------------ */
            /* ------------------------ ANIMATIONS ------------------------ */
            /* ------------------------------------------------------------ */

            /* Balloon */
            #balloon-2 {
                animation: balloon_move 15s infinite ease-in-out;
            }
            /* Balloon Clouds */
            #cloud_small {
                animation: cloud_small_2 11s ease-in-out infinite;
            }
            #cloud_small-2 {
                animation: cloud_small 9s ease-in-out infinite;
            }
            #front_cloud{
                animation: cloud_small_3 15s ease-in-out infinite;
            }
            #front_cloud-2 {
                animation: front_cloud 9s ease-in-out infinite;
            }
            /* Fluffy */
            #fluffy {
                animation: fluffy 10s infinite ease-in-out;
            }
            /* Keyframes */
            @keyframes balloon_move {
                30% {
                    transform: translate(-5px, 10px) rotate(3deg);
                }
                75% {
                    transform: translate(5px, -1px) rotate(-2deg);
                }
            }
            @keyframes cloud_small {
                50% {transform: translateX(20px); }
            }
            @keyframes cloud_small_2 {
                30% {transform: translate(-5px, 3px); }
                70% {transform: translate(15px, 10px); }
            }
            @keyframes cloud_small_3 {
                30% {transform: translate(-10px, 20px); }
                70% {transform: translate(-5px, 10px); }
            }
            @keyframes front_cloud {
                60% {transform: translate(-5px, -7px); }
            }
            @keyframes fluffy {
                50% {transform: translateY(2px);}
            }

        </style>
        <clipPath id="clip-path" transform="translate(-7.49 -6.4)">
            <rect class="cls-1" width="307.49" height="335.87" />
        </clipPath>
    </defs>
    <g id="Layer_2" data-name="Layer 2">
        <g id="balloon">
            <g id="balloon_with_clouds">
                <g class="cls-2">
                    <g id="cloud_small">
                        <path class="cls-3"
                            d="M212.05,60.76a10.56,10.56,0,0,1,2.53.32v0a6.05,6.05,0,0,1,10.13-4.48A13.64,13.64,0,0,1,245,47.72a14.4,14.4,0,0,1,25,9.8,14.08,14.08,0,0,1-.47,3.64,8.09,8.09,0,0,1,2.47-.4,7.91,7.91,0,0,1,5.54,13.57,5,5,0,0,1,2.38,3.93c0,3.51-4.93,6.35-11,6.35H212.05c-6.08,0-11-5.34-11-11.93S206,60.76,212.05,60.76Z"
                            transform="translate(-7.49 -6.4)" />
                        <path class="cls-4"
                            d="M277,73.61c3.6-6.33-1.94-13.7-10.1-10.94a.38.38,0,0,1-.49-.42c3.22-21.58-20-22-23.8-4.12a.37.37,0,0,1-.65.18c-.73-.9-.53-3,1.44-7.51a1.07,1.07,0,0,0-.59-1.43c-8.67-3.41-16.11.92-17.37,8.9a.38.38,0,0,1-.61.23c-4.8-4-9-1.89-9.66,3.42a.39.39,0,0,1-.49.32c-4.67-1.32-8.93-.44-9.54.84L203,69.14a.43.43,0,0,0,0,.25l3.5,10.73a.37.37,0,0,0,.37.26l71.07-1.32a.37.37,0,0,0,.36-.48L277,73.89A.35.35,0,0,1,277,73.61Z"
                            transform="translate(-7.49 -6.4)" />
                        <path class="cls-5"
                            d="M206.34,62.05a11.67,11.67,0,0,0-2.3,7.38c0,4.14,3.75,7.5,8.39,7.5a8.48,8.48,0,0,0,7.6-4.35,6.42,6.42,0,0,0,5.19,2.25c3.23,0,5.85-1.86,5.85-4.16a.49.49,0,0,0,0-.12c-4.25-1.44-3.87-3.19-3.64-4.39A11.22,11.22,0,0,0,232.53,69c3.29.83,6.78.81,8.73,0,.17-.07.38,0,.37.2a1.27,1.27,0,0,1-.46.65c-1.28,1.24-3.83,1.94-7.63,1.3a2.44,2.44,0,0,0-.31,1.14c0,2.3,3.58,4.16,8,4.16,3.46,0,6.4-1.15,7.5-2.76.31,2.08,4.14,3.71,8.84,3.71s8.52-1.63,8.84-3.69A5.91,5.91,0,0,0,271.44,76c2.22,0,4.86-.36,5.74-1.71a7.64,7.64,0,0,1,2.52,3.6c0,3.69-6.62,6.68-14.78,6.68H214.69a3.42,3.42,0,0,1-.45,0c-.27,0-.54,0-.82,0a12.12,12.12,0,0,1-12.11-12.12C201.31,68.27,203.07,64.22,206.34,62.05Z"
                            transform="translate(-7.49 -6.4)" />
                        <path class="cls-5"
                            d="M252.36,65.3c-3.94.45-6.89-1.45-6.64-3.37a2,2,0,0,1,.2-.62.25.25,0,0,1,.38-.06c1,1.16,3.43,1.94,6.33,1.89s5.56-.91,6.9-2.13c.12-.11.33-.08.36.05a1.57,1.57,0,0,1,0,.65C259.72,63.35,256.35,64.84,252.36,65.3Z"
                            transform="translate(-7.49 -6.4)" />
                        <path class="cls-6"
                            d="M211.71,60.76a10.48,10.48,0,0,1,2.52.32v0a6.05,6.05,0,0,1,10.13-4.48,13.64,13.64,0,0,1,20.33-8.85,14.4,14.4,0,0,1,24.95,9.8,14.08,14.08,0,0,1-.47,3.64,8.09,8.09,0,0,1,2.47-.4,7.91,7.91,0,0,1,5.54,13.57,5,5,0,0,1,2.38,3.93c0,3.51-4.93,6.35-11,6.35H211.71c-6.09,0-11-5.34-11-11.93S205.62,60.76,211.71,60.76Z"
                            transform="translate(-7.49 -6.4)" />
                    </g>
                    <g id="cloud_small-2" data-name="cloud_small">
                        <path class="cls-3"
                            d="M19.86,113.72a10.14,10.14,0,0,1,2.53.32v0a6.05,6.05,0,0,1,10.13-4.48,13.64,13.64,0,0,1,20.33-8.85,14.4,14.4,0,0,1,25,9.8,14.52,14.52,0,0,1-.46,3.64,7.69,7.69,0,0,1,2.46-.4,7.91,7.91,0,0,1,5.54,13.57,5,5,0,0,1,2.38,3.93c0,3.5-4.93,6.34-11,6.34H19.86c-6.09,0-11-5.33-11-11.92S13.77,113.72,19.86,113.72Z"
                            transform="translate(-7.49 -6.4)" />
                        <path class="cls-4"
                            d="M84.85,126.57c3.59-6.34-1.95-13.7-10.11-10.94a.38.38,0,0,1-.49-.42c3.22-21.58-20-22-23.79-4.12a.38.38,0,0,1-.66.17c-.73-.89-.53-3,1.44-7.5a1.06,1.06,0,0,0-.58-1.43c-8.67-3.41-16.11.91-17.38,8.9a.37.37,0,0,1-.61.22c-4.8-4-9-1.88-9.66,3.43a.37.37,0,0,1-.48.31c-4.68-1.31-8.94-.43-9.54.84l-2.18,6.07a.33.33,0,0,0,0,.24l3.49,10.74a.38.38,0,0,0,.37.26L85.75,132a.38.38,0,0,0,.36-.48l-1.3-4.69A.35.35,0,0,1,84.85,126.57Z"
                            transform="translate(-7.49 -6.4)" />
                        <path class="cls-5"
                            d="M14.14,115a11.66,11.66,0,0,0-2.3,7.37c0,4.15,3.76,7.51,8.39,7.51a8.52,8.52,0,0,0,7.61-4.35A6.44,6.44,0,0,0,33,127.79c3.23,0,5.85-1.87,5.85-4.17,0,0,0-.07,0-.11-4.26-1.45-3.88-3.19-3.64-4.4a11,11,0,0,0,5.1,2.8c3.29.83,6.78.81,8.73,0,.17-.07.39,0,.37.2s-.26.47-.45.65c-1.29,1.24-3.84,1.94-7.63,1.29a2.38,2.38,0,0,0-.31,1.14c0,2.3,3.57,4.17,8,4.17,3.45,0,6.39-1.15,7.5-2.76.3,2.07,4.14,3.71,8.84,3.71s8.52-1.63,8.83-3.7A5.92,5.92,0,0,0,79.25,129c2.21,0,4.85-.36,5.73-1.71a7.52,7.52,0,0,1,2.52,3.6c0,3.68-6.61,6.67-14.78,6.67H22.5a3.19,3.19,0,0,1-.45,0c-.27,0-.55,0-.82,0A12.12,12.12,0,0,1,9.11,125.45C9.11,121.23,10.87,117.18,14.14,115Z"
                            transform="translate(-7.49 -6.4)" />
                        <path class="cls-5"
                            d="M60.17,118.25c-4,.46-6.9-1.44-6.64-3.36a1.8,1.8,0,0,1,.2-.62.25.25,0,0,1,.37-.07c1,1.17,3.43,2,6.33,1.9s5.56-.91,6.9-2.13c.12-.11.33-.08.36,0a1.76,1.76,0,0,1,0,.65C67.52,116.31,64.15,117.79,60.17,118.25Z"
                            transform="translate(-7.49 -6.4)" />
                        <path class="cls-6"
                            d="M19.51,113.72A10.08,10.08,0,0,1,22,114v0a6,6,0,0,1,10.12-4.48,13.64,13.64,0,0,1,20.33-8.85,14.4,14.4,0,0,1,24.95,9.8,14.52,14.52,0,0,1-.46,3.64,7.75,7.75,0,0,1,2.47-.4A7.91,7.91,0,0,1,85,127.29a5,5,0,0,1,2.38,3.93c0,3.5-4.93,6.34-11,6.34H19.51c-6.08,0-11-5.33-11-11.92S13.43,113.72,19.51,113.72Z"
                            transform="translate(-7.49 -6.4)" />
                    </g>
                    <g id="front_cloud">
                        <path class="cls-7"
                            d="M143.81,225.79a15.28,15.28,0,0,0-3.35.38v0c0-4-3.59-7.23-8-7.23a8.46,8.46,0,0,0-5.39,1.88c-1.74-7.36-9-12.88-17.65-12.88a19.41,19.41,0,0,0-9.27,2.31,20,20,0,0,0-14-5.5c-10.53,0-19.06,7.7-19.06,17.21a15.71,15.71,0,0,0,.61,4.35,11.27,11.27,0,0,0-3.26-.48C58.68,225.79,54,230,54,235.25A9,9,0,0,0,57.13,242c-2,1.29-3.14,2.93-3.14,4.7,0,4.19,6.53,7.58,14.58,7.58h75.24a14.25,14.25,0,1,0,0-28.49Z"
                            transform="translate(-7.49 -6.4)" />
                        <path class="cls-8"
                            d="M57.78,241.14c-4.76-7.57,2.57-16.37,13.37-13.07a.49.49,0,0,0,.65-.5c-4.26-25.79,26.53-26.3,31.5-4.93a.52.52,0,0,0,.87.21c1-1.07.7-3.61-1.91-9a1.24,1.24,0,0,1,.78-1.72c11.47-4.07,21.32,1.1,23,10.64a.52.52,0,0,0,.81.27c6.35-4.73,11.86-2.26,12.8,4.09a.49.49,0,0,0,.63.38c6.19-1.57,11.83-.52,12.63,1l2.89,7.25a.48.48,0,0,1,0,.29l-4.63,12.83a.51.51,0,0,1-.49.32l-94.08-1.58a.47.47,0,0,1-.48-.58l1.72-5.6A.45.45,0,0,0,57.78,241.14Z"
                            transform="translate(-7.49 -6.4)" />
                        <path class="cls-9"
                            d="M151.37,227.33a13.11,13.11,0,0,1,3,8.81c0,5-5,9-11.11,9-4.46,0-8.3-2.13-10.07-5.2-1.29,1.6-3.88,2.69-6.87,2.69-4.27,0-7.74-2.23-7.74-5,0,0,0-.09,0-.14,5.64-1.72,5.13-3.81,4.82-5.24a15.07,15.07,0,0,1-6.75,3.33c-4.36,1-9,1-11.56,0-.23-.08-.51.05-.49.24s.35.56.6.78c1.7,1.48,5.07,2.31,10.1,1.54a2.63,2.63,0,0,1,.41,1.36c0,2.75-4.73,5-10.56,5-4.58,0-8.46-1.37-9.93-3.29-.41,2.47-5.48,4.43-11.7,4.43s-11.28-1.95-11.7-4.42c-1.14,1.66-3.7,2.82-6.69,2.82s-6.42-.42-7.59-2a9,9,0,0,0-3.34,4.3c0,4.41,8.76,8,19.57,8h66.48q.3,0,.6,0c.36,0,.72,0,1.09,0,8.85,0,16-6.48,16-14.47A14.34,14.34,0,0,0,151.37,227.33Z"
                            transform="translate(-7.49 -6.4)" />
                        <path class="cls-9"
                            d="M90.45,231.21c5.22.54,9.13-1.73,8.79-4a2.14,2.14,0,0,0-.27-.74.34.34,0,0,0-.49-.07c-1.37,1.39-4.54,2.32-8.39,2.27s-7.36-1.1-9.13-2.56c-.16-.13-.43-.09-.48.06a1.85,1.85,0,0,0,0,.78C80.71,228.89,85.17,230.66,90.45,231.21Z"
                            transform="translate(-7.49 -6.4)" />
                        <path class="cls-10"
                            d="M144.27,225.79a15.42,15.42,0,0,0-3.35.38v0c0-4-3.59-7.23-8-7.23a8.48,8.48,0,0,0-5.39,1.88c-1.74-7.36-9-12.88-17.65-12.88a19.41,19.41,0,0,0-9.27,2.31,20,20,0,0,0-14-5.5c-10.53,0-19.06,7.7-19.06,17.21a15.71,15.71,0,0,0,.61,4.35,11.27,11.27,0,0,0-3.26-.48c-5.79,0-10.48,4.24-10.48,9.46A9,9,0,0,0,57.6,242c-2,1.29-3.15,2.93-3.15,4.7,0,4.19,6.53,7.58,14.58,7.58h75.24a14.25,14.25,0,1,0,0-28.49Z"
                            transform="translate(-7.49 -6.4)" />
                    </g>
                    <g id="balloon-2" data-name="balloon">
                        <polyline class="cls-10" points="129.09 175.02 115.34 137.88 182.44 137.88 168.7 175.02" />
                        <path id="grey_ring_back" class="cls-11"
                            d="M137,182.71a159.74,159.74,0,0,1,19.38-1,159.74,159.74,0,0,1,19.38,1c5-.64,8-1.54,8-2.52,0-2-12.28-3.58-27.42-3.58S129,178.21,129,180.19C129,181.17,132,182.07,137,182.71Z"
                            transform="translate(-7.49 -6.4)" />
                        <g id="letter_with_all">
                            <path class="cls-12" d="M120.94,234.18a136.45,136.45,0,0,1,70.89,0l-35.44,12.33Z"
                                transform="translate(-7.49 -6.4)" />
                            <g id="fluffy">
                                <g id="right_horn">
                                    <path class="cls-13"
                                        d="M141.8,209.12s-7.83,4.7-9-2.83c-.59-4.49,5.37-2.95,4.17.28,0,0,4.41-1.29,3.67-5-1.06-4-6.41-3.42-6.41-3.42s-10.41.49-7.25,11.18c2,5.68,10.65,8.36,11.51,5.62A32.26,32.26,0,0,1,141.8,209.12Z"
                                        transform="translate(-7.49 -6.4)" />
                                    <path class="cls-14"
                                        d="M132.88,206.69s-3.88-1-6,2.26c.88,2.88,3.14,4.88,6.26,6.31-1.46-4.51,1.43-5.44,1.43-5.44a5.22,5.22,0,0,1-1.75-3.14"
                                        transform="translate(-7.49 -6.4)" />
                                    <path class="cls-14"
                                        d="M133.37,204c-1.5-3.57-5.42-3-5.42-3a9.56,9.56,0,0,1,10.44-2.19s.63,3.48-2.17,5.2A2.26,2.26,0,0,0,133.37,204Z"
                                        transform="translate(-7.49 -6.4)" />
                                </g>
                                <g id="right_horn-2" data-name="right_horn">
                                    <path class="cls-13"
                                        d="M168.17,211.84s4.71,1.65,7.45-.93a6.33,6.33,0,0,0,1.77-3.77c.59-4.49-5.37-2.95-4.18.27,0,0-4.4-1.29-3.66-5,1.06-4,6.41-3.42,6.41-3.42s10.41.49,7.25,11.18c-2,5.68-10.39,9.25-11.72,6.7C171.15,216.18,169.05,213.1,168.17,211.84Z"
                                        transform="translate(-7.49 -6.4)" />
                                    <path class="cls-14"
                                        d="M175.62,210.91a5,5,0,0,0,1.7-3.37s3.88-1,6,2.26c-.95,3-3.2,5-6,6.65,1.46-4.51-1.7-5.55-1.7-5.55"
                                        transform="translate(-7.49 -6.4)" />
                                    <path class="cls-14"
                                        d="M176.83,204.85c1.5-3.57,5.42-3,5.42-3a9.61,9.61,0,0,0-10.44-2.19s-.63,3.47,2.17,5.2A2.27,2.27,0,0,1,176.83,204.85Z"
                                        transform="translate(-7.49 -6.4)" />
                                </g>
                                <path id="body" class="cls-15"
                                    d="M133.78,237.41l2.33-5.6-2.83,1.6s2.09-10.81,5.72-14.8L136.33,220s3.22-8.41,5.46-11a10.41,10.41,0,0,0-2.55,0,18.26,18.26,0,0,1,10.17-7.89c-2.92-4.2-3.78-4.41-3.78-4.41s6,.64,7.16,1.73c.81-1.3,4.45-2.95,6.27-2.44a13.4,13.4,0,0,0-1.28,3.72s6.74,1.57,10.14,5.15a5.78,5.78,0,0,0-3.51.16s2.78.69,6,6.11a9,9,0,0,0-2.91-.22s8.12,11.15,10.67,19.81c-2.42-2.21-2.71-2.17-2.71-2.17s3.74,6.53,3.74,7.72C169.42,250.3,147.32,254.11,133.78,237.41Z"
                                    transform="translate(-7.49 -6.4)" />
                                <path class="cls-16"
                                    d="M148.93,226.89s1.54,4.94,2.86,4.94,2-4.84,2-4.84-1.93.77-2.63,1l.28-2.09C150.74,226.17,149.41,226.66,148.93,226.89Z"
                                    transform="translate(-7.49 -6.4)" />
                                <path class="cls-16"
                                    d="M163.55,226.73s-1.59,5.1-2.92,5.1-1.84-5-1.84-5l2.8,1c-.1-.33-.59-1.62-.64-1.94Z"
                                    transform="translate(-7.49 -6.4)" />
                                <path class="cls-17" d="M145.93,215.18a4.28,4.28,0,0,1,5.9-.16"
                                    transform="translate(-7.49 -6.4)" />
                                <path class="cls-17" d="M159.39,215.18a4.28,4.28,0,0,1,5.9-.16"
                                    transform="translate(-7.49 -6.4)" />
                                <path id="mustache_line" class="cls-15"
                                    d="M144.84,223.73l-1.68,2.67,2.38-.18.86,2.43,4.95-1.91-.28,2.09a35.62,35.62,0,0,0,4.89-2.12l5.59,1.94-.65-1.94,5,1.6-.18-2.15,3.19.31a5.73,5.73,0,0,0-1.14-2.18"
                                    transform="translate(-7.49 -6.4)" />
                                <path id="eye2"
                                    d="M162.34,215.41a3,3,0,1,0,3,3A3,3,0,0,0,162.34,215.41Zm-1.35,3a.94.94,0,1,1,.94-.93A.93.93,0,0,1,161,218.41Z"
                                    transform="translate(-7.49 -6.4)" />
                                <path id="eye1"
                                    d="M148.88,215.39a3,3,0,1,0,3,3A3,3,0,0,0,148.88,215.39Zm-1.34,3a.94.94,0,1,1,.94-.94A.94.94,0,0,1,147.54,218.39Z"
                                    transform="translate(-7.49 -6.4)" />
                                <path id="eye2-2" data-name="eye2"
                                    d="M148.88,221.45a3,3,0,1,0-3-3A3,3,0,0,0,148.88,221.45Zm1.35-3a.94.94,0,1,1-.94.94A.94.94,0,0,1,150.23,218.44Z"
                                    transform="translate(-7.49 -6.4)" />
                                <path id="eye1-2" data-name="eye1"
                                    d="M162.34,221.47a3,3,0,1,0-3-3A3,3,0,0,0,162.34,221.47Zm1.34-3a.94.94,0,1,1-.93.94A.94.94,0,0,1,163.68,218.46Z"
                                    transform="translate(-7.49 -6.4)" />
                                <circle class="cls-18" cx="140.05" cy="211.07" r="0.94" />
                                <circle class="cls-18" cx="153.5" cy="211.07" r="0.94" />
                                <path class="cls-19"
                                    d="M139.15,201.08a7,7,0,0,0-5.73-1.65,6.76,6.76,0,0,0-5.08,4.94c-.86,3.49,1.62,7.8,6.33,9.56"
                                    transform="translate(-7.49 -6.4)" />
                                <path class="cls-19"
                                    d="M172.32,204.44a4.4,4.4,0,0,1,3.36-1.58,4.29,4.29,0,0,1,3.56,2.37c1.07,2.21-.3,5.77-3.82,8.18"
                                    transform="translate(-7.49 -6.4)" />
                                <path class="cls-20"
                                    d="M156.24,197.71a4.16,4.16,0,0,0-3,2.58c-.6-1-2.18-1.68-4.38-2.2,1.31,1.22,2.22,2.48,2.28,3.82a20.72,20.72,0,0,0-9.36,5.47,3.74,3.74,0,0,1,2.5.42,28.83,28.83,0,0,0-5.15,9.68"
                                    transform="translate(-7.49 -6.4)" />
                            </g>
                            <g id="letter_strings">
                                <line id="string" class="cls-10" x1="122.72" y1="178.99" x2="115.34" y2="227.78" />
                                <line id="string-2" data-name="string" class="cls-10" x1="174.91" y1="179.24"
                                    x2="182.34" y2="227.78" />
                            </g>
                            <path id="letter" class="cls-21"
                                d="M191.83,282.22a122.61,122.61,0,0,1-70.89,0v-48a156,156,0,0,0,70.89,0Z"
                                transform="translate(-7.49 -6.4)" />
                            <path id="letter_shadow" class="cls-22"
                                d="M191.83,269.65c-11.32,11-36.68,13.49-66.43,13.8,20.29,6.26,44.39,5.05,66.43-1.23Z"
                                transform="translate(-7.49 -6.4)" />
                            <path id="letter_outline" class="cls-10"
                                d="M191.83,282.22a122.61,122.61,0,0,1-70.89,0v-48a156,156,0,0,0,70.89,0Z"
                                transform="translate(-7.49 -6.4)" />
                            <path class="cls-23"
                                d="M136.72,240.66v-.26h0v-.27a.6.6,0,0,1-.53-.59h0l-.27,0h0l-.26-.05a.43.43,0,0,1-.54.43.68.68,0,0,1-.53-.63,4.81,4.81,0,0,0-.53-.07.51.51,0,0,1-.53.51.58.58,0,0,1-.54-.58,4.85,4.85,0,0,1-.53-.08.42.42,0,0,1-.53.42.68.68,0,0,1-.54-.64l-.53-.08a.5.5,0,0,1-.53.5.56.56,0,0,1-.53-.57l-.54-.09a.41.41,0,0,1-.53.41.72.72,0,0,1-.53-.66l-.53-.11a.49.49,0,0,1-.54.49.59.59,0,0,1-.53-.58,3.37,3.37,0,0,1-.53-.12.37.37,0,0,1-.54.34.85.85,0,0,1-.53-.73l-.26-.09-.27-.08a.44.44,0,0,1-.53.43h0v.53a.66.66,0,0,1,.53.64.44.44,0,0,1-.53.43V240a.66.66,0,0,1,.53.64.44.44,0,0,1-.53.43v.53a.66.66,0,0,1,.53.64.44.44,0,0,1-.53.43v.54a.65.65,0,0,1,.53.63.44.44,0,0,1-.53.43v.54a.65.65,0,0,1,.53.63.44.44,0,0,1-.53.43v.54a.65.65,0,0,1,.53.63.43.43,0,0,1-.53.43V248a.66.66,0,0,1,.53.64.44.44,0,0,1-.53.43v.53a.66.66,0,0,1,.53.64.44.44,0,0,1-.53.43v.53a.66.66,0,0,1,.53.64.44.44,0,0,1-.53.43v.53a.66.66,0,0,1,.53.64h0l.27.08.26.09a.36.36,0,0,1,.53-.33.83.83,0,0,1,.54.72,3.37,3.37,0,0,0,.53.12.49.49,0,0,1,.53-.49.59.59,0,0,1,.54.58l.53.11a.41.41,0,0,1,.53-.41.7.7,0,0,1,.53.66l.54.09a.5.5,0,0,1,.53-.49.56.56,0,0,1,.53.56l.53.08a.43.43,0,0,1,.54-.43.69.69,0,0,1,.53.65l.53.08a.5.5,0,0,1,.54-.49.56.56,0,0,1,.53.56,4.81,4.81,0,0,1,.53.07.43.43,0,0,1,.53-.44.69.69,0,0,1,.54.64l.26,0,.27,0a.49.49,0,0,1,.53-.48h0v-.26h0v-.27a.6.6,0,0,1-.53-.59.49.49,0,0,1,.53-.48v-.53a.6.6,0,0,1-.53-.59.48.48,0,0,1,.53-.48v-.53a.6.6,0,0,1-.53-.59.48.48,0,0,1,.53-.48v-.53a.6.6,0,0,1-.53-.59.48.48,0,0,1,.53-.48v-.54a.59.59,0,0,1-.53-.58.48.48,0,0,1,.53-.48v-.54a.59.59,0,0,1-.53-.58.48.48,0,0,1,.53-.48v-.54a.59.59,0,0,1-.53-.59.47.47,0,0,1,.53-.47v-.27h0v-.27a.59.59,0,0,1-.53-.59.49.49,0,0,1,.53-.48v-.53a.6.6,0,0,1-.53-.59A.49.49,0,0,1,136.72,240.66Z"
                                transform="translate(-7.49 -6.4)" />
                            <path class="cls-24"
                                d="M133.86,244a2.34,2.34,0,0,1-2-2.32,1.66,1.66,0,0,1,.55-1.27c-2.8-.55-4.2-.2-7-1.26v13.27c4,1.5,5.95.83,9.91,1.63V243.6A2.16,2.16,0,0,1,133.86,244Zm-7.62,3.2a14,14,0,0,0,.94-1c-.25,0-.37,0-.62,0,.33-.35.5-.59.83-1l-.56,0c.3-.34.44-.54.74-.87.3.41.44.63.74,1.06l-.56-.11c.33.47.5.72.83,1.21l-.62-.14c.34.48.5.73.84,1.23l-.11.1-.58-.14.29.43-.18.19.37.09c.08.12.12.19.21.31-.2.19-.29.29-.48.48a20.69,20.69,0,0,1-2.46-.41,9.29,9.29,0,0,0,1.17-1.23A2.74,2.74,0,0,1,126.24,247.17Zm1.8,2.17c.46-.48.7-.7,1.17-1.18l-.79-.18c.37-.38.56-.56.93-.95l-.62-.14c.34-.33.5-.49.83-.85l-.56-.11c.3-.3.45-.45.74-.78.3.41.45.59.74,1a5.4,5.4,0,0,1-.56,0c.33.45.5.63.83,1.08-.24,0-.37,0-.61,0,.37.49.56.71.93,1.23a4.21,4.21,0,0,0-.79-.06c.47.59.7.91,1.17,1.57C130.08,249.63,129.4,249.63,128,249.34Zm3.78-1,.85-.88-.57-.12.67-.71-.44-.08.6-.64-.41-.07c.22-.23.33-.34.54-.58.21.29.32.43.54.7l-.41,0c.24.32.36.46.6.77h-.44l.67.87c-.23,0-.34,0-.57,0,.34.44.51.64.85,1.1A23.33,23.33,0,0,1,131.82,248.37Z"
                                transform="translate(-7.49 -6.4)" />
                            <path class="cls-18"
                                d="M126.91,240.39c0,.07,0,.11-.08.17a3,3,0,0,1-.42-.06,1.29,1.29,0,0,1-.09.16,1.11,1.11,0,0,1,.43.28.48.48,0,0,1,.13.33.42.42,0,0,1,0,.2.58.58,0,0,1-.11.15.55.55,0,0,1-.15.08.39.39,0,0,1-.24,0,.38.38,0,0,1-.18-.09.17.17,0,0,1-.06-.11.05.05,0,0,1,0,0s0,0,.06,0l0,0,.07.06a.3.3,0,0,0,.15.09.26.26,0,0,0,.21,0,.29.29,0,0,0,.09-.21.46.46,0,0,0-.08-.24.64.64,0,0,0-.22-.21,1.07,1.07,0,0,0-.3-.13c.11-.18.16-.27.26-.46A2.14,2.14,0,0,0,126.91,240.39Z"
                                transform="translate(-7.49 -6.4)" />
                            <path class="cls-18"
                                d="M127.3,241.59a.09.09,0,0,1,.08,0,.11.11,0,0,1,0,.08.08.08,0,0,1,0,.07.11.11,0,0,1-.08,0,.09.09,0,0,1-.08,0,.12.12,0,0,1,0-.16A.08.08,0,0,1,127.3,241.59Z"
                                transform="translate(-7.49 -6.4)" />
                            <path class="cls-18"
                                d="M127.63,241.14a.9.9,0,0,1,.08-.39.37.37,0,0,1,.18-.22.32.32,0,0,1,.19,0,.44.44,0,0,1,.28.23,1,1,0,0,1,.16.58.86.86,0,0,1-.07.38.37.37,0,0,1-.17.21.39.39,0,0,1-.21,0,.53.53,0,0,1-.33-.3A1.07,1.07,0,0,1,127.63,241.14Zm.2.06a1.62,1.62,0,0,0,.07.48c0,.1.1.17.17.18a.17.17,0,0,0,.12,0,.24.24,0,0,0,.09-.15,2,2,0,0,0,0-.48,1.22,1.22,0,0,0,0-.4.42.42,0,0,0-.09-.19.19.19,0,0,0-.1-.05.12.12,0,0,0-.12,0,.45.45,0,0,0-.1.25A2.07,2.07,0,0,0,127.83,241.2Z"
                                transform="translate(-7.49 -6.4)" />
                            <path class="cls-18"
                                d="M128.67,241.36a.94.94,0,0,1,.07-.39.37.37,0,0,1,.19-.2.25.25,0,0,1,.19,0,.44.44,0,0,1,.28.22,1,1,0,0,1,.16.57,1,1,0,0,1-.07.39.48.48,0,0,1-.18.21.36.36,0,0,1-.2,0,.52.52,0,0,1-.33-.31A1.15,1.15,0,0,1,128.67,241.36Zm.2.08a1.39,1.39,0,0,0,.07.48c0,.11.09.17.17.19a.15.15,0,0,0,.11,0,.21.21,0,0,0,.09-.14,1.9,1.9,0,0,0,.05-.48,1.58,1.58,0,0,0-.05-.41.5.5,0,0,0-.09-.18.21.21,0,0,0-.1-.06.13.13,0,0,0-.13,0,.45.45,0,0,0-.1.24C128.88,241.2,128.87,241.32,128.87,241.44Z"
                                transform="translate(-7.49 -6.4)" />
                            <path class="cls-18"
                                d="M125.7,252v0h0c.05,0,.09,0,.11,0a.22.22,0,0,0,0-.12v-.76a.28.28,0,0,0,0-.15.2.2,0,0,0-.1-.07l0,0v0a3.86,3.86,0,0,0,.48.16,2.45,2.45,0,0,1,.4.15.69.69,0,0,1,.22.23.73.73,0,0,1,.08.33.55.55,0,0,1-.15.4.5.5,0,0,1-.51.08A5.25,5.25,0,0,1,125.7,252Zm.33,0,.19.08a.33.33,0,0,0,.33-.07.44.44,0,0,0,.13-.36.63.63,0,0,0-.13-.41.64.64,0,0,0-.34-.21.48.48,0,0,0-.18,0Z"
                                transform="translate(-7.49 -6.4)" />
                            <path class="cls-18"
                                d="M127.76,251.94a2.32,2.32,0,0,0-.45-.06,1.42,1.42,0,0,0-.08.18.26.26,0,0,0,0,.1s0,0,0,.05l.11,0v0H127v0a.19.19,0,0,0,.1,0,.49.49,0,0,0,.1-.16c.16-.38.24-.57.41-.93h0c.16.42.25.63.41,1.05a.36.36,0,0,0,.09.17.21.21,0,0,0,.11.07v0l-.46-.09v0h.09a.05.05,0,0,0,0,0,.31.31,0,0,0,0-.12Zm0-.07-.2-.51c-.08.18-.13.27-.21.46A2.87,2.87,0,0,1,127.74,251.87Z"
                                transform="translate(-7.49 -6.4)" />
                            <path class="cls-18"
                                d="M128.21,251.24l.32.08c.28.42.43.64.72,1.05v-.68a.22.22,0,0,0,0-.14.14.14,0,0,0-.1-.06h0v0l.41.09v0h0a.12.12,0,0,0-.11,0,.31.31,0,0,0,0,.13v1h0c-.31-.44-.46-.67-.77-1.13v.73c0,.07,0,.12,0,.14a.17.17,0,0,0,.1.06h0v0l-.41-.09v0h0c.05,0,.09,0,.11,0a.22.22,0,0,0,0-.12v-.82a.49.49,0,0,0-.08-.1l-.08,0-.07,0Z"
                                transform="translate(-7.49 -6.4)" />
                            <path class="cls-18"
                                d="M130.24,252.8c-.18-.4-.27-.61-.45-1v.79c0,.07,0,.12,0,.14a.13.13,0,0,0,.1,0h0v0l-.41-.06v0h0a.1.1,0,0,0,.11,0,.29.29,0,0,0,0-.12v-.77a.37.37,0,0,0,0-.12l0,0-.11,0v0l.34,0c.17.39.25.58.42.95.17-.36.25-.55.42-.9l.34,0v0H131s-.08,0-.1,0,0,.06,0,.12v.77a.37.37,0,0,0,0,.14.16.16,0,0,0,.1,0h.05v0a4.23,4.23,0,0,0-.5-.05v0h0a.11.11,0,0,0,.1,0s0-.06,0-.13v-.78l-.45,1Z"
                                transform="translate(-7.49 -6.4)" />
                            <path class="cls-18"
                                d="M131.9,252.62l-.45-.09-.08.17a.22.22,0,0,0,0,.1.09.09,0,0,0,0,0s0,0,.11.05v0l-.37-.07v0a.14.14,0,0,0,.09,0,.42.42,0,0,0,.1-.15c.16-.36.25-.54.41-.89h0c.17.43.25.64.41,1.07l.09.17a.24.24,0,0,0,.11.06v0l-.46-.1v0h.1a.05.05,0,0,0,0,0,.45.45,0,0,0,0-.13Zm0-.07-.2-.52-.2.44Z"
                                transform="translate(-7.49 -6.4)" />
                            <path class="cls-18"
                                d="M133.57,253.26l-.31,0-.4-.6h-.12V253a.37.37,0,0,0,0,.14.14.14,0,0,0,.1,0h0v0l-.51-.09v0h0a.11.11,0,0,0,.11,0s0-.05,0-.12v-.76c0-.08,0-.12,0-.14a.17.17,0,0,0-.1-.06h0v0l.43.07a1,1,0,0,1,.28.07.33.33,0,0,1,.15.11.32.32,0,0,1,.06.18.25.25,0,0,1-.07.19.41.41,0,0,1-.22.09l.25.36a.46.46,0,0,0,.14.16.34.34,0,0,0,.15.06Zm-.83-.69h0a.32.32,0,0,0,.25,0,.2.2,0,0,0,.09-.17.29.29,0,0,0-.07-.19.31.31,0,0,0-.18-.09h-.14Z"
                                transform="translate(-7.49 -6.4)" />
                            <path class="cls-18"
                                d="M134.09,252.63l.43.49a1.23,1.23,0,0,0,.19.17.51.51,0,0,0,.15.07v0l-.56-.09v0a.08.08,0,0,0,.07,0s0,0,0,0a.06.06,0,0,0,0,0l0-.07c-.16-.18-.24-.27-.41-.44v.38c0,.06,0,.1,0,.12s0,0,0,0l.08,0h0v0a4.18,4.18,0,0,0-.5,0v0h0a.18.18,0,0,0,.11,0,.37.37,0,0,0,0-.14v-.76c0-.06,0-.1,0-.12l0,0a.11.11,0,0,0-.08,0h0v0l.5,0v0h0a.12.12,0,0,0-.08,0s0,0,0,0a.8.8,0,0,0,0,.11v.36l.12-.1a2.69,2.69,0,0,0,.31-.28.09.09,0,0,0,0-.06l0,0a.08.08,0,0,0-.06,0h0v0l.43.07v0h-.07l-.07,0-.11.07a1.18,1.18,0,0,0-.18.16Z"
                                transform="translate(-7.49 -6.4)" />
                            <path
                                d="M139.93,261.76v1.12l-.39-.05a2.09,2.09,0,0,0-.12-.33,2,2,0,0,0-.12-.25,1.29,1.29,0,0,0-.15-.17.57.57,0,0,0-.19-.1.91.91,0,0,0-.26-.06l-1.23-.18v1.93l.83.13a.46.46,0,0,0,.27,0,.26.26,0,0,0,.16-.13,1.07,1.07,0,0,0,.13-.33l.36.05v1.43l-.36-.06a2,2,0,0,0-.12-.35.57.57,0,0,0-.16-.18.49.49,0,0,0-.28-.09l-.83-.14v2.13l1.21.2a1.9,1.9,0,0,0,.31,0,.4.4,0,0,0,.2-.08.57.57,0,0,0,.16-.18,1.63,1.63,0,0,0,.11-.23l.12-.37.38.06c0,.43-.05.86-.07,1.29-1.2-.18-2.4-.37-3.59-.59v-.18a.69.69,0,0,0,.32-.07.27.27,0,0,0,.1-.19,1.9,1.9,0,0,0,0-.4v-3.18a3,3,0,0,0,0-.37.52.52,0,0,0-.06-.2l-.12-.12-.25-.12v-.18C137.5,261.42,138.71,261.6,139.93,261.76Z"
                                transform="translate(-7.49 -6.4)" />
                            <path
                                d="M142.42,265l.51-.56a.92.92,0,0,0,.13-.19.32.32,0,0,0,.05-.19.24.24,0,0,0-.06-.15.51.51,0,0,0-.21-.1v-.19l1.28.14V264a1,1,0,0,0-.3.13,2.24,2.24,0,0,0-.38.35l-.81.86.89,1.26a3.34,3.34,0,0,0,.34.41,1.12,1.12,0,0,0,.31.22v.19l-1.57-.18V267c.22,0,.32-.06.32-.19a.77.77,0,0,0,0-.15.85.85,0,0,0-.1-.18l-.57-.83-.6.68a.91.91,0,0,0-.1.13.28.28,0,0,0,0,.15.29.29,0,0,0,.07.18.45.45,0,0,0,.23.11v.18l-1.3-.17v-.19a.57.57,0,0,0,.23-.08.85.85,0,0,0,.21-.14,3.21,3.21,0,0,0,.28-.27l.81-.86-.83-1.2a4.13,4.13,0,0,0-.27-.36,1.37,1.37,0,0,0-.19-.17.42.42,0,0,0-.17-.1v-.18l1.53.19v.18c-.21,0-.31.07-.31.2a.38.38,0,0,0,0,.17c0,.06.08.13.13.21C142.11,264.55,142.27,264.78,142.42,265Z"
                                transform="translate(-7.49 -6.4)" />
                            <path
                                d="M145.7,267.42v.8a3.66,3.66,0,0,0,0,.37.52.52,0,0,0,.07.2.46.46,0,0,0,.12.12.85.85,0,0,0,.28.11v.19l-1.6-.17v-.18l.23-.05a.3.3,0,0,0,.14-.11.43.43,0,0,0,.06-.2,3.44,3.44,0,0,0,0-.35v-3.62a.78.78,0,0,0,0-.19.26.26,0,0,0-.06-.13.34.34,0,0,0-.13-.1l-.25-.09v-.2l.92.05.24,0c0,.21,0,.41,0,.61l.06,0c.16-.15.29-.25.38-.32a1.59,1.59,0,0,1,.29-.15,1.15,1.15,0,0,1,.29-.08,1.45,1.45,0,0,1,.3,0,1.25,1.25,0,0,1,1,.54,3,3,0,0,1,.15,2.44,1.23,1.23,0,0,1-.57.6,1.69,1.69,0,0,1-.89.14,2.53,2.53,0,0,1-.52-.1A1.84,1.84,0,0,1,145.7,267.42Zm0-1.24a2.73,2.73,0,0,0,0,.56.73.73,0,0,0,.17.34,1,1,0,0,0,.28.21,1.2,1.2,0,0,0,.43.09.7.7,0,0,0,.71-.32,2,2,0,0,0,.24-1.1q0-1.48-.9-1.56a.86.86,0,0,0-.37,0,1,1,0,0,0-.32.18.87.87,0,0,0-.22.27.72.72,0,0,0-.06.29Z"
                                transform="translate(-7.49 -6.4)" />
                            <path
                                d="M150.15,264.87h0a3.35,3.35,0,0,1,.4-.38,1.44,1.44,0,0,1,.4-.22,1.75,1.75,0,0,1,.48-.06l.42,0v.89l-.45,0a.87.87,0,0,0-.2-.31.43.43,0,0,0-.29-.11.61.61,0,0,0-.28.07,1,1,0,0,0-.27.22,1,1,0,0,0-.17.28.75.75,0,0,0-.05.31v1.34a1.79,1.79,0,0,0,0,.48.46.46,0,0,0,.14.21,1.12,1.12,0,0,0,.3.11v.19l-1.58-.1v-.19l.22-.06a.31.31,0,0,0,.11-.09.5.5,0,0,0,.07-.19,3.25,3.25,0,0,0,0-.39v-2a.83.83,0,0,0-.06-.25.38.38,0,0,0-.14-.14l-.27-.09v-.2l.91,0h.24C150.18,264.42,150.16,264.64,150.15,264.87Z"
                                transform="translate(-7.49 -6.4)" />
                            <path
                                d="M155.42,267.42a2.61,2.61,0,0,1-.46.4,1.5,1.5,0,0,1-.46.22,1.6,1.6,0,0,1-.55.07,1.56,1.56,0,0,1-1.22-.51,2.18,2.18,0,0,1-.41-1.42,2.31,2.31,0,0,1,.21-1,1.6,1.6,0,0,1,.6-.66,1.73,1.73,0,0,1,.89-.22,1.62,1.62,0,0,1,.67.14,1,1,0,0,1,.45.34,1.6,1.6,0,0,1,.26.54,3.33,3.33,0,0,1,.1.86c-.82,0-1.64,0-2.47-.05v.07a2.46,2.46,0,0,0,.11.77,1,1,0,0,0,.34.5,1.06,1.06,0,0,0,.62.19,1.32,1.32,0,0,0,.57-.11,1.57,1.57,0,0,0,.52-.37Zm-.65-1.58a3.56,3.56,0,0,0-.11-.69,1,1,0,0,0-.25-.41.65.65,0,0,0-.43-.14.72.72,0,0,0-.64.3,1.68,1.68,0,0,0-.29.9Z"
                                transform="translate(-7.49 -6.4)" />
                            <path
                                d="M158.84,265.2h-.38a1,1,0,0,0-.2-.36.7.7,0,0,0-.27-.19,1.25,1.25,0,0,0-.36,0,.83.83,0,0,0-.5.16.46.46,0,0,0-.19.4.52.52,0,0,0,.07.29.74.74,0,0,0,.24.22,3.68,3.68,0,0,0,.55.26,4.41,4.41,0,0,1,.62.31,1.34,1.34,0,0,1,.34.33.85.85,0,0,1,.12.46,1.18,1.18,0,0,1-.1.52,1,1,0,0,1-.3.35,1.27,1.27,0,0,1-.46.19,3.41,3.41,0,0,1-.58.07,4.48,4.48,0,0,1-.64-.05l-.6-.13v-.82h.38a1,1,0,0,0,.32.52.94.94,0,0,0,.57.16,1.33,1.33,0,0,0,.28,0,.87.87,0,0,0,.24-.1.63.63,0,0,0,.17-.19.65.65,0,0,0,.06-.29.64.64,0,0,0-.08-.33.74.74,0,0,0-.24-.22,4.6,4.6,0,0,0-.58-.28,3.51,3.51,0,0,1-.58-.28,1.53,1.53,0,0,1-.34-.33.84.84,0,0,1-.12-.45,1,1,0,0,1,.17-.56,1.08,1.08,0,0,1,.51-.36,2,2,0,0,1,.77-.13,4.13,4.13,0,0,1,.5,0c.16,0,.37,0,.61.09Z"
                                transform="translate(-7.49 -6.4)" />
                            <path
                                d="M162.29,265.07l-.38,0a.94.94,0,0,0-.2-.36.59.59,0,0,0-.27-.18,1,1,0,0,0-.36,0,.77.77,0,0,0-.5.17.49.49,0,0,0-.19.41.5.5,0,0,0,.08.29.59.59,0,0,0,.23.21,3.68,3.68,0,0,0,.55.26,3.69,3.69,0,0,1,.62.29,1.05,1.05,0,0,1,.34.32.85.85,0,0,1,.12.46,1.22,1.22,0,0,1-.1.53,1,1,0,0,1-.3.36,1.5,1.5,0,0,1-.46.21,3.25,3.25,0,0,1-.58.08c-.22,0-.43,0-.64,0s-.4-.07-.6-.12v-.82H160a1,1,0,0,0,.32.52,1,1,0,0,0,.57.15l.28,0a.88.88,0,0,0,.24-.11.52.52,0,0,0,.17-.19.67.67,0,0,0,.06-.3.64.64,0,0,0-.08-.33.74.74,0,0,0-.24-.22,5.39,5.39,0,0,0-.58-.26,3.07,3.07,0,0,1-.57-.27,1.05,1.05,0,0,1-.34-.32.77.77,0,0,1-.13-.45.92.92,0,0,1,.18-.57,1.09,1.09,0,0,1,.5-.38,2.5,2.5,0,0,1,.77-.16h.5a6,6,0,0,1,.61.07Z"
                                transform="translate(-7.49 -6.4)" />
                            <path
                                d="M165,267.84v-.2a.84.84,0,0,0,.32-.16.41.41,0,0,0,.11-.23,1.83,1.83,0,0,0,0-.44v-3.44a1.45,1.45,0,0,0,0-.4.38.38,0,0,0-.06-.19.23.23,0,0,0-.12-.1,1,1,0,0,0-.25-.08v-.19l2.14-.19a3.16,3.16,0,0,1,1,0,1,1,0,0,1,.56.34,1.13,1.13,0,0,1,.18.67,1.35,1.35,0,0,1-.13.62,1.32,1.32,0,0,1-.34.46,2.67,2.67,0,0,1-.54.37v0a1.37,1.37,0,0,1,.8.42,1.14,1.14,0,0,1,.28.79,1.66,1.66,0,0,1-.24.92,1.51,1.51,0,0,1-.66.56,3.31,3.31,0,0,1-1,.25Zm1.87-3.15a1.39,1.39,0,0,0,.91-.38,1.23,1.23,0,0,0,.32-.89A1,1,0,0,0,168,263a.67.67,0,0,0-.24-.26.85.85,0,0,0-.37-.12,1.77,1.77,0,0,0-.46,0l-.39,0-.36.05v2.07Zm-.68,2.68a4.8,4.8,0,0,0,.64,0,1.93,1.93,0,0,0,.79-.2.9.9,0,0,0,.41-.43,1.47,1.47,0,0,0,.13-.66,1.18,1.18,0,0,0-.14-.63.7.7,0,0,0-.43-.33,2,2,0,0,0-.8-.05l-.6.05Z"
                                transform="translate(-7.49 -6.4)" />
                            <path
                                d="M170.84,264.12h0a4.58,4.58,0,0,1,.4-.48,1.85,1.85,0,0,1,.4-.29,1.69,1.69,0,0,1,.48-.15l.41,0v.93l-.44.06a.9.9,0,0,0-.2-.29.34.34,0,0,0-.29-.06.61.61,0,0,0-.28.12,1.45,1.45,0,0,0-.27.28,1.3,1.3,0,0,0-.17.33,1.11,1.11,0,0,0-.05.34v1.41a1.87,1.87,0,0,0,0,.5.32.32,0,0,0,.14.19.73.73,0,0,0,.3.07v.19c-.52.07-1.05.13-1.57.18v-.19l.21-.11a.57.57,0,0,0,.11-.11.73.73,0,0,0,.07-.21,3.35,3.35,0,0,0,0-.42v-1.76c0-.17,0-.31,0-.41a.7.7,0,0,0-.06-.25.24.24,0,0,0-.14-.12,1.19,1.19,0,0,0-.27,0v-.21l.91-.15.24,0C170.87,263.64,170.85,263.88,170.84,264.12Z"
                                transform="translate(-7.49 -6.4)" />
                            <path
                                d="M176.09,265.89a4.76,4.76,0,0,1-.46.5,2.06,2.06,0,0,1-.46.31,1.61,1.61,0,0,1-.55.17,1.28,1.28,0,0,1-1.21-.33,2.06,2.06,0,0,1-.41-1.42,2.77,2.77,0,0,1,.21-1.1,2,2,0,0,1,.59-.8,1.83,1.83,0,0,1,.89-.39,1.46,1.46,0,0,1,.67,0,.91.91,0,0,1,.44.28,1.32,1.32,0,0,1,.26.53,3.47,3.47,0,0,1,.1.89c-.81.14-1.63.26-2.45.38V265a2.53,2.53,0,0,0,.1.79.86.86,0,0,0,.34.46.89.89,0,0,0,.62.1,1.56,1.56,0,0,0,.57-.21,2.31,2.31,0,0,0,.51-.49Zm-.66-1.56a2.91,2.91,0,0,0-.1-.7.76.76,0,0,0-.25-.39.55.55,0,0,0-.43-.08.9.9,0,0,0-.64.43,2.12,2.12,0,0,0-.28,1Z"
                                transform="translate(-7.49 -6.4)" />
                            <path
                                d="M178.07,262.31v.2a.87.87,0,0,0-.25.14.34.34,0,0,0-.12.12.5.5,0,0,0,0,.19,2,2,0,0,0,0,.23l.08.26c.23.65.45,1.31.68,2,.26-.71.53-1.43.79-2.15a3.25,3.25,0,0,0,.11-.35,1.12,1.12,0,0,0,0-.24.3.3,0,0,0-.09-.25.57.57,0,0,0-.32-.08v-.2l1.45-.3v.21a.57.57,0,0,0-.23.15,1,1,0,0,0-.16.24c-.05.11-.12.26-.2.46l-1.3,3.3-.46.09-1-2.89c-.08-.19-.14-.33-.18-.4a.41.41,0,0,0-.14-.15.42.42,0,0,0-.22-.05v-.2Z"
                                transform="translate(-7.49 -6.4)" />
                            <path
                                d="M138.91,275.78v-.18a1,1,0,0,0,.29,0,.23.23,0,0,0,.15-.1.35.35,0,0,0,0-.2,1.49,1.49,0,0,0,0-.28c0-.1-.05-.21-.09-.34s-.09-.34-.14-.51c-.61-.1-1.21-.21-1.81-.33,0,.12-.09.23-.13.34a2.48,2.48,0,0,0-.13.39c0,.09,0,.17,0,.24a.53.53,0,0,0,.12.35.77.77,0,0,0,.37.21v.18l-1.66-.33V275a.47.47,0,0,0,.38-.16,1.8,1.8,0,0,0,.31-.53q.81-1.87,1.62-3.78l.61.1,1.32,4.36a3.32,3.32,0,0,0,.17.47.89.89,0,0,0,.17.27.7.7,0,0,0,.28.17v.19Zm-1.49-2.27,1.63.3c-.25-.84-.5-1.68-.74-2.52Z"
                                transform="translate(-7.49 -6.4)" />
                            <path
                                d="M143.41,276l-.06,0a1.74,1.74,0,0,1-.64.38,1.32,1.32,0,0,1-.63.05,1.26,1.26,0,0,1-.52-.2.93.93,0,0,1-.35-.36,1,1,0,0,1-.12-.48.76.76,0,0,1,.57-.75,4,4,0,0,1,1.68-.1v-.25a2.07,2.07,0,0,0-.07-.62.76.76,0,0,0-.25-.37.92.92,0,0,0-.45-.16.7.7,0,0,0-.49.08.73.73,0,0,0-.27.42l-.51-.08V273a5.69,5.69,0,0,1,.62-.19,4,4,0,0,1,.5-.06,2.1,2.1,0,0,1,.5,0,1.42,1.42,0,0,1,.62.2,1,1,0,0,1,.36.41,2,2,0,0,1,.11.75v1.31a3.89,3.89,0,0,0,0,.39,1.25,1.25,0,0,0,0,.21.38.38,0,0,0,.06.17.38.38,0,0,0,.11.11,1.17,1.17,0,0,0,.25.12v.19l-1.07-.15C143.4,276.33,143.4,276.15,143.41,276Zm-.07-1.19a2.72,2.72,0,0,0-1.18,0,.51.51,0,0,0-.39.52.61.61,0,0,0,.31.56,1.31,1.31,0,0,0,.33.09.86.86,0,0,0,.48-.05.68.68,0,0,0,.33-.27.54.54,0,0,0,.12-.36Z"
                                transform="translate(-7.49 -6.4)" />
                            <path
                                d="M146,273.84h0a3.12,3.12,0,0,1,.45-.35,1.37,1.37,0,0,1,.38-.15,1.17,1.17,0,0,1,.42,0,1.34,1.34,0,0,1,.72.27,1.44,1.44,0,0,1,.46.67,2.85,2.85,0,0,1,.17,1,2.39,2.39,0,0,1-.2,1,1.21,1.21,0,0,1-.57.59,1.6,1.6,0,0,1-.89.12,3.15,3.15,0,0,1-.55-.11,3.19,3.19,0,0,1-.54-.25l-.27.2-.27-.09v-4.61a1.45,1.45,0,0,0,0-.25.34.34,0,0,0-.07-.16.32.32,0,0,0-.12-.11,1.44,1.44,0,0,0-.27-.1v-.19l.94.07.23,0Zm0,1.66a2.77,2.77,0,0,0,0,.46,1.07,1.07,0,0,0,.09.3,1,1,0,0,0,.19.23.71.71,0,0,0,.28.16,1.54,1.54,0,0,0,.34.08.72.72,0,0,0,.71-.3,1.93,1.93,0,0,0,.24-1.09,2.37,2.37,0,0,0-.22-1.15.82.82,0,0,0-.67-.45,1.13,1.13,0,0,0-.38,0,1.07,1.07,0,0,0-.31.17,1,1,0,0,0-.22.25.62.62,0,0,0-.08.31Z"
                                transform="translate(-7.49 -6.4)" />
                            <path
                                d="M151.15,277.42a1.72,1.72,0,0,1-1.25-.57,2.17,2.17,0,0,1-.43-1.42,2.33,2.33,0,0,1,.23-1.05,1.43,1.43,0,0,1,.62-.6,1.82,1.82,0,0,1,.89-.15,1.72,1.72,0,0,1,1.27.56,2.08,2.08,0,0,1,.43,1.4,2.43,2.43,0,0,1-.21,1.07,1.31,1.31,0,0,1-.62.61A1.73,1.73,0,0,1,151.15,277.42Zm-.94-2a2.56,2.56,0,0,0,.26,1.23.88.88,0,0,0,.74.48.64.64,0,0,0,.44-.09.75.75,0,0,0,.3-.31,1.44,1.44,0,0,0,.17-.48,3.68,3.68,0,0,0,0-.58,2.91,2.91,0,0,0-.13-1,1.31,1.31,0,0,0-.34-.57.88.88,0,0,0-.51-.2.72.72,0,0,0-.72.35A2.1,2.1,0,0,0,150.21,275.41Z"
                                transform="translate(-7.49 -6.4)" />
                            <path
                                d="M154.76,274.52l.06,0a3,3,0,0,1,.4-.4,1.56,1.56,0,0,1,.4-.22,1.22,1.22,0,0,1,.48-.06,2.54,2.54,0,0,1,.41,0v.89h-.44a1,1,0,0,0-.2-.31.44.44,0,0,0-.29-.1.47.47,0,0,0-.28.07,1,1,0,0,0-.27.23.82.82,0,0,0-.18.28,1,1,0,0,0,0,.32v1.36a2.34,2.34,0,0,0,0,.48.35.35,0,0,0,.15.2.61.61,0,0,0,.3.11v.19l-1.58-.07v-.19l.21-.07a.31.31,0,0,0,.11-.09.38.38,0,0,0,.07-.19,1.79,1.79,0,0,0,0-.39v-1.69c0-.16,0-.3,0-.4a.43.43,0,0,0-.06-.24.27.27,0,0,0-.14-.14.94.94,0,0,0-.27-.09v-.2h1.16C154.79,274.07,154.78,274.3,154.76,274.52Z"
                                transform="translate(-7.49 -6.4)" />
                            <path
                                d="M160.49,274.35l-.73,0,0,.05a.87.87,0,0,1,.19.33,1.33,1.33,0,0,1,.07.45,1.25,1.25,0,0,1-.39,1,1.65,1.65,0,0,1-1.12.34,1.53,1.53,0,0,1-.56-.09c-.2.15-.3.29-.3.44a.45.45,0,0,0,0,.22.43.43,0,0,0,.19.11,2,2,0,0,0,.4,0l.94,0a1.47,1.47,0,0,1,.68.13.77.77,0,0,1,.38.35,1.12,1.12,0,0,1,.11.5,1.08,1.08,0,0,1-.21.66,1.41,1.41,0,0,1-.62.45,2.4,2.4,0,0,1-.93.14,4,4,0,0,1-.72-.06,1.68,1.68,0,0,1-.56-.17,1,1,0,0,1-.37-.3.85.85,0,0,1-.12-.46A.66.66,0,0,1,157,278a1.33,1.33,0,0,1,.47-.34.66.66,0,0,1-.29-.23.58.58,0,0,1-.11-.34.64.64,0,0,1,.13-.4,1.79,1.79,0,0,1,.44-.42,1.1,1.1,0,0,1-.43-.45,1.47,1.47,0,0,1-.15-.64,1.28,1.28,0,0,1,.12-.58,1,1,0,0,1,.31-.41A1.29,1.29,0,0,1,158,274a2.14,2.14,0,0,1,.58-.08,2.1,2.1,0,0,1,.56.07h1.39Zm-2.62,3.4a1,1,0,0,0-.3.3.8.8,0,0,0-.11.38.57.57,0,0,0,.29.52,1.7,1.7,0,0,0,.85.19,1.82,1.82,0,0,0,.61-.09.81.81,0,0,0,.39-.27.63.63,0,0,0,.13-.41.76.76,0,0,0,0-.21.5.5,0,0,0-.1-.19.51.51,0,0,0-.22-.13,1.18,1.18,0,0,0-.37,0h-.58A4.5,4.5,0,0,1,157.87,277.75Zm-.1-2.61a1.19,1.19,0,0,0,.2.75.69.69,0,0,0,.57.28.75.75,0,0,0,.35-.08.63.63,0,0,0,.22-.21.74.74,0,0,0,.13-.3,1.5,1.5,0,0,0,0-.37,1.35,1.35,0,0,0-.1-.57.73.73,0,0,0-.27-.34.78.78,0,0,0-1,.13A1.11,1.11,0,0,0,157.77,275.14Z"
                                transform="translate(-7.49 -6.4)" />
                            <path
                                d="M163.56,277.51v-.2a1.77,1.77,0,0,0,.95-.28,1.83,1.83,0,0,0,.64-.75,3.57,3.57,0,0,0,.33-1.29h0a2.44,2.44,0,0,1-.65.38,1.93,1.93,0,0,1-.69.14,1.3,1.3,0,0,1-.75-.17,1.11,1.11,0,0,1-.47-.53,2,2,0,0,1-.16-.83,2,2,0,0,1,.12-.68,1.87,1.87,0,0,1,.35-.57,1.76,1.76,0,0,1,.58-.4,2.42,2.42,0,0,1,.81-.18,1.38,1.38,0,0,1,1.25.51,2.61,2.61,0,0,1,.43,1.64,4.29,4.29,0,0,1-.32,1.74,2.77,2.77,0,0,1-.89,1.17,2.74,2.74,0,0,1-1.33.52Zm.81-2.44a1.36,1.36,0,0,0,.29,0,2,2,0,0,0,.26-.09,1.23,1.23,0,0,0,.25-.14,2.31,2.31,0,0,0,.23-.18l.06-.08a.57.57,0,0,0,0-.14,1.65,1.65,0,0,0,0-.27,3.93,3.93,0,0,0-.11-.92,1.06,1.06,0,0,0-.33-.57.79.79,0,0,0-.55-.17,1,1,0,0,0-.49.13.89.89,0,0,0-.34.3,1.12,1.12,0,0,0-.18.43,2.2,2.2,0,0,0-.06.53,1.46,1.46,0,0,0,.24.9A.71.71,0,0,0,164.37,275.07Z"
                                transform="translate(-7.49 -6.4)" />
                            <path
                                d="M169,277.45a1.29,1.29,0,0,1-1.26-.59,4,4,0,0,1-.41-2,5.37,5.37,0,0,1,.13-1.28,3,3,0,0,1,.35-.92,1.73,1.73,0,0,1,.55-.56,1.61,1.61,0,0,1,.7-.23,1.27,1.27,0,0,1,1.28.56,3.78,3.78,0,0,1,.42,2,4.56,4.56,0,0,1-.45,2.21A1.57,1.57,0,0,1,169,277.45Zm-.91-2.81a5.55,5.55,0,0,0,.24,1.91c.16.39.4.58.73.56a.84.84,0,0,0,.7-.64,5.18,5.18,0,0,0,.23-1.81,7.55,7.55,0,0,0-.11-1.49,1.73,1.73,0,0,0-.33-.79.63.63,0,0,0-.51-.21.73.73,0,0,0-.45.21,1.2,1.2,0,0,0-.29.5,3,3,0,0,0-.16.76A10,10,0,0,0,168,274.64Z"
                                transform="translate(-7.49 -6.4)" />
                            <path
                                d="M173.38,277a1.23,1.23,0,0,1-1.26-.55,4,4,0,0,1-.41-2.05,5.54,5.54,0,0,1,.13-1.3,3.13,3.13,0,0,1,.36-.94,1.65,1.65,0,0,1,1.24-.85,1.2,1.2,0,0,1,1.27.53,3.77,3.77,0,0,1,.42,2,4.6,4.6,0,0,1-.45,2.24A1.62,1.62,0,0,1,173.38,277Zm-.91-2.8a6.06,6.06,0,0,0,.24,1.91c.16.4.4.58.73.54s.55-.26.7-.67a5.57,5.57,0,0,0,.23-1.83,7.59,7.59,0,0,0-.12-1.51,1.69,1.69,0,0,0-.32-.79.58.58,0,0,0-.51-.19.8.8,0,0,0-.45.22,1.36,1.36,0,0,0-.29.52,3.82,3.82,0,0,0-.16.78C172.49,273.52,172.47,273.86,172.47,274.24Z"
                                transform="translate(-7.49 -6.4)" />
                            <path
                                d="M177.79,276.47a1.16,1.16,0,0,1-1.25-.52,4,4,0,0,1-.41-2.06,5.78,5.78,0,0,1,.13-1.32,3.49,3.49,0,0,1,.35-1,1.92,1.92,0,0,1,.55-.61,1.62,1.62,0,0,1,.69-.29,1.18,1.18,0,0,1,1.27.48,3.8,3.8,0,0,1,.41,2,4.83,4.83,0,0,1-.44,2.29A1.73,1.73,0,0,1,177.79,276.47Zm-.9-2.81a5.61,5.61,0,0,0,.24,1.93c.15.4.4.57.72.52s.55-.28.7-.7a5.84,5.84,0,0,0,.23-1.87,7.7,7.7,0,0,0-.12-1.52,1.64,1.64,0,0,0-.32-.78.55.55,0,0,0-.51-.18.73.73,0,0,0-.44.25,1.48,1.48,0,0,0-.3.53,3.83,3.83,0,0,0-.15.79C176.91,272.94,176.89,273.28,176.89,273.66Z"
                                transform="translate(-7.49 -6.4)" />
                            <path class="cls-25"
                                d="M187.9,246.88a6.29,6.29,0,0,1-7.82,3.37c-2.84-1.13-4-4.49-3-7.5a5.35,5.35,0,0,1,7.16-3.37C187.36,240.51,189.2,243.88,187.9,246.88Z"
                                transform="translate(-7.49 -6.4)" />
                            <path class="cls-26"
                                d="M185.58,241.67l-.37-.32-.12.05-.09.06a.1.1,0,0,0,0,.09.53.53,0,0,0,.09.11l0,0-.35-.3,0,0a.2.2,0,0,0,.13,0,.69.69,0,0,0,.21-.06l1-.43h0c-.12.44-.18.67-.31,1.11a.92.92,0,0,0,0,.22.2.2,0,0,0,.05.09l0,0-.49-.44,0,0,0,0s.07.06.1.06,0,0,0,0,0,0,0,0l0-.07Zm0-.07c.05-.19.08-.28.13-.46l-.45.18Z"
                                transform="translate(-7.49 -6.4)" />
                            <path class="cls-26"
                                d="M186.14,242.71a.49.49,0,0,1-.29-.18.18.18,0,0,1,0-.14.18.18,0,0,1,.08-.11.26.26,0,0,1,.2,0,1.9,1.9,0,0,1,.41.22l.07,0c.06,0,.09-.06.1-.08a.14.14,0,0,0,0-.06.09.09,0,0,0,0-.07.2.2,0,0,0-.08-.08,0,0,0,0,0-.05,0,.08.08,0,0,0,0,0,.16.16,0,0,1-.05.08h-.09a.17.17,0,0,1-.08-.07.19.19,0,0,1,0-.1.12.12,0,0,1,0-.08.17.17,0,0,1,.14,0,.3.3,0,0,1,.17.08.57.57,0,0,1,.15.16.35.35,0,0,1,.07.2.33.33,0,0,1,0,.15l-.15.11a2.82,2.82,0,0,0-.29.18l-.07,0V243s0,0,.06,0v0a.32.32,0,0,1-.14,0,.34.34,0,0,1-.09-.08.24.24,0,0,1,0-.13A.14.14,0,0,1,186.14,242.71Zm.06,0,.25-.15a.54.54,0,0,0-.22-.08l-.11,0a.1.1,0,0,0,0,.07.08.08,0,0,0,0,.07A.23.23,0,0,0,186.2,242.67Z"
                                transform="translate(-7.49 -6.4)" />
                            <path class="cls-26"
                                d="M187.59,243l-1,.41c-.06,0-.1,0-.11.06a.19.19,0,0,0,0,.1h0l-.2-.46h0a.12.12,0,0,0,.07.07s.06,0,.12,0l.86-.34c.06,0,.09,0,.1-.07a.1.1,0,0,0,0-.09h0Z"
                                transform="translate(-7.49 -6.4)" />
                            <path class="cls-26"
                                d="M187.81,243.67l-.49.1a.29.29,0,0,1,.17.22.28.28,0,0,1,0,.18.34.34,0,0,1-.13.16.63.63,0,0,1-.22.09.61.61,0,0,1-.27,0,.54.54,0,0,1-.22-.13.42.42,0,0,1-.11-.21.28.28,0,0,1,0-.13.27.27,0,0,1,.05-.13l-.13-.13v0l1.13-.22.09,0s0,0,0,0a.11.11,0,0,0,0-.08h0C187.76,243.45,187.78,243.52,187.81,243.67Zm-.57.11-.4.08a.48.48,0,0,0-.15,0,.16.16,0,0,0-.08.06.11.11,0,0,0,0,.1.12.12,0,0,0,0,.08.19.19,0,0,0,.12,0,.92.92,0,0,0,.3,0,.49.49,0,0,0,.27-.11.12.12,0,0,0,0-.11A.29.29,0,0,0,187.24,243.78Z"
                                transform="translate(-7.49 -6.4)" />
                            <path class="cls-26"
                                d="M187.57,245a.36.36,0,0,1-.07.22.34.34,0,0,1-.18.15.53.53,0,0,1-.25,0,.48.48,0,0,1-.32-.11.37.37,0,0,1-.14-.33.39.39,0,0,1,.15-.32.52.52,0,0,1,.34-.09.52.52,0,0,1,.34.12A.38.38,0,0,1,187.57,245Zm-.07,0a.16.16,0,0,0,0-.09.28.28,0,0,0-.15-.05l-.3,0h-.2a.15.15,0,0,0-.11,0,.11.11,0,0,0,0,.08.07.07,0,0,0,0,.07.13.13,0,0,0,.09.05,1.81,1.81,0,0,0,.37,0h.23a.19.19,0,0,0,.09-.05A.14.14,0,0,0,187.5,245Z"
                                transform="translate(-7.49 -6.4)" />
                            <path class="cls-26"
                                d="M187.38,246.05l-.2-.05a.73.73,0,0,1,.14.2.23.23,0,0,1,0,.14.12.12,0,0,1-.06.08.16.16,0,0,1-.1,0,.15.15,0,0,1-.09-.06.11.11,0,0,1,0-.08.16.16,0,0,1,.06-.08l0,0,0,0a.13.13,0,0,0,0-.06.18.18,0,0,0-.07-.08.6.6,0,0,0-.2-.08l-.2-.05-.05,0h-.07l-.05,0a.15.15,0,0,0,0,.07h0c.06-.19.08-.29.13-.48h0s0,.07,0,.09l.13.05.49.12.1,0,0,0,0-.06h0Z"
                                transform="translate(-7.49 -6.4)" />
                            <path class="cls-26"
                                d="M186.91,247.15l-.15.28-.09-.05.08-.16-.1,0a.2.2,0,0,1-.11,0,.23.23,0,0,1-.12-.12.29.29,0,0,1,0-.18.61.61,0,0,1,0-.17l.06-.1a.08.08,0,0,0,0-.08.09.09,0,0,0,0-.06h-.07a.14.14,0,0,0-.06.07l-.08.15a.74.74,0,0,1-.17.24.22.22,0,0,1-.22,0,.2.2,0,0,1-.11-.11.29.29,0,0,1,0-.16.83.83,0,0,1,.09-.28,1,1,0,0,1,.13-.2.35.35,0,0,1,.12-.1h.1a.11.11,0,0,1,.06.07.24.24,0,0,1,0,.14c.08-.06.15-.08.21,0a.24.24,0,0,1,.1.1.53.53,0,0,1,0,.19.4.4,0,0,1,.2-.11.27.27,0,0,1,.33.22.4.4,0,0,1,0,.3A.58.58,0,0,1,186.91,247.15Zm-.8-.65a.36.36,0,0,0,0-.13.08.08,0,0,0,0-.08s-.06,0-.1,0-.09.08-.14.18a.52.52,0,0,0-.07.21c0,.05,0,.09,0,.11h0s.05,0,.08-.05A2.44,2.44,0,0,0,186.11,246.5Zm.86.49a.11.11,0,0,0,0-.11.39.39,0,0,0-.19-.14.33.33,0,0,0-.19-.05q-.08,0-.09.06a.11.11,0,0,0,0,.11.31.31,0,0,0,.16.12.44.44,0,0,0,.23.07A.1.1,0,0,0,187,247Z"
                                transform="translate(-7.49 -6.4)" />
                            <path class="cls-26"
                                d="M179.23,248l.3.33.14-.06a.23.23,0,0,0,.1,0,.16.16,0,0,0,0-.09.3.3,0,0,0-.07-.11l0,0c.11.13.17.19.29.31l0,0a.18.18,0,0,0-.12,0,.85.85,0,0,0-.23.06l-1.11.43h0c.21-.44.31-.67.5-1.11a.63.63,0,0,0,.07-.22.16.16,0,0,0,0-.09l0,0c.18.17.26.26.43.44l0,0h0s-.07-.06-.09-.06,0,0,0,0l0,0s0,0,0,.08Zm0,.08c-.08.19-.12.28-.21.46l.48-.18Z"
                                transform="translate(-7.49 -6.4)" />
                            <path class="cls-26"
                                d="M178.8,247a.4.4,0,0,1,.27.18.17.17,0,0,1,0,.14.31.31,0,0,1-.09.11.3.3,0,0,1-.21,0,2.2,2.2,0,0,1-.38-.22l-.08,0c-.06,0-.1.06-.11.08a.11.11,0,0,0,0,.06.09.09,0,0,0,0,.07.13.13,0,0,0,.08.07h0a.1.1,0,0,0,0-.05.16.16,0,0,1,0-.08.14.14,0,0,1,.09,0,.11.11,0,0,1,.07.06.15.15,0,0,1,0,.11.12.12,0,0,1-.06.08.19.19,0,0,1-.15,0,.34.34,0,0,1-.16-.08.61.61,0,0,1-.12-.16.39.39,0,0,1-.05-.2.3.3,0,0,1,.07-.15.77.77,0,0,1,.16-.11l.31-.18.07,0s0,0,0,0v0a.06.06,0,0,0-.06,0v0l.14,0a.15.15,0,0,1,.08.08.15.15,0,0,1,0,.23Zm-.06,0-.27.16a.8.8,0,0,0,.21.08.18.18,0,0,0,.11,0,.12.12,0,0,0,.06-.06.08.08,0,0,0,0-.08A.21.21,0,0,0,178.74,247Z"
                                transform="translate(-7.49 -6.4)" />
                            <path class="cls-26"
                                d="M177.38,246.7l1.07-.41c.06,0,.1,0,.11-.06a.17.17,0,0,0,0-.1h0l.15.46h0a.09.09,0,0,0-.06-.07s-.06,0-.12,0l-.89.35a.2.2,0,0,0-.11.07.13.13,0,0,0,0,.09h0C177.45,246.92,177.43,246.85,177.38,246.7Z"
                                transform="translate(-7.49 -6.4)" />
                            <path class="cls-26"
                                d="M177.21,246l.5-.1a.31.31,0,0,1-.16-.22.37.37,0,0,1,0-.18.34.34,0,0,1,.13-.16.43.43,0,0,1,.22-.09.66.66,0,0,1,.28,0,.53.53,0,0,1,.21.12.42.42,0,0,1,.11.22.57.57,0,0,1,0,.13.21.21,0,0,1,0,.12l.12.13v0l-1.15.22-.09,0,0,0a.16.16,0,0,0,0,.07h0C177.25,246.25,177.24,246.18,177.21,246Zm.58-.11.4-.08.16,0a.16.16,0,0,0,.08-.06.12.12,0,0,0,0-.1.2.2,0,0,0,0-.08.34.34,0,0,0-.12,0,1.53,1.53,0,0,0-.3,0,.57.57,0,0,0-.28.11.15.15,0,0,0,0,.11A.22.22,0,0,0,177.79,245.92Z"
                                transform="translate(-7.49 -6.4)" />
                            <path class="cls-26"
                                d="M177.49,244.67a.44.44,0,0,1,.07-.22.38.38,0,0,1,.18-.15.51.51,0,0,1,.25,0,.52.52,0,0,1,.32.11.4.4,0,0,1,.15.33.42.42,0,0,1-.16.32.5.5,0,0,1-.34.09.52.52,0,0,1-.34-.12A.41.41,0,0,1,177.49,244.67Zm.07,0a.11.11,0,0,0,0,.08.26.26,0,0,0,.15.06l.31,0h.19a.14.14,0,0,0,.11,0,.12.12,0,0,0,0-.08.19.19,0,0,0,0-.07.13.13,0,0,0-.09,0,2.05,2.05,0,0,0-.38,0h-.23a.19.19,0,0,0-.09,0A.14.14,0,0,0,177.56,244.67Z"
                                transform="translate(-7.49 -6.4)" />
                            <path class="cls-26"
                                d="M177.64,243.64l.21.05a.76.76,0,0,1-.16-.2.23.23,0,0,1,0-.14.08.08,0,0,1,0-.07.11.11,0,0,1,.1,0,.19.19,0,0,1,.09,0,.1.1,0,0,1,0,.09.14.14,0,0,1-.05.08l0,0v0a.13.13,0,0,0,0,.06.2.2,0,0,0,.08.08.6.6,0,0,0,.2.08l.2.05h.06s.06,0,.07,0a.05.05,0,0,0,0,0,.24.24,0,0,0,0-.07h0c0,.19-.07.28-.11.47h0s0-.07,0-.09-.06,0-.14-.06l-.49-.12c-.05,0-.08,0-.1,0h0l0,.06h0C177.6,243.86,177.61,243.79,177.64,243.64Z"
                                transform="translate(-7.49 -6.4)" />
                            <path class="cls-26"
                                d="M178,242.55c0-.11.06-.17.11-.28l.1,0-.07.15.11,0a.23.23,0,0,1,.11,0,.33.33,0,0,1,.14.12.34.34,0,0,1,0,.18.3.3,0,0,1,0,.17l0,.1a.12.12,0,0,0,0,.08s0,.05.06.06h.06a.1.1,0,0,0,.05-.07l.07-.15a.49.49,0,0,1,.15-.24.2.2,0,0,1,.22,0,.25.25,0,0,1,.12.11.29.29,0,0,1,0,.16,1,1,0,0,1-.07.28.68.68,0,0,1-.11.19.3.3,0,0,1-.12.11.17.17,0,0,1-.1,0,.13.13,0,0,1-.06-.07.49.49,0,0,1,0-.14c-.07.06-.14.08-.2,0a.21.21,0,0,1-.11-.1.56.56,0,0,1,0-.2.37.37,0,0,1-.19.12.32.32,0,0,1-.19,0,.29.29,0,0,1-.17-.19.39.39,0,0,1,0-.3A.48.48,0,0,1,178,242.55Zm-.05.16a.12.12,0,0,0,0,.11.44.44,0,0,0,.2.14.38.38,0,0,0,.2,0,.1.1,0,0,0,.08-.06.11.11,0,0,0,0-.11.43.43,0,0,0-.17-.13.45.45,0,0,0-.24-.06A.12.12,0,0,0,178,242.71Zm.91.49c0,.06,0,.1,0,.13a.08.08,0,0,0,.05.08s.06,0,.1,0a.41.41,0,0,0,.13-.18.63.63,0,0,0,.05-.21.14.14,0,0,0-.07-.11h0a.19.19,0,0,0-.07.06A2,2,0,0,0,178.88,243.2Z"
                                transform="translate(-7.49 -6.4)" />
                            <path class="cls-27"
                                d="M185.68,246a3.56,3.56,0,0,1-4.49,2,3.46,3.46,0,0,1-1.86-4.39,3.23,3.23,0,0,1,4.27-2A3.36,3.36,0,0,1,185.68,246Z"
                                transform="translate(-7.49 -6.4)" />
                            <path class="cls-26"
                                d="M179.69,244.71v0a1.37,1.37,0,0,0,.41,0,.84.84,0,0,0,.32-.14,1,1,0,0,0,.23-.28h-.15l-.12,0a.51.51,0,0,1-.28-.26.58.58,0,0,1,0-.43.71.71,0,0,1,.18-.29.54.54,0,0,1,.27-.14.6.6,0,0,1,.3,0,.63.63,0,0,1,.26.2.7.7,0,0,1,.13.33.81.81,0,0,1,0,.4,1.23,1.23,0,0,1-.32.47,1.09,1.09,0,0,1-.53.25A1.44,1.44,0,0,1,179.69,244.71Zm1-.55c0-.1.08-.18.1-.25a1.46,1.46,0,0,0,.1-.45.36.36,0,0,0,0-.19.11.11,0,0,0-.07-.06.11.11,0,0,0-.12,0,.46.46,0,0,0-.14.26,1.12,1.12,0,0,0-.09.51.21.21,0,0,0,.12.15Z"
                                transform="translate(-7.49 -6.4)" />
                            <path class="cls-26"
                                d="M182.43,244.73a1.63,1.63,0,0,1-.25.45.81.81,0,0,1-.2.18.74.74,0,0,1-.22.08.42.42,0,0,1-.22,0,.48.48,0,0,1-.2-.14.63.63,0,0,1-.1-.25.77.77,0,0,1,0-.27,1.43,1.43,0,0,1,.09-.41,2.06,2.06,0,0,1,.26-.49.69.69,0,0,1,.3-.22.5.5,0,0,1,.32,0,.49.49,0,0,1,.24.21.59.59,0,0,1,.1.34A1.54,1.54,0,0,1,182.43,244.73Zm-.39-.15a5,5,0,0,0,.19-.52.5.5,0,0,0,0-.26s0-.06-.09-.08a.07.07,0,0,0-.09,0s-.08.06-.12.13-.13.33-.3.77a4.15,4.15,0,0,0-.16.5.21.21,0,0,0,0,.14.1.1,0,0,0,.08.06.11.11,0,0,0,.11,0,.41.41,0,0,0,.14-.2C181.92,244.91,182,244.8,182,244.58Z"
                                transform="translate(-7.49 -6.4)" />
                            <path class="cls-26"
                                d="M183.72,245.22a1.66,1.66,0,0,1-.26.45.7.7,0,0,1-.21.18.6.6,0,0,1-.21.08.41.41,0,0,1-.22,0,.48.48,0,0,1-.2-.14.63.63,0,0,1-.1-.25,1.12,1.12,0,0,1,0-.27,1.89,1.89,0,0,1,.1-.41,1.77,1.77,0,0,1,.27-.49.69.69,0,0,1,.3-.22.5.5,0,0,1,.32,0,.49.49,0,0,1,.24.21.67.67,0,0,1,.09.34A1.54,1.54,0,0,1,183.72,245.22Zm-.39-.15c.12-.3.18-.47.2-.52a.5.5,0,0,0,0-.26s0-.06-.09-.08a.07.07,0,0,0-.09,0s-.08.06-.12.13-.14.33-.31.77a3.2,3.2,0,0,0-.17.5.21.21,0,0,0,0,.14.1.1,0,0,0,.08.06.11.11,0,0,0,.11,0,.49.49,0,0,0,.15-.2C183.2,245.4,183.25,245.29,183.33,245.07Z"
                                transform="translate(-7.49 -6.4)" />
                            <path class="cls-26"
                                d="M185,245.71a1.68,1.68,0,0,1-.27.45.67.67,0,0,1-.2.18.74.74,0,0,1-.22.08.41.41,0,0,1-.22,0,.4.4,0,0,1-.19-.14.51.51,0,0,1-.1-.25.77.77,0,0,1,0-.27,1.46,1.46,0,0,1,.11-.41,1.77,1.77,0,0,1,.27-.49.6.6,0,0,1,.31-.22.47.47,0,0,1,.31,0,.49.49,0,0,1,.24.21.64.64,0,0,1,.09.34A1.81,1.81,0,0,1,185,245.71Zm-.39-.15c.12-.3.19-.47.2-.52a.43.43,0,0,0,0-.26s0-.06-.08-.08a.09.09,0,0,0-.1,0s-.08.06-.12.13-.14.33-.32.77a2.38,2.38,0,0,0-.17.5.32.32,0,0,0,0,.14.12.12,0,0,0,.08.06.11.11,0,0,0,.11,0,.47.47,0,0,0,.15-.2C184.48,245.89,184.53,245.78,184.61,245.56Z"
                                transform="translate(-7.49 -6.4)" />
                        </g>
                        <g id="ballon_with_effects">
                            <path id="balloon-3" data-name="balloon" class="cls-28"
                                d="M156.39,7.4A68.68,68.68,0,0,0,87.71,76.08v.08c-.22,34.84,16.33,66.28,53.11,93.1a14.07,14.07,0,0,0,8.26,2.68H163.7a14,14,0,0,0,8.25-2.68c36.79-26.82,53.33-58.26,53.11-93.1,0,0,0,0,0-.08A68.68,68.68,0,0,0,156.39,7.4Z"
                                transform="translate(-7.49 -6.4)" />
                            <path id="balloon_shadow" class="cls-29"
                                d="M215.29,40.75c-1.48,52.67-53.52,99.87-102.46,102.85a151,151,0,0,0,29.73,26.73l5.92,1.61H163.7l8.25-2.68C220.32,132.18,238.51,80.48,215.29,40.75Z"
                                transform="translate(-7.49 -6.4)" />
                            <path id="balloon_highlight" class="cls-30" d="M155.94,16.12a63.89,63.89,0,0,0-53.51,39"
                                transform="translate(-7.49 -6.4)" />
                            <path id="balloon_outline" class="cls-10"
                                d="M156.39,7.4A68.68,68.68,0,0,0,87.71,76.08v.08c-.22,34.84,16.33,66.28,53.11,93.1a14.07,14.07,0,0,0,8.26,2.68H163.7a14,14,0,0,0,8.25-2.68c36.79-26.82,53.33-58.26,53.11-93.1,0,0,0,0,0-.08A68.68,68.68,0,0,0,156.39,7.4Z"
                                transform="translate(-7.49 -6.4)" />
                            <ellipse id="balloon_opening" class="cls-31" cx="148.89" cy="163.56" rx="13.89" ry="2.03" />
                        </g>
                        <path id="grey_ring_front" class="cls-32"
                            d="M183.81,185.55a107.09,107.09,0,0,1-54.84,0v-5.06a106.87,106.87,0,0,0,54.84,0Z"
                            transform="translate(-7.49 -6.4)" />
                        <g id="most_strings">
                            <path class="cls-10" d="M180.36,183.87,225.07,76.16q-68.68-24.6-137.36,0l44.52,107.71"
                                transform="translate(-7.49 -6.4)" />
                            <line class="cls-10" x1="148.89" y1="57.46" x2="148.89" y2="179.75" />
                            <line class="cls-10" x1="187.66" y1="61.38" x2="164.16" y2="178.73" />
                            <line class="cls-10" x1="110.13" y1="61.38" x2="132.98" y2="178.73" />
                        </g>
                    </g>
                    <g id="front_cloud-2" data-name="front_cloud">
                        <path class="cls-7"
                            d="M142.5,301.14c-.07-3.52,4.09-6.48,9.32-6.59a13.4,13.4,0,0,1,2.39.16,8,8,0,0,1,3.85-5.6A8.5,8.5,0,0,1,169.24,292a9.24,9.24,0,0,1,9.63-6.15,8.62,8.62,0,0,1,3.71-6.14c2.75-1.77,6.33-1.57,9.64.18a12.79,12.79,0,0,1,18.73-13c-.49-3.82.58-7.21,3.17-8.88,3.58-2.3,8.93-.61,13,3.75A10.37,10.37,0,0,1,228,260c3.57-5.42,11.56-6.45,17.85-2.31,4.66,3.08,7.07,8.14,6.54,12.76a11.11,11.11,0,0,1,7.14,2.2,10.9,10.9,0,0,1,4.52,8.66c3.27-4.05,9.49-4.63,14.09-1.23A10.5,10.5,0,0,1,282.08,292a7.43,7.43,0,0,1,1.51-.16c3.3,0,6,2.08,6,4.65a3.8,3.8,0,0,1-.18,1.12,5.39,5.39,0,0,1,2.47-.59,5.52,5.52,0,1,1,0,11H149.51c-.21,0-.42,0-.62,0h0a6.57,6.57,0,0,1-6.32-6.22c0-.08,0-.15,0-.23S142.51,301.3,142.5,301.14Z"
                            transform="translate(-7.49 -6.4)" />
                        <path class="cls-9"
                            d="M142.5,301.14c-.07-3.52,4.09-6.48,9.32-6.59a13.4,13.4,0,0,1,2.39.16c.12-.68,13.94,2.24,29.71,1.46,11.67-.58,10.59-16.92,24.2-17.79,30.57-1.95,59.54,18.46,80.63,18.39.39,0,2.21.25,3.1.25a5.52,5.52,0,1,1,0,11H149.51c-.21,0-.42,0-.62,0h0a6.57,6.57,0,0,1-6.32-6.22c0-.08,0-.15,0-.23S142.51,301.3,142.5,301.14Z"
                            transform="translate(-7.49 -6.4)" />
                        <path class="cls-33"
                            d="M290,298c-1.93,4.36-4.31,5.63-8.31,2.4-3.6.7-5.87-1.05-7.21-4.5-4.73,3.51-9.2,3.15-13.5.15-6.11,2.58-11.08,1.84-14.71-2.78,3-1.64,4.58-3.2,4.25-4.64-5.51,2.52-11.13,3.85-19.39-1.83,1.22,2.74,3.44,4.83,6.47,6.66-2.86,2.51-6.71,3.2-11.44-.42-6,6.87-11.64,7.23-17,.68,10.06-2.32,12.15-7.75,12.61-13.81-5.44,5.87-9.46,13.57-23.83,7.87.53,2.69,3,4.64,7.7,5.71-6,3.86-11.25,4.26-15.69.86-6.71,7.2-13.43,9.11-20.18,4.17a13.21,13.21,0,0,1-8.33,3.23c-8.72,0-9.23-10.69,0-11,3,.06,5.46,1.59,7.43,4.16,2.41-3.31,5.34-5.37,8.95-5.8,1,2.65,3.54,4.42,5.82,6.06,1,.64,1.08-1.72-.49-2.62-7.68-4.67,2.25-11.95,10.73-11.17-.25-8.47,10.5-13.65,19-10.89,1.35-9.94,6.44-11.91,12.83-6.31-4,2.24-5.94,4.83-6,7.77,0,1.78,1.63,2.24,2.14.73,2.7-8.09,8.06-7.16,14.35-3,1.12.7,2.36.09,1.24-1.12-2.28-2.19-4.58-4.25-7.14-4.9,10.93-4.66,16.29,1.17,19.92,10.24,10.89.23,13.9,8.67,11,15.65,6.25-9.4,14.52-9.62,19.47-3.6,2.17,3,1,5.88-1.41,8.72,1.83-1.23,3.59-2.11,5.15-1.86C288.43,293.58,289.81,296.05,290,298Z"
                            transform="translate(-7.49 -6.4)" />
                        <path class="cls-10"
                            d="M142.5,301.14c-.07-3.52,4.09-6.48,9.32-6.59a13.4,13.4,0,0,1,2.39.16,8,8,0,0,1,3.85-5.6A8.5,8.5,0,0,1,169.24,292a9.24,9.24,0,0,1,9.63-6.15,8.62,8.62,0,0,1,3.71-6.14c2.75-1.77,6.33-1.57,9.64.18a12.79,12.79,0,0,1,18.73-13c-.49-3.82.58-7.21,3.17-8.88,3.58-2.3,8.93-.61,13,3.75A10.37,10.37,0,0,1,228,260c3.57-5.42,11.56-6.45,17.85-2.31,4.66,3.08,7.07,8.14,6.54,12.76a11.11,11.11,0,0,1,7.14,2.2,10.9,10.9,0,0,1,4.52,8.66c3.27-4.05,9.49-4.63,14.09-1.23A10.5,10.5,0,0,1,282.08,292a7.43,7.43,0,0,1,1.51-.16c3.3,0,6,2.08,6,4.65a3.8,3.8,0,0,1-.18,1.12,5.39,5.39,0,0,1,2.47-.59,5.52,5.52,0,1,1,0,11H149.51c-.21,0-.42,0-.62,0h0a6.57,6.57,0,0,1-6.32-6.22c0-.08,0-.15,0-.23S142.51,301.3,142.5,301.14Z"
                            transform="translate(-7.49 -6.4)" />
                    </g>
                </g>
            </g>
        </g>
    </g>
</svg>