<svg xmlns="http://www.w3.org/2000/svg" viewBox="0 0 139.36 282.05"><defs><style>.cls-1,.cls-10,.cls-11,.cls-16,.cls-18,.cls-21,.cls-8{fill:none;}.cls-1,.cls-12,.cls-14,.cls-19,.cls-2,.cls-22,.cls-23,.cls-3,.cls-4,.cls-5,.cls-6,.cls-7,.cls-8{stroke:#000;}.cls-1,.cls-10,.cls-11,.cls-12,.cls-14,.cls-19,.cls-2,.cls-21,.cls-23,.cls-3,.cls-4,.cls-5,.cls-6,.cls-7,.cls-8{stroke-linecap:round;stroke-linejoin:round;}.cls-1,.cls-12,.cls-19,.cls-22,.cls-3{stroke-width:2px;}.cls-2{fill:#5e5e5e;}.cls-13,.cls-3{fill:#f2e8cc;}.cls-4{fill:#efdf48;}.cls-5{fill:#f969f2;}.cls-6{fill:#3adeef;}.cls-7,.cls-9{fill:#fff;}.cls-10{stroke:#fff;}.cls-11{stroke:#bbf9ff;}.cls-12{fill:#fffbee;}.cls-14{fill:#fffef8;}.cls-14,.cls-16{stroke-width:0.5px;}.cls-15{fill:#ff78af;}.cls-16,.cls-18{stroke:#af3544;}.cls-16,.cls-18,.cls-22{stroke-miterlimit:10;}.cls-16{stroke-dasharray:1.01 1.01 1.01 1.01 1.01 1.01;}.cls-17{fill:#af3544;}.cls-18{stroke-width:0.25px;}.cls-19{fill:#af0b56;}.cls-20{fill:#8e1c55;}.cls-21{stroke:#f498c6;stroke-width:5px;}.cls-22{fill:#4f1238;}.cls-23{fill:#e0e0e0;}</style></defs><g id="Layer_2" data-name="Layer 2"><g id="logo_color"><g id="balloon"><polyline class="cls-1" points="49.87 175.02 36.13 137.88 103.23 137.88 89.48 175.02"/><path id="grey_ring_back" class="cls-2" d="M50.3,176.31a157.73,157.73,0,0,1,19.38-1,157.73,157.73,0,0,1,19.38,1c5-.65,8-1.54,8-2.53,0-2-12.28-3.57-27.42-3.57s-27.42,1.6-27.42,3.57C42.26,174.77,45.33,175.66,50.3,176.31Z"/><g id="letter_with_all"><path class="cls-3" d="M34.23,227.78a136.24,136.24,0,0,1,70.89,0L69.68,240.1Z"/><g id="fluffy"><g id="right_horn"><path class="cls-4" d="M55.09,202.71s-7.83,4.7-9-2.82c-.59-4.49,5.37-2.95,4.17.27,0,0,4.41-1.29,3.67-5-1.07-4-6.41-3.42-6.41-3.42s-10.41.49-7.25,11.18c2,5.68,10.65,8.36,11.51,5.62A32.3,32.3,0,0,1,55.09,202.71Z"/><path class="cls-5" d="M46.17,200.28s-3.88-1-6,2.26c.88,2.89,3.14,4.88,6.26,6.31-1.46-4.5,1.43-5.44,1.43-5.44a5.16,5.16,0,0,1-1.75-3.14"/><path class="cls-5" d="M46.66,197.6c-1.5-3.57-5.43-3-5.43-3a9.56,9.56,0,0,1,10.45-2.19s.63,3.47-2.17,5.2A2.25,2.25,0,0,0,46.66,197.6Z"/></g><g id="right_horn-2" data-name="right_horn"><path class="cls-4" d="M81.46,205.44s4.71,1.65,7.45-.94a6.27,6.27,0,0,0,1.77-3.76c.59-4.49-5.37-3-4.18.27,0,0-4.4-1.29-3.66-5,1.06-4,6.41-3.42,6.41-3.42s10.41.5,7.25,11.19c-2,5.68-10.39,9.25-11.72,6.7C84.44,209.78,82.34,206.69,81.46,205.44Z"/><path class="cls-5" d="M88.91,204.5a5,5,0,0,0,1.7-3.37s3.88-1,6,2.26c-.95,3-3.2,5.06-6,6.65,1.46-4.5-1.7-5.54-1.7-5.54"/><path class="cls-5" d="M90.12,198.45c1.5-3.57,5.42-3,5.42-3a9.59,9.59,0,0,0-10.44-2.19s-.63,3.47,2.17,5.2A2.26,2.26,0,0,1,90.12,198.45Z"/></g><path id="body" class="cls-6" d="M47.06,231l2.34-5.59L46.57,227s2.09-10.81,5.72-14.81l-2.67,1.44s3.22-8.41,5.46-11a9.76,9.76,0,0,0-2.55,0,18.3,18.3,0,0,1,10.17-7.9c-2.92-4.19-3.78-4.4-3.78-4.4s6,.64,7.16,1.73c.81-1.3,4.45-3,6.27-2.44a13.4,13.4,0,0,0-1.28,3.72s6.74,1.57,10.14,5.15a5.84,5.84,0,0,0-3.51.15s2.78.69,6,6.12a9,9,0,0,0-2.91-.22s8.12,11.14,10.67,19.81c-2.42-2.22-2.71-2.17-2.71-2.17s3.74,6.53,3.74,7.72C82.71,243.9,60.61,247.7,47.06,231Z"/><path class="cls-7" d="M62.22,220.48s1.53,5,2.86,5,2-4.84,2-4.84-1.93.76-2.63,1l.28-2.09C64,219.77,62.7,220.25,62.22,220.48Z"/><path class="cls-7" d="M76.84,220.33s-1.59,5.1-2.92,5.1-1.84-5-1.84-5l2.8,1c-.1-.32-.59-1.61-.64-1.93Z"/><path class="cls-8" d="M59.22,208.77a4.29,4.29,0,0,1,5.9-.15"/><path class="cls-8" d="M72.68,208.77a4.29,4.29,0,0,1,5.9-.15"/><path id="mustache_line" class="cls-6" d="M58.13,217.33,56.45,220l2.38-.18.86,2.43,5-1.91-.28,2.09a35.62,35.62,0,0,0,4.89-2.12l5.59,1.94-.65-1.94,5,1.6L79,219.76l3.19.31A5.82,5.82,0,0,0,81,217.88"/><path id="eye2" d="M75.63,209a3,3,0,1,0,3,3A3,3,0,0,0,75.63,209Zm-1.35,3a.94.94,0,1,1,.94-.94A.94.94,0,0,1,74.28,212Z"/><path id="eye1" d="M62.17,209a3,3,0,1,0,3,3A3,3,0,0,0,62.17,209Zm-1.34,3a.94.94,0,1,1,.94-.94A.94.94,0,0,1,60.83,212Z"/><path id="eye2-2" data-name="eye2" d="M62.17,215a3,3,0,1,0-3-3A3,3,0,0,0,62.17,215Zm1.35-3a.94.94,0,1,1-.94.94A.94.94,0,0,1,63.52,212Z"/><path id="eye1-2" data-name="eye1" d="M75.63,215.07a3,3,0,1,0-3-3A3,3,0,0,0,75.63,215.07Zm1.34-3A.94.94,0,1,1,76,213,.94.94,0,0,1,77,212.06Z"/><circle class="cls-9" cx="60.83" cy="211.07" r="0.94"/><circle class="cls-9" cx="74.28" cy="211.07" r="0.94"/><path class="cls-10" d="M52.44,194.67A7.07,7.07,0,0,0,46.71,193,6.76,6.76,0,0,0,41.63,198c-.86,3.49,1.62,7.8,6.33,9.56"/><path class="cls-10" d="M85.61,198A4.43,4.43,0,0,1,89,196.45a4.3,4.3,0,0,1,3.56,2.38c1.07,2.21-.3,5.76-3.82,8.17"/><path class="cls-11" d="M69.53,191.31a4.16,4.16,0,0,0-3,2.57c-.6-1-2.18-1.67-4.38-2.19,1.31,1.22,2.22,2.48,2.28,3.82A20.72,20.72,0,0,0,55.09,201a3.65,3.65,0,0,1,2.49.42,28.93,28.93,0,0,0-5.14,9.67"/></g><g id="letter_strings"><line id="string" class="cls-1" x1="43.5" y1="178.99" x2="36.13" y2="227.78"/><line id="string-2" data-name="string" class="cls-1" x1="95.69" y1="179.24" x2="103.13" y2="227.78"/></g><path id="letter" class="cls-12" d="M105.12,275.81a122.61,122.61,0,0,1-70.89,0v-48a156.28,156.28,0,0,0,70.89,0Z"/><path id="letter_shadow" class="cls-13" d="M105.12,263.25c-11.32,11-36.68,13.49-66.43,13.8,20.29,6.26,44.39,5.05,66.43-1.24Z"/><path id="letter_outline" class="cls-1" d="M105.12,275.81a122.61,122.61,0,0,1-70.89,0v-48a156.28,156.28,0,0,0,70.89,0Z"/><path class="cls-14" d="M50,234.26V234h0v-.26a.6.6,0,0,1-.53-.59h0l-.27,0h0l-.26,0a.44.44,0,0,1-.54.43.68.68,0,0,1-.53-.64,4.78,4.78,0,0,0-.53-.06.51.51,0,0,1-.53.51.58.58,0,0,1-.54-.58l-.53-.09a.42.42,0,0,1-.53.43.69.69,0,0,1-.54-.64,4.51,4.51,0,0,0-.53-.08.51.51,0,0,1-.53.5.56.56,0,0,1-.53-.57l-.54-.09a.41.41,0,0,1-.53.41.73.73,0,0,1-.53-.66,5,5,0,0,0-.53-.11.48.48,0,0,1-.54.48.57.57,0,0,1-.53-.57,2.56,2.56,0,0,1-.53-.13.37.37,0,0,1-.54.35.86.86,0,0,1-.53-.73l-.26-.09-.27-.08a.44.44,0,0,1-.53.43h0V232a.66.66,0,0,1,.53.64.44.44,0,0,1-.53.43v.53a.66.66,0,0,1,.53.64.44.44,0,0,1-.53.43v.53a.66.66,0,0,1,.53.64.44.44,0,0,1-.53.43v.53a.66.66,0,0,1,.53.64.44.44,0,0,1-.53.43v.53a.66.66,0,0,1,.53.64.44.44,0,0,1-.53.43V240a.67.67,0,0,1,.53.64.44.44,0,0,1-.53.43v.54a.65.65,0,0,1,.53.63.44.44,0,0,1-.53.43v.54a.65.65,0,0,1,.53.63.44.44,0,0,1-.53.43v.54a.65.65,0,0,1,.53.63.43.43,0,0,1-.53.43v.54a.66.66,0,0,1,.53.64h0a1.38,1.38,0,0,1,.27.08l.26.09a.36.36,0,0,1,.53-.34.84.84,0,0,1,.54.72,2.56,2.56,0,0,0,.53.13.49.49,0,0,1,.53-.49.59.59,0,0,1,.54.58,5,5,0,0,1,.53.11.41.41,0,0,1,.53-.41.7.7,0,0,1,.53.66l.54.09a.5.5,0,0,1,.53-.5.56.56,0,0,1,.53.57,4.51,4.51,0,0,1,.53.08.43.43,0,0,1,.54-.43.69.69,0,0,1,.53.64l.53.09a.5.5,0,0,1,.54-.49.56.56,0,0,1,.53.56,4.78,4.78,0,0,1,.53.06.43.43,0,0,1,.53-.43.68.68,0,0,1,.54.64l.26.05.27,0a.48.48,0,0,1,.53-.48h0v-.27h0v-.26a.6.6,0,0,1-.53-.59.48.48,0,0,1,.53-.48v-.53a.6.6,0,0,1-.53-.59.48.48,0,0,1,.53-.48v-.54a.59.59,0,0,1-.53-.58.48.48,0,0,1,.53-.48v-.54a.59.59,0,0,1-.53-.59.47.47,0,0,1,.53-.47v-.54a.59.59,0,0,1-.53-.59.47.47,0,0,1,.53-.47v-.54a.59.59,0,0,1-.53-.59.49.49,0,0,1,.53-.48v-.53a.6.6,0,0,1-.53-.59.49.49,0,0,1,.53-.48v-.26h0v-.27a.6.6,0,0,1-.53-.59.49.49,0,0,1,.53-.48v-.53a.6.6,0,0,1-.53-.59A.48.48,0,0,1,50,234.26Z"/><path class="cls-15" d="M47.15,237.56a2.32,2.32,0,0,1-2-2.31,1.63,1.63,0,0,1,.55-1.27c-2.8-.55-4.2-.2-7-1.26V246c4,1.5,6,.83,9.91,1.62V237.19A2.07,2.07,0,0,1,47.15,237.56Zm-7.62,3.21a12.36,12.36,0,0,0,.93-1.05,4.26,4.26,0,0,1-.61,0c.33-.36.5-.59.83-1l-.56,0c.3-.34.44-.54.74-.87.3.41.44.63.74,1.06-.23-.05-.34-.08-.56-.11.33.47.5.71.83,1.21l-.62-.14c.34.48.5.73.84,1.22l-.11.11L41.4,241l.29.43-.18.19.36.08.22.32c-.2.19-.29.29-.48.48a18.87,18.87,0,0,1-2.46-.42,8.6,8.6,0,0,0,1.17-1.22A2.74,2.74,0,0,1,39.53,240.77Zm1.8,2.17c.46-.48.7-.7,1.17-1.18l-.79-.19c.37-.37.56-.55.93-.94l-.62-.14c.34-.33.5-.49.83-.85-.22,0-.33-.06-.56-.12.3-.29.45-.44.74-.77.3.41.45.59.74,1l-.56,0c.33.45.5.63.83,1.07-.24,0-.37,0-.61,0,.37.48.56.71.93,1.22a7,7,0,0,0-.79-.06c.47.59.7.91,1.17,1.58C43.37,243.23,42.69,243.23,41.33,242.94Zm3.78-1c.34-.35.51-.52.85-.89l-.57-.11.67-.71-.44-.08c.24-.26.36-.38.6-.65l-.41-.06c.22-.23.33-.35.54-.59.21.3.32.44.54.71a2.73,2.73,0,0,1-.41,0c.24.33.36.47.6.78h-.44l.67.86c-.23,0-.34,0-.57,0,.34.44.51.64.85,1.11C46.6,242.15,46.1,242.17,45.11,242Z"/><path class="cls-9" d="M40.19,234l-.07.17a2,2,0,0,1-.42-.07,1.4,1.4,0,0,1-.09.17,1.11,1.11,0,0,1,.43.28.48.48,0,0,1,.13.33.45.45,0,0,1,0,.2.58.58,0,0,1-.11.15l-.15.08a.49.49,0,0,1-.24,0,.38.38,0,0,1-.18-.09.14.14,0,0,1-.06-.1.05.05,0,0,1,0-.05h.06l0,0,.07.06a.6.6,0,0,0,.15.09.26.26,0,0,0,.21-.06A.25.25,0,0,0,40,235a.46.46,0,0,0-.08-.25.71.71,0,0,0-.22-.2,1.07,1.07,0,0,0-.3-.13c.11-.18.16-.28.26-.47A2.14,2.14,0,0,0,40.19,234Z"/><path class="cls-9" d="M40.59,235.18a.2.2,0,0,1,.08,0,.16.16,0,0,1,0,.09.09.09,0,0,1,0,.07.11.11,0,0,1-.08,0,.12.12,0,0,1-.08,0,.11.11,0,0,1,.08-.19Z"/><path class="cls-9" d="M40.92,234.74a.87.87,0,0,1,.08-.39.37.37,0,0,1,.18-.22.26.26,0,0,1,.19,0,.45.45,0,0,1,.28.22,1,1,0,0,1,.16.58.88.88,0,0,1-.07.39.35.35,0,0,1-.17.2.26.26,0,0,1-.21,0,.48.48,0,0,1-.33-.29A1.1,1.1,0,0,1,40.92,234.74Zm.2.06a1.5,1.5,0,0,0,.07.47.27.27,0,0,0,.17.19.17.17,0,0,0,.12,0,.27.27,0,0,0,.09-.15,2,2,0,0,0,0-.48,1.18,1.18,0,0,0,0-.4.37.37,0,0,0-.09-.19.21.21,0,0,0-.1-.06.16.16,0,0,0-.12,0,.45.45,0,0,0-.1.25A2,2,0,0,0,41.12,234.8Z"/><path class="cls-9" d="M42,235a.88.88,0,0,1,.07-.39.44.44,0,0,1,.19-.21.4.4,0,0,1,.19,0,.52.52,0,0,1,.28.22,1.06,1.06,0,0,1,.16.57,1.1,1.1,0,0,1-.07.4.48.48,0,0,1-.18.21.36.36,0,0,1-.2,0,.55.55,0,0,1-.33-.31A1.18,1.18,0,0,1,42,235Zm.2.07a1.35,1.35,0,0,0,.07.48c0,.11.09.18.17.19a.15.15,0,0,0,.11,0,.22.22,0,0,0,.09-.15,1.9,1.9,0,0,0,0-.48,1.56,1.56,0,0,0,0-.4.5.5,0,0,0-.09-.18.21.21,0,0,0-.1-.06.15.15,0,0,0-.13,0,.54.54,0,0,0-.1.24C42.17,234.8,42.16,234.92,42.16,235Z"/><path class="cls-9" d="M39,245.57v0h0s.09,0,.11,0a.22.22,0,0,0,0-.12v-.76a.26.26,0,0,0,0-.15.15.15,0,0,0-.1-.07l0,0v0l.48.16a1.78,1.78,0,0,1,.4.15.69.69,0,0,1,.22.23.73.73,0,0,1,.08.33.55.55,0,0,1-.15.4.5.5,0,0,1-.51.08Zm.33,0,.19.08a.35.35,0,0,0,.33-.07.45.45,0,0,0,.13-.36.63.63,0,0,0-.13-.41.65.65,0,0,0-.34-.22l-.18,0Z"/><path class="cls-9" d="M41.05,245.53l-.45-.06a1.54,1.54,0,0,0-.08.19.22.22,0,0,0,0,.1.06.06,0,0,0,0,.05l.11,0v0h-.37v0a.13.13,0,0,0,.1,0,.57.57,0,0,0,.1-.17c.16-.38.24-.56.41-.93h0c.16.41.25.62.41,1.05a.43.43,0,0,0,.09.17.3.3,0,0,0,.11.07v0l-.46-.09v0a.13.13,0,0,0,.09,0,.05.05,0,0,0,0,0,.31.31,0,0,0,0-.12Zm0-.06-.2-.51-.21.45Z"/><path class="cls-9" d="M41.5,244.84l.32.07c.28.43.43.64.72,1.06v-.68a.22.22,0,0,0,0-.14.14.14,0,0,0-.1-.06h0v0l.41.08v0h0a.12.12,0,0,0-.11,0,.31.31,0,0,0,0,.13v1h0c-.31-.44-.46-.67-.77-1.13v.73c0,.07,0,.12,0,.14a.14.14,0,0,0,.1.06h0v0l-.41-.1v0h0a.12.12,0,0,0,.11,0,.29.29,0,0,0,0-.12v-.82a.49.49,0,0,0-.08-.1l-.08,0-.07,0Z"/><path class="cls-9" d="M43.53,246.4c-.18-.4-.27-.61-.45-1v.78c0,.08,0,.12,0,.14a.11.11,0,0,0,.1.05h0v0l-.41-.06v0h0a.12.12,0,0,0,.11,0,.31.31,0,0,0,0-.13v-.77a.27.27,0,0,0,0-.11l0,0a.24.24,0,0,0-.11,0v0a2,2,0,0,0,.34.05c.17.39.25.58.42.95.17-.37.25-.55.42-.9l.34,0v0H44.3a.13.13,0,0,0-.1,0s0,.06,0,.13v.77a.37.37,0,0,0,0,.14l.1,0h.05v0l-.5,0v0h0a.1.1,0,0,0,.1,0s0-.06,0-.13v-.79l-.45,1Z"/><path class="cls-9" d="M45.19,246.22l-.45-.09-.08.17a.23.23,0,0,0,0,.09.09.09,0,0,0,0,.06.25.25,0,0,0,.11,0v0l-.37-.06v0l.09,0a.42.42,0,0,0,.1-.15c.16-.36.25-.54.41-.89h0c.17.43.25.64.41,1.07l.09.17a.24.24,0,0,0,.11.06v0l-.46-.09v0h.1a.05.05,0,0,0,0,0,.45.45,0,0,0,0-.13Zm0-.07-.2-.52-.2.44Z"/><path class="cls-9" d="M46.86,246.86l-.31,0-.4-.6H46v.34a.4.4,0,0,0,0,.15.19.19,0,0,0,.1,0h.05v0l-.51-.09v0h.05a.11.11,0,0,0,.11,0,.35.35,0,0,0,0-.12v-.77c0-.07,0-.12,0-.14a.17.17,0,0,0-.1-.06h-.05v0l.43.08.28.06a.44.44,0,0,1,.15.12.28.28,0,0,1,.06.18.24.24,0,0,1-.07.18.34.34,0,0,1-.22.09l.25.37a.58.58,0,0,0,.14.16.34.34,0,0,0,.15.06Zm-.83-.69h0a.37.37,0,0,0,.25,0,.2.2,0,0,0,.09-.18.29.29,0,0,0-.07-.18.32.32,0,0,0-.18-.1H46Z"/><path class="cls-9" d="M47.38,246.23c.17.18.26.28.43.48a1,1,0,0,0,.19.18.51.51,0,0,0,.15.07v0l-.56-.09v0h.07l0,0s0,0,0,0a.18.18,0,0,0-.05-.07c-.16-.18-.24-.27-.41-.44v.38c0,.06,0,.1,0,.12l0,0,.08,0h0v0a4.18,4.18,0,0,0-.5,0v0h0a.14.14,0,0,0,.11-.05.27.27,0,0,0,0-.13v-.76c0-.06,0-.1,0-.12l0,0-.08,0h0v0a4.18,4.18,0,0,1,.5,0v0h-.12l0,0s0,.06,0,.12v.36l.12-.1a2.42,2.42,0,0,0,.31-.29.09.09,0,0,0,0-.05.05.05,0,0,0,0,0l-.06,0h0v0l.43.07v0h-.07l-.07,0-.11.07a1.18,1.18,0,0,0-.18.16Z"/><path d="M53.22,255.36v1.12l-.39-.05a1.5,1.5,0,0,0-.12-.34l-.12-.24a.86.86,0,0,0-.15-.17.44.44,0,0,0-.19-.1.91.91,0,0,0-.26-.06l-1.23-.18v1.93l.83.13a.57.57,0,0,0,.27,0,.26.26,0,0,0,.16-.13,1.07,1.07,0,0,0,.13-.33l.36.05v1.43l-.36-.06A2,2,0,0,0,52,258a.77.77,0,0,0-.16-.19.7.7,0,0,0-.28-.09l-.83-.13v2.13l1.21.2a1.12,1.12,0,0,0,.31,0,.4.4,0,0,0,.2-.07.57.57,0,0,0,.16-.18,1.33,1.33,0,0,0,.11-.24q0-.12.12-.36l.38.05c0,.43,0,.87-.07,1.3-1.2-.18-2.4-.37-3.59-.59v-.18a.69.69,0,0,0,.32-.07.27.27,0,0,0,.1-.19,1.9,1.9,0,0,0,0-.4v-3.18a3.18,3.18,0,0,0,0-.38.47.47,0,0,0-.06-.19.46.46,0,0,0-.12-.12,1.76,1.76,0,0,0-.25-.13v-.18Q51.39,255.12,53.22,255.36Z"/><path d="M55.71,258.61l.51-.56a.68.68,0,0,0,.13-.18.32.32,0,0,0,0-.19.2.2,0,0,0-.06-.15.46.46,0,0,0-.21-.1v-.19l1.28.14v.18a.78.78,0,0,0-.3.13,2.24,2.24,0,0,0-.38.35l-.81.86c.3.42.59.84.89,1.25a3.56,3.56,0,0,0,.34.42,1.38,1.38,0,0,0,.31.22V261l-1.57-.19v-.18c.22,0,.32-.06.32-.19a.78.78,0,0,0,0-.16,1.81,1.81,0,0,0-.1-.17l-.57-.83-.6.67a.94.94,0,0,0-.1.14.26.26,0,0,0,0,.15.24.24,0,0,0,.07.18.55.55,0,0,0,.23.11v.18c-.43-.06-.87-.11-1.3-.18v-.18a.9.9,0,0,0,.23-.08.85.85,0,0,0,.21-.14,2.41,2.41,0,0,0,.28-.28l.81-.85-.83-1.2a4.13,4.13,0,0,0-.27-.36,1.37,1.37,0,0,0-.19-.17.42.42,0,0,0-.17-.1V257l1.53.19v.18c-.21,0-.31.07-.31.19a.58.58,0,0,0,0,.18,1.35,1.35,0,0,0,.13.21Z"/><path d="M59,261v.8a3.66,3.66,0,0,0,0,.37.47.47,0,0,0,.07.19.37.37,0,0,0,.12.13,1.15,1.15,0,0,0,.28.11v.19l-1.6-.17v-.18l.23-.06a.28.28,0,0,0,.14-.1.47.47,0,0,0,.06-.2,3.44,3.44,0,0,0,0-.35v-3.62a.78.78,0,0,0,0-.19.23.23,0,0,0-.06-.13.34.34,0,0,0-.13-.1,1,1,0,0,0-.25-.09v-.2l.92.05.24,0-.05.61.06,0a4.41,4.41,0,0,1,.38-.31,1.59,1.59,0,0,1,.29-.15,1.15,1.15,0,0,1,.29-.08,1,1,0,0,1,.3,0,1.25,1.25,0,0,1,1,.54,2.41,2.41,0,0,1,.34,1.4,2.45,2.45,0,0,1-.19,1,1.28,1.28,0,0,1-.57.6,1.6,1.6,0,0,1-.89.13,2,2,0,0,1-.52-.09A2.41,2.41,0,0,1,59,261Zm0-1.24a2.79,2.79,0,0,0,0,.56.74.74,0,0,0,.17.33.83.83,0,0,0,.28.21,1.18,1.18,0,0,0,.43.1.71.71,0,0,0,.71-.32,2,2,0,0,0,.24-1.1c0-1-.3-1.51-.9-1.56a.86.86,0,0,0-.37,0,.79.79,0,0,0-.32.18.87.87,0,0,0-.22.27.68.68,0,0,0-.06.29Z"/><path d="M63.44,258.46l.05,0a3.54,3.54,0,0,1,.4-.39,1.53,1.53,0,0,1,.4-.21,1.44,1.44,0,0,1,.48-.06l.42,0v.88h-.45a.87.87,0,0,0-.2-.31.45.45,0,0,0-.29-.11.61.61,0,0,0-.28.07,1,1,0,0,0-.27.22,1,1,0,0,0-.17.28.72.72,0,0,0-.05.31v1.34a1.79,1.79,0,0,0,0,.48.38.38,0,0,0,.14.2.85.85,0,0,0,.3.12v.18l-1.58-.09v-.19a1,1,0,0,0,.22-.07l.11-.08a.5.5,0,0,0,.07-.19,2,2,0,0,0,0-.39v-2.06a.7.7,0,0,0-.06-.24.32.32,0,0,0-.14-.14l-.27-.09v-.2h.91l.24,0C63.47,258,63.45,258.24,63.44,258.46Z"/><path d="M68.71,261a3.11,3.11,0,0,1-.46.4,1.78,1.78,0,0,1-.46.22,1.88,1.88,0,0,1-.55.07,1.57,1.57,0,0,1-1.22-.52,2.14,2.14,0,0,1-.41-1.41,2.31,2.31,0,0,1,.21-1,1.48,1.48,0,0,1,.6-.66,1.61,1.61,0,0,1,.89-.22A1.75,1.75,0,0,1,68,258a1.18,1.18,0,0,1,.44.35,1.51,1.51,0,0,1,.26.54,3.33,3.33,0,0,1,.1.86l-2.47,0v.07a2.46,2.46,0,0,0,.11.77,1,1,0,0,0,.34.49,1.06,1.06,0,0,0,.61.2,1.34,1.34,0,0,0,.58-.11,1.47,1.47,0,0,0,.52-.38Zm-.65-1.58a2.93,2.93,0,0,0-.11-.69.84.84,0,0,0-.25-.41.72.72,0,0,0-.43-.15.76.76,0,0,0-.64.31,1.68,1.68,0,0,0-.29.9Z"/><path d="M72.13,258.8h-.38a1.21,1.21,0,0,0-.2-.36.7.7,0,0,0-.27-.19,1.25,1.25,0,0,0-.36-.05.9.9,0,0,0-.5.15.49.49,0,0,0-.19.41.54.54,0,0,0,.07.29.74.74,0,0,0,.24.22,4.29,4.29,0,0,0,.55.26,5.05,5.05,0,0,1,.62.31,1.19,1.19,0,0,1,.34.33.85.85,0,0,1,.12.46,1.18,1.18,0,0,1-.1.52,1,1,0,0,1-.3.35,1.27,1.27,0,0,1-.46.19,2.65,2.65,0,0,1-.58.06,3.39,3.39,0,0,1-.64-.05,3.75,3.75,0,0,1-.6-.13v-.81h.38a1,1,0,0,0,.32.52.88.88,0,0,0,.57.17,1,1,0,0,0,.28,0,.85.85,0,0,0,.24-.09.63.63,0,0,0,.17-.19.65.65,0,0,0,.06-.29.62.62,0,0,0-.08-.33.65.65,0,0,0-.24-.22,5.43,5.43,0,0,0-.58-.28,4.55,4.55,0,0,1-.58-.28,1.37,1.37,0,0,1-.34-.34.79.79,0,0,1-.12-.45.94.94,0,0,1,.17-.55,1.08,1.08,0,0,1,.51-.36,2.25,2.25,0,0,1,.77-.14l.5,0a4.74,4.74,0,0,1,.61.09Z"/><path d="M75.58,258.67l-.38,0a.87.87,0,0,0-.2-.36.59.59,0,0,0-.27-.18.81.81,0,0,0-.36,0,.77.77,0,0,0-.5.17.47.47,0,0,0-.19.4.53.53,0,0,0,.08.3.59.59,0,0,0,.23.21,3,3,0,0,0,.55.25,4.55,4.55,0,0,1,.62.3,1,1,0,0,1,.34.32.85.85,0,0,1,.12.46,1.22,1.22,0,0,1-.1.53,1,1,0,0,1-.3.36,1.5,1.5,0,0,1-.46.21,3.25,3.25,0,0,1-.58.08c-.22,0-.43,0-.64,0l-.6-.12v-.82h.38a1.06,1.06,0,0,0,.32.52.9.9,0,0,0,.57.14,1.27,1.27,0,0,0,.28,0,.88.88,0,0,0,.24-.11.55.55,0,0,0,.17-.2.65.65,0,0,0,.06-.29.62.62,0,0,0-.08-.33.74.74,0,0,0-.24-.22,5.39,5.39,0,0,0-.58-.26,3.07,3.07,0,0,1-.57-.27,1.05,1.05,0,0,1-.34-.32.78.78,0,0,1-.13-.46.91.91,0,0,1,.18-.56,1.09,1.09,0,0,1,.5-.38,2.24,2.24,0,0,1,.77-.16c.18,0,.34,0,.5,0l.61.07Z"/><path d="M78.27,261.44v-.2a.84.84,0,0,0,.32-.16.41.41,0,0,0,.11-.23,2.57,2.57,0,0,0,0-.44V257a2,2,0,0,0,0-.39.38.38,0,0,0-.06-.19.32.32,0,0,0-.12-.11l-.25-.07V256l2.14-.2a2.85,2.85,0,0,1,1,0,1,1,0,0,1,.56.34,1.13,1.13,0,0,1,.18.67,1.38,1.38,0,0,1-.13.62,1.32,1.32,0,0,1-.34.46,2.67,2.67,0,0,1-.54.37v0a1.37,1.37,0,0,1,.8.42,1.14,1.14,0,0,1,.28.79,1.66,1.66,0,0,1-.24.92,1.58,1.58,0,0,1-.66.56,3.31,3.31,0,0,1-1,.25Zm1.87-3.15a1.39,1.39,0,0,0,.91-.38,1.24,1.24,0,0,0,.32-.89,1,1,0,0,0-.09-.45.7.7,0,0,0-.24-.27.89.89,0,0,0-.37-.11,1.77,1.77,0,0,0-.46,0l-.39,0-.36,0v2.07ZM79.46,261a4.8,4.8,0,0,0,.64,0,2.11,2.11,0,0,0,.79-.2.94.94,0,0,0,.41-.43,1.47,1.47,0,0,0,.13-.66,1.28,1.28,0,0,0-.14-.63.7.7,0,0,0-.43-.33,2,2,0,0,0-.8-.05l-.6.05Z"/><path d="M84.13,257.71h.05a4.58,4.58,0,0,1,.4-.48A1.85,1.85,0,0,1,85,257a1.23,1.23,0,0,1,.48-.15l.41,0v.93l-.44.06a.69.69,0,0,0-.2-.29.34.34,0,0,0-.29-.06.57.57,0,0,0-.28.12,1.35,1.35,0,0,0-.44.6,1,1,0,0,0,0,.35v1.41a1.87,1.87,0,0,0,0,.5.35.35,0,0,0,.14.19.75.75,0,0,0,.3.06v.2c-.52.07-1.05.13-1.57.18v-.2a1,1,0,0,0,.21-.1.43.43,0,0,0,.11-.12.42.42,0,0,0,.07-.2,2.12,2.12,0,0,0,0-.42v-1.76c0-.17,0-.31,0-.41a.7.7,0,0,0-.06-.25.24.24,0,0,0-.14-.12.81.81,0,0,0-.27-.05v-.21l.91-.15.24,0Z"/><path d="M89.38,259.48a5,5,0,0,1-.46.51,2.06,2.06,0,0,1-.46.31,2,2,0,0,1-.55.17,1.28,1.28,0,0,1-1.21-.33,2.06,2.06,0,0,1-.41-1.42,2.77,2.77,0,0,1,.21-1.1,2,2,0,0,1,.59-.8,1.83,1.83,0,0,1,.89-.39,1.34,1.34,0,0,1,.67,0,.84.84,0,0,1,.44.28,1.46,1.46,0,0,1,.26.53,3.47,3.47,0,0,1,.1.89l-2.45.38v.07a2.6,2.6,0,0,0,.1.8.86.86,0,0,0,.34.46.93.93,0,0,0,.62.1,1.58,1.58,0,0,0,.57-.22,2.25,2.25,0,0,0,.51-.48Zm-.66-1.55a3.09,3.09,0,0,0-.1-.71.85.85,0,0,0-.25-.39.59.59,0,0,0-.43-.08,1,1,0,0,0-.64.44,2.12,2.12,0,0,0-.28,1Z"/><path d="M91.36,255.91v.2a1.32,1.32,0,0,0-.25.13.49.49,0,0,0-.12.13.5.5,0,0,0,0,.19,1.64,1.64,0,0,0,0,.22c0,.08,0,.17.08.27.23.65.45,1.31.68,2,.26-.72.53-1.43.79-2.15a3.25,3.25,0,0,0,.11-.35,1.12,1.12,0,0,0,0-.24.3.3,0,0,0-.09-.25.49.49,0,0,0-.32-.08v-.2l1.45-.3v.2a.91.91,0,0,0-.23.15.83.83,0,0,0-.16.25c-.06.11-.12.26-.2.45-.43,1.11-.87,2.22-1.3,3.31l-.46.09-1-2.89a2.35,2.35,0,0,0-.18-.4.41.41,0,0,0-.14-.15.42.42,0,0,0-.22-.05v-.2Z"/><path d="M52.2,269.38v-.18a1,1,0,0,0,.29,0,.27.27,0,0,0,.15-.1.35.35,0,0,0,0-.2,1.41,1.41,0,0,0,0-.28,2.9,2.9,0,0,0-.09-.34l-.14-.51c-.61-.1-1.21-.21-1.81-.33l-.13.34a2.86,2.86,0,0,0-.13.38.81.81,0,0,0,0,.25.48.48,0,0,0,.12.35,1,1,0,0,0,.37.21v.18l-1.66-.34v-.17a.5.5,0,0,0,.38-.17,1.73,1.73,0,0,0,.31-.52l1.62-3.78.61.1,1.32,4.36a3.32,3.32,0,0,0,.17.47.89.89,0,0,0,.17.27.7.7,0,0,0,.28.17v.18Zm-1.49-2.27,1.63.3c-.25-.84-.5-1.68-.74-2.52Z"/><path d="M56.7,269.57l-.06,0a1.88,1.88,0,0,1-.63.38,1.37,1.37,0,0,1-.64,0,1.25,1.25,0,0,1-.52-.19,1.09,1.09,0,0,1-.35-.36,1,1,0,0,1-.12-.48.77.77,0,0,1,.57-.76,4,4,0,0,1,1.68-.1v-.24a2.19,2.19,0,0,0-.07-.63.86.86,0,0,0-.25-.36,1,1,0,0,0-.45-.17.7.7,0,0,0-.49.09.73.73,0,0,0-.27.42l-.52-.08v-.49l.63-.18a4,4,0,0,1,.5-.06,2.12,2.12,0,0,1,.5,0,1.42,1.42,0,0,1,.62.2.93.93,0,0,1,.36.4,2.14,2.14,0,0,1,.11.76v1.3c0,.19,0,.32,0,.4a1.36,1.36,0,0,0,0,.21.43.43,0,0,0,.06.17.29.29,0,0,0,.11.11,1,1,0,0,0,.25.12v.19l-1.07-.15Zm-.07-1.18a2.75,2.75,0,0,0-1.18,0,.52.52,0,0,0-.39.53.63.63,0,0,0,.09.35.53.53,0,0,0,.22.2,1,1,0,0,0,.33.1.86.86,0,0,0,.48-.05.73.73,0,0,0,.33-.27.54.54,0,0,0,.12-.36Z"/><path d="M59.33,267.44h0a3.12,3.12,0,0,1,.45-.35,1.5,1.5,0,0,1,.38-.15,1.17,1.17,0,0,1,.42,0,1.34,1.34,0,0,1,.72.27,1.51,1.51,0,0,1,.46.67,2.85,2.85,0,0,1,.17,1,2.42,2.42,0,0,1-.2,1,1.21,1.21,0,0,1-.57.59,1.7,1.7,0,0,1-.89.12,2.33,2.33,0,0,1-.55-.12,2.49,2.49,0,0,1-.54-.24l-.27.2-.27-.1v-4.6a1.45,1.45,0,0,0,0-.25.34.34,0,0,0-.07-.16.32.32,0,0,0-.12-.11,1.44,1.44,0,0,0-.27-.1V265l.94.06.23,0Zm0,1.66a2.77,2.77,0,0,0,0,.46,1.07,1.07,0,0,0,.09.3,1,1,0,0,0,.19.23.71.71,0,0,0,.28.16,1.14,1.14,0,0,0,.34.07A.7.7,0,0,0,61,270a1.93,1.93,0,0,0,.24-1.09,2.37,2.37,0,0,0-.22-1.15.82.82,0,0,0-.67-.45,1.13,1.13,0,0,0-.38,0,1,1,0,0,0-.31.17.82.82,0,0,0-.22.25.61.61,0,0,0-.08.3Z"/><path d="M64.44,271a1.72,1.72,0,0,1-1.25-.57,2.17,2.17,0,0,1-.43-1.42,2.2,2.2,0,0,1,.23-1,1.29,1.29,0,0,1,.62-.6,1.84,1.84,0,0,1,.89-.15,1.74,1.74,0,0,1,1.27.56,2.06,2.06,0,0,1,.43,1.4,2.35,2.35,0,0,1-.21,1.06,1.33,1.33,0,0,1-.62.62A1.73,1.73,0,0,1,64.44,271Zm-.94-2a2.5,2.5,0,0,0,.26,1.23.88.88,0,0,0,.74.48.77.77,0,0,0,.44-.09.93.93,0,0,0,.3-.32,1.53,1.53,0,0,0,.17-.47,3.68,3.68,0,0,0,0-.58,2.87,2.87,0,0,0-.13-.95,1.31,1.31,0,0,0-.34-.57,1,1,0,0,0-.51-.21.75.75,0,0,0-.72.36A2,2,0,0,0,63.5,269Z"/><path d="M68.05,268.12l.06,0a2.51,2.51,0,0,1,.4-.4,1.26,1.26,0,0,1,.39-.22,1.53,1.53,0,0,1,.49-.07l.41,0v.89h-.44a.87.87,0,0,0-.2-.31.39.39,0,0,0-.29-.1.47.47,0,0,0-.28.07.72.72,0,0,0-.27.23.82.82,0,0,0-.18.28,1,1,0,0,0,0,.32v1.35a2.39,2.39,0,0,0,0,.49.35.35,0,0,0,.15.2.73.73,0,0,0,.3.11v.19L67,271.13v-.19l.21-.07a.31.31,0,0,0,.11-.09.42.42,0,0,0,.07-.19,1.9,1.9,0,0,0,0-.4v-1.68c0-.17,0-.3,0-.4a.7.7,0,0,0-.06-.24.27.27,0,0,0-.14-.14.71.71,0,0,0-.27-.09v-.2h1.15C68.08,267.67,68.07,267.9,68.05,268.12Z"/><path d="M73.78,267.94l-.73,0,0,.05a.87.87,0,0,1,.19.33,1.33,1.33,0,0,1,.07.45,1.25,1.25,0,0,1-.39,1,1.67,1.67,0,0,1-1.12.34,2.11,2.11,0,0,1-.56-.09.57.57,0,0,0-.3.44.45.45,0,0,0,0,.22.35.35,0,0,0,.19.1,1.36,1.36,0,0,0,.4,0h.94a1.6,1.6,0,0,1,.68.14.8.8,0,0,1,.38.34,1.19,1.19,0,0,1,.11.51,1.08,1.08,0,0,1-.21.66,1.47,1.47,0,0,1-.62.45,2.4,2.4,0,0,1-.93.14,4,4,0,0,1-.72-.06,2,2,0,0,1-.56-.17,1,1,0,0,1-.37-.31.79.79,0,0,1-.12-.45.65.65,0,0,1,.16-.44,1.33,1.33,0,0,1,.47-.34.74.74,0,0,1-.29-.23.58.58,0,0,1-.11-.34.69.69,0,0,1,.13-.41,2,2,0,0,1,.44-.41,1.1,1.1,0,0,1-.43-.45,1.37,1.37,0,0,1-.15-.64,1.28,1.28,0,0,1,.12-.58,1,1,0,0,1,.31-.41,1.3,1.3,0,0,1,.47-.24,2.15,2.15,0,0,1,.58-.07,2.1,2.1,0,0,1,.56.07h1.39Zm-2.62,3.4a1.14,1.14,0,0,0-.31.31.8.8,0,0,0-.1.38.58.58,0,0,0,.29.52,1.68,1.68,0,0,0,.85.18,1.61,1.61,0,0,0,.61-.08.81.81,0,0,0,.39-.27A.69.69,0,0,0,73,272a.76.76,0,0,0,0-.21.5.5,0,0,0-.1-.19.58.58,0,0,0-.22-.13,1,1,0,0,0-.37-.05h-.58Zm-.1-2.6a1.19,1.19,0,0,0,.2.75.66.66,0,0,0,.57.27.65.65,0,0,0,.35-.07.56.56,0,0,0,.22-.21.81.81,0,0,0,.13-.3,1.5,1.5,0,0,0,0-.37,1.63,1.63,0,0,0-.1-.58.85.85,0,0,0-.27-.34.71.71,0,0,0-.39-.1.66.66,0,0,0-.57.24A1.11,1.11,0,0,0,71.06,268.74Z"/><path d="M76.85,271.1v-.19a1.73,1.73,0,0,0,1.59-1,3.57,3.57,0,0,0,.33-1.29h0a2.44,2.44,0,0,1-.65.38,2.17,2.17,0,0,1-.69.14,1.37,1.37,0,0,1-.75-.17,1.09,1.09,0,0,1-.47-.54,1.88,1.88,0,0,1-.16-.82,2,2,0,0,1,.12-.68,1.69,1.69,0,0,1,.35-.57,1.76,1.76,0,0,1,.58-.4,2,2,0,0,1,.81-.18,1.39,1.39,0,0,1,1.25.51,2.58,2.58,0,0,1,.43,1.63,4.22,4.22,0,0,1-.32,1.74,2.67,2.67,0,0,1-2.22,1.7A1.77,1.77,0,0,1,76.85,271.1Zm.81-2.43a1.35,1.35,0,0,0,.29,0l.26-.08a2,2,0,0,0,.25-.14,2.31,2.31,0,0,0,.23-.18l.06-.09a.4.4,0,0,0,0-.13,1.65,1.65,0,0,0,0-.27,3.59,3.59,0,0,0-.11-.93,1.06,1.06,0,0,0-.33-.56.74.74,0,0,0-.55-.17,1,1,0,0,0-.49.13,1,1,0,0,0-.34.29,1.45,1.45,0,0,0-.18.44,2.2,2.2,0,0,0-.06.53,1.46,1.46,0,0,0,.24.9A.75.75,0,0,0,77.66,268.67Z"/><path d="M82.24,271.05a1.28,1.28,0,0,1-1.26-.6,3.93,3.93,0,0,1-.41-2,5.46,5.46,0,0,1,.13-1.29,3,3,0,0,1,.35-.91,1.84,1.84,0,0,1,.55-.56,1.61,1.61,0,0,1,.7-.23,1.27,1.27,0,0,1,1.28.56,3.78,3.78,0,0,1,.42,2,4.38,4.38,0,0,1-.45,2.2A1.57,1.57,0,0,1,82.24,271.05Zm-.91-2.81a5.45,5.45,0,0,0,.24,1.9c.16.4.4.59.73.56s.55-.23.7-.63a5.18,5.18,0,0,0,.23-1.81,8.4,8.4,0,0,0-.11-1.49,1.68,1.68,0,0,0-.33-.79.6.6,0,0,0-.51-.21.73.73,0,0,0-.45.21,1.23,1.23,0,0,0-.29.49,3.06,3.06,0,0,0-.16.77A10,10,0,0,0,81.33,268.24Z"/><path d="M86.67,270.64a1.22,1.22,0,0,1-1.26-.56,4,4,0,0,1-.41-2,5.54,5.54,0,0,1,.13-1.3,3.13,3.13,0,0,1,.36-.94,1.82,1.82,0,0,1,.54-.59,1.66,1.66,0,0,1,.7-.26,1.22,1.22,0,0,1,1.27.52,3.8,3.8,0,0,1,.42,2,4.62,4.62,0,0,1-.45,2.25A1.62,1.62,0,0,1,86.67,270.64Zm-.91-2.81a5.58,5.58,0,0,0,.24,1.92c.16.4.4.58.73.54a.88.88,0,0,0,.7-.67,5.64,5.64,0,0,0,.23-1.84,7.55,7.55,0,0,0-.12-1.5,1.69,1.69,0,0,0-.32-.79.58.58,0,0,0-.51-.19.74.74,0,0,0-.45.22A1.36,1.36,0,0,0,86,266a3.55,3.55,0,0,0-.16.78C85.78,267.12,85.76,267.46,85.76,267.83Z"/><path d="M91.08,270.07a1.18,1.18,0,0,1-1.25-.52,4,4,0,0,1-.41-2.06,5.78,5.78,0,0,1,.13-1.32,3.26,3.26,0,0,1,.35-1,1.82,1.82,0,0,1,.55-.61,1.62,1.62,0,0,1,.69-.29,1.18,1.18,0,0,1,1.27.48,3.8,3.8,0,0,1,.41,2,4.86,4.86,0,0,1-.44,2.29A1.75,1.75,0,0,1,91.08,270.07Zm-.9-2.81a5.61,5.61,0,0,0,.24,1.93c.15.39.39.57.72.52s.55-.28.7-.7a5.84,5.84,0,0,0,.23-1.87,7.7,7.7,0,0,0-.12-1.52,1.69,1.69,0,0,0-.32-.79.57.57,0,0,0-.51-.17.77.77,0,0,0-.44.24,1.67,1.67,0,0,0-.3.53,4.08,4.08,0,0,0-.15.8C90.2,266.54,90.18,266.88,90.18,267.26Z"/><path class="cls-16" d="M101.19,240.48a6.3,6.3,0,0,1-7.82,3.37c-2.84-1.13-4-4.49-3-7.5A5.34,5.34,0,0,1,97.49,233C100.65,234.11,102.49,237.47,101.19,240.48Z"/><path class="cls-17" d="M98.86,235.24l-.37-.32-.12.05-.09.06a.1.1,0,0,0,0,.09l.09.11,0,0L98,235l0,0a.2.2,0,0,0,.13,0,.55.55,0,0,0,.21-.07l1-.43v0c-.11.44-.18.66-.31,1.11a.46.46,0,0,0,0,.21.12.12,0,0,0,0,.09l0,0-.49-.44,0,0,0,0a.28.28,0,0,0,.1.06l0,0s0,0,0,0,0,0,0-.07Zm0-.07.13-.47-.44.19Z"/><path class="cls-17" d="M99.42,236.28a.6.6,0,0,1-.29-.18.24.24,0,0,1,0-.14.15.15,0,0,1,.08-.11.23.23,0,0,1,.2,0,1.52,1.52,0,0,1,.41.22l.07-.05a.38.38,0,0,0,.11-.08.07.07,0,0,0,0,0,.24.24,0,0,0,0-.08.28.28,0,0,0-.09-.07h0s0,0,0,.05,0,.06,0,.07a.08.08,0,0,1-.08,0,.12.12,0,0,1-.08-.06.11.11,0,0,1,0-.11.1.1,0,0,1,0-.08.2.2,0,0,1,.14,0,.51.51,0,0,1,.17.08,1.07,1.07,0,0,1,.14.16.33.33,0,0,1,.07.21.2.2,0,0,1,0,.14.56.56,0,0,1-.15.11l-.29.18-.06,0v0s0,0,0,0a.08.08,0,0,0,.06,0v0a.33.33,0,0,1-.15,0,.26.26,0,0,1-.09-.09.19.19,0,0,1,0-.12A.21.21,0,0,1,99.42,236.28Zm.06,0,.26-.16a.59.59,0,0,0-.23-.07.14.14,0,0,0-.11,0,.1.1,0,0,0,0,.07.07.07,0,0,0,0,.07S99.43,236.22,99.48,236.24Z"/><path class="cls-17" d="M100.88,236.56l-1,.41c-.06,0-.09.05-.1.07a.14.14,0,0,0,0,.09l0,0-.2-.46,0,0a.13.13,0,0,0,.06.08l.12,0,.86-.34c.06,0,.09,0,.1-.07a.14.14,0,0,0,0-.09h0C100.78,236.35,100.81,236.42,100.88,236.56Z"/><path class="cls-17" d="M101.1,237.24l-.49.09a.38.38,0,0,1,.17.23.28.28,0,0,1,0,.18.45.45,0,0,1-.12.16.73.73,0,0,1-.22.09.53.53,0,0,1-.28,0,.37.37,0,0,1-.21-.12.36.36,0,0,1-.11-.21.3.3,0,0,1,0-.13.35.35,0,0,1,0-.13l-.13-.13v0l1.13-.22.1,0,0,0v-.07h0C101.05,237,101.06,237.09,101.1,237.24Zm-.58.11-.39.08-.15,0a.22.22,0,0,0-.09.07.16.16,0,0,0,0,.1.12.12,0,0,0,.05.07.17.17,0,0,0,.12,0,1.38,1.38,0,0,0,.3,0,.7.7,0,0,0,.27-.11.11.11,0,0,0,0-.11C100.64,237.43,100.6,237.39,100.52,237.35Z"/><path class="cls-17" d="M100.86,238.6a.45.45,0,0,1-.08.22.37.37,0,0,1-.18.14.51.51,0,0,1-.25,0,.59.59,0,0,1-.32-.11.42.42,0,0,1-.14-.34.4.4,0,0,1,.16-.31.57.57,0,0,1,.34-.1.54.54,0,0,1,.33.13A.37.37,0,0,1,100.86,238.6Zm-.07,0a.11.11,0,0,0,0-.09.27.27,0,0,0-.14,0l-.31,0h-.19a.23.23,0,0,0-.11,0,.12.12,0,0,0,0,.08.19.19,0,0,0,0,.08.19.19,0,0,0,.09.05,2.21,2.21,0,0,0,.37,0,.5.5,0,0,0,.23,0,.13.13,0,0,0,.09-.05A.07.07,0,0,0,100.79,238.6Z"/><path class="cls-17" d="M100.67,239.62l-.2-.05a.82.82,0,0,1,.14.2.33.33,0,0,1,0,.14.22.22,0,0,1,0,.08.16.16,0,0,1-.1,0s-.08,0-.09-.06a.08.08,0,0,1,0-.08.09.09,0,0,1,0-.08l0,0s0,0,0,0,0,0,0-.05a.15.15,0,0,0-.07-.09l-.19-.08-.2-.05h-.13l0,0a.15.15,0,0,0,0,.08h0l.13-.48h0a.09.09,0,0,0,0,.08.31.31,0,0,0,.14.06l.48.12.1,0,0,0,0-.06h0Z"/><path class="cls-17" d="M100.2,240.72l-.15.27-.1,0,.09-.16a.23.23,0,0,1-.11,0l-.11,0a.3.3,0,0,1-.12-.13.48.48,0,0,1,0-.18.6.6,0,0,1,0-.16l.06-.11a.11.11,0,0,0,0-.08.12.12,0,0,0-.05,0,.06.06,0,0,0-.06,0,.14.14,0,0,0-.06.07l-.08.15a.58.58,0,0,1-.18.23.2.2,0,0,1-.22,0,.22.22,0,0,1-.1-.11.25.25,0,0,1,0-.17,1,1,0,0,1,.1-.28.88.88,0,0,1,.12-.19.35.35,0,0,1,.13-.1.09.09,0,0,1,.1,0,.1.1,0,0,1,.05.06.32.32,0,0,1,0,.14.19.19,0,0,1,.21,0,.2.2,0,0,1,.09.11.36.36,0,0,1,0,.19.62.62,0,0,1,.2-.12.32.32,0,0,1,.19,0,.28.28,0,0,1,.15.2.39.39,0,0,1-.05.29A.61.61,0,0,1,100.2,240.72Zm-.8-.66a.31.31,0,0,0,0-.12.1.1,0,0,0,0-.09.12.12,0,0,0-.11,0,.43.43,0,0,0-.14.17.52.52,0,0,0-.06.21.1.1,0,0,0,0,.12h0a.18.18,0,0,0,.07-.05A2.35,2.35,0,0,0,99.4,240.06Zm.86.5a.13.13,0,0,0,0-.12.55.55,0,0,0-.19-.13.29.29,0,0,0-.2-.05.11.11,0,0,0-.09.05.11.11,0,0,0,0,.11.35.35,0,0,0,.17.13.41.41,0,0,0,.23.06A.1.1,0,0,0,100.26,240.56Z"/><path class="cls-17" d="M92.51,241.59l.31.32.14,0,.09-.06a.1.1,0,0,0,0-.09l-.07-.1,0,0,.3.3,0,0a.19.19,0,0,0-.12,0,.89.89,0,0,0-.23.07l-1.11.43h0c.21-.45.31-.67.5-1.12a.55.55,0,0,0,.07-.21.12.12,0,0,0,0-.09l0,0,.43.45,0,0v0l-.09-.06,0,0,0,0,0,.07Zm0,.07c-.08.19-.13.28-.21.47l.47-.19Z"/><path class="cls-17" d="M92.09,240.55a.49.49,0,0,1,.27.18.17.17,0,0,1,0,.14.14.14,0,0,1-.09.11.23.23,0,0,1-.2,0,1.23,1.23,0,0,1-.38-.22l-.08.05a.27.27,0,0,0-.11.08.16.16,0,0,0,0,.06.25.25,0,0,0,0,.07.16.16,0,0,0,.07.07h.05a.11.11,0,0,0,0-.05s0-.06.06-.07a.1.1,0,0,1,.09,0,.13.13,0,0,1,.07.06.14.14,0,0,1,0,.11.16.16,0,0,1-.06.08.22.22,0,0,1-.14,0,.35.35,0,0,1-.16-.08.61.61,0,0,1-.12-.16.36.36,0,0,1-.05-.21.26.26,0,0,1,.06-.14.77.77,0,0,1,.16-.11l.32-.18.06-.05,0,0a0,0,0,0,0,0,0,.06.06,0,0,0,0,0v0a.26.26,0,0,1,.14,0,.2.2,0,0,1,.09.09.17.17,0,0,1,0,.12A.17.17,0,0,1,92.09,240.55Zm-.06,0-.27.16a.44.44,0,0,0,.21.07.14.14,0,0,0,.11,0,.13.13,0,0,0,.06-.07.17.17,0,0,0,0-.07A.2.2,0,0,0,92,240.59Z"/><path class="cls-17" d="M90.67,240.27l1.07-.41.11-.07a.14.14,0,0,0,0-.09h0c.07.18.1.27.16.45l0,0a.14.14,0,0,0-.06-.07s-.06,0-.12,0l-.9.35a.27.27,0,0,0-.11.06.14.14,0,0,0,0,.09l0,0Z"/><path class="cls-17" d="M90.5,239.6l.49-.1a.37.37,0,0,1-.16-.22.31.31,0,0,1,0-.19.38.38,0,0,1,.13-.16.63.63,0,0,1,.22-.09.66.66,0,0,1,.28,0,.45.45,0,0,1,.21.12.41.41,0,0,1,.1.21.28.28,0,0,1,0,.13.31.31,0,0,1-.06.13l.13.13v0l-1.14.23-.1,0s0,0,0,0,0,0,0,.07h0C90.53,239.82,90.52,239.74,90.5,239.6Zm.58-.12.4-.07.15,0a.15.15,0,0,0,.09-.06.18.18,0,0,0,0-.1.11.11,0,0,0,0-.08.24.24,0,0,0-.12,0l-.3,0a.58.58,0,0,0-.27.11.1.1,0,0,0,0,.11A.19.19,0,0,0,91.08,239.48Z"/><path class="cls-17" d="M90.78,238.24a.4.4,0,0,1,.06-.22.43.43,0,0,1,.18-.15.53.53,0,0,1,.25-.05.61.61,0,0,1,.32.11.43.43,0,0,1,.15.34.38.38,0,0,1-.16.31.55.55,0,0,1-.67,0A.33.33,0,0,1,90.78,238.24Zm.06,0a.13.13,0,0,0,0,.09s.07,0,.14.05l.31,0h.2a.15.15,0,0,0,.1,0,.09.09,0,0,0,0-.08.08.08,0,0,0,0-.07.15.15,0,0,0-.09-.06l-.37,0a.73.73,0,0,0-.23,0,.19.19,0,0,0-.09,0S90.85,238.21,90.84,238.23Z"/><path class="cls-17" d="M90.93,237.21l.2,0a.68.68,0,0,1-.15-.2.24.24,0,0,1,0-.14.11.11,0,0,1,.05-.08h.1a.2.2,0,0,1,.09.06.08.08,0,0,1,0,.08.09.09,0,0,1,0,.08l0,0s0,0,0,0a0,0,0,0,0,0,0s0,.06.08.09l.19.08.21,0h.12l0,0a.34.34,0,0,0,0-.08h0c0,.19-.06.29-.11.48h0a.09.09,0,0,0,0-.08.38.38,0,0,0-.14-.06l-.49-.12-.1,0,0,0,0,.06h0Z"/><path class="cls-17" d="M91.3,236.11c0-.11.07-.16.11-.27l.1,0c0,.07,0,.1-.06.16l.1,0,.11,0a.29.29,0,0,1,.14.13.35.35,0,0,1,0,.18.38.38,0,0,1,0,.16s0,0,0,.11a.11.11,0,0,0,0,.08.08.08,0,0,0,0,.05h.06a.17.17,0,0,0,.06-.06c0-.07,0-.1.06-.16a.5.5,0,0,1,.15-.23.2.2,0,0,1,.22,0,.32.32,0,0,1,.12.11.33.33,0,0,1,0,.17.64.64,0,0,1-.07.28.86.86,0,0,1-.11.19.27.27,0,0,1-.12.1.09.09,0,0,1-.1,0s0,0-.06-.06a.32.32,0,0,1,0-.14.19.19,0,0,1-.21,0,.24.24,0,0,1-.1-.1.4.4,0,0,1,0-.2.5.5,0,0,1-.19.12.33.33,0,0,1-.19,0,.34.34,0,0,1-.17-.2.46.46,0,0,1,.13-.45Zm0,.17a.15.15,0,0,0,0,.11.52.52,0,0,0,.2.13.42.42,0,0,0,.2.06.15.15,0,0,0,.09-.06.11.11,0,0,0,0-.11.35.35,0,0,0-.17-.13.45.45,0,0,0-.24-.06S91.27,236.24,91.25,236.28Zm.91.49a.49.49,0,0,0,0,.12.11.11,0,0,0,.05.09.14.14,0,0,0,.11,0,.46.46,0,0,0,.12-.18.63.63,0,0,0,0-.21.11.11,0,0,0-.06-.11h-.05l-.06,0A1.91,1.91,0,0,0,92.16,236.77Z"/><path class="cls-18" d="M99,239.62a3.56,3.56,0,0,1-4.49,2,3.46,3.46,0,0,1-1.86-4.39,3.24,3.24,0,0,1,4.27-2A3.37,3.37,0,0,1,99,239.62Z"/><path class="cls-17" d="M93,238.28v0a1.11,1.11,0,0,0,.41,0,.68.68,0,0,0,.31-.14,1.05,1.05,0,0,0,.24-.27h-.16l-.12,0a.45.45,0,0,1-.27-.27.63.63,0,0,1,0-.43.68.68,0,0,1,.18-.28.5.5,0,0,1,.27-.14.6.6,0,0,1,.3,0,.55.55,0,0,1,.26.19.68.68,0,0,1,.13.33.79.79,0,0,1-.05.4,1,1,0,0,1-.32.47,1,1,0,0,1-.53.25A1.26,1.26,0,0,1,93,238.28Zm1-.56.1-.24a2,2,0,0,0,.09-.45.4.4,0,0,0,0-.2.16.16,0,0,0-.08-.05.11.11,0,0,0-.11,0,.64.64,0,0,0-.15.27,1.12,1.12,0,0,0-.09.51.19.19,0,0,0,.12.14A.33.33,0,0,0,94,237.72Z"/><path class="cls-17" d="M95.72,238.3a1.66,1.66,0,0,1-.26.45.67.67,0,0,1-.2.18A.58.58,0,0,1,95,239a.44.44,0,0,1-.22,0,.4.4,0,0,1-.19-.15.59.59,0,0,1-.11-.24,1.15,1.15,0,0,1,0-.27,1.58,1.58,0,0,1,.09-.42,1.71,1.71,0,0,1,.27-.48.54.54,0,0,1,.3-.22.42.42,0,0,1,.31,0,.56.56,0,0,1,.25.21.64.64,0,0,1,.09.34A1.56,1.56,0,0,1,95.72,238.3Zm-.39-.15c.11-.3.17-.48.18-.53a.52.52,0,0,0,0-.26.15.15,0,0,0-.09-.08h-.1a.31.31,0,0,0-.12.13l-.3.78a4.08,4.08,0,0,0-.15.49.21.21,0,0,0,0,.14.18.18,0,0,0,.08.07.14.14,0,0,0,.11,0,.41.41,0,0,0,.15-.2C95.2,238.47,95.25,238.37,95.33,238.15Z"/><path class="cls-17" d="M97,238.79a1.43,1.43,0,0,1-.26.45.67.67,0,0,1-.2.18.65.65,0,0,1-.22.08.42.42,0,0,1-.22,0,.4.4,0,0,1-.19-.15.59.59,0,0,1-.11-.24,1.2,1.2,0,0,1,0-.27,1.29,1.29,0,0,1,.1-.42,1.69,1.69,0,0,1,.26-.48.6.6,0,0,1,.31-.22.41.41,0,0,1,.31,0,.56.56,0,0,1,.25.21.64.64,0,0,1,.09.34A1.6,1.6,0,0,1,97,238.79Zm-.38-.15.19-.53a.68.68,0,0,0,0-.26.15.15,0,0,0-.09-.08.17.17,0,0,0-.1,0,.31.31,0,0,0-.12.13c0,.07-.14.33-.31.78a3.14,3.14,0,0,0-.16.49.31.31,0,0,0,0,.14.15.15,0,0,0,.19.07.41.41,0,0,0,.15-.2Z"/><path class="cls-17" d="M98.28,239.28a1.43,1.43,0,0,1-.26.45.84.84,0,0,1-.21.18.83.83,0,0,1-.22.08.44.44,0,0,1-.22,0,.4.4,0,0,1-.19-.15.57.57,0,0,1-.1-.25,1.12,1.12,0,0,1,0-.26,1.68,1.68,0,0,1,.38-.9.62.62,0,0,1,.3-.22.44.44,0,0,1,.32,0,.49.49,0,0,1,.24.21.56.56,0,0,1,.08.34A1.4,1.4,0,0,1,98.28,239.28Zm-.38-.15c.12-.3.18-.48.2-.53a.52.52,0,0,0,0-.26.15.15,0,0,0-.09-.08h-.1a.31.31,0,0,0-.12.13c0,.07-.14.33-.32.78-.09.24-.15.41-.17.49s0,.12,0,.14a.11.11,0,0,0,.08.07.14.14,0,0,0,.11,0,.57.57,0,0,0,.15-.2Z"/></g><g id="ballon_with_effects"><path id="balloon-2" data-name="balloon" class="cls-19" d="M69.68,1A68.68,68.68,0,0,0,1,69.68v.08C.78,104.59,17.33,136,54.11,162.85a14,14,0,0,0,8.26,2.69H77a14,14,0,0,0,8.25-2.69C122,136,138.57,104.59,138.35,69.76c0,0,0-.05,0-.08A68.68,68.68,0,0,0,69.68,1Z"/><path id="balloon_shadow" class="cls-20" d="M128.58,34.35C127.1,87,75.06,134.21,26.12,137.2a151,151,0,0,0,29.73,26.73l5.92,1.61H77l8.25-2.69C133.61,125.77,151.8,74.08,128.58,34.35Z"/><path id="balloon_highlight" class="cls-21" d="M69.23,9.72a63.85,63.85,0,0,0-53.51,39"/><path id="balloon_outline" class="cls-1" d="M69.68,1A68.68,68.68,0,0,0,1,69.68v.08C.78,104.59,17.33,136,54.11,162.85a14,14,0,0,0,8.26,2.69H77a14,14,0,0,0,8.25-2.69C122,136,138.57,104.59,138.35,69.76c0,0,0-.05,0-.08A68.68,68.68,0,0,0,69.68,1Z"/><ellipse id="balloon_opening" class="cls-22" cx="69.68" cy="163.56" rx="13.89" ry="2.03"/></g><path id="grey_ring_front" class="cls-23" d="M97.1,179.14a106.87,106.87,0,0,1-54.84,0v-5a107.09,107.09,0,0,0,54.84,0Z"/><g id="most_strings"><path class="cls-1" d="M93.65,177.47,138.36,69.76Q69.67,45.16,1,69.76L45.52,177.47"/><line class="cls-1" x1="69.68" y1="57.46" x2="69.68" y2="179.75"/><line class="cls-1" x1="108.44" y1="61.38" x2="84.95" y2="178.73"/><line class="cls-1" x1="30.91" y1="61.38" x2="53.77" y2="178.73"/></g></g></g></g></svg>