<svg xmlns="http://www.w3.org/2000/svg" viewBox="0 0 847.36 93.65"><defs><style>.cls-1{fill:#f2a25a;}.cls-2{fill:#ffecd9;}</style></defs><g id="Layer_2" data-name="Layer 2"><g id="skyline"><g id="clouds"><g id="bottom_clouds"><g id="back_clouds"><path class="cls-1" d="M132.34,64.64c0-1.25,1.45-2.29,3.3-2.33a4.63,4.63,0,0,1,.84,0,2.84,2.84,0,0,1,1.37-2,3,3,0,0,1,4,1,3.22,3.22,0,0,1,1.32-1.68,3.18,3.18,0,0,1,2.09-.5A3.06,3.06,0,0,1,146.53,57a3.38,3.38,0,0,1,3.42.07,4.52,4.52,0,0,1,6.63-4.6,3.13,3.13,0,0,1,1.13-3.15c1.27-.82,3.16-.22,4.59,1.33a3,3,0,0,1,.32-.62c1.27-1.92,4.1-2.29,6.32-.82a4.89,4.89,0,0,1,2.32,4.52,4,4,0,0,1,2.53.78,3.86,3.86,0,0,1,1.6,3.07,3.64,3.64,0,0,1,5-.44,3.73,3.73,0,0,1,1.4,4.22,3.1,3.1,0,0,1,.54,0A1.92,1.92,0,0,1,184.43,63a1.34,1.34,0,0,1-.06.4,2,2,0,1,1,.87,3.7H134.59a2.33,2.33,0,0,1-2.24-2.2v-.08C132.35,64.75,132.34,64.7,132.34,64.64Z"/><path class="cls-1" d="M411.53,64.9c0-.94,1.1-1.73,2.49-1.76a3.39,3.39,0,0,1,.64,0,2.11,2.11,0,0,1,1-1.49,2.26,2.26,0,0,1,3,.76,2.45,2.45,0,0,1,1-1.26,2.38,2.38,0,0,1,1.57-.38,2.34,2.34,0,0,1,1-1.64,2.54,2.54,0,0,1,2.58,0,3.41,3.41,0,0,1,5-3.47,2.36,2.36,0,0,1,.84-2.37c1-.61,2.39-.16,3.46,1a2.94,2.94,0,0,1,.25-.46,3.41,3.41,0,0,1,4.76-.62,3.69,3.69,0,0,1,1.75,3.41,3,3,0,0,1,1.9.59A2.88,2.88,0,0,1,444,59.61a2.73,2.73,0,0,1,3.76-.33,2.8,2.8,0,0,1,1.05,3.18,1.84,1.84,0,0,1,.41,0,1.44,1.44,0,0,1,1.59,1.24,1,1,0,0,1-.05.3,1.49,1.49,0,0,1,.66-.16,1.48,1.48,0,1,1,0,3H413.23a1.77,1.77,0,0,1-1.69-1.66s0,0,0-.07S411.54,64.94,411.53,64.9Z"/><path class="cls-1" d="M618.93,70.86a5.88,5.88,0,0,1,1.27.14h0a2.92,2.92,0,0,1,3.06-2.76,3.19,3.19,0,0,1,2,.72,6,6,0,0,1,1.48-2.71,5.51,5.51,0,0,1,5.51-4.76,5.32,5.32,0,0,1,1.27.15v0a2.92,2.92,0,0,1,3.06-2.76,3.25,3.25,0,0,1,2,.72,6.76,6.76,0,0,1,6.73-4.91,7.53,7.53,0,0,1,3.53.88,7.64,7.64,0,0,1,5.32-2.09c4,0,7.26,2.93,7.26,6.56a6,6,0,0,1-.23,1.65,4.59,4.59,0,0,1,1.24-.18A4.15,4.15,0,0,1,665.82,63a5.43,5.43,0,0,1,1.72.75,4.9,4.9,0,0,1,2.32,4.53A4,4,0,0,1,674,72.16a3.63,3.63,0,0,1,5-.43,3.71,3.71,0,0,1,1.4,4.21,3.1,3.1,0,0,1,.54,0A1.93,1.93,0,0,1,683,77.54a1.32,1.32,0,0,1-.06.39,2,2,0,1,1,.87,3.7h-35a10.43,10.43,0,0,1-1.27.08H618.93a5.43,5.43,0,1,1,0-10.85Z"/><path class="cls-1" d="M45.07,51.68a4,4,0,0,0-.85.09h0a2,2,0,0,0-2-1.84,2.18,2.18,0,0,0-1.38.48,4.52,4.52,0,0,0-4.51-3.29,5,5,0,0,0-2.37.59,5.07,5.07,0,0,0-3.56-1.41,4.65,4.65,0,0,0-4.87,4.4,4.13,4.13,0,0,0,.15,1.11,2.82,2.82,0,0,0-.83-.12,2.56,2.56,0,0,0-2.68,2.41,2.3,2.3,0,0,0,.81,1.73,1.51,1.51,0,0,0-.81,1.2c0,1.07,1.67,1.94,3.73,1.94H45.07a3.64,3.64,0,1,0,0-7.28Z"/><path class="cls-1" d="M278.68,76.3a9.18,9.18,0,0,1,2,.23v0a4.66,4.66,0,0,1,4.88-4.41,5.19,5.19,0,0,1,3.28,1.15c1.05-4.48,5.46-7.84,10.74-7.84a11.84,11.84,0,0,1,5.64,1.4,12.19,12.19,0,0,1,8.51-3.35c6.41,0,11.6,4.69,11.6,10.48a9.69,9.69,0,0,1-.37,2.65,6.79,6.79,0,0,1,2-.29c3.52,0,6.37,2.58,6.37,5.76a5.49,5.49,0,0,1-1.91,4.11A3.59,3.59,0,0,1,333.36,89c0,2.55-4,4.62-8.87,4.62H278.68a8.68,8.68,0,1,1,0-17.35Z"/><path class="cls-1" d="M760.1,66a4,4,0,0,0-.86.1h0a2,2,0,0,0-2-1.85,2.13,2.13,0,0,0-1.37.48,4.54,4.54,0,0,0-4.51-3.29,4.9,4.9,0,0,0-2.37.59,5.09,5.09,0,0,0-3.57-1.41A4.65,4.65,0,0,0,740.5,65a3.73,3.73,0,0,0,.16,1.11,2.94,2.94,0,0,0-.84-.12,2.55,2.55,0,0,0-2.67,2.42,2.28,2.28,0,0,0,.8,1.72,1.52,1.52,0,0,0-.8,1.2c0,1.07,1.66,1.94,3.72,1.94H760.1a3.64,3.64,0,1,0,0-7.28Z"/><path class="cls-1" d="M847.36,5.3V9h0c-.11,2.71-2.69,4.89-5.87,4.89a6.72,6.72,0,0,1-1.35-.14v0c0,1.42-1.44,2.58-3.23,2.58a3.73,3.73,0,0,1-2.17-.67c-.7,2.62-3.62,4.59-7.12,4.59a8.69,8.69,0,0,1-3.73-.82,8.66,8.66,0,0,1-5.64,2c-3.32,0-6.15-1.69-7.22-4.05a4.08,4.08,0,0,1-1.95,2.59,5.87,5.87,0,0,1-5.39-.09A6.16,6.16,0,0,1,800.46,26a8.06,8.06,0,0,1-7.25.25,4.11,4.11,0,0,1-1.77,4.39c-2,1.14-5,.3-7.25-1.85a5.89,5.89,0,0,1-.51.86c-2,2.68-6.47,3.19-10,1.14-2.61-1.52-4-4-3.66-6.31a6.76,6.76,0,0,1-4-1.09,5.23,5.23,0,0,1-2.53-4.28c-1.83,2-5.3,2.29-7.87.6a5.82,5.82,0,0,1-1.91-2,8.24,8.24,0,0,1-2.14-.68,8.63,8.63,0,0,1-5.47,2,5.66,5.66,0,0,1-.89.71c-2.57,1.69-6,1.4-7.87-.6a5.23,5.23,0,0,1-2.53,4.28,6.76,6.76,0,0,1-4,1.09c.29,2.28-1.05,4.79-3.66,6.31-3.51,2.05-8,1.54-10-1.14a5.89,5.89,0,0,1-.51-.86c-2.26,2.15-5.24,3-7.25,1.85a4.11,4.11,0,0,1-1.77-4.39,8.06,8.06,0,0,1-7.25-.25,6.18,6.18,0,0,1-3.22-6.18,5.87,5.87,0,0,1-5.39.09,4.25,4.25,0,0,1-2.08-3,5.64,5.64,0,0,1-3.28-.7A6.81,6.81,0,0,1,682.78,22c-3.52,2.05-8,1.53-10-1.15a4.48,4.48,0,0,1-.52-.86C670,22.13,667,23,665,21.83a4.12,4.12,0,0,1-1.77-4.4,8.06,8.06,0,0,1-7.25-.25A6.16,6.16,0,0,1,652.8,11a5.93,5.93,0,0,1-5.39.09A4.07,4.07,0,0,1,645.61,9c-1.48,3.69-5.81,6.37-10.92,6.37a12.9,12.9,0,0,1-8.4-2.93,12.45,12.45,0,0,1-3.57,1.06,5.66,5.66,0,0,1-2.15,2.52c-2.57,1.68-6,1.39-7.87-.61a5.24,5.24,0,0,1-2.53,4.28,6.76,6.76,0,0,1-4,1.09c.29,2.29-1,4.79-3.66,6.31-3.51,2.05-8,1.54-10-1.14a4.43,4.43,0,0,1-.51-.86c-2.26,2.16-5.24,3-7.25,1.86a4.13,4.13,0,0,1-1.77-4.4,8.06,8.06,0,0,1-7.25-.25,6.16,6.16,0,0,1-3.22-6.17,5.93,5.93,0,0,1-5.39.09,4.27,4.27,0,0,1-2.08-3,5.63,5.63,0,0,1-3.3-.7,4.62,4.62,0,0,1-2.08-2.34,5.14,5.14,0,0,1-6.25,1.42A4,4,0,0,1,551.33,9h-.93A3.85,3.85,0,0,1,546,9c-.7,2.63-3.62,4.6-7.12,4.6a8.6,8.6,0,0,1-3.74-.83,8.62,8.62,0,0,1-5.63,2c-3.51,0-6.47-1.89-7.39-4.47a9.77,9.77,0,0,1-5.89,1.91A9.93,9.93,0,0,1,514.2,12v0c0,2.19-2.22,4-5,4a5.68,5.68,0,0,1-3.33-1c-1.07,4-5.54,7-10.9,7a13.23,13.23,0,0,1-5.71-1.26,13.26,13.26,0,0,1-8.63,3c-6.5,0-11.76-4.21-11.76-9.4a7.56,7.56,0,0,1,.38-2.38,7.88,7.88,0,0,1-2,.26,6.62,6.62,0,0,1-6-3.2h-1.61a6.3,6.3,0,0,1-3.07,3.95,8.06,8.06,0,0,1-7.25.25,4.13,4.13,0,0,1-1.77,4.4c-2,1.13-5,.3-7.25-1.86a4,4,0,0,1-.51.86c-2,2.68-6.46,3.19-10,1.14a7,7,0,0,1-3.65-5.1,6,6,0,0,1-1.53,1.11,7.27,7.27,0,0,1-8.85-2A6.55,6.55,0,0,1,412.88,15a8,8,0,0,1-4.67,1,6,6,0,0,1-2.94,4.3,8.35,8.35,0,0,1-7.64-.13,8.73,8.73,0,0,1-4.56,8.75,11.44,11.44,0,0,1-10.27.35c.39,2.68-.45,5.06-2.51,6.23-2.83,1.61-7.07.42-10.26-2.63a6.16,6.16,0,0,1-.73,1.22c-2.83,3.8-9.15,4.52-14.13,1.62-3.69-2.16-5.6-5.71-5.18-8.95a9.52,9.52,0,0,1-5.65-1.54,7.37,7.37,0,0,1-3.58-6.06c-2.6,2.83-7.51,3.24-11.16.86-3.12-2.05-4.3-5.49-3.12-8.34a6.61,6.61,0,0,1-1.2.11,6.38,6.38,0,0,1-2.28-.42,4.73,4.73,0,0,1-1.79,1.76c-2.83,1.62-7.06.43-10.26-2.63a6.3,6.3,0,0,1-.72,1.22c-2.83,3.8-9.16,4.53-14.14,1.62A11.73,11.73,0,0,1,294,11.78a11.79,11.79,0,0,1-4.54-1c.39,2.67-.45,5.05-2.51,6.22-2.84,1.61-7.07.43-10.26-2.63a7.29,7.29,0,0,1-.73,1.22c-2.83,3.8-9.16,4.52-14.13,1.62A12.24,12.24,0,0,1,260.1,16a6.48,6.48,0,0,1-2.87.66,6.57,6.57,0,0,1-1.35-.14h0c0,1.43-1.45,2.59-3.24,2.59a3.71,3.71,0,0,1-2.17-.68c-.7,2.63-3.62,4.6-7.12,4.6a8.69,8.69,0,0,1-3.73-.82,8.71,8.71,0,0,1-5.63,2c-4.25,0-7.69-2.75-7.69-6.14a5,5,0,0,1,.25-1.55,5.68,5.68,0,0,1-1.32.17,5.87,5.87,0,0,1-.94-.09c-1.93,4.63-7,8-13.07,8a16,16,0,0,1-3.2-.32s0,0,0,0c0,3.38-3.43,6.11-7.65,6.11a8.81,8.81,0,0,1-5.14-1.59c-1.66,6.21-8.56,10.87-16.84,10.87a20.49,20.49,0,0,1-8.84-1.95,20.43,20.43,0,0,1-13.32,4.65c-10,0-18.18-6.51-18.18-14.53a11.56,11.56,0,0,1,.59-3.67,12.24,12.24,0,0,1-3.12.4c-5.52,0-10-3.57-10-8a7.28,7.28,0,0,1,3-5.7,8.1,8.1,0,0,1-1.84-1.41,8.85,8.85,0,0,1-.84.64c-3.65,2.39-8.57,2-11.16-.86a7.39,7.39,0,0,1-3.58,6.07,9.6,9.6,0,0,1-5.65,1.54c.42,3.24-1.49,6.79-5.18,8.94-5,2.91-11.31,2.18-14.14-1.62a6.3,6.3,0,0,1-.72-1.22c-3.19,3.06-7.43,4.25-10.26,2.63a4.83,4.83,0,0,1-1.54-1.4,7.85,7.85,0,0,1-2.49,4.09,6.11,6.11,0,0,1-4.34,1.54,10.23,10.23,0,0,1-4,9C59,41.59,54.15,40.86,52,37.07a7.85,7.85,0,0,1-.55-1.22c-2.46,3-5.7,4.24-7.88,2.63-1.58-1.17-2.23-3.55-1.93-6.23a7,7,0,0,1-7.88-.35,9.68,9.68,0,0,1-3.51-8.75c-2,1.23-4.19,1.37-5.86.13A6.24,6.24,0,0,1,22.11,19a5,5,0,0,1-3.59-1,6.37,6.37,0,0,1-2.27-3.31c-1.56,2.62-4.51,3.53-6.79,2a5.68,5.68,0,0,1-2.35-3.92,7.61,7.61,0,0,1-1.45.11C2.8,12.8.47,11.11.07,9H0V5.3Z"/></g><g id="front_clouds"><path class="cls-2" d="M632,66.35c0-1.56-1.8-2.87-4.11-2.92a7.22,7.22,0,0,0-1,.07A3.57,3.57,0,0,0,625.14,61a3.75,3.75,0,0,0-4.93,1.27A4.09,4.09,0,0,0,616,59.58a3.85,3.85,0,0,0-1.64-2.71,4.18,4.18,0,0,0-4.26.09,5.64,5.64,0,0,0-8.27-5.74,3.86,3.86,0,0,0-1.4-3.92c-1.58-1-3.94-.27-5.72,1.65a5.13,5.13,0,0,0-.4-.77c-1.58-2.39-5.11-2.84-7.88-1a6.08,6.08,0,0,0-2.89,5.63,4.91,4.91,0,0,0-3.15,1,4.81,4.81,0,0,0-2,3.83,4.52,4.52,0,0,0-6.22-.55,4.65,4.65,0,0,0-1.74,5.26,2.93,2.93,0,0,0-.67-.07,2.4,2.4,0,0,0-2.63,2.05,1.57,1.57,0,0,0,.08.49,2.5,2.5,0,0,0-1.09-.26,2.44,2.44,0,0,0,0,4.88h63.13A2.91,2.91,0,0,0,632,66.65s0-.07,0-.1A1.5,1.5,0,0,0,632,66.35Z"/><path class="cls-2" d="M268.7,80.1c0-1.17-1.37-2.15-3.1-2.19a4.2,4.2,0,0,0-.8,0,2.66,2.66,0,0,0-1.28-1.86,2.84,2.84,0,0,0-3.72,1,3.07,3.07,0,0,0-3.2-2A2.91,2.91,0,0,0,255.36,73a3.16,3.16,0,0,0-3.21.07,4.25,4.25,0,0,0-6.23-4.33,2.93,2.93,0,0,0-1-3c-1.19-.77-3-.2-4.31,1.25a4,4,0,0,0-.31-.58c-1.19-1.81-3.85-2.15-5.94-.77a4.59,4.59,0,0,0-2.17,4.25,3.68,3.68,0,0,0-2.38.73,3.6,3.6,0,0,0-1.5,2.88,3.41,3.41,0,0,0-4.69-.41,3.5,3.5,0,0,0-1.31,4,2.76,2.76,0,0,0-.51,0,1.8,1.8,0,0,0-2,1.55,1.19,1.19,0,0,0,.06.37,1.77,1.77,0,0,0-.82-.2,1.84,1.84,0,1,0,0,3.67h47.57a2.17,2.17,0,0,0,2.1-2.06v-.08C268.69,80.21,268.69,80.16,268.7,80.1Z"/><path class="cls-2" d="M125.41,73.49a6.92,6.92,0,0,0-1.59.18v0a3.63,3.63,0,0,0-3.8-3.44,4,4,0,0,0-2.56.9,7.45,7.45,0,0,0-1.84-3.37A7,7,0,0,0,107.16,62v0a3.64,3.64,0,0,0-3.81-3.44,4,4,0,0,0-2.55.9,8.42,8.42,0,0,0-8.39-6.12,9.2,9.2,0,0,0-4.4,1.1,9.48,9.48,0,0,0-6.63-2.62c-5,0-9,3.66-9,8.18A7.43,7.43,0,0,0,72.62,62a5.64,5.64,0,0,0-1.55-.22A5.09,5.09,0,0,0,67,63.75a6.73,6.73,0,0,0-2.16.94,6.11,6.11,0,0,0-2.89,5.63,4.91,4.91,0,0,0-3.15,1,4.84,4.84,0,0,0-2,3.83,4.51,4.51,0,0,0-6.21-.55,4.62,4.62,0,0,0-1.74,5.26,3.71,3.71,0,0,0-.67-.07,2.4,2.4,0,0,0-2.64,2,1.69,1.69,0,0,0,.08.5,2.37,2.37,0,0,0-1.09-.26,2.44,2.44,0,1,0,0,4.87H88.09a13.57,13.57,0,0,0,1.59.1h35.73a6.77,6.77,0,1,0,0-13.53Z"/><path class="cls-2" d="M803.57,72.43a4.74,4.74,0,0,1,1.07.12h0a2.44,2.44,0,0,1,2.55-2.31,2.69,2.69,0,0,1,1.71.6,5.65,5.65,0,0,1,5.62-4.1,6.25,6.25,0,0,1,3,.73,6.4,6.4,0,0,1,4.45-1.75c3.35,0,6.07,2.46,6.07,5.48a5.3,5.3,0,0,1-.19,1.39,3.49,3.49,0,0,1,1-.15,3.18,3.18,0,0,1,3.33,3,2.87,2.87,0,0,1-1,2.15,1.87,1.87,0,0,1,1,1.5c0,1.33-2.08,2.41-4.64,2.41h-24a4.54,4.54,0,1,1,0-9.07Z"/><path class="cls-2" d="M533.8,64.77a11.11,11.11,0,0,0-2.54.29v0c0-3-2.72-5.49-6.08-5.49A6.41,6.41,0,0,0,521.09,61c-1.32-5.59-6.81-9.78-13.39-9.78a14.76,14.76,0,0,0-7,1.75,15.22,15.22,0,0,0-10.6-4.17c-8,0-14.46,5.85-14.46,13.06a12,12,0,0,0,.46,3.3,8.75,8.75,0,0,0-2.48-.36c-4.39,0-7.95,3.21-7.95,7.18A6.83,6.83,0,0,0,468,77.07a4.5,4.5,0,0,0-2.39,3.57c0,3.17,5,5.75,11.07,5.75H533.8a10.81,10.81,0,1,0,0-21.62Z"/><path class="cls-2" d="M13.74,58.51a4.74,4.74,0,0,1,1.07.12h0a2.44,2.44,0,0,1,2.55-2.31,2.69,2.69,0,0,1,1.71.6,5.66,5.66,0,0,1,5.63-4.1,6.31,6.31,0,0,1,2.95.73,6.38,6.38,0,0,1,4.44-1.75c3.35,0,6.07,2.46,6.07,5.48A5.3,5.3,0,0,1,38,58.66a3.49,3.49,0,0,1,1-.15,3.18,3.18,0,0,1,3.33,3,2.87,2.87,0,0,1-1,2.15,1.87,1.87,0,0,1,1,1.5c0,1.33-2.08,2.41-4.64,2.41h-24a4.54,4.54,0,1,1,0-9.07Z"/><path class="cls-2" d="M847.36,0V4.63h-.06A5.66,5.66,0,0,1,841.7,9a5.76,5.76,0,0,1-1.45-.13,6.64,6.64,0,0,1-2.35,4.44c-2.28,1.72-5.23.68-6.79-2.28a7.21,7.21,0,0,1-2.27,3.75A4.58,4.58,0,0,1,825.26,16,7.43,7.43,0,0,1,823,20.81c-1.67,1.4-3.85,1.24-5.86-.15.33,3.85-.92,7.72-3.5,9.89a6.35,6.35,0,0,1-7.89.4c.3,3-.35,5.71-1.93,7-2.17,1.83-5.42.48-7.87-3a9.27,9.27,0,0,1-.56,1.38c-2.17,4.29-7,5.11-10.85,1.83a12.25,12.25,0,0,1-4-10.11,5.74,5.74,0,0,1-4.34-1.74,9.16,9.16,0,0,1-2.49-4.63,5,5,0,0,1-1.54,1.59c-2.83,1.82-7.06.48-10.25-3a8.7,8.7,0,0,1-.73,1.38c-2.83,4.29-9.16,5.11-14.14,1.83a11,11,0,0,1-5.18-10.11,8.86,8.86,0,0,1-5.65-1.74,8.64,8.64,0,0,1-3.58-6.86c-2.59,3.21-7.51,3.67-11.15,1a8.67,8.67,0,0,1-.85-.74,8.51,8.51,0,0,1-1.83,1.6,8.58,8.58,0,0,1,3,6.44c0,5-4.48,9-10,9a10.93,10.93,0,0,1-3.11-.45,15.07,15.07,0,0,1,.58,4.15c0,9.07-8.14,16.42-18.18,16.42A19.06,19.06,0,0,1,677.8,37a18.56,18.56,0,0,1-8.84,2.2c-8.27,0-15.18-5.27-16.84-12.29a8.06,8.06,0,0,1-5.14,1.8c-4.22,0-7.64-3.09-7.64-6.9v0a14.67,14.67,0,0,1-3.2.36,13.88,13.88,0,0,1-13.07-9,4.59,4.59,0,0,1-2.26-.09,6,6,0,0,1,.25,1.76c0,3.83-3.44,6.94-7.68,6.94a8.11,8.11,0,0,1-5.64-2.22,7.84,7.84,0,0,1-3.73.93,7.15,7.15,0,0,1-7.12-5.2,3.4,3.4,0,0,1-2.17.76,3.08,3.08,0,0,1-3.23-2.91v0a6.08,6.08,0,0,1-4.23-.58,12.28,12.28,0,0,1-1.71,1.38c-5,3.28-11.3,2.46-14.13-1.83a8.6,8.6,0,0,1-.73-1.37c-3.19,3.45-7.42,4.79-10.26,3-2-1.33-2.89-4-2.51-7a10.64,10.64,0,0,1-4.53,1.16,13.2,13.2,0,0,1-2.12,1.79c-5,3.28-11.3,2.46-14.14-1.83a7.89,7.89,0,0,1-.72-1.38c-3.19,3.45-7.43,4.79-10.26,3a5.2,5.2,0,0,1-1.79-2,5.8,5.8,0,0,1-2.28.47,6.69,6.69,0,0,1-1.2-.12,8.3,8.3,0,0,1-3.12,9.42c-3.64,2.69-8.56,2.23-11.16-1A8.58,8.58,0,0,1,503,23a8.78,8.78,0,0,1-5.65,1.75,11,11,0,0,1-5.18,10.1c-5,3.28-11.3,2.47-14.13-1.83a8.6,8.6,0,0,1-.73-1.37c-3.19,3.45-7.42,4.79-10.26,3-2.06-1.33-2.9-4-2.51-7a10.13,10.13,0,0,1-14.83-10.29c-2.63,1.39-5.46,1.55-7.64.15a6.8,6.8,0,0,1-2.93-4.86,7.21,7.21,0,0,1-4.68-1.13,7.25,7.25,0,0,1-3-3.74A6.73,6.73,0,0,1,422.68,10a6.06,6.06,0,0,1-1.53-1.26,8,8,0,0,1-3.65,5.77c-3.51,2.32-8,1.74-10-1.29a6.43,6.43,0,0,1-.51-1c-2.26,2.44-5.24,3.38-7.25,2.1-1.45-.94-2-2.83-1.77-5a7.26,7.26,0,0,1-7.25-.28,7.11,7.11,0,0,1-3.07-4.47h-1.6a6.52,6.52,0,0,1-6,3.62,7,7,0,0,1-2-.3,10,10,0,0,1,.38,2.69c0,5.87-5.27,10.62-11.77,10.62a12.32,12.32,0,0,1-8.62-3.39,12.06,12.06,0,0,1-5.72,1.42c-5.36,0-9.83-3.41-10.9-7.95a5.23,5.23,0,0,1-3.33,1.16A4.72,4.72,0,0,1,333.17,8V8a9.45,9.45,0,0,1-2.07.24,9.09,9.09,0,0,1-5.89-2.16,7.61,7.61,0,0,1-7.39,5.05,8.08,8.08,0,0,1-5.63-2.22,7.85,7.85,0,0,1-3.74.93,7.14,7.14,0,0,1-7.11-5.2,3.45,3.45,0,0,1-4.37,0H296a4.46,4.46,0,0,1-2.11,3A4.76,4.76,0,0,1,287.67,6a5.08,5.08,0,0,1-2.08,2.64,5.17,5.17,0,0,1-3.3.8,4.85,4.85,0,0,1-2.07,3.43,5.31,5.31,0,0,1-5.4-.11A7.16,7.16,0,0,1,264.35,20c.27,2.13-.32,4-1.77,5-2,1.29-5,.35-7.24-2.09a5.69,5.69,0,0,1-.52,1c-2,3-6.46,3.61-10,1.29A7.76,7.76,0,0,1,241.18,18a6.21,6.21,0,0,1-4-1.23,6.08,6.08,0,0,1-2.53-4.85,5.73,5.73,0,0,1-7.88.69,6.19,6.19,0,0,1-2.14-2.84,11.72,11.72,0,0,1-3.58-1.2,12,12,0,0,1-8.4,3.3A11.41,11.41,0,0,1,201.75,4.7,4.51,4.51,0,0,1,200,7a5.31,5.31,0,0,1-5.39-.1A7.15,7.15,0,0,1,184.1,14.2c.27,2.14-.33,4-1.78,5-2,1.28-5,.34-7.24-2.1a5.69,5.69,0,0,1-.52,1c-2,3-6.46,3.61-10,1.29a7.82,7.82,0,0,1-3.68-6.54,5.08,5.08,0,0,1-3.29.79A4.83,4.83,0,0,1,155.54,17a5.29,5.29,0,0,1-5.39-.1,7.15,7.15,0,0,1-10.47,7.26c.27,2.14-.32,4-1.77,5-2,1.29-5,.34-7.25-2.1a4.74,4.74,0,0,1-.51,1c-2,3-6.46,3.61-10,1.3a7.75,7.75,0,0,1-3.66-7.14,6.2,6.2,0,0,1-4-1.23A6.08,6.08,0,0,1,110,16.1a5.74,5.74,0,0,1-7.88.69,6.91,6.91,0,0,1-.89-.81,8,8,0,0,1-5.46-2.21,8.2,8.2,0,0,1-2.15.76,6.41,6.41,0,0,1-1.91,2.26,5.73,5.73,0,0,1-7.87-.69,6.09,6.09,0,0,1-2.53,4.84,6.2,6.2,0,0,1-4,1.23,7.73,7.73,0,0,1-3.66,7.14c-3.51,2.31-8,1.73-10-1.3a6,6,0,0,1-.51-1c-2.25,2.44-5.24,3.39-7.24,2.1-1.46-.94-2-2.83-1.78-5a7.15,7.15,0,0,1-10.47-7.26,5.29,5.29,0,0,1-5.39.1,4.7,4.7,0,0,1-1.95-2.93,7.68,7.68,0,0,1-7.22,4.58,8,8,0,0,1-5.63-2.22,7.85,7.85,0,0,1-3.74.93,7.14,7.14,0,0,1-7.12-5.19,3.4,3.4,0,0,1-2.17.76A3.09,3.09,0,0,1,7.23,10v0a6,6,0,0,1-1.35.16A5.82,5.82,0,0,1,0,4.63H0V0Z"/></g></g></g></g></g></svg>