<svg xmlns="http://www.w3.org/2000/svg" xmlns:xlink="http://www.w3.org/1999/xlink" viewBox="-1101.47 -32.28 1086.86 869.49">
    <defs>
        <style>
            .cls-1,
            .cls-12,
            .cls-6 {
                fill: none;
            }

            .cls-2 {
                clip-path: url(#clip-path);
            }

            .cls-3 {
                fill: #fffcf3;
            }

            .cls-3,
            .cls-6,
            .cls-7 {
                stroke: #3d3d3d;
            }

            .cls-10,
            .cls-11,
            .cls-12,
            .cls-3,
            .cls-4,
            .cls-5,
            .cls-6,
            .cls-7,
            .cls-9 {
                stroke-linecap: round;
                stroke-linejoin: round;
            }

            .cls-12,
            .cls-3,
            .cls-6,
            .cls-7,
            .cls-9 {
                stroke-width: 2px;
            }

            .cls-4 {
                fill: #efa081;
                stroke: #efa081;
            }

            .cls-5,
            .cls-8 {
                fill: #f2cba5;
            }

            .cls-5 {
                stroke: #f2cba5;
            }

            .cls-7,
            .cls-9 {
                fill: #fff2e9;
            }

            .cls-12,
            .cls-9 {
                stroke: #000;
            }

            .cls-10 {
                fill: #ef7443;
                stroke: #ef7443;
            }

            .cls-11,
            .cls-13 {
                fill: #ffba6e;
            }

            .cls-11 {
                stroke: #ffba6e;
            }

             /* ------------------------------------------------------------ */
            /* ------------------------ ANIMATIONS ------------------------ */
            /* ------------------------------------------------------------ */

            /* Clouds */
            /* #bc1, */
            #fc3 {
                animation: cloud_fast 20s infinite linear;
            }
            #bc2, #bc_grp2 {
                animation: cloud_fast 25s infinite linear;
            }
            /* #bc3,  */
            #fc2 {
                animation: cloud_medium 26s infinite linear;
                animation-delay: 3s;
            }
            /* #bc4,  */
            #fc1 {
                animation: cloud_fast 14s infinite linear;
            }
            /* #bc_grp1 {
                animation: cloud_slow 14s infinite linear;
                animation-delay: 2s; 
            } */

            /* Clouds */
            @keyframes cloud_fast {
                80% {transform: translateX(-1700px);}
                100% {transform: translateX(-1700px);}
            }
            @keyframes cloud_medium {
                10% {transform: translateX(0px);}
                70% {transform: translateX(-1700px);}
                100% {transform: translateX(-1700px);}
            }
            @keyframes cloud_slow {
                30% {transform: translateX(0px);}
                100% {transform: translateX(-1700px);}
            }

            @keyframes cloud_small {
                50% {transform: translate(-10px, 20px); }
            }
            @keyframes cloud_small_2 {
                30% {transform: translate(15px, 20px); }
                70% {transform: translate(-5px, 10px); }
            }
            @keyframes cloud_small_3 {
                30% {transform: translate(-10px, 20px); }
                70% {transform: translate(-5px, 10px); }
            }

            @keyframes desk_move {
                30% { transform: translate(30px, 10px); }
                70% { transform: translate(-20px, -20px); }
            }
        </style>
        <clipPath id="clip-path" transform="translate(-1101.47 -32.28)">
            <rect class="cls-1" width="1086.86" height="869.49" />
        </clipPath>
    </defs>
    <g id="Layer_2" data-name="Layer 2">
        <g id="cloud_bg">
            <g id="cloud_background">
                <g class="cls-2">
                    <g id="bc4">
                        <path class="cls-3"
                            d="M1102.47,181.74c-.11-5.05,5.86-9.28,13.33-9.45a19.2,19.2,0,0,1,3.43.23,11.49,11.49,0,0,1,5.52-8c5.38-3.11,12.33-1.24,16,4.11a13.24,13.24,0,0,1,13.79-8.81,12.39,12.39,0,0,1,5.31-8.79c3.94-2.53,9.07-2.24,13.81.26a18.32,18.32,0,0,1,26.83-18.6c-.7-5.48.82-10.33,4.54-12.73,5.13-3.29,12.79-.87,18.56,5.38a14.91,14.91,0,0,1,1.31-2.5c5.12-7.76,16.57-9.24,25.57-3.3,6.68,4.4,10.13,11.65,9.37,18.28a15.87,15.87,0,0,1,10.22,3.15,15.6,15.6,0,0,1,6.48,12.4c4.69-5.8,13.59-6.63,20.17-1.76,5.66,4.18,7.8,11.22,5.65,17a10.24,10.24,0,0,1,2.17-.23c4.72,0,8.54,3,8.54,6.66a5.3,5.3,0,0,1-.25,1.6,7.9,7.9,0,1,1,3.54,15H1112.81l-.31,0a8.55,8.55,0,0,1-.88,0h0a9.4,9.4,0,0,1-9-8.9c0-.12,0-.23,0-.34A4.91,4.91,0,0,1,1102.47,181.74Z"
                            transform="translate(-1101.47 -32.28)" />
                        <path class="cls-4"
                            d="M1102.47,181.74c-.11-5.05,5.86-9.28,13.33-9.45a19.2,19.2,0,0,1,3.43.23c.17-1,20,3.21,42.56,2.09,16.7-.83,15.16-24.22,34.66-25.47,43.77-2.8,84.91,26.89,115.11,26.79.56,0,3.54-.1,4.81-.1a7.91,7.91,0,1,1,0,15.81H1112.81l-.31,0a8.55,8.55,0,0,1-.88,0h0a9.4,9.4,0,0,1-9-8.9c0-.12,0-.23,0-.34A4.91,4.91,0,0,1,1102.47,181.74Z"
                            transform="translate(-1101.47 -32.28)" />
                        <path class="cls-5"
                            d="M1313.73,177.19c-2.77,6.24-6.17,8.07-11.91,3.44-5.15,1-8.4-1.5-10.31-6.45-6.78,5-13.19,4.51-19.35.21-8.74,3.7-15.86,2.65-21.06-4,4.25-2.35,6.56-4.59,6.08-6.65-7.89,3.61-15.93,5.52-27.77-2.62,1.75,3.93,4.94,6.92,9.27,9.54-4.09,3.6-9.61,4.58-16.39-.6-8.52,9.83-16.66,10.36-24.39,1,14.4-3.32,17.39-11.09,18-19.77-7.79,8.4-13.55,19.43-34.13,11.27.76,3.85,4.26,6.64,11,8.18-8.59,5.52-16.12,6.09-22.47,1.22-9.61,10.32-19.24,13-28.91,6a19,19,0,0,1-11.92,4.62c-12.5-.05-13.22-15.31,0-15.77,4.35.09,7.81,2.28,10.63,6,3.46-4.74,7.65-7.69,12.82-8.3,1.39,3.79,3.34,5.08,6.6,7.42,1.69,1.46,3.32-.42,1.7-1.75-9.52-7.53-1.79-21.38,14.71-16.75-.36-12.13,15-19.55,27.21-15.6,1.93-14.22,9.23-17.05,18.38-9-5.69,3.21-8.51,6.92-8.55,11.13,0,2.55,2.33,3.21,3.06,1,3.87-11.6,11.54-10.25,20.56-4.36,1.6,1,3.37.12,1.77-1.61-3.27-3.12-6.57-6.09-10.23-7,15.66-6.67,23.33,1.67,28.53,14.67,15.6.32,19.91,12.41,15.8,22.41,8.94-13.46,20.09-13.83,27.18-5.21,3.11,4.29,1.42,8-1.31,12.54,2.61-1.76,5.42-3.2,7.66-2.84C1311.75,170.72,1313.44,174.45,1313.73,177.19Z"
                            transform="translate(-1101.47 -32.28)" />
                        <path class="cls-6"
                            d="M1102.47,181.74c-.11-5.05,5.86-9.28,13.33-9.45a19.2,19.2,0,0,1,3.43.23,11.49,11.49,0,0,1,5.52-8c5.38-3.11,12.33-1.24,16,4.11a13.24,13.24,0,0,1,13.79-8.81,12.39,12.39,0,0,1,5.31-8.79c3.94-2.53,9.07-2.24,13.81.26a18.32,18.32,0,0,1,26.83-18.6c-.7-5.48.82-10.33,4.54-12.73,5.13-3.29,12.79-.87,18.56,5.38a14.91,14.91,0,0,1,1.31-2.5c5.12-7.76,16.57-9.24,25.57-3.3,6.68,4.4,10.13,11.65,9.37,18.28a15.87,15.87,0,0,1,10.22,3.15,15.6,15.6,0,0,1,6.48,12.4c4.69-5.8,13.59-6.63,20.17-1.76,5.66,4.18,7.8,11.22,5.65,17a10.24,10.24,0,0,1,2.17-.23c4.72,0,8.54,3,8.54,6.66a5.3,5.3,0,0,1-.25,1.6,7.9,7.9,0,1,1,3.54,15H1112.81l-.31,0a8.55,8.55,0,0,1-.88,0h0a9.4,9.4,0,0,1-9-8.9c0-.12,0-.23,0-.34A4.91,4.91,0,0,1,1102.47,181.74Z"
                            transform="translate(-1101.47 -32.28)" />
                    </g>
                    <g id="bg_grp1">
                        <g id="cloud_small">
                            <path class="cls-7"
                                d="M1361.76,77.49a24,24,0,0,1,5.9.74s0,0,0-.07a14.09,14.09,0,0,1,23.59-10.43,31.79,31.79,0,0,1,47.39-20.63,33.56,33.56,0,0,1,57,31.32,18.23,18.23,0,0,1,5.75-.93,18.44,18.44,0,0,1,12.91,31.61c3.46,2.52,5.54,5.71,5.54,9.17,0,8.16-11.49,14.78-25.67,14.78H1361.76c-14.17,0-25.66-12.44-25.66-27.78S1347.59,77.49,1361.76,77.49Z"
                                transform="translate(-1101.47 -32.28)" />
                            <path class="cls-8"
                                d="M1513.2,107.42c8.38-14.75-4.53-31.92-23.54-25.48a.88.88,0,0,1-1.14-1c7.5-50.29-46.7-51.28-55.46-9.61a.87.87,0,0,1-1.52.41c-1.7-2.09-1.23-7.05,3.36-17.48a2.5,2.5,0,0,0-1.37-3.34c-20.2-7.94-37.53,2.13-40.48,20.74a.88.88,0,0,1-1.42.53c-11.19-9.23-20.87-4.41-22.52,8a.89.89,0,0,1-1.12.74c-10.9-3.07-20.83-1-22.24,2L1340.68,97a.86.86,0,0,0,0,.57l8.15,25a.88.88,0,0,0,.85.61l165.63-3.08a.89.89,0,0,0,.84-1.12l-3-10.93A.89.89,0,0,1,1513.2,107.42Z"
                                transform="translate(-1101.47 -32.28)" />
                            <path class="cls-4"
                                d="M1348.45,80.49c-2.21,2.4-5.5,9.11-5.37,17.19,0,9.65,8.76,17.48,19.56,17.48,7.85,0,14.61-4.15,17.72-10.13,2.27,3.11,6.83,5.24,12.09,5.24,7.53,0,13.63-4.35,13.63-9.71a2.45,2.45,0,0,0,0-.27c-9.92-3.36-9-7.43-8.48-10.23a25.82,25.82,0,0,0,11.89,6.5c7.67,2,15.8,1.89,20.34.06.4-.16.9.1.87.46a2.87,2.87,0,0,1-1.06,1.52c-3,2.89-8.93,4.51-17.78,3a5.56,5.56,0,0,0-.72,2.66c0,5.36,8.32,9.7,18.59,9.7,8.06,0,14.9-2.68,17.48-6.42.71,4.83,9.65,8.64,20.6,8.64s19.85-3.8,20.59-8.61c2,3.24,6.52,5.5,11.78,5.5s11.31-.83,13.36-4c4,3.71,4.37,4.75,5.88,8.39,0,8.59-15.42,15.56-34.45,15.56l-1.8,0-.42,0H1367.91a7.17,7.17,0,0,1-1-.08c-.64.05-1.27.08-1.92.08a28.22,28.22,0,0,1-28.22-28.23C1336.73,95,1340.83,85.54,1348.45,80.49Z"
                                transform="translate(-1101.47 -32.28)" />
                            <path class="cls-4"
                                d="M1455.7,88.05c-9.2,1.06-16.07-3.37-15.48-7.85a4.59,4.59,0,0,1,.47-1.44.58.58,0,0,1,.87-.15c2.41,2.72,8,4.53,14.76,4.43s13-2.14,16.07-5c.28-.25.76-.18.84.12a3.81,3.81,0,0,1,.1,1.51C1472.83,83.53,1465,87,1455.7,88.05Z"
                                transform="translate(-1101.47 -32.28)" />
                            <path class="cls-6"
                                d="M1361,77.49a23.88,23.88,0,0,1,5.89.74v-.07a14.09,14.09,0,0,1,23.59-10.43,31.78,31.78,0,0,1,47.38-20.63,33.57,33.57,0,0,1,57.06,31.32,18.23,18.23,0,0,1,5.75-.93,18.43,18.43,0,0,1,12.9,31.61c3.47,2.52,5.55,5.71,5.55,9.17,0,8.16-11.5,14.78-25.67,14.78H1361c-14.17,0-25.67-12.44-25.67-27.78S1346.78,77.49,1361,77.49Z"
                                transform="translate(-1101.47 -32.28)" />
                        </g>
                        <g id="cloud_large">
                            <path class="cls-3"
                                d="M1457,138c.18-8-9.32-14.76-21.21-15a31.28,31.28,0,0,0-5.44.36,18.3,18.3,0,0,0-8.78-12.75c-8.55-4.93-19.6-2-25.45,6.54a21.05,21.05,0,0,0-21.92-14c-.92-5.92-3.76-11-8.45-14-6.26-4-14.41-3.57-22,.42A29.13,29.13,0,0,0,1301.1,60c1.11-8.71-1.31-16.43-7.22-20.23-8.16-5.24-20.33-1.39-29.5,8.54a24.21,24.21,0,0,0-2.09-4c-8.14-12.34-26.34-14.7-40.64-5.26-10.62,7-16.11,18.53-14.91,29.06a25.29,25.29,0,0,0-16.24,5,24.77,24.77,0,0,0-10.3,19.72c-7.46-9.23-21.6-10.55-32.08-2.81-9,6.65-12.38,17.85-9,27.11a17,17,0,0,0-3.45-.36c-7.5,0-13.59,4.74-13.59,10.59a8.72,8.72,0,0,0,.41,2.55,12.37,12.37,0,0,0-5.63-1.35,12.57,12.57,0,0,0,0,25.14l.53,0v0H1440.5l.5,0c.48,0,.94,0,1.4,0h.07c7.91-.51,14.22-6.59,14.39-14.15,0-.18,0-.36,0-.54A9.35,9.35,0,0,0,1457,138Z"
                                transform="translate(-1101.47 -32.28)" />
                            <path class="cls-4"
                                d="M1457,138c.18-8-9.32-14.76-21.21-15a31.28,31.28,0,0,0-5.44.36c-.28-1.54-31.75,5.1-67.66,3.32-26.56-1.31-24.1-38.5-55.1-40.49-69.59-4.45-135,42.76-183,42.59-.88,0-5.61-.16-7.64-.16a12.57,12.57,0,0,0,0,25.14l.53,0v0H1440.5l.5,0c.48,0,.94,0,1.4,0h.07c7.91-.51,14.22-6.59,14.39-14.15,0-.18,0-.36,0-.54A9.35,9.35,0,0,0,1457,138Z"
                                transform="translate(-1101.47 -32.28)" />
                            <path class="cls-5"
                                d="M1121.09,130.75c4.4,9.93,9.81,12.83,18.93,5.47,8.18,1.59,13.35-2.38,16.4-10.25,10.78,8,21,7.18,30.75.34,13.91,5.88,25.22,4.21,33.49-6.32-6.77-3.74-10.43-7.29-9.67-10.57,12.55,5.75,25.32,8.78,44.14-4.17-2.78,6.25-7.84,11-14.74,15.17,6.51,5.72,15.28,7.28,26.06-.94,13.56,15.62,26.5,16.46,38.78,1.54-22.89-5.28-27.65-17.64-28.7-31.44,12.39,13.36,21.55,30.9,54.27,17.92-1.22,6.12-6.78,10.56-17.53,13,13.65,8.77,25.61,9.68,35.7,1.94,15.28,16.4,30.6,20.74,46,9.51a30.15,30.15,0,0,0,19,7.35c19.86-.09,21-24.34,0-25.08-6.92.15-12.42,3.63-16.91,9.49-5.49-7.54-12.16-12.23-20.38-13.2-2.2,6-5.31,8.07-10.5,11.78-2.68,2.33-5.26-.66-2.69-2.78,15.13-12,2.85-34-23.39-26.62.57-19.29-23.9-31.08-43.25-24.8-3.08-22.61-14.67-27.1-29.22-14.35,9,5.09,13.52,11,13.58,17.68,0,4.06-3.7,5.11-4.87,1.67-6.14-18.43-18.34-16.3-32.67-6.92-2.54,1.58-5.36.19-2.82-2.56,5.2-5,10.44-9.68,16.27-11.15-24.91-10.61-37.1,2.66-45.36,23.32-24.81.52-31.65,19.74-25.12,35.63-14.22-21.4-31.93-22-43.21-8.28-4.95,6.82-2.26,12.72,2.08,19.94-4.15-2.8-8.62-5.09-12.18-4.51C1124.23,120.48,1121.54,126.4,1121.09,130.75Z"
                                transform="translate(-1101.47 -32.28)" />
                            <path class="cls-6"
                                d="M1457,138c.18-8-9.32-14.76-21.21-15a31.28,31.28,0,0,0-5.44.36,18.3,18.3,0,0,0-8.78-12.75c-8.55-4.93-19.6-2-25.45,6.54a21.05,21.05,0,0,0-21.92-14c-.92-5.92-3.76-11-8.45-14-6.26-4-14.41-3.57-22,.42A29.13,29.13,0,0,0,1301.1,60c1.11-8.71-1.31-16.43-7.22-20.23-8.16-5.24-20.33-1.39-29.5,8.54a24.21,24.21,0,0,0-2.09-4c-8.14-12.34-26.34-14.7-40.64-5.26-10.62,7-16.11,18.53-14.91,29.06a25.29,25.29,0,0,0-16.24,5,24.77,24.77,0,0,0-10.3,19.72c-7.46-9.23-21.6-10.55-32.08-2.81-9,6.65-12.38,17.85-9,27.11a17,17,0,0,0-3.45-.36c-7.5,0-13.59,4.74-13.59,10.59a8.72,8.72,0,0,0,.41,2.55,12.37,12.37,0,0,0-5.63-1.35,12.57,12.57,0,0,0,0,25.14l.53,0v0H1440.5l.5,0c.48,0,.94,0,1.4,0h.07c7.91-.51,14.22-6.59,14.39-14.15,0-.18,0-.36,0-.54A9.35,9.35,0,0,0,1457,138Z"
                                transform="translate(-1101.47 -32.28)" />
                        </g>
                    </g>
                    <g id="bc3">
                        <path class="cls-7"
                            d="M1138.7,489.9a31.87,31.87,0,0,1,7.91,1s0-.07,0-.11a18.91,18.91,0,0,1,31.65-14,42.64,42.64,0,0,1,63.57-27.67,45,45,0,0,1,76.54,42,24.73,24.73,0,0,1,32.46,23.51,24.66,24.66,0,0,1-7.43,17.66c4.65,3.38,7.43,7.65,7.43,12.3,0,10.95-15.41,19.82-34.43,19.82H1138.7c-19,0-34.43-16.68-34.43-37.26S1119.68,489.9,1138.7,489.9Z"
                            transform="translate(-1101.47 -32.28)" />
                        <path class="cls-8"
                            d="M1341.87,530.06c11.24-19.8-6.08-42.83-31.59-34.19a1.18,1.18,0,0,1-1.52-1.32c10.06-67.46-62.65-68.78-74.4-12.89a1.19,1.19,0,0,1-2.06.56c-2.27-2.81-1.64-9.46,4.52-23.45a3.35,3.35,0,0,0-1.84-4.49c-27.1-10.65-50.36,2.87-54.3,27.83a1.18,1.18,0,0,1-1.91.7c-15-12.37-28-5.9-30.22,10.7a1.19,1.19,0,0,1-1.5,1c-14.62-4.12-27.94-1.36-29.83,2.63l-6.81,19a1.16,1.16,0,0,0,0,.76l10.93,33.57a1.19,1.19,0,0,0,1.15.81l222.2-4.13a1.18,1.18,0,0,0,1.12-1.5l-4-14.66A1.18,1.18,0,0,1,1341.87,530.06Z"
                            transform="translate(-1101.47 -32.28)" />
                        <path class="cls-4"
                            d="M1120.84,493.93c-3,3.22-7.38,12.22-7.2,23.05,0,12.95,11.74,23.45,26.23,23.45,10.54,0,19.61-5.57,23.78-13.58,3,4.17,9.16,7,16.22,7,10.1,0,18.29-5.82,18.29-13,0-.13,0-.25,0-.37-13.31-4.51-12.12-10-11.38-13.73a34.66,34.66,0,0,0,16,8.73c10.29,2.61,21.2,2.53,27.29.07.54-.21,1.21.14,1.17.63a3.88,3.88,0,0,1-1.43,2c-4,3.88-12,6.06-23.85,4a7.53,7.53,0,0,0-1,3.57c0,7.19,11.17,13,24.95,13,10.81,0,20-3.59,23.44-8.61,1,6.47,13,11.59,27.64,11.59s26.64-5.1,27.63-11.56c2.69,4.35,8.74,7.39,15.8,7.39s15.17-1.12,17.93-5.34c5.35,5,5.86,6.36,7.88,11.25,0,11.53-20.69,20.87-46.21,20.87l-2.42,0-.56,0H1147a12.83,12.83,0,0,1-1.4-.09c-.85,0-1.71.09-2.57.09a37.87,37.87,0,0,1-37.87-37.86C1105.11,513.38,1110.61,500.7,1120.84,493.93Z"
                            transform="translate(-1101.47 -32.28)" />
                        <path class="cls-4"
                            d="M1264.72,504.07c-12.34,1.42-21.56-4.52-20.76-10.53a6,6,0,0,1,.62-1.93.77.77,0,0,1,1.17-.2c3.23,3.64,10.72,6.07,19.8,5.93s17.38-2.86,21.57-6.67c.37-.34,1-.25,1.13.15a5.3,5.3,0,0,1,.13,2C1287.71,498,1277.18,502.63,1264.72,504.07Z"
                            transform="translate(-1101.47 -32.28)" />
                        <path class="cls-6"
                            d="M1137.61,489.9a31.87,31.87,0,0,1,7.91,1s0-.07,0-.11a18.91,18.91,0,0,1,31.65-14,42.64,42.64,0,0,1,63.57-27.67,45,45,0,0,1,76.54,42,24.73,24.73,0,0,1,32.46,23.51,24.66,24.66,0,0,1-7.43,17.66c4.65,3.38,7.43,7.65,7.43,12.3,0,10.95-15.41,19.82-34.43,19.82H1137.61c-19,0-34.43-16.68-34.43-37.26S1118.59,489.9,1137.61,489.9Z"
                            transform="translate(-1101.47 -32.28)" />
                    </g>
                    <g id="bc_grp1">
                        <g id="cloud_small-2" data-name="cloud_small">
                            <path class="cls-7"
                                d="M1134.48,311a27.69,27.69,0,0,1,6.84.87v-.09a16.37,16.37,0,0,1,27.4-12.12,36.92,36.92,0,0,1,55-23.95A39,39,0,0,1,1290,312.11a21.41,21.41,0,0,1,21.66,35.64c4,2.93,6.44,6.62,6.44,10.65,0,9.48-13.35,17.16-29.81,17.16H1134.48c-16.47,0-29.82-14.44-29.82-32.26S1118,311,1134.48,311Z"
                                transform="translate(-1101.47 -32.28)" />
                            <path class="cls-8"
                                d="M1310.38,345.8c9.73-17.14-5.27-37.08-27.35-29.6a1,1,0,0,1-1.32-1.14c8.71-58.41-54.24-59.56-64.42-11.16a1,1,0,0,1-1.77.48c-2-2.43-1.43-8.19,3.9-20.3a2.91,2.91,0,0,0-1.58-3.89c-23.47-9.22-43.6,2.48-47,24.09a1,1,0,0,1-1.65.61c-13-10.71-24.24-5.11-26.16,9.26a1,1,0,0,1-1.31.87c-12.65-3.57-24.18-1.18-25.82,2.27L1110,333.7a1,1,0,0,0,0,.67l9.46,29.05a1,1,0,0,0,1,.71l192.39-3.57a1,1,0,0,0,1-1.3l-3.51-12.69A1,1,0,0,1,1310.38,345.8Z"
                                transform="translate(-1101.47 -32.28)" />
                            <path class="cls-4"
                                d="M1119,314.52c-2.57,2.79-6.38,10.58-6.23,20,0,11.21,10.17,20.3,22.71,20.3,9.13,0,17-4.82,20.59-11.76,2.63,3.61,7.93,6.08,14,6.08,8.75,0,15.83-5,15.83-11.27,0-.1,0-.21,0-.31-11.52-3.91-10.49-8.64-9.85-11.89a30.07,30.07,0,0,0,13.81,7.56c8.91,2.26,18.35,2.19,23.63.06.46-.19,1,.12,1,.54-.06.68-.72,1.27-1.23,1.76-3.48,3.36-10.37,5.24-20.65,3.5a6.45,6.45,0,0,0-.84,3.08c0,6.23,9.67,11.28,21.6,11.28,9.36,0,17.3-3.12,20.3-7.46.83,5.6,11.21,10,23.92,10s23.07-4.42,23.93-10c2.33,3.76,7.57,6.39,13.67,6.39s13.14-1,15.53-4.62c4.63,4.31,5.07,5.51,6.82,9.74,0,10-17.91,18.07-40,18.07l-2.09,0-.49,0H1141.62a9.87,9.87,0,0,1-1.22-.08c-.73,0-1.47.08-2.22.08a32.78,32.78,0,0,1-32.78-32.78C1105.4,331.36,1110.16,320.38,1119,314.52Z"
                                transform="translate(-1101.47 -32.28)" />
                            <path class="cls-4"
                                d="M1243.58,323.3c-10.68,1.23-18.66-3.92-18-9.12a5.18,5.18,0,0,1,.54-1.67.68.68,0,0,1,1-.18c2.8,3.16,9.28,5.27,17.14,5.14s15-2.48,18.68-5.77c.32-.3.88-.22,1,.13a4.66,4.66,0,0,1,.12,1.75C1263.49,318,1254.37,322.05,1243.58,323.3Z"
                                transform="translate(-1101.47 -32.28)" />
                            <path class="cls-6"
                                d="M1133.53,311a27.71,27.71,0,0,1,6.85.87s0-.06,0-.09a16.37,16.37,0,0,1,27.41-12.12,36.91,36.91,0,0,1,55-23.95,39,39,0,0,1,66.27,36.37,21.41,21.41,0,0,1,21.67,35.64c4,2.93,6.44,6.62,6.44,10.65,0,9.48-13.35,17.16-29.82,17.16H1133.53c-16.46,0-29.81-14.44-29.81-32.26S1117.07,311,1133.53,311Z"
                                transform="translate(-1101.47 -32.28)" />
                        </g>
                        <g id="cloud_small-3" data-name="cloud_small">
                            <path class="cls-7"
                                d="M1381.61,331.55a28.17,28.17,0,0,0-6.84.86v-.09a16.37,16.37,0,0,0-27.4-12.11,36.92,36.92,0,0,0-55-23.95,39,39,0,0,0-66.27,36.37,21.41,21.41,0,0,0-21.66,35.64c-4,2.93-6.44,6.62-6.44,10.65,0,9.48,13.35,17.16,29.81,17.16h153.84c16.47,0,29.82-14.44,29.82-32.26S1398.08,331.55,1381.61,331.55Z"
                                transform="translate(-1101.47 -32.28)" />
                            <path class="cls-8"
                                d="M1205.71,366.32c-9.73-17.14,5.27-37.08,27.35-29.6a1,1,0,0,0,1.32-1.14c-8.71-58.41,54.24-59.56,64.42-11.16a1,1,0,0,0,1.77.48c2-2.43,1.43-8.19-3.9-20.3a2.91,2.91,0,0,1,1.58-3.89c23.47-9.22,43.6,2.48,47,24.09a1,1,0,0,0,1.65.61c13-10.71,24.24-5.11,26.16,9.26a1,1,0,0,0,1.31.87c12.65-3.57,24.18-1.18,25.82,2.27l5.89,16.41a1,1,0,0,1,0,.67l-9.46,29.05a1,1,0,0,1-1,.71l-192.39-3.57a1,1,0,0,1-1-1.3l3.51-12.69A1,1,0,0,0,1205.71,366.32Z"
                                transform="translate(-1101.47 -32.28)" />
                            <path class="cls-4"
                                d="M1397.08,335c2.57,2.79,6.38,10.58,6.23,20,0,11.21-10.17,20.3-22.71,20.3-9.13,0-17-4.82-20.59-11.76-2.63,3.61-7.93,6.08-14,6.08-8.75,0-15.83-5-15.83-11.27a3,3,0,0,1,0-.31c11.52-3.91,10.49-8.64,9.85-11.89a30.07,30.07,0,0,1-13.81,7.56c-8.91,2.26-18.35,2.19-23.63.06-.46-.19-1,.12-1,.54.06.68.72,1.27,1.23,1.76,3.48,3.36,10.37,5.24,20.65,3.5a6.45,6.45,0,0,1,.84,3.08c0,6.23-9.67,11.27-21.6,11.27-9.36,0-17.3-3.11-20.3-7.45-.83,5.6-11.21,10-23.92,10s-23.07-4.42-23.93-10c-2.33,3.76-7.57,6.39-13.67,6.39s-13.14-1-15.53-4.62c-4.63,4.31-5.07,5.51-6.82,9.74,0,10,17.91,18.07,40,18.07l2.09,0,.49,0h133.36a9.87,9.87,0,0,0,1.22-.08c.73.05,1.47.08,2.22.08a32.78,32.78,0,0,0,32.78-32.78C1410.69,351.88,1405.93,340.9,1397.08,335Z"
                                transform="translate(-1101.47 -32.28)" />
                            <path class="cls-4"
                                d="M1272.51,343.82c10.68,1.23,18.66-3.92,18-9.12a5.18,5.18,0,0,0-.54-1.67.68.68,0,0,0-1-.18c-2.8,3.16-9.28,5.27-17.14,5.14s-15-2.48-18.68-5.77c-.32-.3-.88-.22-1,.13a4.66,4.66,0,0,0-.12,1.75C1252.6,338.56,1261.72,342.57,1272.51,343.82Z"
                                transform="translate(-1101.47 -32.28)" />
                            <path class="cls-6"
                                d="M1382.56,331.55a28.19,28.19,0,0,0-6.85.86s0-.05,0-.09a16.37,16.37,0,0,0-27.41-12.11,36.91,36.91,0,0,0-55-23.95A39,39,0,0,0,1227,332.63a21.41,21.41,0,0,0-21.67,35.64c-4,2.93-6.44,6.62-6.44,10.65,0,9.48,13.35,17.16,29.82,17.16h153.84c16.46,0,29.81-14.44,29.81-32.26S1399,331.55,1382.56,331.55Z"
                                transform="translate(-1101.47 -32.28)" />
                        </g>
                    </g>
                    <g id="bc2">
                        <path class="cls-3"
                            d="M1566.22,604.11c.24-10.47-12.13-19.23-27.62-19.57a40.11,40.11,0,0,0-7.09.47,23.8,23.8,0,0,0-11.44-16.61c-11.14-6.43-25.53-2.57-33.15,8.52a27.41,27.41,0,0,0-28.57-18.25c-1.19-7.71-4.89-14.28-11-18.21-8.15-5.24-18.78-4.64-28.6.55,1.62-14.42-4.5-28.93-17.1-37a38.39,38.39,0,0,0-38.47-1.49c1.44-11.35-1.7-21.41-9.41-26.36-10.62-6.83-26.48-1.81-38.43,11.12a31.15,31.15,0,0,0-2.73-5.16c-10.6-16.08-34.31-19.14-52.95-6.85-13.83,9.12-21,24.15-19.41,37.86a32.92,32.92,0,0,0-21.17,6.53,32.28,32.28,0,0,0-13.41,25.69c-9.72-12-28.15-13.74-41.79-3.65-11.72,8.66-16.14,23.24-11.7,35.31a22.71,22.71,0,0,0-4.49-.47c-9.78,0-17.7,6.18-17.7,13.8a11.08,11.08,0,0,0,.53,3.31,16.37,16.37,0,1,0-7.34,31l.69,0v0H1544.8l.65,0c.62,0,1.22,0,1.83,0h.08c10.3-.67,18.53-8.59,18.75-18.44,0-.24,0-.47,0-.7A12.69,12.69,0,0,0,1566.22,604.11Z"
                            transform="translate(-1101.47 -32.28)" />
                        <path class="cls-4"
                            d="M1566.22,604.11c.24-10.47-12.13-19.23-27.62-19.57a40.11,40.11,0,0,0-7.09.47c-.36-2-41.37,6.64-88.15,4.33-34.6-1.71-31.4-50.17-71.79-52.76-90.67-5.8-175.88,55.71-238.43,55.49-1.14,0-7.31-.21-10-.21a16.38,16.38,0,0,0,0,32.76l.69,0v0H1544.8l.65,0c.62,0,1.22,0,1.83,0h.08c10.3-.67,18.53-8.59,18.75-18.44,0-.24,0-.47,0-.7A12.69,12.69,0,0,0,1566.22,604.11Z"
                            transform="translate(-1101.47 -32.28)" />
                        <path class="cls-5"
                            d="M1128.66,594.68c5.73,12.94,12.78,16.71,24.65,7.13,10.67,2.06,17.41-3.11,21.37-13.36,14,10.42,27.32,9.35,40.07.44,18.11,7.66,32.85,5.49,43.63-8.23-8.81-4.87-13.59-9.5-12.6-13.78,16.35,7.49,33,11.44,57.51-5.42-3.63,8.14-10.21,14.34-19.2,19.75,8.48,7.46,19.91,9.5,34-1.22,17.66,20.36,34.52,21.45,50.53,2-29.83-6.87-36-23-37.4-41,16.14,17.4,28.08,40.25,70.7,23.34-1.58,8-8.83,13.77-22.84,17,17.79,11.42,33.38,12.61,46.52,2.52,19.91,21.37,39.87,27,59.88,12.39,7.3,6,15.47,9.39,24.71,9.57,25.88-.11,27.38-31.7,0-32.66-9,.19-16.18,4.72-22,12.35-7.14-9.82-15.83-15.93-26.54-17.2-2.87,7.85-6.92,10.52-13.68,15.36-3.5,3-6.86-.87-3.51-3.63,19.72-15.58,3.71-44.26-30.47-34.68.75-25.13-31.14-40.49-56.35-32.31-4-29.46-19.12-35.31-38.07-18.7,11.77,6.64,17.62,14.33,17.7,23,.06,5.29-4.82,6.65-6.34,2.17-8-24-23.91-21.23-42.58-9-3.31,2.06-7,.25-3.67-3.34,6.77-6.47,13.61-12.61,21.2-14.52-32.45-13.83-48.33,3.46-59.1,30.38-32.31.67-41.23,25.71-32.72,46.41-18.53-27.88-41.61-28.64-56.3-10.78-6.44,8.89-3,16.58,2.71,26-5.41-3.64-11.23-6.62-15.87-5.87C1132.74,581.29,1129.24,589,1128.66,594.68Z"
                            transform="translate(-1101.47 -32.28)" />
                        <path class="cls-6"
                            d="M1566.22,604.11c.24-10.47-12.13-19.23-27.62-19.57a40.11,40.11,0,0,0-7.09.47,23.8,23.8,0,0,0-11.44-16.61c-11.14-6.43-25.53-2.57-33.15,8.52a27.41,27.41,0,0,0-28.57-18.25c-1.19-7.71-4.89-14.28-11-18.21-8.15-5.24-18.78-4.64-28.6.55,1.62-14.42-4.5-28.93-17.1-37a38.39,38.39,0,0,0-38.47-1.49c1.44-11.35-1.7-21.41-9.41-26.36-10.62-6.83-26.48-1.81-38.43,11.12a31.15,31.15,0,0,0-2.73-5.16c-10.6-16.08-34.31-19.14-52.95-6.85-13.83,9.12-21,24.15-19.41,37.86a32.92,32.92,0,0,0-21.17,6.53,32.28,32.28,0,0,0-13.41,25.69c-9.72-12-28.15-13.74-41.79-3.65-11.72,8.66-16.14,23.24-11.7,35.31a22.71,22.71,0,0,0-4.49-.47c-9.78,0-17.7,6.18-17.7,13.8a11.08,11.08,0,0,0,.53,3.31,16.37,16.37,0,1,0-7.34,31l.69,0v0H1544.8l.65,0c.62,0,1.22,0,1.83,0h.08c10.3-.67,18.53-8.59,18.75-18.44,0-.24,0-.47,0-.7A12.69,12.69,0,0,0,1566.22,604.11Z"
                            transform="translate(-1101.47 -32.28)" />
                    </g>
                    <g id="bc1">
                        <path class="cls-3"
                            d="M1410.55,268.43c.16-7-8.14-12.89-18.52-13.12a26.44,26.44,0,0,0-4.76.32,16,16,0,0,0-7.67-11.14c-7.47-4.31-17.12-1.72-22.23,5.71A18.42,18.42,0,0,0,1338.21,238c-.8-5.17-3.28-9.57-7.38-12.21-5.47-3.51-12.59-3.11-19.18.37a25.45,25.45,0,0,0-37.26-25.84c1-7.61-1.14-14.35-6.31-17.68-7.13-4.58-17.76-1.21-25.77,7.47a21,21,0,0,0-1.83-3.47c-7.11-10.78-23-12.83-35.51-4.59-9.28,6.12-14.07,16.19-13,25.39a22.13,22.13,0,0,0-14.19,4.38,21.66,21.66,0,0,0-9,17.22c-6.51-8.05-18.87-9.21-28-2.45-7.86,5.81-10.82,15.59-7.84,23.69a14.86,14.86,0,0,0-3-.32c-6.55,0-11.87,4.15-11.87,9.26a7.53,7.53,0,0,0,.36,2.22,10.85,10.85,0,0,0-4.92-1.18,11,11,0,0,0,0,22l.46,0v0h282.27c.15,0,.29,0,.44,0,.41,0,.82,0,1.22,0h.06c6.91-.45,12.43-5.76,12.57-12.37,0-.16,0-.31,0-.47S1410.54,268.74,1410.55,268.43Z"
                            transform="translate(-1101.47 -32.28)" />
                        <path class="cls-4"
                            d="M1410.55,268.43c.16-7-8.14-12.89-18.52-13.12a26.44,26.44,0,0,0-4.76.32c-.24-1.35-27.74,4.45-59.11,2.9-23.21-1.15-21.06-33.64-48.14-35.38-60.81-3.89-118,37.36-159.89,37.21-.77,0-4.91-.14-6.68-.14a11,11,0,0,0,0,22l.46,0v0h282.27c.15,0,.29,0,.44,0,.41,0,.82,0,1.22,0h.06c6.91-.45,12.43-5.76,12.57-12.37,0-.16,0-.31,0-.47S1410.54,268.74,1410.55,268.43Z"
                            transform="translate(-1101.47 -32.28)" />
                        <path class="cls-5"
                            d="M1117.12,262.11c3.84,8.68,8.57,11.21,16.53,4.78,7.16,1.39,11.67-2.08,14.34-9,9.41,7,18.31,6.28,26.86.3,12.15,5.13,22,3.68,29.26-5.52-5.91-3.26-9.11-6.37-8.45-9.24,11,5,22.13,7.67,38.57-3.64-2.43,5.46-6.85,9.62-12.88,13.25,5.69,5,13.35,6.37,22.77-.82,11.84,13.65,23.15,14.38,33.88,1.34-20-4.61-24.16-15.4-25.08-27.46,10.83,11.67,18.83,27,47.42,15.65-1.06,5.35-5.93,9.23-15.32,11.37,11.93,7.66,22.38,8.45,31.2,1.69,13.35,14.33,26.73,18.12,40.15,8.31a26.38,26.38,0,0,0,16.57,6.42c17.35-.08,18.36-21.26,0-21.91-6,.13-10.85,3.17-14.78,8.29-4.79-6.59-10.62-10.69-17.8-11.54-1.92,5.26-4.64,7.06-9.17,10.3-2.35,2-4.6-.58-2.36-2.43,13.23-10.45,2.49-29.69-20.43-23.26.5-16.85-20.88-27.15-37.79-21.66-2.68-19.76-12.82-23.68-25.52-12.54,7.89,4.45,11.81,9.6,11.86,15.45,0,3.54-3.23,4.46-4.25,1.45-5.37-16.1-16-14.23-28.55-6-2.22,1.38-4.68.17-2.46-2.24,4.54-4.34,9.12-8.45,14.22-9.74-21.76-9.27-32.42,2.32-39.63,20.37-21.68.45-27.66,17.25-22,31.13-12.43-18.7-27.9-19.21-37.75-7.23-4.32,6-2,11.11,1.81,17.42-3.62-2.45-7.52-4.44-10.64-3.94C1119.86,253.13,1117.51,258.31,1117.12,262.11Z"
                            transform="translate(-1101.47 -32.28)" />
                        <path class="cls-6"
                            d="M1410.55,268.43c.16-7-8.14-12.89-18.52-13.12a26.44,26.44,0,0,0-4.76.32,16,16,0,0,0-7.67-11.14c-7.47-4.31-17.12-1.72-22.23,5.71A18.42,18.42,0,0,0,1338.21,238c-.8-5.17-3.28-9.57-7.38-12.21-5.47-3.51-12.59-3.11-19.18.37a25.45,25.45,0,0,0-37.26-25.84c1-7.61-1.14-14.35-6.31-17.68-7.13-4.58-17.76-1.21-25.77,7.47a21,21,0,0,0-1.83-3.47c-7.11-10.78-23-12.83-35.51-4.59-9.28,6.12-14.07,16.19-13,25.39a22.13,22.13,0,0,0-14.19,4.38,21.66,21.66,0,0,0-9,17.22c-6.51-8.05-18.87-9.21-28-2.45-7.86,5.81-10.82,15.59-7.84,23.69a14.86,14.86,0,0,0-3-.32c-6.55,0-11.87,4.15-11.87,9.26a7.53,7.53,0,0,0,.36,2.22,10.85,10.85,0,0,0-4.92-1.18,11,11,0,0,0,0,22l.46,0v0h282.27c.15,0,.29,0,.44,0,.41,0,.82,0,1.22,0h.06c6.91-.45,12.43-5.76,12.57-12.37,0-.16,0-.31,0-.47S1410.54,268.74,1410.55,268.43Z"
                            transform="translate(-1101.47 -32.28)" />
                    </g>
                    <g id="fc3">
                        <path class="cls-9"
                            d="M1111.69,652.2c-.22-9.83,11.4-18.06,26-18.38a39.17,39.17,0,0,1,6.66.44,22.38,22.38,0,0,1,10.75-15.6c10.46-6,24-2.41,31.13,8A25.77,25.77,0,0,1,1213,609.52c1.13-7.24,4.6-13.41,10.34-17.1,7.66-4.92,17.63-4.36,26.86.52-1.52-13.55,4.22-27.18,16.06-34.79a36.08,36.08,0,0,1,36.13-1.41c-1.35-10.65,1.6-20.1,8.84-24.75,10-6.42,24.87-1.7,36.1,10.45a28.17,28.17,0,0,1,2.56-4.85c10-15.1,32.22-18,49.73-6.44,13,8.57,19.71,22.68,18.23,35.56a31.06,31.06,0,0,1,19.89,6.13,30.37,30.37,0,0,1,12.6,24.13c9.12-11.28,26.43-12.9,39.25-3.43,11,8.14,15.16,21.84,11,33.17a20.75,20.75,0,0,1,4.22-.44c9.18,0,16.62,5.81,16.62,13a10.06,10.06,0,0,1-.5,3.1,15.38,15.38,0,1,1,6.9,29.13c-.22,0-.43,0-.65,0v0H1131.81l-.61,0c-.57,0-1.14,0-1.71,0h-.08c-9.67-.63-17.4-8.06-17.61-17.32,0-.22,0-.43,0-.65A11.27,11.27,0,0,1,1111.69,652.2Z"
                            transform="translate(-1101.47 -32.28)" />
                        <path class="cls-10"
                            d="M1111.69,652.2c-.22-9.83,11.4-18.06,26-18.38a39.17,39.17,0,0,1,6.66.44c.34-1.89,38.86,6.24,82.79,4.07,32.5-1.61,29.49-47.12,67.43-49.55,85.16-5.45,165.9,51.43,224.65,51.22,1.08,0,6.17.7,8.65.7a15.39,15.39,0,0,1,0,30.77c-.22,0-.43,0-.65,0v0H1131.81l-.61,0c-.57,0-1.14,0-1.71,0h-.08c-9.67-.63-17.4-8.06-17.61-17.32,0-.22,0-.43,0-.65A11.27,11.27,0,0,1,1111.69,652.2Z"
                            transform="translate(-1101.47 -32.28)" />
                        <path class="cls-11"
                            d="M1522.67,643.35c-5.37,12.14-12,15.69-23.15,6.69-10,1.94-16.35-2.92-20.07-12.55-13.19,9.79-25.66,8.79-37.64.42-17,7.19-30.85,5.15-41-7.73,8.28-4.58,12.77-8.92,11.84-12.94-15.35,7-31,10.74-54-5.1,3.41,7.65,9.6,13.47,18,18.56-8,7-18.7,8.91-31.89-1.15-16.59,19.12-32.43,20.14-47.46,1.88,28-6.46,33.84-21.58,35.13-38.47-15.16,16.35-26.38,37.81-66.41,21.93,1.49,7.49,8.3,12.93,21.46,15.91-16.72,10.73-31.35,11.85-43.7,2.37-18.7,20.08-37.44,25.38-56.24,11.64-6.85,5.64-14.53,8.82-23.21,9-24.31-.1-25.72-29.78,0-30.68,8.47.18,15.2,4.44,20.7,11.6,6.71-9.22,14.87-15,24.93-16.15,2.7,7.37,9.88,12.32,16.23,16.86,2.8,1.8,3-4.78-1.38-7.3-21.38-13,6.29-33.28,29.92-31.12-.71-23.6,29.24-38,52.92-30.34,3.76-27.68,18-33.17,35.75-17.56-11,6.23-16.54,13.45-16.62,21.64,0,5,4.53,6.24,6,2,7.52-22.54,22.45-19.94,40-8.46,3.11,1.93,6.56.23,3.45-3.14-6.36-6.08-12.78-11.84-19.92-13.64,30.48-13,45.4,3.26,55.51,28.54,30.36.63,38.73,24.15,30.74,43.59,17.4-26.19,40.45-26.81,54.25-10,6.06,8.35,2.84,16.39-3.92,24.31,5.08-3.43,10-5.88,14.35-5.18C1518.28,631.12,1522.12,638,1522.67,643.35Z"
                            transform="translate(-1101.47 -32.28)" />
                        <path class="cls-12"
                            d="M1111.69,652.2c-.22-9.83,11.4-18.06,26-18.38a39.17,39.17,0,0,1,6.66.44,22.38,22.38,0,0,1,10.75-15.6c10.46-6,24-2.41,31.13,8A25.77,25.77,0,0,1,1213,609.52c1.13-7.24,4.6-13.41,10.34-17.1,7.66-4.92,17.63-4.36,26.86.52-1.52-13.55,4.22-27.18,16.06-34.79a36.08,36.08,0,0,1,36.13-1.41c-1.35-10.65,1.6-20.1,8.84-24.75,10-6.42,24.87-1.7,36.1,10.45a28.17,28.17,0,0,1,2.56-4.85c10-15.1,32.22-18,49.73-6.44,13,8.57,19.71,22.68,18.23,35.56a31.06,31.06,0,0,1,19.89,6.13,30.37,30.37,0,0,1,12.6,24.13c9.12-11.28,26.43-12.9,39.25-3.43,11,8.14,15.16,21.84,11,33.17a20.75,20.75,0,0,1,4.22-.44c9.18,0,16.62,5.81,16.62,13a10.06,10.06,0,0,1-.5,3.1,15.38,15.38,0,1,1,6.9,29.13c-.22,0-.43,0-.65,0v0H1131.81l-.61,0c-.57,0-1.14,0-1.71,0h-.08c-9.67-.63-17.4-8.06-17.61-17.32,0-.22,0-.43,0-.65A11.27,11.27,0,0,1,1111.69,652.2Z"
                            transform="translate(-1101.47 -32.28)" />
                    </g>
                    <g id="fc2">
                        <path class="cls-9"
                            d="M1103.39,800.16c-.28-12.19,14.14-22.41,32.2-22.81a48.45,48.45,0,0,1,8.26.55,27.77,27.77,0,0,1,13.34-19.36c13-7.5,29.76-3,38.65,9.93a31.95,31.95,0,0,1,33.29-21.27c1.4-9,5.71-16.65,12.84-21.23,9.5-6.11,21.88-5.41,33.34.64-1.89-16.81,5.23-33.72,19.93-43.17,13.79-8.87,30.8-9,44.84-1.75-1.68-13.23,2-25,11-30.73,12.39-8,30.87-2.11,44.8,13a35.42,35.42,0,0,1,3.18-6c12.36-18.75,40-22.32,61.72-8,16.13,10.64,24.46,28.15,22.63,44.13a38.5,38.5,0,0,1,24.68,7.61,37.66,37.66,0,0,1,15.64,30c11.32-14,32.81-16,48.71-4.26,13.66,10.1,18.82,27.1,13.64,41.17a26.22,26.22,0,0,1,5.24-.54c11.39,0,20.63,7.2,20.63,16.08a12.49,12.49,0,0,1-.63,3.86,19.09,19.09,0,1,1,8.56,36.15c-.27,0-.53,0-.8,0v0H1128.36l-.76,0c-.72,0-1.42,0-2.12,0h-.11c-12-.78-21.6-10-21.85-21.49,0-.28,0-.54,0-.82A14.2,14.2,0,0,1,1103.39,800.16Z"
                            transform="translate(-1101.47 -32.28)" />
                        <path class="cls-10"
                            d="M1103.39,800.16c-.28-12.19,14.14-22.41,32.2-22.81a48.45,48.45,0,0,1,8.26.55c.43-2.34,48.23,7.75,102.76,5.05,40.34-2,36.6-58.49,83.69-61.5,105.7-6.76,205.9,63.83,278.82,63.58,1.33,0,7.65.86,10.73.86a19.1,19.1,0,0,1,0,38.19c-.27,0-.53,0-.8,0v0H1128.36l-.76,0c-.72,0-1.42,0-2.12,0h-.11c-12-.78-21.6-10-21.85-21.49,0-.28,0-.54,0-.82A14.2,14.2,0,0,1,1103.39,800.16Z"
                            transform="translate(-1101.47 -32.28)" />
                        <path class="cls-11"
                            d="M1613.47,789.18c-6.68,15.07-14.9,19.48-28.74,8.3-12.44,2.41-20.29-3.61-24.91-15.57-16.37,12.15-31.85,10.9-46.71.52-21.12,8.92-38.3,6.39-50.86-9.6,10.27-5.67,15.85-11.07,14.69-16.06-19.06,8.73-38.47,13.33-67-6.32,4.22,9.49,11.9,16.72,22.38,23-9.88,8.69-23.21,11.06-39.58-1.43-20.59,23.73-40.24,25-58.9,2.34,34.78-8,42-26.79,43.59-47.75-18.81,20.29-32.73,46.93-82.42,27.21,1.85,9.3,10.31,16,26.63,19.76-20.74,13.32-38.9,14.7-54.23,2.94-23.21,24.91-46.47,31.5-69.8,14.44-8.5,7-18,11-28.81,11.16-30.16-.13-31.91-37,0-38.08,10.52.22,18.87,5.51,25.69,14.4,8.33-11.45,18.47-18.57,31-20,3.35,9.14,12.26,15.28,20.14,20.92,3.47,2.24,3.73-5.94-1.71-9.06-26.54-16.14,7.81-41.31,37.13-38.62-.87-29.29,36.3-47.2,65.68-37.66,4.68-34.35,22.29-41.16,44.38-21.8-13.72,7.73-20.53,16.7-20.63,26.86-.07,6.16,5.62,7.75,7.39,2.53,9.34-28,27.87-24.75,49.63-10.51,3.86,2.4,8.14.29,4.28-3.89-7.89-7.55-15.86-14.7-24.71-16.93,37.83-16.12,56.35,4,68.89,35.42,37.68.78,48.07,30,38.15,54.1,21.6-32.5,50.21-33.28,67.34-12.46,7.51,10.36,3.52,20.34-4.87,30.17,6.31-4.25,12.4-7.29,17.81-6.42C1608,774,1612.79,782.56,1613.47,789.18Z"
                            transform="translate(-1101.47 -32.28)" />
                        <path class="cls-12"
                            d="M1103.39,800.16c-.28-12.19,14.14-22.41,32.2-22.81a48.45,48.45,0,0,1,8.26.55,27.77,27.77,0,0,1,13.34-19.36c13-7.5,29.76-3,38.65,9.93a31.95,31.95,0,0,1,33.29-21.27c1.4-9,5.71-16.65,12.84-21.23,9.5-6.11,21.88-5.41,33.34.64-1.89-16.81,5.23-33.72,19.93-43.17,13.79-8.87,30.8-9,44.84-1.75-1.68-13.23,2-25,11-30.73,12.39-8,30.87-2.11,44.8,13a35.42,35.42,0,0,1,3.18-6c12.36-18.75,40-22.32,61.72-8,16.13,10.64,24.46,28.15,22.63,44.13a38.5,38.5,0,0,1,24.68,7.61,37.66,37.66,0,0,1,15.64,30c11.32-14,32.81-16,48.71-4.26,13.66,10.1,18.82,27.1,13.64,41.17a26.22,26.22,0,0,1,5.24-.54c11.39,0,20.63,7.2,20.63,16.08a12.49,12.49,0,0,1-.63,3.86,19.09,19.09,0,1,1,8.56,36.15c-.27,0-.53,0-.8,0v0H1128.36l-.76,0c-.72,0-1.42,0-2.12,0h-.11c-12-.78-21.6-10-21.85-21.49,0-.28,0-.54,0-.82A14.2,14.2,0,0,1,1103.39,800.16Z"
                            transform="translate(-1101.47 -32.28)" />
                    </g>
                    <g id="fc1">
                        <path class="cls-9"
                            d="M1469.8,740a61.44,61.44,0,0,0-13.66,1.55s0-.1,0-.16c0-16.31-14.65-29.54-32.72-29.54a34.59,34.59,0,0,0-22,7.71c-7.09-30-36.65-52.6-72-52.6a79.41,79.41,0,0,0-37.82,9.43c-14.2-13.81-34.48-22.45-57-22.45-43,0-77.8,31.45-77.8,70.24a63.89,63.89,0,0,0,2.51,17.76,46.71,46.71,0,0,0-13.34-1.94c-23.62,0-42.76,17.28-42.76,38.61A36.74,36.74,0,0,0,1116,806.16c-8,5.28-12.84,11.94-12.84,19.19,0,17.08,26.64,30.93,59.51,30.93H1469.8c32.87,0,59.52-26,59.52-58.15S1502.67,740,1469.8,740Z"
                            transform="translate(-1101.47 -32.28)" />
                        <path class="cls-13"
                            d="M1118.65,802.65c-19.42-30.89,10.52-66.83,54.59-53.36a2,2,0,0,0,2.64-2c-17.39-105.26,108.29-107.33,128.59-20.11a2.12,2.12,0,0,0,3.55.87c3.92-4.38,2.84-14.76-7.8-36.59a5.06,5.06,0,0,1,3.17-7c46.84-16.62,87,4.47,93.86,43.41a2.1,2.1,0,0,0,3.3,1.11c25.93-19.31,48.38-9.22,52.22,16.69a2.06,2.06,0,0,0,2.6,1.55c25.27-6.43,48.29-2.12,51.55,4.1l11.77,29.57a1.66,1.66,0,0,1,0,1.2l-18.89,52.37a2.07,2.07,0,0,1-2,1.28l-384-6.45a1.89,1.89,0,0,1-1.94-2.34l7-22.87A1.68,1.68,0,0,0,1118.65,802.65Z"
                            transform="translate(-1101.47 -32.28)" />
                        <path class="cls-10"
                            d="M1500.67,746.27c5.13,5,12.75,19.07,12.45,36,0,20.21-20.3,36.6-45.34,36.6-18.22,0-33.89-8.7-41.1-21.2-5.26,6.51-15.83,11-28,11-17.45,0-31.6-9.09-31.6-20.31,0-.19,0-.38,0-.57,23-7,21-15.57,19.67-21.43,0-.22-9.11,9.4-27.57,13.62-17.78,4.08-36.64,4-47.16.12-.94-.34-2.1.22-2,1,.14,1.23,1.44,2.29,2.46,3.18,7,6.05,20.71,9.44,41.22,6.3a10.7,10.7,0,0,1,1.68,5.56c0,11.22-19.3,20.31-43.11,20.31-18.68,0-34.54-5.6-40.53-13.43C1270.07,813,1249.35,821,1224,821s-46-8-47.75-18c-4.65,6.78-15.12,11.52-27.31,11.52-12,0-26.22-1.74-31-8.33-9.24,7.77-10.13,9.93-13.62,17.56,0,18,35.76,32.56,79.87,32.56,1.4,0,2.79,0,4.18,0,.32,0,.64,0,1,0h266.23a21.71,21.71,0,0,0,2.43-.15c1.47.09,3,.15,4.44.15,36.14,0,65.44-26.45,65.44-59.08C1527.85,776.62,1518.35,756.84,1500.67,746.27Z"
                            transform="translate(-1101.47 -32.28)" />
                        <path class="cls-10"
                            d="M1252,762.09c21.32,2.22,37.26-7.05,35.87-16.42a8.58,8.58,0,0,0-1.08-3,1.42,1.42,0,0,0-2-.31c-5.58,5.68-18.53,9.48-34.22,9.26s-30-4.47-37.28-10.42c-.64-.52-1.77-.39-2,.24a7.5,7.5,0,0,0-.23,3.17C1212.26,752.62,1230.46,759.85,1252,762.09Z"
                            transform="translate(-1101.47 -32.28)" />
                        <path class="cls-12"
                            d="M1471.68,740a61.44,61.44,0,0,0-13.66,1.55s0-.1,0-.16c0-16.31-14.65-29.54-32.72-29.54a34.57,34.57,0,0,0-22,7.71c-7.1-30-36.66-52.6-72.06-52.6a79.34,79.34,0,0,0-37.81,9.43c-14.21-13.81-34.48-22.45-57-22.45-43,0-77.81,31.45-77.81,70.24a64.26,64.26,0,0,0,2.51,17.76,46.64,46.64,0,0,0-13.33-1.94c-23.62,0-42.77,17.28-42.77,38.61a36.75,36.75,0,0,0,12.85,27.56c-8,5.28-12.85,11.94-12.85,19.19,0,17.08,26.65,30.93,59.52,30.93h307.1c32.87,0,59.52-26,59.52-58.15S1504.55,740,1471.68,740Z"
                            transform="translate(-1101.47 -32.28)" />
                    </g>
                </g>
            </g>
        </g>
    </g>
</svg>