<svg xmlns="http://www.w3.org/2000/svg" viewBox="0 0 847.36 82.1"><defs><style>.cls-1{fill:#f2a25a;}.cls-2{fill:#ffecd9;}</style></defs><g id="Layer_2" data-name="Layer 2"><g id="skyline"><g id="clouds"><g id="back_clouds"><path class="cls-1" d="M133,18.6c0-1.25,1.45-2.3,3.3-2.34a5.87,5.87,0,0,1,.85.06,2.86,2.86,0,0,1,1.36-2,3,3,0,0,1,4,1,3.29,3.29,0,0,1,3.41-2.18A3.08,3.08,0,0,1,147.21,11a3.34,3.34,0,0,1,3.41.06,4.54,4.54,0,0,1,6.64-4.6,3.14,3.14,0,0,1,1.12-3.15c1.27-.81,3.16-.21,4.59,1.33A3.6,3.6,0,0,1,163.3,4c1.26-1.92,4.09-2.29,6.32-.82a4.9,4.9,0,0,1,2.32,4.52,4,4,0,0,1,2.53.78,3.86,3.86,0,0,1,1.6,3.07,3.63,3.63,0,0,1,5-.44,3.73,3.73,0,0,1,1.4,4.22,2.33,2.33,0,0,1,.53-.06A1.93,1.93,0,0,1,185.11,17a1.34,1.34,0,0,1-.07.4,1.87,1.87,0,0,1,.88-.21,2,2,0,0,1,0,3.91H135.26a2.32,2.32,0,0,1-2.23-2.2.27.27,0,0,1,0-.09A.88.88,0,0,1,133,18.6Z"/><path class="cls-1" d="M412.21,18.86c0-.95,1.09-1.73,2.49-1.77a4.23,4.23,0,0,1,.63.05,2.19,2.19,0,0,1,1-1.5,2.28,2.28,0,0,1,3,.77,2.46,2.46,0,0,1,2.57-1.64,2.3,2.3,0,0,1,1-1.64,2.52,2.52,0,0,1,2.57,0A3.5,3.5,0,0,1,427,9.84a3.46,3.46,0,0,1,3.46-.13,2.35,2.35,0,0,1,.85-2.37c.95-.62,2.38-.16,3.46,1a2.32,2.32,0,0,1,.24-.47,3.42,3.42,0,0,1,4.77-.61,3.68,3.68,0,0,1,1.74,3.41,3,3,0,0,1,3.12,2.89,2.73,2.73,0,0,1,3.76-.32,2.8,2.8,0,0,1,1.05,3.17,2.58,2.58,0,0,1,.4,0,1.46,1.46,0,0,1,1.6,1.24.94.94,0,0,1-.05.3,1.47,1.47,0,1,1,.66,2.79H413.91A1.75,1.75,0,0,1,412.22,19V19S412.21,18.9,412.21,18.86Z"/><path class="cls-1" d="M619.6,24.81a5.4,5.4,0,0,1,1.28.15v0a2.92,2.92,0,0,1,3-2.76,3.3,3.3,0,0,1,2.06.72,6,6,0,0,1,1.47-2.7A5.52,5.52,0,0,1,633,15.44a6,6,0,0,1,1.28.14h0a2.92,2.92,0,0,1,3-2.76,3.25,3.25,0,0,1,2.05.72,6.77,6.77,0,0,1,6.73-4.91,7.39,7.39,0,0,1,3.53.88,7.63,7.63,0,0,1,5.32-2.1c4,0,7.27,2.94,7.27,6.56a5.7,5.7,0,0,1-.24,1.66,4.24,4.24,0,0,1,1.25-.18A4.14,4.14,0,0,1,666.49,17a5.75,5.75,0,0,1,1.73.76,4.92,4.92,0,0,1,2.32,4.52,4,4,0,0,1,2.53.78,3.86,3.86,0,0,1,1.6,3.07,3.63,3.63,0,0,1,5-.44,3.71,3.71,0,0,1,1.39,4.22,2.48,2.48,0,0,1,.54-.06,1.92,1.92,0,0,1,2.11,1.65,1.34,1.34,0,0,1-.06.4,1.84,1.84,0,0,1,.88-.21,2,2,0,0,1,0,3.91h-35a10.56,10.56,0,0,1-1.27.08H619.6a5.43,5.43,0,1,1,0-10.86Z"/><path class="cls-1" d="M45.75,5.63a4,4,0,0,0-.86.1h0a2,2,0,0,0-2-1.85,2.19,2.19,0,0,0-1.37.48A4.54,4.54,0,0,0,37,1.06a5,5,0,0,0-2.37.59A5.13,5.13,0,0,0,31,.25a4.65,4.65,0,0,0-4.87,4.39,4.15,4.15,0,0,0,.16,1.12,2.84,2.84,0,0,0-.84-.13A2.56,2.56,0,0,0,22.8,8.05a2.29,2.29,0,0,0,.8,1.73,1.5,1.5,0,0,0-.8,1.2c0,1.07,1.66,1.93,3.72,1.93H45.75a3.64,3.64,0,1,0,0-7.28Z"/><path class="cls-1" d="M279.36,30.26a9,9,0,0,1,2,.23v0a4.66,4.66,0,0,1,4.88-4.4,5.16,5.16,0,0,1,3.28,1.15c1.06-4.49,5.47-7.85,10.75-7.85a11.87,11.87,0,0,1,5.64,1.41,12.17,12.17,0,0,1,8.5-3.35c6.41,0,11.61,4.69,11.61,10.48a9.38,9.38,0,0,1-.38,2.65,6.89,6.89,0,0,1,2-.29c3.52,0,6.38,2.57,6.38,5.75a5.47,5.47,0,0,1-1.92,4.12A3.59,3.59,0,0,1,334,43c0,2.55-4,4.61-8.88,4.61h-45.8a8.67,8.67,0,1,1,0-17.34Z"/><path class="cls-1" d="M760.77,20a4,4,0,0,0-.85.09h0a2,2,0,0,0-2-1.84,2.18,2.18,0,0,0-1.38.48A4.52,4.52,0,0,0,752,15.39a5,5,0,0,0-2.37.59,5.07,5.07,0,0,0-3.56-1.41,4.65,4.65,0,0,0-4.87,4.4,4.13,4.13,0,0,0,.15,1.11,2.82,2.82,0,0,0-.83-.12,2.56,2.56,0,0,0-2.68,2.41,2.3,2.3,0,0,0,.81,1.73,1.51,1.51,0,0,0-.81,1.2c0,1.07,1.67,1.94,3.73,1.94h19.22a3.64,3.64,0,1,0,0-7.28Z"/><path class="cls-1" d="M847.36,82.1V78.43h0c-.11-2.71-2.69-4.89-5.87-4.89a6.72,6.72,0,0,0-1.35.14v0c0-1.42-1.44-2.58-3.23-2.58a3.73,3.73,0,0,0-2.17.67c-.7-2.62-3.62-4.59-7.12-4.59a8.69,8.69,0,0,0-3.73.82,8.66,8.66,0,0,0-5.64-2c-3.32,0-6.15,1.69-7.22,4a4.08,4.08,0,0,0-1.95-2.59,5.87,5.87,0,0,0-5.39.09,6.16,6.16,0,0,0-3.22-6.18,8.06,8.06,0,0,0-7.25-.25,4.11,4.11,0,0,0-1.77-4.39c-2-1.14-5-.3-7.25,1.85a5.89,5.89,0,0,0-.51-.86c-2-2.68-6.47-3.19-10-1.14-2.61,1.52-4,4-3.66,6.31a6.83,6.83,0,0,0-4,1.09,5.24,5.24,0,0,0-2.53,4.29c-1.83-2-5.3-2.3-7.87-.61a5.91,5.91,0,0,0-1.91,2,8.24,8.24,0,0,0-2.14.68,8.63,8.63,0,0,0-5.47-2,6.3,6.3,0,0,0-.89-.71c-2.57-1.69-6-1.4-7.87.61A5.24,5.24,0,0,0,734.84,64a6.83,6.83,0,0,0-4-1.09c.29-2.28-1.05-4.79-3.66-6.31-3.51-2.05-8-1.54-10,1.14a5.89,5.89,0,0,0-.51.86c-2.26-2.15-5.24-3-7.25-1.85a4.11,4.11,0,0,0-1.77,4.39,8.06,8.06,0,0,0-7.25.25,6.18,6.18,0,0,0-3.22,6.18,5.87,5.87,0,0,0-5.39-.09,4.25,4.25,0,0,0-2.08,3,5.64,5.64,0,0,0-3.28.7,6.81,6.81,0,0,0-3.68-5.79c-3.52-2.05-8-1.53-10,1.15a4.48,4.48,0,0,0-.52.86c-2.25-2.16-5.24-3-7.24-1.86a4.13,4.13,0,0,0-1.77,4.4,8.06,8.06,0,0,0-7.25.25,6.16,6.16,0,0,0-3.22,6.17,5.93,5.93,0,0,0-5.39-.09,4.11,4.11,0,0,0-1.8,2.07C644.13,74.68,639.8,72,634.69,72a12.9,12.9,0,0,0-8.4,2.93,12.45,12.45,0,0,0-3.57-1.06,5.66,5.66,0,0,0-2.15-2.52c-2.57-1.68-6-1.39-7.87.61a5.24,5.24,0,0,0-2.53-4.28,6.76,6.76,0,0,0-4-1.09c.29-2.29-1-4.79-3.66-6.31-3.51-2.05-8-1.54-10,1.14a4.43,4.43,0,0,0-.51.86c-2.26-2.16-5.24-3-7.25-1.86a4.13,4.13,0,0,0-1.77,4.4,8.06,8.06,0,0,0-7.25.25,6.16,6.16,0,0,0-3.22,6.17,5.93,5.93,0,0,0-5.39-.09,4.27,4.27,0,0,0-2.08,3,5.71,5.71,0,0,0-3.3.7,4.62,4.62,0,0,0-2.08,2.34,5.14,5.14,0,0,0-6.25-1.42,4,4,0,0,0-2.11,2.62h-.93a3.76,3.76,0,0,0-2.2-.69,3.66,3.66,0,0,0-2.17.67c-.7-2.63-3.62-4.6-7.12-4.6a8.6,8.6,0,0,0-3.74.83,8.62,8.62,0,0,0-5.63-2c-3.51,0-6.47,1.89-7.39,4.47a9.77,9.77,0,0,0-5.89-1.91,10.66,10.66,0,0,0-2.06.21v0c0-2.18-2.22-4-5-4a5.68,5.68,0,0,0-3.33,1c-1.07-4-5.54-7-10.9-7a13.23,13.23,0,0,0-5.71,1.26,13.25,13.25,0,0,0-8.63-3c-6.5,0-11.76,4.2-11.76,9.4a7.54,7.54,0,0,0,.38,2.37,8.34,8.34,0,0,0-2-.26,6.64,6.64,0,0,0-6,3.2h-1.61a6.3,6.3,0,0,0-3.07-4,8.06,8.06,0,0,0-7.25-.25,4.11,4.11,0,0,0-1.77-4.39c-2-1.14-5-.31-7.25,1.85a4.23,4.23,0,0,0-.51-.86c-2-2.68-6.46-3.19-10-1.14a7,7,0,0,0-3.65,5.1,6,6,0,0,0-1.53-1.11,7.27,7.27,0,0,0-8.85,2,6.55,6.55,0,0,0-2.95-3.31,8,8,0,0,0-4.67-1,6,6,0,0,0-2.94-4.3,8.35,8.35,0,0,0-7.64.13,8.73,8.73,0,0,0-4.56-8.75,11.44,11.44,0,0,0-10.27-.35c.39-2.68-.45-5.06-2.51-6.23-2.83-1.61-7.07-.42-10.26,2.63a6.16,6.16,0,0,0-.73-1.22c-2.83-3.79-9.15-4.52-14.13-1.62-3.69,2.16-5.6,5.71-5.18,8.95a9.52,9.52,0,0,0-5.65,1.54,7.39,7.39,0,0,0-3.58,6.07c-2.6-2.84-7.51-3.25-11.16-.87-3.12,2-4.3,5.49-3.12,8.34a6.61,6.61,0,0,0-1.2-.11A6.38,6.38,0,0,0,323,76a4.73,4.73,0,0,0-1.79-1.76c-2.83-1.62-7.06-.43-10.26,2.63a6.62,6.62,0,0,0-.72-1.22c-2.83-3.8-9.16-4.52-14.14-1.62A11.73,11.73,0,0,0,294,75.62a11.62,11.62,0,0,0-4.54,1c.39-2.68-.45-5.06-2.51-6.23-2.84-1.61-7.07-.43-10.26,2.63a7.29,7.29,0,0,0-.73-1.22c-2.83-3.8-9.16-4.52-14.13-1.62a12.24,12.24,0,0,0-1.71,1.23,6.47,6.47,0,0,0-2.87-.65,6.58,6.58,0,0,0-1.35.13h0c0-1.43-1.45-2.58-3.24-2.58a3.7,3.7,0,0,0-2.17.67c-.7-2.63-3.62-4.6-7.12-4.6a8.55,8.55,0,0,0-3.73.83,8.66,8.66,0,0,0-5.63-2c-4.25,0-7.69,2.75-7.69,6.14a5,5,0,0,0,.25,1.55,5.68,5.68,0,0,0-1.32-.16,4.91,4.91,0,0,0-.94.09c-1.93-4.64-7-8-13.07-8a16,16,0,0,0-3.2.32s0,0,0,0c0-3.38-3.43-6.11-7.65-6.11a8.81,8.81,0,0,0-5.14,1.59c-1.66-6.21-8.56-10.87-16.84-10.87a20.49,20.49,0,0,0-8.84,2,20.43,20.43,0,0,0-13.32-4.65c-10,0-18.18,6.51-18.18,14.53a11.56,11.56,0,0,0,.59,3.67,12.24,12.24,0,0,0-3.12-.4c-5.52,0-10,3.57-10,8a7.28,7.28,0,0,0,3,5.7A8.4,8.4,0,0,0,126.7,78c-.27-.22-.54-.44-.84-.64-3.65-2.39-8.57-2-11.16.86a7.39,7.39,0,0,0-3.58-6.07,9.6,9.6,0,0,0-5.65-1.54c.42-3.24-1.49-6.79-5.18-8.94-5-2.9-11.31-2.18-14.14,1.62a6.62,6.62,0,0,0-.72,1.22c-3.19-3.06-7.43-4.25-10.26-2.63a4.83,4.83,0,0,0-1.54,1.4,7.85,7.85,0,0,0-2.49-4.09,6.11,6.11,0,0,0-4.34-1.54,10.23,10.23,0,0,0-4-8.95C59,45.81,54.15,46.54,52,50.33a7.85,7.85,0,0,0-.55,1.22c-2.46-3-5.7-4.24-7.88-2.63-1.58,1.17-2.23,3.55-1.93,6.23a7,7,0,0,0-7.88.35,9.68,9.68,0,0,0-3.51,8.75c-2-1.23-4.19-1.37-5.86-.13a6.24,6.24,0,0,0-2.25,4.3,5,5,0,0,0-3.59,1,6.37,6.37,0,0,0-2.27,3.31c-1.56-2.62-4.51-3.53-6.79-2a5.7,5.7,0,0,0-2.35,3.92,7.61,7.61,0,0,0-1.45-.11C2.8,74.6.47,76.29.07,78.43H0V82.1Z"/></g><g id="front_clouds"><path class="cls-2" d="M632.69,20.3c0-1.55-1.81-2.86-4.11-2.91a6.09,6.09,0,0,0-1.06.07,3.53,3.53,0,0,0-1.7-2.47,3.75,3.75,0,0,0-4.93,1.27,4.09,4.09,0,0,0-4.26-2.72A3.78,3.78,0,0,0,615,10.83a4.2,4.2,0,0,0-4.26.08,5.65,5.65,0,0,0-8.27-5.73,3.91,3.91,0,0,0-1.4-3.93c-1.58-1-3.94-.27-5.72,1.66a4.08,4.08,0,0,0-.41-.77c-1.57-2.39-5.1-2.85-7.88-1a6.13,6.13,0,0,0-2.89,5.64,4.87,4.87,0,0,0-3.15,1,4.81,4.81,0,0,0-2,3.82,4.52,4.52,0,0,0-6.22-.54,4.62,4.62,0,0,0-1.74,5.25,3.71,3.71,0,0,0-.67-.07,2.4,2.4,0,0,0-2.64,2.06,1.62,1.62,0,0,0,.08.49,2.5,2.5,0,0,0-1.09-.26,2.44,2.44,0,0,0,0,4.88h63.13a2.9,2.9,0,0,0,2.79-2.75v-.1A1.49,1.49,0,0,0,632.69,20.3Z"/><path class="cls-2" d="M269.37,34.06c0-1.17-1.36-2.16-3.1-2.2a5.06,5.06,0,0,0-.79.06,2.68,2.68,0,0,0-1.29-1.87,2.83,2.83,0,0,0-3.71,1,3.06,3.06,0,0,0-1.24-1.57,3,3,0,0,0-2-.48,2.88,2.88,0,0,0-1.23-2,3.16,3.16,0,0,0-3.21.06,4.26,4.26,0,0,0-6.23-4.32,2.94,2.94,0,0,0-1.06-3c-1.19-.76-3-.2-4.31,1.25a3.55,3.55,0,0,0-.3-.58c-1.19-1.8-3.85-2.14-5.94-.76a4.61,4.61,0,0,0-2.18,4.24,3.71,3.71,0,0,0-2.37.73,3.64,3.64,0,0,0-1.51,2.89,3.39,3.39,0,0,0-4.68-.41,3.5,3.5,0,0,0-1.32,4,2.07,2.07,0,0,0-.5-.06,1.82,1.82,0,0,0-2,1.55,1.51,1.51,0,0,0,.06.37,1.84,1.84,0,1,0-.82,3.48h47.58a2.19,2.19,0,0,0,2.1-2.07v-.08C269.36,34.16,269.37,34.11,269.37,34.06Z"/><path class="cls-2" d="M126.09,27.44a6.92,6.92,0,0,0-1.59.19v0a3.64,3.64,0,0,0-3.81-3.44,4,4,0,0,0-2.56.9,7.44,7.44,0,0,0-1.84-3.38,6.86,6.86,0,0,0-6.86-5.93,7.52,7.52,0,0,0-1.59.18h0A3.64,3.64,0,0,0,104,12.49a4.05,4.05,0,0,0-2.56.89,8.41,8.41,0,0,0-8.38-6.11,9.28,9.28,0,0,0-4.4,1.09,9.53,9.53,0,0,0-6.63-2.61c-5,0-9.06,3.66-9.06,8.17A7.45,7.45,0,0,0,73.29,16a5.29,5.29,0,0,0-5.64,1.71,6.81,6.81,0,0,0-2.15.94,6.11,6.11,0,0,0-2.89,5.64,4.91,4.91,0,0,0-3.15,1,4.81,4.81,0,0,0-2,3.82,4.53,4.53,0,0,0-6.22-.54,4.65,4.65,0,0,0-1.74,5.26,2.93,2.93,0,0,0-.67-.07,2.4,2.4,0,0,0-2.63,2.05,1.62,1.62,0,0,0,.08.49,2.51,2.51,0,0,0-1.1-.26,2.44,2.44,0,0,0,0,4.88H88.77a13.53,13.53,0,0,0,1.58.1h35.74a6.77,6.77,0,1,0,0-13.54Z"/><path class="cls-2" d="M804.25,26.38a5.3,5.3,0,0,1,1.06.12h0a2.43,2.43,0,0,1,2.55-2.3,2.72,2.72,0,0,1,1.72.6,5.63,5.63,0,0,1,5.62-4.1,6.14,6.14,0,0,1,2.95.73,6.36,6.36,0,0,1,4.45-1.75c3.35,0,6.07,2.45,6.07,5.48a4.85,4.85,0,0,1-.2,1.38,4,4,0,0,1,1-.15,3.19,3.19,0,0,1,3.34,3,2.9,2.9,0,0,1-1,2.15,1.89,1.89,0,0,1,1,1.49c0,1.34-2.08,2.42-4.65,2.42h-24a4.54,4.54,0,1,1,0-9.08Z"/><path class="cls-2" d="M534.47,18.73a11.24,11.24,0,0,0-2.54.29v0c0-3-2.73-5.5-6.09-5.5a6.41,6.41,0,0,0-4.08,1.44c-1.32-5.59-6.82-9.78-13.4-9.78a14.79,14.79,0,0,0-7,1.75,15.19,15.19,0,0,0-10.59-4.17c-8,0-14.47,5.84-14.47,13.06a11.7,11.7,0,0,0,.47,3.3,8.75,8.75,0,0,0-2.48-.36c-4.39,0-7.95,3.21-7.95,7.17A6.81,6.81,0,0,0,468.71,31a4.48,4.48,0,0,0-2.39,3.56c0,3.18,4.95,5.76,11.06,5.76h57.09a10.81,10.81,0,1,0,0-21.62Z"/><path class="cls-2" d="M14.42,12.46a4.66,4.66,0,0,1,1.06.13v0A2.43,2.43,0,0,1,18,10.27a2.7,2.7,0,0,1,1.72.6,5.63,5.63,0,0,1,5.62-4.1,6.14,6.14,0,0,1,2.95.73,6.36,6.36,0,0,1,4.45-1.75c3.35,0,6.07,2.45,6.07,5.48a5,5,0,0,1-.2,1.39,3.59,3.59,0,0,1,1-.16,3.19,3.19,0,0,1,3.34,3,2.9,2.9,0,0,1-1,2.15,1.89,1.89,0,0,1,1,1.49c0,1.34-2.08,2.42-4.64,2.42h-24a4.54,4.54,0,1,1,0-9.08Z"/><path class="cls-2" d="M847.36,82.1V77.48h-.06a5.66,5.66,0,0,0-5.6-4.42,6.87,6.87,0,0,0-1.45.13,6.64,6.64,0,0,0-2.35-4.44c-2.28-1.71-5.23-.68-6.79,2.28a7.25,7.25,0,0,0-2.27-3.75,4.57,4.57,0,0,0-3.58-1.12A7.4,7.4,0,0,0,823,61.3c-1.67-1.4-3.85-1.24-5.86.14.33-3.85-.92-7.72-3.5-9.88a6.35,6.35,0,0,0-7.89-.4c.3-3-.35-5.72-1.93-7-2.17-1.82-5.42-.48-7.87,3a9.72,9.72,0,0,0-.56-1.38c-2.17-4.29-7-5.11-10.85-1.83a12.25,12.25,0,0,0-4,10.11,5.77,5.77,0,0,0-4.34,1.74,9.21,9.21,0,0,0-2.49,4.63,5.08,5.08,0,0,0-1.54-1.59c-2.83-1.82-7.06-.48-10.25,3a8.6,8.6,0,0,0-.73-1.37c-2.83-4.3-9.16-5.12-14.14-1.83a11,11,0,0,0-5.18,10.1,8.86,8.86,0,0,0-5.65,1.74,8.64,8.64,0,0,0-3.58,6.86c-2.59-3.21-7.51-3.66-11.15-1a7.43,7.43,0,0,0-.85.73,8.48,8.48,0,0,0-1.83-1.59,8.6,8.6,0,0,0,3-6.45c0-5-4.48-9-10-9a10.93,10.93,0,0,0-3.11.45,15,15,0,0,0,.58-4.15c0-9.06-8.14-16.41-18.18-16.41a19.1,19.1,0,0,0-13.32,5.24,18.67,18.67,0,0,0-8.84-2.2c-8.27,0-15.18,5.27-16.84,12.29a8.12,8.12,0,0,0-5.14-1.8c-4.22,0-7.64,3.09-7.64,6.91v0a14.67,14.67,0,0,0-3.2-.36,13.88,13.88,0,0,0-13.07,9,4.59,4.59,0,0,0-2.26.09,6,6,0,0,0,.25-1.75c0-3.84-3.44-6.94-7.68-6.94a8.06,8.06,0,0,0-5.64,2.22,7.73,7.73,0,0,0-3.73-.94,7.15,7.15,0,0,0-7.12,5.2,3.4,3.4,0,0,0-2.17-.76A3.08,3.08,0,0,0,591.49,69h0a6.07,6.07,0,0,0-1.35-.15,5.93,5.93,0,0,0-2.88.74,11.65,11.65,0,0,0-1.71-1.39c-5-3.28-11.3-2.46-14.13,1.83a8.29,8.29,0,0,0-.73,1.38c-3.19-3.46-7.42-4.8-10.26-3-2,1.32-2.89,4-2.51,7a10.64,10.64,0,0,0-4.53-1.16,12.65,12.65,0,0,0-2.12-1.78c-5-3.29-11.3-2.47-14.14,1.83a7.81,7.81,0,0,0-.72,1.37c-3.19-3.45-7.43-4.79-10.26-3a5.23,5.23,0,0,0-1.79,2,5.63,5.63,0,0,0-2.28-.48,5.88,5.88,0,0,0-1.2.13A8.31,8.31,0,0,0,517.76,65c-3.64-2.69-8.56-2.23-11.16,1A8.6,8.6,0,0,0,503,59.08a8.71,8.71,0,0,0-5.65-1.74,11,11,0,0,0-5.18-10.11c-5-3.28-11.3-2.46-14.13,1.83a8.29,8.29,0,0,0-.73,1.38c-3.19-3.46-7.42-4.8-10.26-3-2.06,1.32-2.9,4-2.51,7a10.13,10.13,0,0,0-14.83,10.29c-2.63-1.39-5.46-1.55-7.64-.15a6.8,6.8,0,0,0-2.93,4.86,7.33,7.33,0,0,0-7.63,4.87,6.73,6.73,0,0,0-8.85-2.27,6.06,6.06,0,0,0-1.53,1.26,8,8,0,0,0-3.65-5.77c-3.51-2.32-8-1.74-10,1.29a6.43,6.43,0,0,0-.51,1c-2.26-2.43-5.24-3.38-7.25-2.09-1.45.93-2,2.83-1.77,5a7.24,7.24,0,0,0-7.25.29,7.08,7.08,0,0,0-3.07,4.47h-1.6a6.5,6.5,0,0,0-6-3.62,7,7,0,0,0-2,.29,10,10,0,0,0,.38-2.69c0-5.86-5.27-10.62-11.77-10.62a12.37,12.37,0,0,0-8.62,3.39,12.06,12.06,0,0,0-5.72-1.42c-5.36,0-9.83,3.41-10.9,8a5.23,5.23,0,0,0-3.33-1.16,4.72,4.72,0,0,0-4.94,4.47v0a9.45,9.45,0,0,0-2.07-.23A9.08,9.08,0,0,0,325.21,76a7.6,7.6,0,0,0-7.39-5,8.07,8.07,0,0,0-5.63,2.21,7.85,7.85,0,0,0-3.74-.93,7.14,7.14,0,0,0-7.11,5.2,3.45,3.45,0,0,0-2.18-.76,3.35,3.35,0,0,0-2.19.79H296a4.46,4.46,0,0,0-2.11-3,4.76,4.76,0,0,0-6.25,1.61,5.14,5.14,0,0,0-5.38-3.44,4.83,4.83,0,0,0-2.07-3.43,5.31,5.31,0,0,0-5.4.1,7.15,7.15,0,0,0-10.47-7.26c.27-2.14-.32-4-1.77-5-2-1.29-5-.34-7.24,2.1a5.42,5.42,0,0,0-.52-1c-2-3-6.46-3.61-10-1.29a7.77,7.77,0,0,0-3.66,7.14,6.15,6.15,0,0,0-4,1.23,6,6,0,0,0-2.53,4.84,5.73,5.73,0,0,0-7.88-.69,6.19,6.19,0,0,0-2.14,2.84,11.47,11.47,0,0,0-3.58,1.21,12,12,0,0,0-8.4-3.31,11.41,11.41,0,0,0-10.92,7.2A4.49,4.49,0,0,0,200,75.06a5.32,5.32,0,0,0-5.39.11,7.29,7.29,0,0,0-3.22-7,7.21,7.21,0,0,0-7.25-.28c.27-2.14-.33-4-1.78-5-2-1.29-5-.34-7.24,2.09a5.69,5.69,0,0,0-.52-1c-2-3-6.46-3.61-10-1.29a7.83,7.83,0,0,0-3.68,6.54,5.14,5.14,0,0,0-3.29-.79,4.83,4.83,0,0,0-2.08-3.43,5.31,5.31,0,0,0-5.39.1,7.15,7.15,0,0,0-10.47-7.26c.27-2.14-.32-4-1.77-5-2-1.28-5-.34-7.25,2.1a5,5,0,0,0-.51-1c-2-3-6.46-3.61-10-1.29a7.74,7.74,0,0,0-3.66,7.13,6.25,6.25,0,0,0-4,1.23A6.09,6.09,0,0,0,110,66a5.73,5.73,0,0,0-7.88-.68,6.19,6.19,0,0,0-.89.8,8,8,0,0,0-5.46,2.21,8.2,8.2,0,0,0-2.15-.76,6.38,6.38,0,0,0-1.91-2.25,5.72,5.72,0,0,0-7.87.68,6.1,6.1,0,0,0-2.53-4.84,6.25,6.25,0,0,0-4-1.23,7.72,7.72,0,0,0-3.66-7.13c-3.51-2.32-8-1.74-10,1.29a6.43,6.43,0,0,0-.51,1c-2.25-2.44-5.24-3.38-7.24-2.1-1.46.94-2,2.83-1.78,5a7.15,7.15,0,0,0-10.47,7.26,5.31,5.31,0,0,0-5.39-.1A4.7,4.7,0,0,0,36.34,68a7.68,7.68,0,0,0-7.22-4.58,8.06,8.06,0,0,0-5.63,2.22,7.85,7.85,0,0,0-3.74-.93,7.15,7.15,0,0,0-7.12,5.19,3.4,3.4,0,0,0-2.17-.76,3.09,3.09,0,0,0-3.23,2.92v0a6,6,0,0,0-1.35-.16A5.82,5.82,0,0,0,0,77.48H0V82.1Z"/></g></g></g></g></svg>