<svg xmlns="http://www.w3.org/2000/svg" xmlns:xlink="http://www.w3.org/1999/xlink" viewBox="0 0 232.22 355.18"><defs><style>.cls-1,.cls-12,.cls-6{fill:none;}.cls-2{clip-path:url(#clip-path);}.cls-3{fill:#fffcf3;}.cls-3,.cls-6,.cls-7{stroke:#3d3d3d;}.cls-10,.cls-11,.cls-12,.cls-3,.cls-4,.cls-5,.cls-6,.cls-7,.cls-9{stroke-linecap:round;stroke-linejoin:round;}.cls-12,.cls-3,.cls-6,.cls-7,.cls-9{stroke-width:2px;}.cls-4{fill:#efa081;stroke:#efa081;}.cls-5,.cls-8{fill:#f2cba5;}.cls-5{stroke:#f2cba5;}.cls-7,.cls-9{fill:#fff2e9;}.cls-12,.cls-9{stroke:#000;}.cls-10{fill:#ef7443;stroke:#ef7443;}.cls-11,.cls-13{fill:#ffba6e;}.cls-11{stroke:#ffba6e;}</style><clipPath id="clip-path" transform="translate(-472.11 -13.28)"><rect class="cls-1" width="466.41" height="373.13"/></clipPath></defs><g id="Layer_2" data-name="Layer 2"><g id="cloud_bg"><g id="cloud_background"><g class="cls-2"><g id="bc4"><path class="cls-3" d="M473.11,78c-.05-2.17,2.51-4,5.72-4a7.85,7.85,0,0,1,1.47.09,5,5,0,0,1,2.37-3.44,5.23,5.23,0,0,1,6.87,1.77,5.66,5.66,0,0,1,5.92-3.78,5.33,5.33,0,0,1,2.28-3.78,5.82,5.82,0,0,1,5.92.12,7.87,7.87,0,0,1,11.52-8c-.3-2.35.35-4.43,2-5.46,2.2-1.41,5.48-.37,8,2.31a6.42,6.42,0,0,1,.56-1.07c2.2-3.33,7.11-4,11-1.42a8.51,8.51,0,0,1,4,7.84A6.85,6.85,0,0,1,545,60.49a6.66,6.66,0,0,1,2.78,5.32,6.3,6.3,0,0,1,8.66-.76,6.46,6.46,0,0,1,2.42,7.32,4.73,4.73,0,0,1,.93-.1c2,0,3.67,1.28,3.67,2.86a2.26,2.26,0,0,1-.11.69,3.39,3.39,0,1,1,1.52,6.42H477a4,4,0,0,1-3.89-3.82s0-.1,0-.15A1.27,1.27,0,0,1,473.11,78Z" transform="translate(-472.11 -13.28)"/><path class="cls-4" d="M473.11,78c-.05-2.17,2.51-4,5.72-4a7.85,7.85,0,0,1,1.47.09c.08-.41,8.57,1.38,18.26.9,7.17-.35,6.51-10.39,14.88-10.93,18.78-1.2,36.44,11.54,49.4,11.5.24,0,1.51,0,2.06,0a3.4,3.4,0,1,1,0,6.79H477a4,4,0,0,1-3.89-3.82s0-.1,0-.15A1.27,1.27,0,0,1,473.11,78Z" transform="translate(-472.11 -13.28)"/><path class="cls-5" d="M563.77,76c-1.19,2.68-2.65,3.46-5.11,1.47-2.21.43-3.61-.64-4.43-2.76a6.49,6.49,0,0,1-8.3.09c-3.75,1.58-6.81,1.13-9-1.71,1.83-1,2.82-2,2.61-2.85-3.39,1.55-6.84,2.37-11.91-1.13a9.3,9.3,0,0,0,4,4.1c-1.75,1.54-4.12,2-7-.26-3.66,4.22-7.15,4.45-10.47.42,6.18-1.43,7.46-4.76,7.75-8.49-3.35,3.61-5.82,8.34-14.65,4.84.33,1.65,1.83,2.85,4.73,3.51-3.68,2.37-6.91,2.61-9.64.52-4.12,4.43-8.26,5.6-12.4,2.57a8.07,8.07,0,0,1-5.12,2c-5.36,0-5.67-6.57,0-6.76a5.75,5.75,0,0,1,4.56,2.56,7.92,7.92,0,0,1,5.5-3.57c.6,1.63,1.44,2.18,2.84,3.18.72.63,1.42-.18.73-.75-4.09-3.23-.77-9.17,6.31-7.18-.16-5.21,6.45-8.39,11.67-6.7.83-6.1,4-7.31,7.89-3.87-2.44,1.37-3.65,3-3.67,4.77,0,1.1,1,1.38,1.32.45,1.66-5,5-4.4,8.82-1.87.68.43,1.45.06.76-.69a11,11,0,0,0-4.39-3c6.72-2.86,10,.72,12.24,6.3,6.7.14,8.55,5.33,6.78,9.61,3.84-5.77,8.62-5.93,11.67-2.23,1.33,1.84.61,3.43-.57,5.38a5.33,5.33,0,0,1,3.29-1.22A3.73,3.73,0,0,1,563.77,76Z" transform="translate(-472.11 -13.28)"/><path class="cls-6" d="M473.11,78c-.05-2.17,2.51-4,5.72-4a7.85,7.85,0,0,1,1.47.09,5,5,0,0,1,2.37-3.44,5.23,5.23,0,0,1,6.87,1.77,5.66,5.66,0,0,1,5.92-3.78,5.33,5.33,0,0,1,2.28-3.78,5.82,5.82,0,0,1,5.92.12,7.87,7.87,0,0,1,11.52-8c-.3-2.35.35-4.43,2-5.46,2.2-1.41,5.48-.37,8,2.31a6.42,6.42,0,0,1,.56-1.07c2.2-3.33,7.11-4,11-1.42a8.51,8.51,0,0,1,4,7.84A6.85,6.85,0,0,1,545,60.49a6.66,6.66,0,0,1,2.78,5.32,6.3,6.3,0,0,1,8.66-.76,6.46,6.46,0,0,1,2.42,7.32,4.73,4.73,0,0,1,.93-.1c2,0,3.67,1.28,3.67,2.86a2.26,2.26,0,0,1-.11.69,3.39,3.39,0,1,1,1.52,6.42H477a4,4,0,0,1-3.89-3.82s0-.1,0-.15A1.27,1.27,0,0,1,473.11,78Z" transform="translate(-472.11 -13.28)"/></g><g id="bg_grp1"><g id="cloud_small"><path class="cls-7" d="M584.38,33.25a10.56,10.56,0,0,1,2.53.32v0A6,6,0,0,1,597,29.06a13.65,13.65,0,0,1,20.34-8.85,14.4,14.4,0,0,1,25,9.8,14.52,14.52,0,0,1-.47,3.64,8.09,8.09,0,0,1,2.47-.4,7.92,7.92,0,0,1,5.54,13.57,5,5,0,0,1,2.37,3.93c0,3.51-4.93,6.35-11,6.35H584.38c-6.08,0-11-5.34-11-11.93S578.3,33.25,584.38,33.25Z" transform="translate(-472.11 -13.28)"/><path class="cls-8" d="M649.37,46.1c3.59-6.33-2-13.7-10.1-10.94a.38.38,0,0,1-.49-.42c3.22-21.58-20-22-23.8-4.12a.38.38,0,0,1-.66.18c-.72-.9-.52-3,1.45-7.51a1.07,1.07,0,0,0-.59-1.43c-8.67-3.41-16.11.92-17.37,8.9a.38.38,0,0,1-.61.23c-4.8-4-9-1.89-9.67,3.42a.38.38,0,0,1-.48.32c-4.68-1.32-8.94-.44-9.54.84l-2.18,6.06a.36.36,0,0,0,0,.25l3.5,10.73a.36.36,0,0,0,.36.26l71.08-1.32a.38.38,0,0,0,.36-.48l-1.3-4.69A.4.4,0,0,1,649.37,46.1Z" transform="translate(-472.11 -13.28)"/><path class="cls-4" d="M578.67,34.54a11.72,11.72,0,0,0-2.31,7.38c0,4.14,3.76,7.5,8.4,7.5a8.48,8.48,0,0,0,7.6-4.35,6.42,6.42,0,0,0,5.19,2.25c3.23,0,5.85-1.86,5.85-4.16,0,0,0-.08,0-.12-4.26-1.44-3.88-3.19-3.64-4.39a11.22,11.22,0,0,0,5.1,2.79c3.3.83,6.78.81,8.73,0,.18-.07.39,0,.37.2s-.26.47-.45.65c-1.29,1.24-3.83,1.94-7.63,1.3a2.32,2.32,0,0,0-.31,1.14c0,2.3,3.57,4.16,8,4.16,3.46,0,6.39-1.15,7.5-2.76.31,2.08,4.14,3.71,8.84,3.71s8.52-1.63,8.84-3.69a5.9,5.9,0,0,0,5,2.36c2.21,0,4.85-.36,5.74-1.71a7.64,7.64,0,0,1,2.52,3.6c0,3.69-6.62,6.68-14.78,6.68H587a3.42,3.42,0,0,1-.45,0c-.27,0-.54,0-.82,0A12.12,12.12,0,0,1,573.64,45C573.64,40.76,575.4,36.71,578.67,34.54Z" transform="translate(-472.11 -13.28)"/><path class="cls-4" d="M624.69,37.79c-4,.45-6.9-1.45-6.64-3.37a2,2,0,0,1,.2-.62.24.24,0,0,1,.37-.06c1,1.16,3.43,1.94,6.34,1.89s5.56-.91,6.9-2.13a.22.22,0,0,1,.36,0,1.76,1.76,0,0,1,0,.65C632.05,35.84,628.68,37.33,624.69,37.79Z" transform="translate(-472.11 -13.28)"/><path class="cls-6" d="M584,33.25a10.56,10.56,0,0,1,2.53.32v0a6,6,0,0,1,10.12-4.48A13.65,13.65,0,0,1,617,20.21,14.4,14.4,0,0,1,642,30a14.52,14.52,0,0,1-.47,3.64,8.09,8.09,0,0,1,2.47-.4,7.92,7.92,0,0,1,5.54,13.57,5,5,0,0,1,2.37,3.93c0,3.51-4.93,6.35-11,6.35H584c-6.08,0-11-5.34-11-11.93S578,33.25,584,33.25Z" transform="translate(-472.11 -13.28)"/></g><g id="cloud_large"><path class="cls-3" d="M625.23,59.22c.07-3.45-4-6.34-9.1-6.45a12.78,12.78,0,0,0-2.34.16A7.83,7.83,0,0,0,610,47.45a8.31,8.31,0,0,0-10.91,2.81,9,9,0,0,0-9.41-6,8.49,8.49,0,0,0-3.63-6c-2.68-1.72-6.18-1.53-9.42.18a12.5,12.5,0,0,0-18.3-12.69c.47-3.74-.56-7-3.1-8.68-3.5-2.25-8.72-.6-12.66,3.66a10.29,10.29,0,0,0-.9-1.7c-3.49-5.29-11.3-6.3-17.44-2.25-4.56,3-6.91,8-6.39,12.47a10.8,10.8,0,0,0-7,2.15,10.61,10.61,0,0,0-4.41,8.46c-3.2-4-9.27-4.53-13.77-1.2a10.24,10.24,0,0,0-3.85,11.63,7.14,7.14,0,0,0-1.48-.16c-3.22,0-5.83,2-5.83,4.55a3.6,3.6,0,0,0,.17,1.09,5.26,5.26,0,0,0-2.41-.58,5.4,5.4,0,1,0,0,10.79H618.17l.22,0,.6,0h0a6.41,6.41,0,0,0,6.18-6.07c0-.08,0-.16,0-.23S625.22,59.37,625.23,59.22Z" transform="translate(-472.11 -13.28)"/><path class="cls-4" d="M625.23,59.22c.07-3.45-4-6.34-9.1-6.45a12.78,12.78,0,0,0-2.34.16c-.12-.67-13.62,2.18-29,1.42-11.4-.56-10.34-16.52-23.65-17.38-29.86-1.91-57.93,18.35-78.53,18.28-.38,0-2.41-.07-3.28-.07a5.4,5.4,0,1,0,0,10.79H618.17l.22,0,.6,0h0a6.41,6.41,0,0,0,6.18-6.07c0-.08,0-.16,0-.23S625.22,59.37,625.23,59.22Z" transform="translate(-472.11 -13.28)"/><path class="cls-5" d="M481.1,56.11c1.89,4.26,4.21,5.51,8.12,2.35,3.52.68,5.73-1,7-4.4,4.62,3.43,9,3.08,13.2.15,6,2.52,10.82,1.8,14.37-2.72-2.9-1.6-4.48-3.12-4.15-4.53,5.38,2.46,10.87,3.76,18.94-1.79-1.19,2.68-3.36,4.72-6.32,6.51,2.79,2.45,6.55,3.12,11.18-.41,5.82,6.71,11.37,7.07,16.64.66-9.82-2.26-11.86-7.57-12.32-13.49,5.32,5.73,9.25,13.26,23.29,7.69-.52,2.63-2.91,4.53-7.52,5.58,5.86,3.77,11,4.16,15.32.83,6.56,7,13.13,8.9,19.73,4.08a12.92,12.92,0,0,0,8.13,3.16c8.53,0,9-10.45,0-10.76-3,.06-5.33,1.56-7.25,4.07-2.36-3.24-5.22-5.25-8.75-5.67-.94,2.59-2.28,3.47-4.5,5.06-1.16,1-2.26-.28-1.16-1.19,6.49-5.14,1.22-14.58-10-11.43.25-8.27-10.25-13.33-18.56-10.64-1.32-9.7-6.29-11.63-12.53-6.16,3.87,2.19,5.8,4.72,5.82,7.59,0,1.74-1.58,2.19-2.09.72-2.63-7.91-7.87-7-14-3-1.09.67-2.3.08-1.21-1.1,2.23-2.14,4.48-4.16,7-4.79-10.69-4.55-15.93,1.14-19.47,10-10.65.22-13.58,8.47-10.78,15.29-6.1-9.19-13.7-9.44-18.54-3.55-2.13,2.92-1,5.46.89,8.55-1.78-1.2-3.7-2.18-5.23-1.93C482.45,51.7,481.29,54.24,481.1,56.11Z" transform="translate(-472.11 -13.28)"/><path class="cls-6" d="M625.23,59.22c.07-3.45-4-6.34-9.1-6.45a12.78,12.78,0,0,0-2.34.16A7.83,7.83,0,0,0,610,47.45a8.31,8.31,0,0,0-10.91,2.81,9,9,0,0,0-9.41-6,8.49,8.49,0,0,0-3.63-6c-2.68-1.72-6.18-1.53-9.42.18a12.5,12.5,0,0,0-18.3-12.69c.47-3.74-.56-7-3.1-8.68-3.5-2.25-8.72-.6-12.66,3.66a10.29,10.29,0,0,0-.9-1.7c-3.49-5.29-11.3-6.3-17.44-2.25-4.56,3-6.91,8-6.39,12.47a10.8,10.8,0,0,0-7,2.15,10.61,10.61,0,0,0-4.41,8.46c-3.2-4-9.27-4.53-13.77-1.2a10.24,10.24,0,0,0-3.85,11.63,7.14,7.14,0,0,0-1.48-.16c-3.22,0-5.83,2-5.83,4.55a3.6,3.6,0,0,0,.17,1.09,5.26,5.26,0,0,0-2.41-.58,5.4,5.4,0,1,0,0,10.79H618.17l.22,0,.6,0h0a6.41,6.41,0,0,0,6.18-6.07c0-.08,0-.16,0-.23S625.22,59.37,625.23,59.22Z" transform="translate(-472.11 -13.28)"/></g></g><g id="bc3"><path class="cls-7" d="M488.66,210.23a13.63,13.63,0,0,1,3.39.43v0a8.11,8.11,0,0,1,13.58-6,18.3,18.3,0,0,1,27.28-11.87,19.31,19.31,0,0,1,33.47,13.14,19.68,19.68,0,0,1-.62,4.89,10.35,10.35,0,0,1,3.31-.54,10.61,10.61,0,0,1,7.43,18.2c2,1.45,3.19,3.29,3.19,5.28,0,4.7-6.62,8.51-14.78,8.51H488.66c-8.16,0-14.78-7.16-14.78-16S480.5,210.23,488.66,210.23Z" transform="translate(-472.11 -13.28)"/><path class="cls-8" d="M575.84,227.47c4.83-8.5-2.61-18.38-13.55-14.68a.51.51,0,0,1-.66-.56c4.32-28.95-26.88-29.52-31.92-5.53a.51.51,0,0,1-.88.24c-1-1.21-.71-4.06,1.93-10.07A1.44,1.44,0,0,0,530,195c-11.64-4.57-21.62,1.23-23.31,11.94a.5.5,0,0,1-.82.3c-6.44-5.31-12-2.53-13,4.59a.51.51,0,0,1-.64.43c-6.28-1.77-12-.58-12.8,1.13l-2.92,8.13a.53.53,0,0,0,0,.33l4.69,14.4a.5.5,0,0,0,.5.35l95.35-1.77a.5.5,0,0,0,.48-.64l-1.74-6.29A.55.55,0,0,1,575.84,227.47Z" transform="translate(-472.11 -13.28)"/><path class="cls-4" d="M481,212c-1.27,1.38-3.16,5.25-3.09,9.89,0,5.56,5,10.07,11.26,10.07a11.4,11.4,0,0,0,10.2-5.83,8.62,8.62,0,0,0,7,3c4.34,0,7.85-2.5,7.85-5.58,0-.06,0-.11,0-.16-5.71-1.93-5.2-4.28-4.88-5.89a14.9,14.9,0,0,0,6.84,3.75c4.42,1.11,9.1,1.08,11.71,0,.23-.1.52.06.5.26s-.35.63-.61.88c-1.72,1.66-5.14,2.6-10.23,1.73a3.15,3.15,0,0,0-.42,1.53c0,3.09,4.79,5.59,10.71,5.59,4.63,0,8.57-1.55,10.06-3.7.41,2.78,5.55,5,11.86,5s11.43-2.19,11.85-5c1.16,1.86,3.76,3.17,6.78,3.17s6.51-.49,7.7-2.3a10.26,10.26,0,0,1,3.38,4.83c0,5-8.88,9-19.83,9H492.2a6,6,0,0,1-.61,0c-.36,0-.73,0-1.1,0A16.26,16.26,0,0,1,474.24,226C474.24,220.31,476.6,214.87,481,212Z" transform="translate(-472.11 -13.28)"/><path class="cls-4" d="M542.73,216.31c-5.29.61-9.25-1.94-8.9-4.51a2.53,2.53,0,0,1,.27-.83.33.33,0,0,1,.5-.09c1.38,1.56,4.6,2.61,8.49,2.55s7.46-1.23,9.26-2.87c.16-.14.44-.1.48.07a2.12,2.12,0,0,1,.06.87C552.6,213.71,548.08,215.7,542.73,216.31Z" transform="translate(-472.11 -13.28)"/><path class="cls-6" d="M488.19,210.23a13.58,13.58,0,0,1,3.39.43v0a8.11,8.11,0,0,1,13.58-6,18.3,18.3,0,0,1,27.28-11.87,19.31,19.31,0,0,1,33.47,13.14,19.68,19.68,0,0,1-.62,4.89,10.35,10.35,0,0,1,3.31-.54,10.61,10.61,0,0,1,7.43,18.2c2,1.45,3.19,3.29,3.19,5.28,0,4.7-6.62,8.51-14.78,8.51H488.19c-8.16,0-14.78-7.16-14.78-16S480,210.23,488.19,210.23Z" transform="translate(-472.11 -13.28)"/></g><g id="bc_grp1"><g id="cloud_small-2" data-name="cloud_small"><path class="cls-7" d="M486.84,133.47a11.84,11.84,0,0,1,2.94.38v0a7,7,0,0,1,11.76-5.2,15.83,15.83,0,0,1,23.62-10.28,16.72,16.72,0,0,1,29,11.38,16.85,16.85,0,0,1-.54,4.23,9,9,0,0,1,2.86-.47,9.19,9.19,0,0,1,6.43,15.76,5.82,5.82,0,0,1,2.77,4.57c0,4.07-5.73,7.37-12.8,7.37h-66c-7.06,0-12.79-6.2-12.79-13.85S479.78,133.47,486.84,133.47Z" transform="translate(-472.11 -13.28)"/><path class="cls-8" d="M562.33,148.39c4.18-7.35-2.26-15.91-11.74-12.7a.43.43,0,0,1-.56-.49c3.74-25.06-23.28-25.55-27.65-4.79a.44.44,0,0,1-.76.21c-.84-1-.61-3.52,1.68-8.71a1.25,1.25,0,0,0-.68-1.67c-10.07-4-18.71,1.06-20.18,10.34a.44.44,0,0,1-.71.26c-5.57-4.6-10.4-2.19-11.23,4a.44.44,0,0,1-.55.37c-5.44-1.54-10.38-.51-11.09,1l-2.53,7a.48.48,0,0,0,0,.29L480.39,156a.43.43,0,0,0,.43.3l82.56-1.53a.44.44,0,0,0,.41-.56l-1.5-5.45A.42.42,0,0,1,562.33,148.39Z" transform="translate(-472.11 -13.28)"/><path class="cls-4" d="M480.21,135a13.63,13.63,0,0,0-2.68,8.57c0,4.81,4.37,8.71,9.75,8.71a9.86,9.86,0,0,0,8.83-5.05,7.49,7.49,0,0,0,6,2.61c3.75,0,6.79-2.16,6.79-4.83v-.14c-4.95-1.68-4.51-3.71-4.23-5.1a12.91,12.91,0,0,0,5.92,3.24c3.83,1,7.88.94,10.14,0,.2-.08.45.05.44.23a1.46,1.46,0,0,1-.53.76c-1.5,1.44-4.45,2.25-8.86,1.5a2.73,2.73,0,0,0-.36,1.32c0,2.67,4.14,4.84,9.26,4.84,4,0,7.43-1.34,8.71-3.2.36,2.4,4.81,4.31,10.27,4.31s9.9-1.9,10.27-4.3a6.86,6.86,0,0,0,5.87,2.75c2.57,0,5.63-.42,6.66-2a8.84,8.84,0,0,1,2.93,4.18c0,4.29-7.69,7.76-17.17,7.76H489.91a4.38,4.38,0,0,1-.52,0c-.32,0-.64,0-1,0a14.06,14.06,0,0,1-14.06-14.07C474.37,142.2,476.41,137.49,480.21,135Z" transform="translate(-472.11 -13.28)"/><path class="cls-4" d="M533.66,138.74c-4.58.53-8-1.68-7.71-3.91a2.63,2.63,0,0,1,.23-.72.3.3,0,0,1,.44-.08c1.2,1.36,4,2.26,7.35,2.21s6.46-1.06,8-2.48c.14-.13.38-.09.42.06a2.08,2.08,0,0,1,.05.75C542.21,136.48,538.29,138.2,533.66,138.74Z" transform="translate(-472.11 -13.28)"/><path class="cls-6" d="M486.44,133.47a12,12,0,0,1,2.94.38s0,0,0,0a7,7,0,0,1,11.76-5.2,15.85,15.85,0,0,1,15.49-12.53,15.68,15.68,0,0,1,8.13,2.25,16.72,16.72,0,0,1,29,11.38,16.85,16.85,0,0,1-.54,4.23,9.09,9.09,0,0,1,2.87-.47,9.19,9.19,0,0,1,6.43,15.76,5.81,5.81,0,0,1,2.76,4.57c0,4.07-5.73,7.37-12.79,7.37h-66c-7.07,0-12.79-6.2-12.79-13.85S479.37,133.47,486.44,133.47Z" transform="translate(-472.11 -13.28)"/></g><g id="cloud_small-3" data-name="cloud_small"><path class="cls-7" d="M592.9,142.28a12,12,0,0,0-2.94.37v0a7,7,0,0,0-11.76-5.2,15.84,15.84,0,0,0-23.61-10.28,16.73,16.73,0,0,0-28.44,15.61,9.42,9.42,0,0,0-2.87-.46A9.19,9.19,0,0,0,516.85,158a5.8,5.8,0,0,0-2.76,4.57c0,4.06,5.73,7.36,12.79,7.36h66c7.06,0,12.79-6.2,12.79-13.84S600,142.28,592.9,142.28Z" transform="translate(-472.11 -13.28)"/><path class="cls-8" d="M517.41,157.2c-4.17-7.36,2.26-15.91,11.74-12.7a.45.45,0,0,0,.57-.49c-3.74-25.07,23.27-25.56,27.64-4.79a.44.44,0,0,0,.76.21c.84-1.05.61-3.52-1.67-8.72a1.23,1.23,0,0,1,.68-1.66c10.07-4,18.71,1.06,20.17,10.33a.44.44,0,0,0,.71.27c5.58-4.6,10.4-2.2,11.23,4a.45.45,0,0,0,.56.37c5.43-1.53,10.38-.5,11.08,1l2.53,7a.45.45,0,0,1,0,.28l-4.06,12.47a.44.44,0,0,1-.42.31l-82.56-1.54A.44.44,0,0,1,516,163l1.51-5.45A.43.43,0,0,0,517.41,157.2Z" transform="translate(-472.11 -13.28)"/><path class="cls-4" d="M599.53,143.78a13.48,13.48,0,0,1,2.68,8.56c0,4.81-4.36,8.72-9.75,8.72a9.87,9.87,0,0,1-8.83-5.05,7.46,7.46,0,0,1-6,2.61c-3.75,0-6.79-2.17-6.79-4.84,0,0,0-.09,0-.13,4.94-1.68,4.5-3.71,4.23-5.11a12.87,12.87,0,0,1-5.93,3.25c-3.82,1-7.88.94-10.14,0-.2-.08-.45.06-.43.24s.31.54.53.75c1.49,1.44,4.45,2.25,8.86,1.5a2.77,2.77,0,0,1,.36,1.33c0,2.67-4.15,4.83-9.27,4.83-4,0-7.42-1.33-8.71-3.2-.36,2.41-4.81,4.31-10.27,4.31s-9.89-1.89-10.26-4.29a6.88,6.88,0,0,1-5.87,2.74c-2.57,0-5.64-.41-6.67-2a8.83,8.83,0,0,0-2.92,4.18c0,4.28,7.68,7.75,17.17,7.75h58.33a4.71,4.71,0,0,0,.53,0c.31,0,.63,0,.95,0a14.07,14.07,0,0,0,14.07-14.07C605.38,151,603.34,146.29,599.53,143.78Z" transform="translate(-472.11 -13.28)"/><path class="cls-4" d="M546.08,147.54c4.58.53,8-1.68,7.71-3.91a2.24,2.24,0,0,0-.23-.72.29.29,0,0,0-.44-.07c-1.19,1.35-4,2.26-7.35,2.21s-6.46-1.07-8-2.48c-.14-.13-.38-.1-.42.05a1.77,1.77,0,0,0-.05.76C537.54,145.29,541.45,147,546.08,147.54Z" transform="translate(-472.11 -13.28)"/><path class="cls-6" d="M593.3,142.28a11.82,11.82,0,0,0-2.93.37v0a7,7,0,0,0-11.76-5.2A15.85,15.85,0,0,0,555,127.13a16.73,16.73,0,0,0-28.44,15.61,9.31,9.31,0,0,0-2.86-.46A9.19,9.19,0,0,0,517.25,158a5.82,5.82,0,0,0-2.76,4.57c0,4.06,5.73,7.36,12.8,7.36h66c7.07,0,12.8-6.2,12.8-13.84S600.37,142.28,593.3,142.28Z" transform="translate(-472.11 -13.28)"/></g></g><g id="bc2"><path class="cls-3" d="M672.12,259.24c.1-4.49-5.2-8.25-11.85-8.39a16.77,16.77,0,0,0-3,.2,10.21,10.21,0,0,0-4.91-7.13c-4.78-2.76-11-1.1-14.23,3.66a11.77,11.77,0,0,0-12.26-7.83,11,11,0,0,0-4.72-7.82c-3.5-2.25-8.06-2-12.28.24A16.28,16.28,0,0,0,585,215.63c.62-4.87-.73-9.18-4-11.31-4.56-2.93-11.36-.78-16.49,4.77a13.39,13.39,0,0,0-1.17-2.21c-4.55-6.9-14.72-8.22-22.72-2.94-5.94,3.91-9,10.36-8.34,16.25a14.14,14.14,0,0,0-9.08,2.8,13.86,13.86,0,0,0-5.76,11c-4.17-5.16-12.07-5.89-17.93-1.57-5,3.72-6.93,10-5,15.16a9.28,9.28,0,0,0-1.93-.2c-4.19,0-7.59,2.65-7.59,5.92a4.49,4.49,0,0,0,.23,1.42A7,7,0,1,0,482,268.05l.29,0v0H662.93l.28,0,.78,0h0a8.36,8.36,0,0,0,8-7.92c0-.1,0-.2,0-.3A5.63,5.63,0,0,0,672.12,259.24Z" transform="translate(-472.11 -13.28)"/><path class="cls-4" d="M672.12,259.24c.1-4.49-5.2-8.25-11.85-8.39a16.77,16.77,0,0,0-3,.2c-.16-.86-17.76,2.85-37.83,1.86-14.85-.74-13.48-21.53-30.81-22.64-38.91-2.49-75.48,23.9-102.32,23.81-.49,0-3.14-.09-4.27-.09a7,7,0,1,0,0,14.06l.29,0v0H662.93l.28,0,.78,0h0a8.36,8.36,0,0,0,8-7.92c0-.1,0-.2,0-.3A5.63,5.63,0,0,0,672.12,259.24Z" transform="translate(-472.11 -13.28)"/><path class="cls-5" d="M484.35,255.2c2.46,5.55,5.48,7.17,10.58,3.06,4.58.88,7.47-1.34,9.17-5.74,6,4.48,11.72,4,17.19.2,7.78,3.28,14.1,2.35,18.73-3.54-3.79-2.09-5.84-4.07-5.41-5.91,7,3.21,14.16,4.91,24.68-2.33-1.56,3.5-4.39,6.16-8.24,8.48,3.64,3.2,8.54,4.07,14.57-.53,7.58,8.74,14.81,9.21,21.68.86-12.8-2.95-15.46-9.86-16-17.57,6.93,7.47,12,17.27,30.34,10-.68,3.42-3.79,5.9-9.8,7.27,7.64,4.9,14.32,5.41,20,1.08,8.54,9.17,17.1,11.6,25.69,5.32A16.87,16.87,0,0,0,648.06,260c11.1-.05,11.75-13.61,0-14-3.88.08-6.95,2-9.46,5.3-3.07-4.22-6.8-6.84-11.39-7.38-1.24,3.36-3,4.51-5.87,6.59-1.5,1.3-3-.37-1.51-1.56,8.46-6.69,1.59-19-13.08-14.88.33-10.78-13.36-17.38-24.18-13.87-1.72-12.64-8.2-15.15-16.33-8,5,2.85,7.56,6.15,7.59,9.89,0,2.27-2.07,2.85-2.72.93-3.44-10.3-10.26-9.11-18.27-3.87-1.42.88-3,.11-1.58-1.43,2.91-2.78,5.84-5.41,9.1-6.24-13.92-5.93-20.74,1.49-25.36,13-13.87.29-17.7,11-14,19.92-8-12-17.86-12.29-24.16-4.62-2.77,3.81-1.27,7.11,1.16,11.14-2.32-1.56-4.82-2.84-6.81-2.52C486.1,249.45,484.6,252.76,484.35,255.2Z" transform="translate(-472.11 -13.28)"/><path class="cls-6" d="M672.12,259.24c.1-4.49-5.2-8.25-11.85-8.39a16.77,16.77,0,0,0-3,.2,10.21,10.21,0,0,0-4.91-7.13c-4.78-2.76-11-1.1-14.23,3.66a11.77,11.77,0,0,0-12.26-7.83,11,11,0,0,0-4.72-7.82c-3.5-2.25-8.06-2-12.28.24A16.28,16.28,0,0,0,585,215.63c.62-4.87-.73-9.18-4-11.31-4.56-2.93-11.36-.78-16.49,4.77a13.39,13.39,0,0,0-1.17-2.21c-4.55-6.9-14.72-8.22-22.72-2.94-5.94,3.91-9,10.36-8.34,16.25a14.14,14.14,0,0,0-9.08,2.8,13.86,13.86,0,0,0-5.76,11c-4.17-5.16-12.07-5.89-17.93-1.57-5,3.72-6.93,10-5,15.16a9.28,9.28,0,0,0-1.93-.2c-4.19,0-7.59,2.65-7.59,5.92a4.49,4.49,0,0,0,.23,1.42A7,7,0,1,0,482,268.05l.29,0v0H662.93l.28,0,.78,0h0a8.36,8.36,0,0,0,8-7.92c0-.1,0-.2,0-.3A5.63,5.63,0,0,0,672.12,259.24Z" transform="translate(-472.11 -13.28)"/></g><g id="bc1"><path class="cls-3" d="M605.32,115.19c.06-3-3.49-5.53-8-5.63a12.26,12.26,0,0,0-2,.14,6.85,6.85,0,0,0-3.3-4.78,7.26,7.26,0,0,0-9.54,2.45,7.87,7.87,0,0,0-8.22-5.25,7.35,7.35,0,0,0-3.16-5.24c-2.35-1.51-5.41-1.34-8.23.16a10.92,10.92,0,0,0-16-11.09c.41-3.27-.49-6.16-2.71-7.59-3.06-2-7.62-.52-11.06,3.2a8.12,8.12,0,0,0-.79-1.48c-3.05-4.63-9.87-5.51-15.23-2A11.8,11.8,0,0,0,511.51,89a9.5,9.5,0,0,0-6.09,1.88,9.27,9.27,0,0,0-3.86,7.39c-2.8-3.45-8.1-4-12-1a9,9,0,0,0-3.36,10.17,6.16,6.16,0,0,0-1.3-.14c-2.81,0-5.09,1.78-5.09,4a3.44,3.44,0,0,0,.15,1,4.66,4.66,0,0,0-2.11-.51,4.72,4.72,0,0,0,0,9.43H599.89a5.61,5.61,0,0,0,5.39-5.31,1.34,1.34,0,0,0,0-.2C605.3,115.46,605.31,115.33,605.32,115.19Z" transform="translate(-472.11 -13.28)"/><path class="cls-4" d="M605.32,115.19c.06-3-3.49-5.53-8-5.63a12.26,12.26,0,0,0-2,.14c-.11-.58-11.91,1.91-25.37,1.24-10-.49-9-14.43-20.66-15.18-26.09-1.67-50.61,16-68.61,16-.33,0-2.11-.06-2.87-.06a4.72,4.72,0,0,0,0,9.43H599.89a5.61,5.61,0,0,0,5.39-5.31,1.34,1.34,0,0,0,0-.2C605.3,115.46,605.31,115.33,605.32,115.19Z" transform="translate(-472.11 -13.28)"/><path class="cls-5" d="M479.4,112.48c1.64,3.72,3.68,4.81,7.09,2,3.07.6,5-.89,6.15-3.84,4,3,7.86,2.69,11.53.13,5.21,2.2,9.46,1.57,12.56-2.37-2.54-1.4-3.92-2.74-3.63-4,4.71,2.16,9.5,3.29,16.55-1.56a13,13,0,0,1-5.52,5.69c2.44,2.14,5.72,2.73,9.76-.36,5.09,5.86,9.94,6.18,14.55.58-8.59-2-10.37-6.61-10.77-11.79,4.65,5,8.08,11.59,20.35,6.72-.45,2.3-2.54,4-6.57,4.88,5.12,3.29,9.6,3.63,13.39.73,5.72,6.15,11.47,7.77,17.23,3.56a11.35,11.35,0,0,0,7.11,2.76c7.44,0,7.88-9.13,0-9.41a8.07,8.07,0,0,0-6.34,3.56c-2.06-2.83-4.56-4.59-7.64-5-.83,2.26-2,3-3.94,4.42-1,.87-2-.25-1-1,5.67-4.49,1.07-12.74-8.77-10,.22-7.24-9-11.66-16.21-9.3-1.16-8.48-5.51-10.16-11-5.38,3.39,1.91,5.07,4.12,5.09,6.63,0,1.52-1.38,1.91-1.82.62-2.31-6.91-6.88-6.11-12.25-2.59-1,.59-2,.07-1.06-1,2-1.87,3.92-3.63,6.1-4.18-9.34-4-13.91,1-17,8.74-9.3.19-11.86,7.4-9.41,13.36-5.34-8-12-8.24-16.2-3.1-1.86,2.55-.85,4.76.78,7.47-1.56-1-3.24-1.91-4.57-1.69C480.57,108.63,479.57,110.85,479.4,112.48Z" transform="translate(-472.11 -13.28)"/><path class="cls-6" d="M605.32,115.19c.06-3-3.49-5.53-8-5.63a12.26,12.26,0,0,0-2,.14,6.85,6.85,0,0,0-3.3-4.78,7.26,7.26,0,0,0-9.54,2.45,7.87,7.87,0,0,0-8.22-5.25,7.35,7.35,0,0,0-3.16-5.24c-2.35-1.51-5.41-1.34-8.23.16a10.92,10.92,0,0,0-16-11.09c.41-3.27-.49-6.16-2.71-7.59-3.06-2-7.62-.52-11.06,3.2a8.12,8.12,0,0,0-.79-1.48c-3.05-4.63-9.87-5.51-15.23-2A11.8,11.8,0,0,0,511.51,89a9.5,9.5,0,0,0-6.09,1.88,9.27,9.27,0,0,0-3.86,7.39c-2.8-3.45-8.1-4-12-1a9,9,0,0,0-3.36,10.17,6.16,6.16,0,0,0-1.3-.14c-2.81,0-5.09,1.78-5.09,4a3.44,3.44,0,0,0,.15,1,4.66,4.66,0,0,0-2.11-.51,4.72,4.72,0,0,0,0,9.43H599.89a5.61,5.61,0,0,0,5.39-5.31,1.34,1.34,0,0,0,0-.2C605.3,115.46,605.31,115.33,605.32,115.19Z" transform="translate(-472.11 -13.28)"/></g><g id="fc3"><path class="cls-9" d="M477.07,279.88c-.1-4.22,4.89-7.75,11.13-7.89a16.7,16.7,0,0,1,2.86.19,9.6,9.6,0,0,1,4.61-6.69A10.16,10.16,0,0,1,509,268.92a11.05,11.05,0,0,1,11.52-7.35,10.32,10.32,0,0,1,4.43-7.34c3.29-2.11,7.57-1.87,11.53.22a15.29,15.29,0,0,1,22.4-15.53c-.58-4.57.68-8.63,3.79-10.63,4.28-2.75,10.67-.72,15.49,4.49a12.18,12.18,0,0,1,1.1-2.08c4.27-6.48,13.83-7.72,21.34-2.76,5.58,3.67,8.46,9.73,7.83,15.26a13.27,13.27,0,0,1,8.53,2.63,13,13,0,0,1,5.41,10.35c3.91-4.84,11.34-5.53,16.84-1.47A12.56,12.56,0,0,1,644,268.94a9.74,9.74,0,0,1,1.81-.18c3.94,0,7.14,2.49,7.14,5.56a4.26,4.26,0,0,1-.22,1.33,6.6,6.6,0,1,1,3,12.5H485.7l-.26,0-.74,0h0a7.85,7.85,0,0,1-7.56-7.43c0-.1,0-.19,0-.28A5.29,5.29,0,0,1,477.07,279.88Z" transform="translate(-472.11 -13.28)"/><path class="cls-10" d="M477.07,279.88c-.1-4.22,4.89-7.75,11.13-7.89a16.7,16.7,0,0,1,2.86.19c.15-.81,16.68,2.68,35.53,1.75,13.95-.69,12.65-20.22,28.93-21.26,36.55-2.34,71.2,22.07,96.41,22,.46,0,2.65.3,3.71.3a6.6,6.6,0,1,1,0,13.2H485.7l-.26,0-.74,0h0a7.85,7.85,0,0,1-7.56-7.43c0-.1,0-.19,0-.28A5.29,5.29,0,0,1,477.07,279.88Z" transform="translate(-472.11 -13.28)"/><path class="cls-11" d="M653.43,276.08c-2.3,5.22-5.15,6.74-9.93,2.87-4.3.84-7-1.25-8.62-5.38-5.66,4.2-11,3.77-16.15.18-7.3,3.08-13.24,2.21-17.58-3.32,3.55-2,5.48-3.83,5.08-5.55-6.59,3-13.3,4.61-23.18-2.19,1.46,3.28,4.11,5.78,7.73,8-3.41,3-8,3.83-13.68-.49-7.12,8.21-13.91,8.65-20.36.81,12-2.77,14.52-9.26,15.07-16.51-6.51,7-11.32,16.23-28.5,9.41.64,3.21,3.56,5.55,9.21,6.83-7.17,4.6-13.45,5.08-18.75,1-8,8.61-16.07,10.89-24.14,5a15.88,15.88,0,0,1-10,3.86c-10.43-.05-11-12.78,0-13.17,3.64.08,6.53,1.91,8.88,5,2.89-4,6.39-6.42,10.7-6.93,1.16,3.16,4.24,5.29,7,7.23,1.2.78,1.29-2.05-.59-3.13-9.18-5.58,2.7-14.28,12.84-13.35-.31-10.13,12.55-16.32,22.71-13,1.61-11.88,7.7-14.23,15.34-7.54-4.74,2.67-7.1,5.77-7.13,9.29,0,2.13,1.94,2.68,2.55.87,3.23-9.67,9.64-8.56,17.16-3.63,1.34.83,2.82.1,1.48-1.35-2.73-2.61-5.48-5.08-8.54-5.85,13.08-5.57,19.48,1.4,23.82,12.25,13,.27,16.62,10.36,13.19,18.7,7.47-11.24,17.36-11.5,23.28-4.3,2.6,3.58,1.22,7-1.68,10.43,2.18-1.47,4.29-2.53,6.16-2.23C651.55,270.83,653.2,273.8,653.43,276.08Z" transform="translate(-472.11 -13.28)"/><path class="cls-12" d="M477.07,279.88c-.1-4.22,4.89-7.75,11.13-7.89a16.7,16.7,0,0,1,2.86.19,9.6,9.6,0,0,1,4.61-6.69A10.16,10.16,0,0,1,509,268.92a11.05,11.05,0,0,1,11.52-7.35,10.32,10.32,0,0,1,4.43-7.34c3.29-2.11,7.57-1.87,11.53.22a15.29,15.29,0,0,1,22.4-15.53c-.58-4.57.68-8.63,3.79-10.63,4.28-2.75,10.67-.72,15.49,4.49a12.18,12.18,0,0,1,1.1-2.08c4.27-6.48,13.83-7.72,21.34-2.76,5.58,3.67,8.46,9.73,7.83,15.26a13.27,13.27,0,0,1,8.53,2.63,13,13,0,0,1,5.41,10.35c3.91-4.84,11.34-5.53,16.84-1.47A12.56,12.56,0,0,1,644,268.94a9.74,9.74,0,0,1,1.81-.18c3.94,0,7.14,2.49,7.14,5.56a4.26,4.26,0,0,1-.22,1.33,6.6,6.6,0,1,1,3,12.5H485.7l-.26,0-.74,0h0a7.85,7.85,0,0,1-7.56-7.43c0-.1,0-.19,0-.28A5.29,5.29,0,0,1,477.07,279.88Z" transform="translate(-472.11 -13.28)"/></g><g id="fc2"><path class="cls-9" d="M473.5,343.38c-.11-5.24,6.07-9.62,13.82-9.79a19.61,19.61,0,0,1,3.55.24,11.92,11.92,0,0,1,5.72-8.31c5.57-3.22,12.77-1.29,16.59,4.26a13.7,13.7,0,0,1,14.29-9.13,12.78,12.78,0,0,1,5.5-9.11c4.08-2.62,9.39-2.32,14.31.27a19,19,0,0,1,27.79-19.27c-.72-5.68.86-10.71,4.71-13.19,5.32-3.42,13.25-.9,19.23,5.57a15.53,15.53,0,0,1,1.36-2.58c5.31-8,17.17-9.58,26.49-3.43,6.92,4.56,10.5,12.08,9.71,18.94a16.5,16.5,0,0,1,10.59,3.26A16.16,16.16,0,0,1,653.87,314c4.86-6,14.08-6.88,20.91-1.83,5.86,4.33,8.07,11.63,5.85,17.66a11.75,11.75,0,0,1,2.25-.23c4.89,0,8.85,3.09,8.85,6.9a5.39,5.39,0,0,1-.27,1.66,8.19,8.19,0,1,1,3.68,15.51l-.35,0v0H484.22l-.33,0c-.3,0-.61,0-.91,0h0a9.75,9.75,0,0,1-9.38-9.23c0-.11,0-.23,0-.34S473.51,343.61,473.5,343.38Z" transform="translate(-472.11 -13.28)"/><path class="cls-10" d="M473.5,343.38c-.11-5.24,6.07-9.62,13.82-9.79a19.61,19.61,0,0,1,3.55.24c.18-1,20.7,3.32,44.1,2.16,17.31-.86,15.7-25.1,35.91-26.39,45.36-2.9,88.36,27.39,119.65,27.28.57,0,3.28.37,4.61.37a8.2,8.2,0,0,1,0,16.39l-.35,0v0H484.22l-.33,0c-.3,0-.61,0-.91,0h0a9.75,9.75,0,0,1-9.38-9.23c0-.11,0-.23,0-.34S473.51,343.61,473.5,343.38Z" transform="translate(-472.11 -13.28)"/><path class="cls-11" d="M692.4,338.66c-2.87,6.47-6.4,8.36-12.34,3.57-5.33,1-8.7-1.55-10.69-6.68-7,5.21-13.66,4.67-20,.22-9.06,3.83-16.44,2.74-21.83-4.12,4.41-2.44,6.8-4.75,6.31-6.89-8.18,3.74-16.51,5.72-28.77-2.72,1.81,4.08,5.11,7.18,9.6,9.89-4.24,3.73-10,4.74-17-.62-8.84,10.19-17.27,10.73-25.28,1,14.92-3.44,18-11.5,18.71-20.49C583,320.53,577,332,555.72,323.51c.79,4,4.42,6.88,11.43,8.47-8.9,5.72-16.7,6.31-23.28,1.27-10,10.69-19.94,13.51-30,6.19a19.63,19.63,0,0,1-12.36,4.79c-12.95-.05-13.7-15.86,0-16.34,4.51.1,8.1,2.37,11,6.18,3.58-4.91,7.93-8,13.28-8.6,1.44,3.92,5.26,6.56,8.65,9,1.49,1,1.6-2.55-.74-3.89-11.39-6.93,3.35-17.73,15.94-16.58-.38-12.56,15.57-20.25,28.18-16.16,2-14.74,9.57-17.66,19.05-9.35-5.89,3.32-8.82,7.17-8.86,11.53,0,2.64,2.41,3.32,3.18,1.08,4-12,12-10.62,21.29-4.51,1.66,1,3.5.13,1.84-1.67-3.39-3.24-6.81-6.31-10.61-7.27,16.24-6.91,24.19,1.74,29.57,15.2,16.17.34,20.63,12.87,16.37,23.22,9.27-13.94,21.55-14.28,28.9-5.34,3.22,4.44,1.51,8.72-2.09,12.94,2.7-1.82,5.32-3.13,7.64-2.75C690.06,332.15,692.1,335.82,692.4,338.66Z" transform="translate(-472.11 -13.28)"/><path class="cls-12" d="M473.5,343.38c-.11-5.24,6.07-9.62,13.82-9.79a19.61,19.61,0,0,1,3.55.24,11.92,11.92,0,0,1,5.72-8.31c5.57-3.22,12.77-1.29,16.59,4.26a13.7,13.7,0,0,1,14.29-9.13,12.78,12.78,0,0,1,5.5-9.11c4.08-2.62,9.39-2.32,14.31.27a19,19,0,0,1,27.79-19.27c-.72-5.68.86-10.71,4.71-13.19,5.32-3.42,13.25-.9,19.23,5.57a15.53,15.53,0,0,1,1.36-2.58c5.31-8,17.17-9.58,26.49-3.43,6.92,4.56,10.5,12.08,9.71,18.94a16.5,16.5,0,0,1,10.59,3.26A16.16,16.16,0,0,1,653.87,314c4.86-6,14.08-6.88,20.91-1.83,5.86,4.33,8.07,11.63,5.85,17.66a11.75,11.75,0,0,1,2.25-.23c4.89,0,8.85,3.09,8.85,6.9a5.39,5.39,0,0,1-.27,1.66,8.19,8.19,0,1,1,3.68,15.51l-.35,0v0H484.22l-.33,0c-.3,0-.61,0-.91,0h0a9.75,9.75,0,0,1-9.38-9.23c0-.11,0-.23,0-.34S473.51,343.61,473.5,343.38Z" transform="translate(-472.11 -13.28)"/></g><g id="fc1"><path class="cls-9" d="M630.74,317.55a26.25,26.25,0,0,0-5.86.67v-.07c0-7-6.28-12.67-14-12.67a14.87,14.87,0,0,0-9.43,3.3c-3-12.89-15.73-22.57-30.92-22.57a34,34,0,0,0-16.23,4.05,35,35,0,0,0-24.46-9.64c-18.44,0-33.39,13.5-33.39,30.15a27.19,27.19,0,0,0,1.08,7.62,19.88,19.88,0,0,0-5.72-.84c-10.14,0-18.36,7.42-18.36,16.57A15.76,15.76,0,0,0,478.93,346c-3.45,2.27-5.52,5.12-5.52,8.24,0,7.33,11.44,13.27,25.54,13.27H630.74c14.11,0,25.54-11.17,25.54-24.95S644.85,317.55,630.74,317.55Z" transform="translate(-472.11 -13.28)"/><path class="cls-13" d="M480.05,344.44c-8.33-13.25,4.52-28.67,23.43-22.89a.85.85,0,0,0,1.13-.88c-7.46-45.18,46.47-46.06,55.19-8.63a.91.91,0,0,0,1.52.37c1.68-1.88,1.22-6.33-3.35-15.7a2.18,2.18,0,0,1,1.36-3c20.1-7.13,37.35,1.92,40.28,18.63a.9.9,0,0,0,1.42.48c11.12-8.29,20.76-4,22.41,7.16a.88.88,0,0,0,1.11.67c10.85-2.76,20.72-.91,22.12,1.76l5.06,12.69a.74.74,0,0,1,0,.51l-8.1,22.47a.87.87,0,0,1-.86.55L478,355.86a.82.82,0,0,1-.83-1l3-9.81A.75.75,0,0,0,480.05,344.44Z" transform="translate(-472.11 -13.28)"/><path class="cls-10" d="M644,320.25c2.2,2.16,5.47,8.18,5.34,15.44,0,8.67-8.71,15.7-19.45,15.7-7.82,0-14.55-3.73-17.64-9.1-2.26,2.8-6.79,4.71-12,4.71-7.49,0-13.56-3.9-13.56-8.72,0-.08,0-.16,0-.24,9.88-3,9-6.68,8.45-9.2a26.4,26.4,0,0,1-11.84,5.85c-7.63,1.75-15.72,1.69-20.24.05-.4-.15-.9.09-.86.42.06.52.62,1,1.05,1.36,3,2.59,8.89,4.05,17.69,2.7a4.59,4.59,0,0,1,.72,2.39c0,4.81-8.28,8.72-18.5,8.72-8,0-14.82-2.41-17.39-5.77-.71,4.33-9.6,7.76-20.49,7.76s-19.76-3.41-20.5-7.74c-2,2.91-6.48,4.95-11.72,4.95s-11.25-.75-13.3-3.58c-4,3.33-4.34,4.26-5.84,7.54,0,7.71,15.34,14,34.27,14l1.8,0,.41,0H624.62a9.11,9.11,0,0,0,1-.06c.63,0,1.26.06,1.9.06,15.51,0,28.09-11.35,28.09-25.35C655.66,333.28,651.58,324.79,644,320.25Z" transform="translate(-472.11 -13.28)"/><path class="cls-10" d="M537.28,327c9.15.95,16-3,15.39-7.05a3.58,3.58,0,0,0-.46-1.29.63.63,0,0,0-.87-.14c-2.39,2.44-8,4.07-14.68,4s-12.89-1.92-16-4.47c-.27-.23-.76-.17-.84.1a3.27,3.27,0,0,0-.09,1.36C520.22,323,528,326.08,537.28,327Z" transform="translate(-472.11 -13.28)"/><path class="cls-12" d="M631.55,317.55a26.25,26.25,0,0,0-5.86.67v-.07c0-7-6.28-12.67-14-12.67a14.85,14.85,0,0,0-9.43,3.3c-3.05-12.89-15.73-22.57-30.92-22.57a34,34,0,0,0-16.23,4.05,35,35,0,0,0-24.46-9.64c-18.44,0-33.39,13.5-33.39,30.15a27.19,27.19,0,0,0,1.08,7.62,20,20,0,0,0-5.73-.84c-10.13,0-18.35,7.42-18.35,16.57A15.75,15.75,0,0,0,479.73,346c-3.45,2.27-5.51,5.12-5.51,8.24,0,7.33,11.44,13.27,25.54,13.27H631.55c14.11,0,25.54-11.17,25.54-24.95S645.66,317.55,631.55,317.55Z" transform="translate(-472.11 -13.28)"/></g></g></g></g></g></svg>