<svg xmlns="http://www.w3.org/2000/svg" viewBox="0 0 97.91 133.19"><defs><style>.cls-1{fill:#20d3ce;}.cls-1,.cls-2,.cls-3{stroke:#000;stroke-linecap:round;stroke-linejoin:round;stroke-width:2px;}.cls-2{fill:#644de8;}.cls-3{fill:#e23ef9;}</style></defs><g id="Layer_2" data-name="Layer 2"><g id="_3_ones" data-name="3 ones"><path class="cls-1" d="M96.91,41.19V33.51l-7.6-2.23-2-6.28,4.83-6.28-4.51-6.21-7.46,2.66-5.34-3.88L75,3.37,67.71,1,63.23,7.53h-6.6L52.16,1l-7.3,2.37.22,7.92-5.34,3.88-7.46-2.66-4.51,6.21L32.6,25l-2,6.28L23,33.51v7.68l7.6,2.24,2,6.27L27.77,56l4.51,6.21,7.46-2.66c2.27,1.66,3.06,2.23,5.34,3.88l-.22,7.92,7.3,2.37,4.47-6.53h6.6l4.48,6.53L75,71.33l-.22-7.92c2.27-1.65,3.07-2.22,5.34-3.88l7.46,2.66L92.1,56,87.27,49.7l2-6.27Zm-37,16.27A20.11,20.11,0,1,1,80,37.35,20.1,20.1,0,0,1,59.93,57.46Z"/><path class="cls-2" d="M47.1,87.94c-.13-1.93-.18-2.61-.31-4.54L51.08,80c-1-2.56-.95-2.36-2-4.92l-5.45.52-2.92-3.49,1.48-5.27L37.74,64l-4.1,3.62-4.42-1.11-1.9-5.13L22,61.77l-1.19,5.34-4.23,1.7-4.55-3L8,69.17l2.18,5L7.76,78l-5.47.22L1,83.4l4.71,2.78c.13,1.94.18,2.61.31,4.55L1.73,94.12c1,2.55.94,2.36,2,4.91l5.44-.52,2.93,3.5-1.49,5.26,4.49,2.82,4.1-3.62,4.42,1.11,1.9,5.13,5.28-.36L32,107l4.23-1.7,4.55,3L44.8,105l-2.17-5,2.42-3.86,5.46-.22c.68-2.67.63-2.47,1.3-5.14Zm-7.23,2.51A13.89,13.89,0,1,1,29.79,73.6,13.89,13.89,0,0,1,39.87,90.45Z"/><path class="cls-3" d="M82.57,113.22l4.2-1.64-.37-4.35-4.42-.9c-.62-1.48-.84-2-1.46-3.46L83,99.07l-2.86-3.3L76,97.64,72.77,95.7l-.26-4.5-4.25-1L66,94.13l-3.74.32L59.44,91l-4,1.7.51,4.48L53.09,99.6l-4.36-1.14-2.26,3.74,3.05,3.33c-.37,1.55-.49,2.1-.85,3.65l-4.2,1.64.37,4.35,4.42.9c.62,1.48.84,2,1.46,3.46l-2.44,3.8c1.49,1.71,1.38,1.58,2.86,3.3l4.11-1.87,3.21,1.94.26,4.5,4.26,1,2.22-3.92,3.74-.32,2.86,3.48,4-1.7-.51-4.48,2.84-2.45,4.36,1.14,2.25-3.74-3-3.33Zm-16,9.38A11.44,11.44,0,1,1,77,110.22,11.44,11.44,0,0,1,66.6,122.6Z"/></g></g></svg>