<svg xmlns="http://www.w3.org/2000/svg" viewBox="0 0 560.97 339.64"><defs><style>.cls-1{fill:#ffdc97;}.cls-2{fill:#f0ff64;}.cls-10,.cls-11,.cls-12,.cls-13,.cls-19,.cls-2,.cls-20,.cls-21,.cls-22,.cls-23,.cls-24,.cls-25,.cls-26,.cls-27,.cls-28,.cls-29,.cls-3,.cls-30,.cls-32,.cls-33,.cls-35,.cls-37,.cls-4,.cls-40,.cls-41,.cls-42,.cls-44,.cls-45,.cls-46,.cls-47,.cls-48,.cls-49,.cls-50,.cls-51,.cls-52,.cls-53,.cls-54,.cls-6,.cls-9{stroke:#000;}.cls-10,.cls-11,.cls-13,.cls-14,.cls-15,.cls-16,.cls-17,.cls-2,.cls-27,.cls-28,.cls-29,.cls-3,.cls-30,.cls-31,.cls-32,.cls-33,.cls-34,.cls-35,.cls-4,.cls-40,.cls-41,.cls-42,.cls-43,.cls-44,.cls-46,.cls-47,.cls-48,.cls-49,.cls-50,.cls-51,.cls-52,.cls-53,.cls-54,.cls-6,.cls-7,.cls-8{stroke-linecap:round;}.cls-10,.cls-11,.cls-14,.cls-15,.cls-16,.cls-17,.cls-2,.cls-21,.cls-22,.cls-23,.cls-24,.cls-25,.cls-26,.cls-27,.cls-28,.cls-29,.cls-3,.cls-30,.cls-31,.cls-32,.cls-33,.cls-34,.cls-35,.cls-4,.cls-40,.cls-41,.cls-42,.cls-43,.cls-44,.cls-46,.cls-47,.cls-48,.cls-49,.cls-50,.cls-51,.cls-52,.cls-53,.cls-54,.cls-7,.cls-8{stroke-linejoin:round;}.cls-10,.cls-16,.cls-2,.cls-22,.cls-23,.cls-24,.cls-25,.cls-26,.cls-27,.cls-28,.cls-29,.cls-3,.cls-30,.cls-34,.cls-35,.cls-4,.cls-42,.cls-51,.cls-6,.cls-8{stroke-width:2px;}.cls-3{fill:#fc6bfc;}.cls-4{fill:#93dfff;}.cls-21,.cls-5{fill:#fff;}.cls-11,.cls-13,.cls-14,.cls-15,.cls-16,.cls-17,.cls-29,.cls-31,.cls-34,.cls-37,.cls-43,.cls-6,.cls-7,.cls-8{fill:none;}.cls-12,.cls-13,.cls-19,.cls-20,.cls-37,.cls-45,.cls-6,.cls-9{stroke-miterlimit:10;}.cls-14,.cls-15,.cls-16,.cls-17,.cls-31,.cls-34,.cls-43,.cls-7,.cls-8{stroke:#fff;}.cls-7{stroke-width:3px;}.cls-8{opacity:0.8;}.cls-9{fill:#c1c1c1;}.cls-10{fill:#00f1ff;}.cls-12{fill:#feb75d;}.cls-14{stroke-width:0.5px;}.cls-17,.cls-37{stroke-width:0.75px;}.cls-18{fill:#ff6d00;}.cls-19{fill:#af8857;}.cls-20{fill:#ffb75d;}.cls-22{fill:#edcc3e;}.cls-23{fill:#fd7fff;}.cls-24{fill:#55ecff;}.cls-25{fill:#51ff3f;}.cls-26{fill:#ff883f;}.cls-27,.cls-32{fill:#fffbb6;}.cls-28{fill:#969696;}.cls-30{fill:#ffad3f;}.cls-31{stroke-width:4px;}.cls-33{fill:#ea8c3f;}.cls-34{opacity:0.5;}.cls-35{fill:#727272;}.cls-36{font-size:5px;font-family:Impact;}.cls-38{fill:red;}.cls-39{opacity:0.21;}.cls-40,.cls-42{fill:#e27e2b;}.cls-41{fill:#16c9d6;}.cls-43{opacity:0.49;}.cls-44{fill:#99ff94;}.cls-45,.cls-46{fill:#128c00;}.cls-47{fill:#cd0bdd;}.cls-48{fill:#bc5900;}.cls-49{fill:#db7d0e;}.cls-50{fill:#f7d33c;}.cls-51,.cls-52{fill:#fff6cf;}.cls-53{fill:#ff64ff;}.cls-54{fill:#66a1ff;}</style></defs><g id="Layer_2" data-name="Layer 2"><g id="decoration_desk"><ellipse class="cls-1" cx="280.48" cy="288.51" rx="280.48" ry="51.13"/></g><g id="fluf_color"><g id="done"><g id="right_horn"><path class="cls-2" d="M240.45,40.73s-23.5,14.11-27-8.49c-1.75-13.47,16.14-8.86,12.54.83,0,0,13.23-3.88,11-15.13C233.8,6,217.74,7.67,217.74,7.67S186.48,9.14,196,41.25c5.91,17.06,32,25.11,34.57,16.88C231.17,56.14,237.38,44.22,240.45,40.73Z"/><path class="cls-3" d="M198.85,16.33s11.77-1.68,16.28,9c2.46-1.78,5.14-2.22,8.58,0,8.41-5.19,6.51-15.61,6.51-15.61C221.24,5,206.39,8.34,198.85,16.33Z"/><path class="cls-3" d="M195.69,40.22c6.31-9.9,18-6.79,18-6.79a13.71,13.71,0,0,0,5.12,9.4s-8.65,2.4-4.27,15.92C205.84,55.46,199.06,49.89,195.69,40.22Z"/></g><g id="right_horn-2" data-name="right_horn"><path class="cls-2" d="M319.65,48.91s24.19,8.48,27.69-14.12c1.76-13.47-16.14-8.86-12.54.83,0,0-13.23-3.88-11-15.13,3.2-12,19.26-10.27,19.26-10.27s31.26,1.47,21.76,33.58c-5.9,17.07-31.2,27.78-35.19,20.13C328.58,62,322.29,52.68,319.65,48.91Z"/><path class="cls-3" d="M337.08,27.92c-8.41-5.18-6.51-15.61-6.51-15.61,9.06-4.33,21.32-2.41,31.37,6.57,0,0-11.77-1.68-16.28,9C343.29,26,340.46,25.83,337.08,27.92Z"/><path class="cls-3" d="M347.13,62.74C351.51,49.22,342,46.1,342,46.1c3.08-3.42,4.72-6.79,5.12-10.12,0,0,11.66-3.11,18,6.79C362.78,50.65,356.72,57.28,347.13,62.74Z"/></g><path id="body" class="cls-4" d="M210.46,143c2.6-12.43,6.64-24,12.91-34.11l-8.49,4.8S221.15,81.22,232,69.23l-8,4.3s9.66-25.24,16.39-33.18a30.5,30.5,0,0,0-7.65,0,54.88,54.88,0,0,1,30.53-23.71C254.55,4.05,252,3.4,252,3.4s17.89,1.94,21.49,5.22c2.44-3.92,13.38-8.86,18.82-7.34-3.74,8.58-3.84,11.18-3.84,11.18s20.26,4.7,30.47,15.46c-7.32-1.29-10.55.47-10.55.47s8.34,2.07,18,18.37a26.32,26.32,0,0,0-8.73-.66s24.38,33.46,32,59.47c-7.29-6.64-8.15-6.52-8.15-6.52s12.89,37.68,11.7,42.69C323.88,183.91,251.13,193.15,210.46,143Z"/><g id="eyes"><circle class="cls-5" cx="257.69" cy="71.37" r="3.49"/><circle class="cls-5" cx="295.33" cy="71.43" r="3.49"/><path id="eye2" d="M299.37,65.22a9.09,9.09,0,1,0,9.08,9.08A9.09,9.09,0,0,0,299.37,65.22Zm-4,9a2.82,2.82,0,1,1,2.82-2.81A2.81,2.81,0,0,1,295.33,74.24Z"/><path id="eye1" d="M259,65.16a9.09,9.09,0,1,0,9.09,9.08A9.07,9.07,0,0,0,259,65.16Zm-1.27,9a2.82,2.82,0,1,1,2.82-2.81A2.81,2.81,0,0,1,257.69,74.18Z"/></g><line class="cls-6" x1="248.08" y1="47.25" x2="269.85" y2="47.25"/><line class="cls-6" x1="288.48" y1="47.25" x2="310.25" y2="47.25"/></g><path class="cls-7" d="M229.58,28a11.15,11.15,0,0,0-4.09-6.2c-3.33-2.68-7.84-2.24-10.81-.66-3.88,2.06-5,6-5.41,7.38-1.37,4.82.41,8.89,1.19,10.69a16.84,16.84,0,0,0,7.12,8.3c6.86,3.81,12.3,1.36,13.22.95"/><path class="cls-7" d="M331.12,29.46a12,12,0,0,1,5.8-6.07c1.11-.52,5.32-2.26,9.37-.13C350,25.2,351,29,351.43,30.51c1.41,5.13-.65,9.55-1.85,12.13A19.41,19.41,0,0,1,341.67,52a18.93,18.93,0,0,1-13.05,2"/><path class="cls-8" d="M261.19,20.69s-17.68,10.18-20.74,14.83,7-.77,7-.77"/><path class="cls-8" d="M240.6,45.86s-8.43,13.17-8.68,17.9,4.34-2,4.34-2"/><path class="cls-8" d="M231.91,74.92S220,100,219.78,104.75s8.09-4,8.09-4"/><path class="cls-8" d="M272.31,10.8s-8.84-3.69-10.75-3.5,2.31,3.5,2.31,3.5"/><path class="cls-8" d="M276.26,9.35S283,3.74,287.67,3.68"/></g><g id="desk"><path id="desk_bg" class="cls-9" d="M431.7,308.75c-103.85,2.65-203,3-295.48,0-.69-68.07.23-136.6-2.11-171.42H427.45C432,191.57,433.11,249,431.7,308.75Z"/><g id="cat_poster"><path id="cat_poster_bg" class="cls-10" d="M271.12,272.89c-27.81,1.87-58.92,2.71-92.17,2.9,1.08-41.74,1.37-80.64,0-113.67,25.5-2.11,55.52-2.45,87.95-1.85C269.52,194.4,270.74,232.47,271.12,272.89Z"/><g id="hang_in_there_text"><path class="cls-11" d="M185.14,170.52a74.73,74.73,0,0,0,.35,10.14"/><path class="cls-11" d="M190,170.13a66.67,66.67,0,0,0,.39,10.18"/><line class="cls-11" x1="185.1" y1="175.02" x2="189.99" y2="175.02"/><path class="cls-11" d="M192.36,174.23s2.59-1,3.6,1a3.81,3.81,0,0,1,.36,1.29c.44,3.71,1.73,4.15,1.73,4.15"/><path class="cls-11" d="M196,175.22s-4.64,2-3.25,4.5,3.8-2,3.8-2"/><path class="cls-11" d="M199.48,180.46c-1-6.92,3.71-9.29,4.55-.15"/><circle class="cls-11" cx="207.89" cy="177.31" r="2.77"/><path class="cls-11" d="M210.66,177.31s1.14,13.54-6,7.16"/><path class="cls-11" d="M217.29,174.54a21.61,21.61,0,0,1,.39,5.77"/><circle cx="217.29" cy="171.02" r="0.62"/><path class="cls-11" d="M220.2,180.66c-.44-6.12,4.16-9.64,4.83-.58"/><path class="cls-11" d="M231.82,171s-.89,10.82,4.11,9.44"/><line class="cls-11" x1="229.5" y1="174.58" x2="235.04" y2="174.54"/><path class="cls-11" d="M236.92,169.83l.79,10.48c0-.78,4.2-10.82,5.24,0"/><path class="cls-11" d="M249.43,179.77s-5.27,2.42-4.66-2.72c0-2.31,3.32-3.14,4.31-1.25.47,1.35-1,1.59-4.24.87"/><path class="cls-11" d="M261.56,179.62s-5.27,2.42-4.66-2.72c0-2.31,3.32-3.14,4.31-1.25.47,1.35-1,1.59-4.24.87"/><polyline class="cls-11" points="250.86 174.6 251.26 177.87 251.48 179.65"/><path class="cls-11" d="M251.26,177.87s.05-2.35,3.76-1.93"/></g><g id="Cat"><path id="cat_body" class="cls-12" d="M214.55,247.7s.38,11.65.46,12.53c.23,2.51,3.77,5,3.68.34,0-6.53-.12-8.45-.12-8.45s7,2.77,12.27,0c0,6.23.29,11.47,2.17,11.47,3.36,0,2.28-11.47,2.28-11.47s1.48-39-.6-41.94,1.11-3.58,1.11-3.58,2.49-4.13-.48-9.41c2.83-4.15.72-6.39.72-6.39a6.19,6.19,0,0,0-5.86,3.23c-3-2.51-11.21-.26-11.21-.26s-3.7-4.36-6.07-4.36.79,6.6.79,6.6-3,9,.2,11.47-.46,4.94-.46,4.94-.59,24.4.33,27.3-12.2,21.5-12.2,21.5c-4.39,7.84-.46,7.78,4,3.09,0,0,8.57-12.85,9-16.61-.2-4.29-.79-8-.79-8"/><g id="cat_face"><circle id="eye1-2" data-name="eye1" cx="219.51" cy="200.49" r="1.51"/><circle id="eye2-2" data-name="eye2" cx="230.04" cy="200.24" r="1.51"/><g id="cat_nose"><path d="M225.1,203.19a5.74,5.74,0,0,0,2-1.94.2.2,0,0,0-.14-.35,9.43,9.43,0,0,0-3.89,0,.2.2,0,0,0-.15.35,7,7,0,0,0,1.95,1.94.2.2,0,0,0,.14.06A.18.18,0,0,0,225.1,203.19Z"/><line class="cls-13" x1="224.96" y1="202.63" x2="224.96" y2="204.55"/></g><circle id="eye_l2" class="cls-5" cx="229.43" cy="199.81" r="0.35"/><circle id="eye_l1" class="cls-5" cx="218.9" cy="200.05" r="0.35"/></g><g id="cat_highlights"><path class="cls-14" d="M214.76,194.36s-1.6-4.53,2.08.25"/><path class="cls-14" d="M234.22,194.65s1.6-4.52-2.08.25"/><path class="cls-15" d="M216.1,196.91s-3.12,6.83.49,10.59"/><path class="cls-16" d="M216.84,214.24a109.35,109.35,0,0,0,2.06,34.12"/><path class="cls-17" d="M216.37,259.14a2.62,2.62,0,0,0,.68,2"/><path class="cls-17" d="M232.87,259.89a2.58,2.58,0,0,0,.69,2"/><ellipse id="nose_l" class="cls-5" cx="224.27" cy="201.31" rx="0.6" ry="0.25"/></g><g id="cat_dots"><path class="cls-18" d="M221.27,194.74c-.64-.49-1.58,0-1.89.69-.14.74,1.25,2.54,1.64,2.29C222,197.2,221.64,195,221.27,194.74Z"/><path class="cls-18" d="M228.91,195.29a1.36,1.36,0,0,0-2-.27c-.46.59-.07,2.83.39,2.79C228.44,197.82,229.14,195.65,228.91,195.29Z"/><path class="cls-18" d="M222.71,194.47a2.4,2.4,0,0,1,2.9-.07c1.06.88-.38,3.95-.83,3.64C224.76,198.32,221.41,195.81,222.71,194.47Z"/><path class="cls-18" d="M203.35,264.59a1.48,1.48,0,0,0,0-2c-.54-.31-2.37.6-2.28,1C201.19,264.74,203.08,264.9,203.35,264.59Z"/><path class="cls-18" d="M205.35,262c.81.14,1.36-.81,1.28-1.57-.26-.73-2.41-1.7-2.62-1.27C203.41,260.17,204.92,262,205.35,262Z"/><path class="cls-18" d="M206.46,255.54c-.79.21-.9,1.3-.52,2,.55.56,2.9.55,2.92.08C209,256.44,206.86,255.37,206.46,255.54Z"/><path class="cls-18" d="M210.17,254.74a1.43,1.43,0,0,0,1-1.73c-.34-.56-2.43-.77-2.56-.34C208.15,253.69,209.78,254.86,210.17,254.74Z"/><path class="cls-18" d="M211.1,249.7a1.32,1.32,0,0,0-1,1.35c.21.45,1.86.63,2,.29C212.6,250.54,211.43,249.61,211.1,249.7Z"/></g></g><path id="tree_log" class="cls-19" d="M180.46,204.64s11.16.82,15,1.78c3.58.92,18.24.93,18.25,1.07s17.07.36,24.08-.72c3.82-.39,17.52.24,16.91,0l14.49-.25v7.37s-19-2-27.25-1.93-35.85,0-35.85,0l-8.26-.84s-17.34,10.7-17.34,9.45c0-1.56.07-3.22.07-4.34l9.89-5.6c1.3.09-7.11-2.53-10-2.44C180.44,205.55,180.44,205.55,180.46,204.64Z"/><g id="cat_paws"><path id="cat_paw1" class="cls-20" d="M210.91,206.36s-3.36-1.52-5.21.53c-.92,1.45,2.18,3.36,3,3.36S212.43,207,210.91,206.36Z"/><path id="cat_paw2" class="cls-20" d="M243.35,206.36s-3.36-1.52-5.21.53c-.92,1.45,2.18,3.36,3,3.36S244.87,207,243.35,206.36Z"/><path id="paw_l1" class="cls-15" d="M207.37,208a1.54,1.54,0,0,1,1.22-.95"/><path id="paw_l2" class="cls-15" d="M239.81,208A1.54,1.54,0,0,1,241,207"/></g><g id="cat_tape"><path class="cls-21" d="M170.64,168a71.36,71.36,0,0,1,12.2-13.51l-.4,2,1.71-.27-1.38,2.57,3.69-1a138.65,138.65,0,0,1-11.41,12.85l-1.91.33.56-1.84-1.51.29.49-1.81Z"/><path class="cls-21" d="M278.77,266.73a71.6,71.6,0,0,1-12.38,13.35l.42-2-1.72.24,1.42-2.55-3.7.94A137.39,137.39,0,0,1,274.39,264l1.92-.3-.59,1.84,1.52-.28-.52,1.81Z"/><path class="cls-21" d="M260.7,151.24a76,76,0,0,1,14.69,14.59l-2.82-.8.64,1.78-3.61-.64,2.23,4.4c-5.39-4.8-10.51-9.65-15.28-14.58l2.57.49-2.37-2.57,3.31,1.28-1.43-2.57,3.06.89Z"/><path class="cls-21" d="M176.44,267.35a76.59,76.59,0,0,1,14.69,14.59l-2.82-.8.64,1.78-3.61-.64,2.23,4.4c-5.39-4.8-10.51-9.65-15.28-14.58l2.57.49L172.48,270l3.32,1.28-1.44-2.57,3.07.89Z"/></g></g><g id="note_papers"><path class="cls-22" d="M291.48,238.71,321.81,234l8,28.36L302.16,268s-7.25,1.45-8.57-7.65S292.66,244,291.48,238.71Z"/><g id="note_text1"><polyline class="cls-11" points="296.7 247.76 296.7 246.78 298.09 247.27 299.37 246.78 301.45 246.78"/><polyline class="cls-11" points="303.53 247.27 305.8 245.89 306.99 246.58 308.57 244.9 310.65 246.08 314.01 243.41 316.38 243.41 318.66 244.7 319.45 244.01"/><path class="cls-11" d="M298,253.2s-1.29-3,1.58-1.78,1.88-.28,1.88-.28l2.77-.41H307l1.88-.39,1.09-1.49h2.27"/><polyline class="cls-11" points="313.91 248.85 316.48 247.27 317.97 248.06 321.13 247.76"/><polyline class="cls-11" points="298.48 259.24 299.08 256.76 300.76 258 302.64 256.76 305.6 256.17"/><path class="cls-11" d="M311,255.68l1.28-1.39,1.68.7h3l.64-2.68s1,1.59,1.44,1.69a12.09,12.09,0,0,0,2.17.39c.6,0,1.68-1.19,1.68-1.19"/><path class="cls-11" d="M310.15,262.4s.6-2.47,1.34-2.07a4.23,4.23,0,0,1,1.33,1.58l1.09-1.68,1.66,1,.86-1.57"/><path class="cls-11" d="M299.84,264.05s.6-2.47,1.34-2.08a9.78,9.78,0,0,1,1.95,2.08l.47-2.18,1.66,1,1.83-.5"/><path class="cls-11" d="M319.45,260.72l1.19-2.08s2,.6,2.17,1,1.88-.44,1.88-.44"/></g><path class="cls-23" d="M371.26,253.35l33.49-7.25,7.39,28.08a69.27,69.27,0,0,1-32.84,7.52C374.64,272.64,371.41,263.29,371.26,253.35Z"/><g id="note_text1-2" data-name="note_text1"><polyline class="cls-11" points="376.25 261.32 376.1 260.34 377.54 260.62 378.74 259.93 380.79 259.61"/><polyline class="cls-11" points="382.92 259.78 384.95 258.07 386.23 258.57 387.54 256.66 389.77 257.52 392.68 254.36 395.03 254 397.48 254.92 398.15 254.11"/><path class="cls-11" d="M378.36,266.5s-1.73-2.74,1.29-2,1.81-.57,1.81-.57l2.67-.83,2.74-.43,1.8-.68.84-1.63,2.25-.35"/><polyline class="cls-11" points="393.42 259.75 395.72 257.79 397.31 258.35 400.39 257.57"/><polyline class="cls-11" points="379.77 272.38 379.98 269.85 381.83 270.81 383.5 269.3 386.34 268.26"/><path class="cls-11" d="M391.54,267l1.06-1.57,1.76.43,2.94-.46.22-2.73s1.27,1.4,1.68,1.44a12.11,12.11,0,0,0,2.21.05c.58-.09,1.48-1.43,1.48-1.43"/><path class="cls-11" d="M391.79,273.72s.21-2.54,1-2.26a4.33,4.33,0,0,1,1.56,1.36l.82-1.83,1.79.76.62-1.69"/><path class="cls-11" d="M381.86,276.93s.2-2.54,1-2.26a9.74,9.74,0,0,1,2.24,1.75l.13-2.22,1.8.76,1.73-.77"/><path class="cls-11" d="M400.72,270.63l.85-2.24s2.05.28,2.31.69,1.79-.72,1.79-.72"/></g><path class="cls-24" d="M354.12,184.78c-7.43,8.49-10.41,20.53-11.74,33.89,10.58,4.08,22.46,6.78,35.21,8.57l7.12-33.5C373.71,189.18,363.39,186,354.12,184.78Z"/><g id="note_text1-3" data-name="note_text1"><polyline class="cls-11" points="354.08 194 354.52 193.12 355.54 194.18 356.91 194.32 358.77 195.25"/><polyline class="cls-11" points="360.4 196.62 363.06 196.4 363.81 197.55 365.97 196.76 367.3 198.75 371.5 197.87 373.62 198.94 375.08 201.1 376.1 200.84"/><path class="cls-11" d="M352.79,199.44s.18-3.22,2.21-.88,1.81.59,1.81.59l2.66.88,2.47,1.24,1.86.49,1.64-.84,2,1"/><polyline class="cls-11" points="368.98 202.69 371.98 202.43 372.95 203.8 375.92 204.95"/><polyline class="cls-11" points="350.53 205.06 352.17 203.11 353.12 204.97 355.35 204.71 358.27 205.51"/><path class="cls-11" d="M363.26,207.46l1.77-.66,1.2,1.37,2.65,1.33,1.77-2.1a6.87,6.87,0,0,0,.53,2.15,13.13,13.13,0,0,0,1.77,1.33c.53.26,2-.31,2-.31"/><path class="cls-11" d="M359.54,213.12s1.64-2,2.13-1.26a4.34,4.34,0,0,1,.48,2l1.73-1,1,1.66,1.48-1"/><path class="cls-11" d="M349.59,210s1.64-1.95,2.12-1.26a9.61,9.61,0,0,1,.82,2.73l1.39-1.73,1,1.66,1.86.37"/><path class="cls-11" d="M368.61,215.78l2-1.32s1.5,1.41,1.48,1.9,1.88.44,1.88.44"/></g><path class="cls-25" d="M319.3,164.73a382.26,382.26,0,0,1,44.24,5.94c-.63,13.74-1.43,26.31-2.44,37.45-31-2.3-46.32-5.52-48.79-9.5C315.9,186.62,318.68,175.07,319.3,164.73Z"/><g id="note_text_list1"><circle class="cls-11" cx="324.79" cy="176.23" r="1.52"/><circle class="cls-11" cx="322.42" cy="185.33" r="1.38"/><circle class="cls-11" cx="320.31" cy="194.18" r="1.66"/><path class="cls-11" d="M329.8,176.89s.79-1.92,2.31,0a3.9,3.9,0,0,1,2.44,0l1.58.85,2.18-1.12.39,1.45a17.79,17.79,0,0,0,2.44-.33c.2-.13,1.19.6,1.39.73a17.7,17.7,0,0,0,2.63,0l.47.86"/><path class="cls-11" d="M349.59,179.33l.94-1.26,1.36,1.26s1.45-.8,1.71-.63,1.39.3,1.52.63a8.05,8.05,0,0,0,.73,1.12l1.64-.4"/><path class="cls-11" d="M329.8,181.24s2.05-1.25,3.23.53c.6.52,2.18-.48,2.18-.48l1.78,1.4,2-.94s.79.81.59,1.27.66,1.25.66,1.25"/><path class="cls-11" d="M343.19,183.94l2.63-1.4a23.15,23.15,0,0,1,1,2.46c0,.26,1.59,1,2.11.33a5.11,5.11,0,0,1,2.51-1.39c.2.13.92,1.45,1.12,1.39s.64.27.64.27a25.26,25.26,0,0,0,3.61.71c.56-.06,1.47.73,1.47.73v1.71"/><path class="cls-11" d="M327.63,187.24a1.67,1.67,0,0,1,2.9.59c1.91-1.23,2.9,0,2.9,0l1.91-.62a7.81,7.81,0,0,0,.73,1.94c.26.2,2.24-.73,2.24-.73l1.38.76s2.18,0,2.64,0,.86,1.42.86,1.42"/><path class="cls-11" d="M347,191.72l1.71-.72s.6,1.34.93,1.52,3.2-.76,3.2-.76h3.32l.69.78"/><path class="cls-11" d="M324.53,195.84l1.78-1.66a1.71,1.71,0,0,0,.85,1.66c1.06.76,2.64-.59,2.64-.59s1.12.49,1.06,1.15,3,0,3,0,1.19.83,1.12,1.31"/><path class="cls-11" d="M337.71,197.71c.93-1.37,1.72-.58,1.72-.58l.79,1.62,1.19-1s2-1.2,1.78,0,1.12,2.11,1.12,2.11l1.32-1.07a6.51,6.51,0,0,1,1.71,0,22.4,22.4,0,0,1,.59,2.35h2.18"/></g><path class="cls-26" d="M385.9,158.54l22.55-2.38c2.92,16.47,5.1,33.87,6.72,52-2,2.61-10.32,2.5-20.83,1.45C391.07,184.21,388.7,163.27,385.9,158.54Z"/><g id="note_text_list2"><circle cx="393.03" cy="173" r="0.82"/><circle cx="394.35" cy="181.4" r="0.82"/><circle cx="394.98" cy="188.75" r="0.82"/><circle cx="395.8" cy="195.25" r="0.82"/><circle cx="396.94" cy="201.59" r="0.82"/><path class="cls-11" d="M399.73,201.84s.89-1.42,1.45-.69a1.62,1.62,0,0,0,1.61.44s.07-2.22,1.09-1.13,2.31-.17,2.31-.17,1.71-.52,1.94.56,2.67.53,2.31-.43"/><path class="cls-11" d="M399.23,195.33s.67-1.53,1.33-.9a1.62,1.62,0,0,0,1.66.2s-.26-2.21.91-1.28,2.26-.51,2.26-.51,1.61-.78,2,.27,2.72.12,2.22-.77"/><path class="cls-11" d="M398,188.33c.07-.17.22-1.62,1.22-.73s1.29-.49,1.29-.49.82-1.52,1.22-.33,1.58-.79,1.58-.79,1.21.13,1.13,1.17"/><path class="cls-11" d="M406.32,186.41c.86-1.31,1.35-.75,1.35-.75s-.07,3.39.89,2,1.42-3.46,1.62-2.27"/><path class="cls-11" d="M397.45,181.2s-.46-3.13,1.35-1.38,2.18.79,2.11.43,2.54-1.29,2.8.33,2.11.49,2.21,0"/><path class="cls-11" d="M396,173.59s.73-2.37,2.18-.76,3.05-.39,3.05-.39.51-.84.87.56c1.58,1.64,1.35-.7,2.36-1.72s3.05-.23,3,.27"/></g><g id="note_tape"><path id="tape1" class="cls-21" d="M328.69,161.6a76.62,76.62,0,0,1-15.59,13.62l1-2.76-1.82.52.9-3.56-4.55,1.91c5.17-5,10.38-9.8,15.64-14.21l-.68,2.53,2.74-2.18-1.52,3.21,2.67-1.25-1.11,3Z"/><path id="tape1-2" data-name="tape1" class="cls-21" d="M311.21,190.45a67.69,67.69,0,0,1,8.87,16.05l-2.2-1.37.11,1.67-2.91-1.44.8,4.29c-3.39-5.42-6.54-10.82-9.38-16.19l2.07,1.06-1.38-2.78,2.5,1.92-.59-2.54,2.39,1.51Z"/><path id="tape1-3" data-name="tape1" class="cls-21" d="M399,240.87a55.87,55.87,0,0,1,13.1,7.42H410l.79,1.12-2.65.24,2.4,2.66c-4.69-2.33-9.22-4.76-13.51-7.3l1.9-.15-2.16-1.34,2.57.26-1.5-1.53,2.32,0Z"/><path id="tape2" class="cls-21" d="M379.39,247.45A71.57,71.57,0,0,1,367,260.79l.42-2-1.71.24,1.42-2.56-3.71.94A138.77,138.77,0,0,1,375,244.72l1.91-.31-.58,1.84,1.52-.28-.52,1.81Z"/><path id="tape2-2" data-name="tape2" class="cls-21" d="M368.84,178.06A71.33,71.33,0,0,1,355,166.27l2,.34-.31-1.71,2.61,1.31-1.1-3.66a139.52,139.52,0,0,1,13.19,11l.39,1.9L369.9,175l.35,1.51-1.83-.44Z"/><path id="tape2-3" data-name="tape2" class="cls-21" d="M397.91,166.67a71.11,71.11,0,0,1-2.16-18.07l1.25,1.62.93-1.47,1,2.73,1.68-3.43a138.81,138.81,0,0,1,2.19,17l-1,1.66-1-1.64-.77,1.34-1-1.57Z"/><path id="tape3" class="cls-21" d="M298.38,227.69c-.16,4.95,1.3,10.14,3.37,15.43l1.18-1.49,1.09.79,1.49-2.17,2.67,1.68.49-3,2.67,3.46c-.43-6.37-1.3-12.33-3.26-17.3l-1.78,3-2-2.47-.2,3.17L300.86,226l.1,3.76Z"/><path id="tape3-2" data-name="tape3" class="cls-21" d="M373.84,196.7c1.78-3.44,2.5-7.59,2.82-12l-1.33.65-.5-.92-1.78,1-1.32-2.08-1.34,1.92-.72-3.34a46.32,46.32,0,0,0-3.53,13.29l2.26-1.49.56,2.41,1.2-2.16,1.37,3.05,1.2-2.68Z"/></g></g></g><g id="lampAndCup"><g id="lamp"><path class="cls-27" d="M139.15,137.59h46c-.45-3.15-.58-6.15-4.55-7.81-11-2.52-22.78-2.55-35.21-.89C141.59,129.78,140,133,139.15,137.59Z"/><path class="cls-27" d="M156.16,127.75l-1.78-41a3.2,3.2,0,0,1,3.27-3.26h2.16s2.92-.53,2.83,3.24c-.09,4,.88,41,.88,41Z"/><g id="lamp_neck"><path class="cls-28" d="M160.62,83.52c.14-22.68,1.43-34,14.93-25.74l3-4.16c.75-.86-12.14-11.38-19.44-1.13-5.6,8.12-2.46,27.29-3.11,31Z"/><line class="cls-29" x1="155.74" y1="73.45" x2="160.69" y2="73.45"/><line class="cls-29" x1="155.67" y1="69.89" x2="160.69" y2="69.89"/><line class="cls-29" x1="155.73" y1="66.48" x2="161.31" y2="66.83"/><line class="cls-29" x1="155.99" y1="62.76" x2="161.69" y2="64.09"/><line class="cls-29" x1="156.8" y1="57.95" x2="162.56" y2="60.44"/><line class="cls-29" x1="159.68" y1="51.71" x2="164.74" y2="56.51"/><line class="cls-29" x1="163.87" y1="48.63" x2="166.44" y2="55.41"/><line class="cls-29" x1="169.37" y1="48.23" x2="168.77" y2="55.12"/><line class="cls-29" x1="174.95" y1="50.38" x2="171.75" y2="55.85"/><line class="cls-29" x1="155.94" y1="78.1" x2="160.69" y2="78.1"/></g><path id="lamp_hat" class="cls-27" d="M207,67.22c-9.23,9.06-18.37,17.42-26.8,19.93-7.88-11.1-10.72-21.41-3.48-30.94C185.29,45.56,196.36,55.65,207,67.22Z"/><path id="lamp_pear" class="cls-30" d="M200.07,73.79c.63,1.11,3.78,16-11.48,9.23Z"/><path id="hat_light" class="cls-31" d="M180.26,60.44c-.54,1.38-4.14,7.18.66,17.66"/></g><g id="lamp_court"><path class="cls-29" d="M145.19,303.94c-3.75-17.24-2.13-29.86.19-38.37,1.56-5.68,2.71-6.93,3.76-12.86,2.33-13-.92-20-1.58-32.64a87.51,87.51,0,0,1,2.71-26.48"/><path class="cls-29" d="M146.4,132.57a29.8,29.8,0,0,0-3.79,8.73c-2.41,9.67,3.52,11.07,8,35.37.09.48.18,1.61.22,1.83"/><path class="cls-32" d="M147.71,178.9l6.63.57c1.58,4.34,1.13,9-.4,13.9l-6.82-.84C146.38,187.64,146.29,183,147.71,178.9Z"/><ellipse class="cls-32" cx="150.77" cy="186.35" rx="2.29" ry="3.63"/></g><g id="cup"><path class="cls-33" d="M223.22,116H198.89s-9.79-.5-9.79,7,10.78,8.31,10.78,8.31-.25,5.34,3.16,5.54c3.17-.2,19,0,19,0a14.65,14.65,0,0,0,2.67-7.22C225,125.89,224.07,116,223.22,116Zm-24,11.27s-5.54-.39-5.54-4,5-4.06,5-4.06A33.56,33.56,0,0,1,199.19,127.3Z"/><path class="cls-34" d="M201.48,122.36c.66-1,1.64-2.19,2.75-2.11,1.28.09,1.52,1.76,2.86,2,1.8.29,2.59-2.5,4.58-2.38,1.67.11,1.9,2.14,3.6,2.18s2.26-1.89,4-1.85a3.67,3.67,0,0,1,2.56,1.59"/><path class="cls-34" d="M201.48,128.05c.66-1,1.64-2.19,2.75-2.11,1.28.09,1.52,1.76,2.86,2,1.8.29,2.59-2.49,4.58-2.37,1.67.1,1.9,2.13,3.6,2.17s2.26-1.89,4-1.84a3.69,3.69,0,0,1,2.56,1.58"/><path class="cls-34" d="M201.48,133.42c.66-1,1.64-2.18,2.75-2.11,1.28.09,1.52,1.76,2.86,2,1.8.29,2.59-2.49,4.58-2.37,1.67.1,1.9,2.14,3.6,2.17s2.26-1.89,4-1.84a3.69,3.69,0,0,1,2.56,1.58"/></g><g id="laptop"><g id="laptop-2" data-name="laptop"><rect class="cls-35" x="235.38" y="78.1" width="90.2" height="58.8"/><line class="cls-35" x1="235.38" y1="130.57" x2="325.58" y2="130.57"/></g><g id="laptop_airflow"><line class="cls-11" x1="243.03" y1="132.61" x2="243.03" y2="134.79"/><line class="cls-11" x1="245.21" y1="132.61" x2="245.21" y2="134.79"/><line class="cls-11" x1="247.38" y1="132.61" x2="247.38" y2="134.79"/><line class="cls-11" x1="249.43" y1="132.61" x2="249.43" y2="134.79"/><line class="cls-11" x1="251.6" y1="132.61" x2="251.6" y2="134.79"/><line class="cls-11" x1="253.78" y1="132.61" x2="253.78" y2="134.79"/><line class="cls-11" x1="255.54" y1="132.61" x2="255.54" y2="134.79"/><line class="cls-11" x1="257.71" y1="132.61" x2="257.71" y2="134.79"/></g><rect x="310.65" y="132.78" width="5.84" height="1.86" rx="0.81"/><circle cx="320.27" cy="133.72" r="0.93"/><g id="thinkpad_text"><text class="cls-36" transform="translate(241.94 96.79) rotate(-45)">Th nkpad</text><line class="cls-37" x1="243.42" y1="90.72" x2="245.76" y2="92.96"/><rect class="cls-38" x="242.61" y="89.92" width="0.72" height="0.72" transform="translate(7.33 198.25) rotate(-45)"/></g><g id="laptop_highlight" class="cls-39"><line class="cls-34" x1="271.25" y1="85.9" x2="248.7" y2="108.84"/><line class="cls-34" x1="288.92" y1="87.15" x2="255.54" y2="119.85"/><line class="cls-34" x1="305.8" y1="92.96" x2="272.97" y2="124.27"/><line class="cls-34" x1="313.57" y1="108.61" x2="295.25" y2="124.27"/></g></g><g id="yarn_needles"><line class="cls-40" x1="382.45" y1="59.26" x2="376.12" y2="46.3"/><circle class="cls-41" cx="374.84" cy="43.98" r="2.77"/><line class="cls-40" x1="390.92" y1="58" x2="393.46" y2="46.6"/><circle class="cls-41" cx="393.9" cy="43.98" r="2.77"/></g><g id="yarn_lines"><circle class="cls-42" cx="389.77" cy="75.48" r="17.8"/><path class="cls-42" d="M386.44,58s17.74,6.18,18.07,27.47"/><path class="cls-42" d="M397.76,91.39s-1.78-25.74-18.88-30"/><path class="cls-42" d="M389.2,68.06s-11.89,7.16-13.13,18.79"/><path class="cls-42" d="M385.38,64.45s-10.73,5.48-12.75,15.87"/><path class="cls-42" d="M377.35,81.75s9.85,3.47,18.18-1.43"/><path class="cls-42" d="M376.75,87.61s15.55,1,19.87-3.24"/><path class="cls-42" d="M383.61,72.58s1.18,6.39,0,10"/><path class="cls-42" d="M390.19,69.32s.84,10.25-1,13"/></g><g id="yarn_highlight"><path class="cls-43" d="M385,66.83s-8.21,6.62-10.23,12.8"/><path class="cls-43" d="M379.85,63.61s-4.77,4.9-5.56,8.41"/><path class="cls-43" d="M385.66,72.86s1.34,5.49.2,8.26"/><path class="cls-43" d="M382.51,77.19s-2.12,2-2.29,3.33"/><path class="cls-43" d="M378.49,84.08c-.05.41,12.14,2.16,15.83-1.48"/><path class="cls-43" d="M381.81,89.42c.24,0,10.18,1.25,13.35-1.7"/><path class="cls-43" d="M383.61,61.4s13,6.07,16.35,25.9"/><path class="cls-43" d="M394.32,60.05s8.7,3.07,11.37,17.41"/></g></g><g id="books"><g id="html_book"><path class="cls-44" d="M103.91,206.82s12-5.14,16.09,2.64c-.24,1-.52,2.29-.85,3.71-.21.92-.44,1.92-.69,3-3.35,14.42-9.27,39.34-9.27,39.34s-11.87,4.35-16.35-3.3l1.17-4.8L102.65,212l.62-2.56Z"/><path class="cls-45" d="M109.6,253.73a30.62,30.62,0,0,1-16.1-4.27l.51-2.08a30.45,30.45,0,0,0,16.1,4.22Z"/><path class="cls-45" d="M118.46,216.14q-6.58-5.23-15.81-4.13l.62-2.56c6.23-.32,11.55.88,15.88,3.72Z"/><g id="html_text"><polyline class="cls-46" points="107.5 213.55 106.59 217.08 105.68 220.62"/><polyline class="cls-11" points="106.59 217.08 110.9 218.54 111.86 214.83"/><line class="cls-45" x1="110.9" y1="218.54" x2="109.78" y2="222"/><polyline class="cls-46" points="103.6 224.08 106.42 224.96 108.79 225.71"/><line class="cls-46" x1="106.42" y1="224.96" x2="105.23" y2="230.06"/><polyline class="cls-11" points="100.39 238.91 101.32 232.53 103.15 235.95 106.19 234.12 105.68 239.75"/><polyline class="cls-11" points="99.3 242.97 98.75 247.38 103.94 248.11"/></g></g><g id="css_book"><path class="cls-47" d="M123.16,196.8,108.66,255c-.21,1.91,12.06,3.23,12.26,1.32l12.79-55.78C135,196.93,124.41,193.23,123.16,196.8Z"/><polygon class="cls-48" points="121.83 202.15 132.61 205.29 131.97 208.11 120.99 205.5 121.83 202.15"/><polygon class="cls-48" points="131.97 208.11 131.34 210.83 120.28 208.36 120.99 205.5 131.97 208.11"/><polygon class="cls-48" points="122.85 247.32 111.28 245.02 110.62 247.85 122.13 250.71 122.85 247.32"/><polygon class="cls-48" points="110.62 247.85 109.99 250.57 121.52 253.6 122.13 250.71 110.62 247.85"/><g id="css_text"><path class="cls-11" d="M116.06,236.19s.15,3.76,3.61,3.76,1.57-4.94,1.57-4.94"/><path class="cls-11" d="M118.91,227.33s-2.78,3,.21,3.26c1.47.13,1.34-2.54,3.06-2.44,0,0,3.13.13.09,3.63"/><path class="cls-11" d="M121.2,219.49s-2.78,3,.21,3.26c1.47.14,1.35-2.53,3.06-2.43,0,0,3.13.13.1,3.62"/></g></g><g id="js_book"><path class="cls-49" d="M431.61,107.5l-59.93,1c-1.9.3,0,12.49,1.89,12.19l57.19-2.06C434.53,118.93,435.37,107.78,431.61,107.5Z"/><polygon class="cls-50" points="426.09 107.59 425.84 118.82 422.95 118.92 422.64 107.65 426.09 107.59"/><polygon class="cls-50" points="422.95 118.92 420.17 119.02 419.69 107.7 422.64 107.65 422.95 118.92"/><polygon class="cls-50" points="382.72 120.25 381.95 108.48 379.05 108.57 379.26 120.43 382.72 120.25"/><polygon class="cls-50" points="379.05 108.57 376.26 108.67 376.31 120.59 379.26 120.43 379.05 108.57"/><g id="js_text"><path class="cls-11" d="M391.12,111.44h6.07s3.69,8-4.95,5"/><path class="cls-11" d="M410.09,112.6s-.55-2.77-2.72-.82c-1.79,2.15,1.46,2.24,1.74,2.68,1,.87-1.7,3.75-3.56,1.26"/></g></g><g id="book_filler1"><path class="cls-51" d="M91.38,259.24c19.66-1.25,40.12-1.58,61.22-1.19l-1.18,2.47,1.68,1.29-2,3.66,1.48,2.77-1.08,1.68.89,2.47-.89,2.57,1.58,2.48-1.78,2.76c-17.88.88-38.22,1.23-59.94,1.29l1.19-3-1.68-2.27L92.47,274l-1.58-3.56,2-.64-2-3.71L92.57,264l-1.68-2.28Z"/><path class="cls-52" d="M92.57,264c18.65-1.64,39-2.28,60.53-2.18"/><line class="cls-52" x1="91.41" y1="267.04" x2="104.34" y2="267.04"/><path class="cls-52" d="M112.75,267c11.44-.63,24.44-1.13,38.37-1.57"/><path class="cls-52" d="M90.89,270.41c16.07-.2,33-.47,40,0"/><path class="cls-52" d="M138.46,269.13c2.21.21,8.39-.39,14.14-.89"/><path class="cls-52" d="M152.41,272.39c-23.64,1.29-46.08,2.42-60.56,2.48"/><path class="cls-52" d="M92.57,278.52c15.13-.74,32.84-1.3,51.83-1.78"/></g><g id="book_filler2"><path class="cls-51" d="M103.05,281.59c20.1-.85,39.63-1.19,58.46-.89l1.28,2.18-1.38,2,1.38,2.38-.89,2.57,2,1.78-2.37,2.27,1.28,2c-20.57,0-40.85.14-60.72.59l1.38-2.17-2.18-3,1.78-1.78-1.18-2.27,1.58-.79-1.19-2.18,1.09-1.38Z"/><path class="cls-52" d="M103.45,286.44c18.24-1.21,37.62-1.55,58-1.59"/><path class="cls-52" d="M103.05,289.5c5.83-.37,11.27-.64,15.14-.49"/><path class="cls-52" d="M133.71,288.56c8.34-.08,18.22-.06,28.81,0"/><path class="cls-52" d="M102.38,292.8c14.21-.7,27.73-1.12,40.24-1.12"/><line class="cls-52" x1="148.12" y1="292.24" x2="163.19" y2="292.24"/></g><g id="book_filler2-2" data-name="book_filler2"><path class="cls-51" d="M98.06,297.42c20.1-.85,39.62-1.19,58.45-.89l1.29,2.18-1.39,2,1.39,2.38-.89,2.57,2,1.78-2.38,2.27,1.29,2c-20.57,0-40.85.14-60.73.6l1.39-2.18-2.18-3,1.78-1.78-1.19-2.27,1.59-.79-1.19-2.18,1.09-1.38Z"/><path class="cls-52" d="M98.46,302.27c18.24-1.21,37.61-1.55,58-1.59"/><path class="cls-52" d="M98.06,305.33c5.82-.37,11.26-.64,15.13-.49"/><path class="cls-52" d="M128.72,304.39c8.34-.08,18.21-.06,28.81,0"/><path class="cls-52" d="M97.39,308.63c14.21-.7,27.73-1.12,40.23-1.12"/><line class="cls-52" x1="143.13" y1="308.07" x2="158.2" y2="308.07"/></g><g id="book_cover_1"><path class="cls-53" d="M420.74,119.19c2.13,5.75,1.9,11.9,0,18.33H371c-2.22-2-2.29-8-.92-16.61C386.07,119.72,403,119.21,420.74,119.19Z"/><path class="cls-52" d="M421.65,122.28l-48.07,2.25v9.1l47.93.86A28.74,28.74,0,0,0,421.65,122.28Z"/><path class="cls-11" d="M375.3,126.38c10.16-.79,28.15-1.1,46.75-1.37"/><path class="cls-11" d="M373.58,128.69c7.23-.44,14.16-.79,18.46-.33"/><path class="cls-11" d="M394.42,128.36c5.42.1,16.71,0,27.83,0"/><path class="cls-11" d="M396.4,131.66c-5.47-.27-14,.28-22.82.92"/><path class="cls-11" d="M398.64,131a210.86,210.86,0,0,0,23.48,0"/></g><g id="book_cover_1-2" data-name="book_cover_1"><path class="cls-54" d="M367,89.51c-2.14,5.74-1.91,11.89,0,18.32h49.71c2.23-2,2.3-8,.92-16.61C401.69,90,384.73,89.52,367,89.51Z"/><path class="cls-52" d="M366.11,92.59l48.07,2.26v9.09l-47.93.86A28.74,28.74,0,0,1,366.11,92.59Z"/><path class="cls-11" d="M412.47,96.69c-10.17-.79-28.15-1.1-46.75-1.36"/><path class="cls-11" d="M414.18,99c-7.23-.44-14.16-.79-18.46-.33"/><path class="cls-11" d="M393.35,98.67c-5.42.1-16.72,0-27.83,0"/><path class="cls-11" d="M391.37,102c5.46-.27,14,.28,22.81.92"/><path class="cls-11" d="M389.13,101.31a210.86,210.86,0,0,1-23.48,0"/></g></g></g></svg>