<svg xmlns="http://www.w3.org/2000/svg" viewBox="0 0 364.98 146.84">
    <defs>
        <style>
            .cls-1 {
                font-size: 80px;
                fill: #fff;
                font-family: BadScript-Regular, Bad Script;
            }

            .cls-2 {
                fill: none;
                stroke: #fff;
                stroke-linecap: round;
                stroke-linejoin: round;
                stroke-width: 4px;
            }
        </style>
    </defs>
    <g id="Layer_2" data-name="Layer 2">
        <g id="Layer_1-2" data-name="Layer 1"><text class="cls-1" transform="translate(110.18 95)">Englerod</text>
            <path class="cls-2"
                d="M43.41,31.79S43.79,3.45,71.48,2c4.31,1.34-2,7.14-2,7.14s18.22,2,0,12.56c6.65,2.46,5.42,5.66-1.23,10.09C73,36,68,42,64.09,42.17c-.74-4.71-5.91-6.68-16.25-1.76-11.87,6-9.11,16.25-9.11,16.25s-5.66,3.45-8.86-3.44c-8.87,4.3-11.58-2.47-9.36-7.14C9.43,52,5.74,50.75,9.43,39.92-.42,41.15-1.4,31.79,12.14,28.59,35.78,21.7,43.41,31.79,43.41,31.79Z" />
            <path class="cls-2"
                d="M64.09,42.17s2,6.79,4.43,16.19c4.94,18.84,11.9,48.19,9.09,54.29-12.24,0-38.88-56-38.88-56" />
            <line class="cls-2" x1="61.57" y1="63.79" x2="68.52" y2="58.36" />
            <line class="cls-2" x1="70.44" y1="91.11" x2="75.64" y2="88.57" />
            <line class="cls-2" x1="70.44" y1="101.67" x2="66.75" y2="104.37" />
            <line class="cls-2" x1="60.16" y1="77.41" x2="51.96" y2="81.85" />
            <line class="cls-2" x1="51.96" y1="56.82" x2="41.16" y2="61.6" />
        </g>
    </g>
</svg>