<!-- <svg xmlns="http://www.w3.org/2000/svg" xmlns:xlink="http://www.w3.org/1999/xlink" viewBox="0 0 1145.82 389.7"> OBS: Original Viewbox--> 

<!-- The issue at hand, is that even when the clouds are outside the clip path, they cannot be seen but are still render so they take up space -->
<!-- So from the clip path we use the height/width and the transform to change the viewbox! -->
<!-- Helping video: https://www.youtube.com/watch?v=OHNO-qFGPto&ab_channel=LydiaFlynn -->
<svg xmlns="http://www.w3.org/2000/svg" xmlns:xlink="http://www.w3.org/1999/xlink" viewBox="270.16 -20.28 574.32 395.25">
    <defs>
        <style>
            .cls-1,
            .cls-12,
            .cls-17,
            .cls-18,
            .cls-19,
            .cls-22,
            .cls-24,
            .cls-25,
            .cls-26,
            .cls-27,
            .cls-28,
            .cls-41,
            .cls-44,
            .cls-47,
            .cls-53,
            .cls-6 {
                fill: none;
            }

            .cls-2 {
                clip-path: url(#clip-path);
            }

            .cls-3,
            .cls-9 {
                fill: #fff2e9;
            }

            .cls-3,
            .cls-6,
            .cls-7 {
                stroke: #3d3d3d;
            }

            .cls-11,
            .cls-12,
            .cls-13,
            .cls-14,
            .cls-15,
            .cls-17,
            .cls-18,
            .cls-19,
            .cls-21,
            .cls-22,
            .cls-24,
            .cls-25,
            .cls-26,
            .cls-27,
            .cls-28,
            .cls-3,
            .cls-38,
            .cls-39,
            .cls-40,
            .cls-41,
            .cls-42,
            .cls-43,
            .cls-44,
            .cls-45,
            .cls-5,
            .cls-50,
            .cls-51,
            .cls-52,
            .cls-53,
            .cls-54,
            .cls-55,
            .cls-56,
            .cls-57,
            .cls-58,
            .cls-59,
            .cls-6,
            .cls-61,
            .cls-63,
            .cls-64,
            .cls-65,
            .cls-66,
            .cls-7,
            .cls-8,
            .cls-9 {
                stroke-linecap: round;
            }

            .cls-11,
            .cls-12,
            .cls-13,
            .cls-14,
            .cls-15,
            .cls-18,
            .cls-19,
            .cls-21,
            .cls-22,
            .cls-25,
            .cls-26,
            .cls-27,
            .cls-28,
            .cls-3,
            .cls-32,
            .cls-33,
            .cls-34,
            .cls-35,
            .cls-36,
            .cls-37,
            .cls-38,
            .cls-39,
            .cls-40,
            .cls-41,
            .cls-42,
            .cls-43,
            .cls-44,
            .cls-45,
            .cls-5,
            .cls-50,
            .cls-51,
            .cls-52,
            .cls-53,
            .cls-54,
            .cls-55,
            .cls-56,
            .cls-57,
            .cls-58,
            .cls-59,
            .cls-6,
            .cls-61,
            .cls-63,
            .cls-64,
            .cls-65,
            .cls-66,
            .cls-7,
            .cls-8,
            .cls-9 {
                stroke-linejoin: round;
            }

            .cls-12,
            .cls-13,
            .cls-14,
            .cls-15,
            .cls-17,
            .cls-19,
            .cls-20,
            .cls-21,
            .cls-27,
            .cls-3,
            .cls-33,
            .cls-34,
            .cls-35,
            .cls-36,
            .cls-37,
            .cls-38,
            .cls-39,
            .cls-40,
            .cls-44,
            .cls-45,
            .cls-52,
            .cls-6,
            .cls-66,
            .cls-7,
            .cls-9 {
                stroke-width: 2px;
            }

            .cls-4,
            .cls-8 {
                fill: #f2cba5;
            }

            .cls-5 {
                fill: #efa081;
                stroke: #efa081;
            }

            .cls-7 {
                fill: #fffcf3;
            }

            .cls-8 {
                stroke: #f2cba5;
            }

            .cls-12,
            .cls-13,
            .cls-14,
            .cls-15,
            .cls-17,
            .cls-20,
            .cls-21,
            .cls-22,
            .cls-23,
            .cls-24,
            .cls-30,
            .cls-31,
            .cls-32,
            .cls-33,
            .cls-34,
            .cls-35,
            .cls-36,
            .cls-37,
            .cls-38,
            .cls-39,
            .cls-40,
            .cls-42,
            .cls-43,
            .cls-45,
            .cls-47,
            .cls-50,
            .cls-51,
            .cls-52,
            .cls-54,
            .cls-55,
            .cls-56,
            .cls-57,
            .cls-58,
            .cls-61,
            .cls-62,
            .cls-63,
            .cls-64,
            .cls-65,
            .cls-66,
            .cls-9 {
                stroke: #000;
            }

            .cls-10,
            .cls-59 {
                fill: #ffba6e;
            }

            .cls-11,
            .cls-60 {
                fill: #ef7443;
            }

            .cls-11 {
                stroke: #ef7443;
            }

            .cls-13 {
                fill: #f0ff64;
            }

            .cls-14 {
                fill: #fdb3ff;
            }

            .cls-15 {
                fill: #93dfff;
            }

            .cls-16,
            .cls-32 {
                fill: #fff;
            }

            .cls-17,
            .cls-20,
            .cls-23,
            .cls-24,
            .cls-30,
            .cls-31,
            .cls-47,
            .cls-62 {
                stroke-miterlimit: 10;
            }

            .cls-18,
            .cls-19,
            .cls-25,
            .cls-26,
            .cls-27,
            .cls-28,
            .cls-41,
            .cls-44,
            .cls-53 {
                stroke: #fff;
            }

            .cls-18 {
                stroke-width: 3px;
            }

            .cls-19 {
                opacity: 0.8;
            }

            .cls-20 {
                fill: #c1c1c1;
            }

            .cls-21 {
                fill: #b3ffff;
            }

            .cls-23 {
                fill: #feb75d;
            }

            .cls-25 {
                stroke-width: 0.5px;
            }

            .cls-28,
            .cls-47 {
                stroke-width: 0.75px;
            }

            .cls-29 {
                fill: #ff6d00;
            }

            .cls-30 {
                fill: #af8857;
            }

            .cls-31 {
                fill: #ffb75d;
            }

            .cls-33 {
                fill: #f4e190;
            }

            .cls-34,
            .cls-64 {
                fill: #e96bf7;
            }

            .cls-35 {
                fill: #a1f8ff;
            }

            .cls-36 {
                fill: #b1ffa9;
            }

            .cls-37 {
                fill: #ffc6a6;
            }

            .cls-38,
            .cls-42 {
                fill: #fffbb6;
            }

            .cls-39 {
                fill: #969696;
            }

            .cls-40 {
                fill: #ffad3f;
            }

            .cls-41 {
                stroke-width: 4px;
            }

            .cls-43 {
                fill: #ea8c3f;
            }

            .cls-44 {
                opacity: 0.5;
            }

            .cls-45 {
                fill: #727272;
            }

            .cls-46 {
                font-size: 3.29px;
                font-family: Impact;
            }

            .cls-48 {
                fill: red;
            }

            .cls-49 {
                opacity: 0.21;
            }

            .cls-50,
            .cls-52 {
                fill: #e27e2b;
            }

            .cls-51 {
                fill: #16c9d6;
            }

            .cls-53 {
                opacity: 0.49;
            }

            .cls-54 {
                fill: #ffb666;
            }

            .cls-55 {
                fill: #f7d33c;
            }

            .cls-56 {
                fill: #ff64ff;
            }

            .cls-57,
            .cls-66 {
                fill: #fff6cf;
            }

            .cls-58 {
                fill: #66a1ff;
            }

            .cls-59 {
                stroke: #ffba6e;
            }

            .cls-61 {
                fill: #99ff94;
            }

            .cls-62,
            .cls-63 {
                fill: #128c00;
            }

            .cls-65 {
                fill: #bc5900;
            }

            /* ------------------------------------------------------------ */
            /* ------------------------ ANIMATIONS ------------------------ */
            /* ------------------------------------------------------------ */

            /* Clouds BG */
            #bg_cloud_grp {
                animation: hori_move1 6s infinite linear;
            }
            @keyframes hori_move1 {
                80% {transform: translateX(-850px);}
                100% {transform: translateX(-850px);}
            }

        
        </style>
        <clipPath id="clip-path" transform="translate(270.16 -20.28)">
            <rect class="cls-1" width="574.32" height="395.25" />
        </clipPath>
    </defs>
    <g id="Layer_2" data-name="Layer 2">
        <g id="NEW_desk">
            <g id="flyingDesk">
                <g class="cls-2">
                    <g id="bg_cloud_grp">
                        <g id="cloud_small">
                            <path class="cls-3"
                                d="M725.18,45.7a13,13,0,0,1,3.25.41v0a7.79,7.79,0,0,1,13-5.76,17.54,17.54,0,0,1,26.16-11.38,18.53,18.53,0,0,1,31.51,17.29,10.18,10.18,0,0,1,10.3,16.94c1.92,1.4,3.06,3.15,3.06,5.07,0,4.5-6.34,8.16-14.17,8.16H725.18C717.35,76.38,711,69.51,711,61S717.35,45.7,725.18,45.7Z"
                                transform="translate(270.16 -20.28)" />
                            <path class="cls-4"
                                d="M808.81,62.23c4.62-8.15-2.51-17.63-13-14.08a.48.48,0,0,1-.63-.54c4.14-27.77-25.79-28.31-30.63-5.31a.48.48,0,0,1-.84.23c-.94-1.15-.68-3.89,1.85-9.65a1.38,1.38,0,0,0-.75-1.85c-11.16-4.38-20.73,1.18-22.36,11.46a.48.48,0,0,1-.78.29c-6.18-5.09-11.52-2.43-12.44,4.4a.49.49,0,0,1-.62.41c-6-1.69-11.5-.56-12.28,1.08l-2.8,7.81a.42.42,0,0,0,0,.31L718,70.61a.47.47,0,0,0,.47.33L810,69.24a.49.49,0,0,0,.46-.61l-1.67-6A.46.46,0,0,1,808.81,62.23Z"
                                transform="translate(270.16 -20.28)" />
                            <path class="cls-5"
                                d="M717.82,47.35a15.1,15.1,0,0,0-3,9.49c0,5.34,4.83,9.66,10.8,9.66a10.91,10.91,0,0,0,9.78-5.59,8.32,8.32,0,0,0,6.68,2.89c4.16,0,7.53-2.4,7.53-5.36,0,0,0-.1,0-.15-5.48-1.86-5-4.11-4.69-5.65a14.39,14.39,0,0,0,6.57,3.59c4.24,1.07,8.73,1,11.23,0,.23-.09.5.06.48.26s-.34.6-.58.84C761,59,757.72,59.85,752.83,59a3.08,3.08,0,0,0-.4,1.46c0,3,4.6,5.36,10.27,5.36,4.45,0,8.22-1.48,9.65-3.54.39,2.66,5.33,4.77,11.38,4.77s11-2.1,11.37-4.76c1.11,1.79,3.6,3,6.5,3s6.25-.46,7.38-2.2a9.78,9.78,0,0,1,3.25,4.64c0,4.74-8.52,8.59-19,8.59H728.57a5.65,5.65,0,0,1-.58,0c-.35,0-.7,0-1,0a15.59,15.59,0,0,1-15.59-15.59C711.35,55.36,713.61,50.14,717.82,47.35Z"
                                transform="translate(270.16 -20.28)" />
                            <path class="cls-5"
                                d="M777.05,51.53c-5.08.58-8.88-1.86-8.55-4.33a2.59,2.59,0,0,1,.26-.8.31.31,0,0,1,.48-.08c1.33,1.5,4.41,2.5,8.15,2.44s7.16-1.18,8.88-2.75c.15-.14.42-.1.46.07a1.92,1.92,0,0,1,.06.83C786.51,49,782.18,50.94,777.05,51.53Z"
                                transform="translate(270.16 -20.28)" />
                            <path class="cls-6"
                                d="M724.73,45.7a12.92,12.92,0,0,1,3.25.41v0a7.79,7.79,0,0,1,13-5.76,17.54,17.54,0,0,1,26.16-11.38,18.53,18.53,0,0,1,31.51,17.29A10.18,10.18,0,0,1,809,63.15c1.92,1.4,3.06,3.15,3.06,5.07,0,4.5-6.34,8.16-14.17,8.16H724.73c-7.83,0-14.18-6.87-14.18-15.34S716.9,45.7,724.73,45.7Z"
                                transform="translate(270.16 -20.28)" />
                        </g>
                        <g id="cloud_large">
                            <path class="cls-7"
                                d="M777.74,79.11c.1-4.44-5.14-8.15-11.71-8.3a17.25,17.25,0,0,0-3,.2,10.13,10.13,0,0,0-4.85-7,10.71,10.71,0,0,0-14.06,3.61A11.61,11.61,0,0,0,732,59.85a10.89,10.89,0,0,0-4.67-7.72c-3.45-2.22-8-2-12.12.23A16.08,16.08,0,0,0,691.68,36c.61-4.81-.73-9.07-4-11.17-4.51-2.9-11.23-.77-16.29,4.71a13.94,13.94,0,0,0-1.16-2.19c-4.49-6.81-14.54-8.11-22.44-2.9-5.87,3.87-8.9,10.23-8.23,16.05a14,14,0,0,0-9,2.76,13.68,13.68,0,0,0-5.69,10.89c-4.12-5.09-11.93-5.82-17.71-1.54-5,3.67-6.84,9.85-5,15a9.9,9.9,0,0,0-1.91-.19c-4.14,0-7.5,2.61-7.5,5.85a4.72,4.72,0,0,0,.23,1.4A6.94,6.94,0,1,0,590,87.8H768.66l.27,0a6.71,6.71,0,0,0,.78,0h0a8.25,8.25,0,0,0,8-7.82c0-.1,0-.19,0-.29A5.7,5.7,0,0,0,777.74,79.11Z"
                                transform="translate(270.16 -20.28)" />
                            <path class="cls-5"
                                d="M777.74,79.11c.1-4.44-5.14-8.15-11.71-8.3a17.25,17.25,0,0,0-3,.2c-.16-.85-17.54,2.82-37.37,1.84-14.67-.73-13.31-21.27-30.43-22.36C656.8,48,620.68,74.1,594.17,74c-.49,0-3.1-.08-4.22-.08a6.94,6.94,0,0,0,0,13.88H768.66l.27,0a6.71,6.71,0,0,0,.78,0h0a8.25,8.25,0,0,0,8-7.82c0-.1,0-.19,0-.29A5.7,5.7,0,0,0,777.74,79.11Z"
                                transform="translate(270.16 -20.28)" />
                            <path class="cls-8"
                                d="M592.27,75.11c2.43,5.48,5.42,7.08,10.45,3,4.52.88,7.38-1.31,9.06-5.66,6,4.42,11.58,4,17,.19,7.68,3.24,13.93,2.32,18.49-3.49-3.73-2.07-5.76-4-5.34-5.84,6.93,3.17,14,4.85,24.38-2.3-1.54,3.45-4.33,6.08-8.14,8.37,3.59,3.16,8.44,4,14.39-.52,7.49,8.63,14.63,9.1,21.42.85-12.65-2.91-15.27-9.74-15.85-17.36,6.84,7.38,11.9,17.07,30,9.9-.67,3.38-3.75,5.83-9.69,7.18,7.55,4.84,14.15,5.35,19.72,1.07,8.44,9.06,16.9,11.45,25.38,5.25A16.66,16.66,0,0,0,754,79.83c11,0,11.6-13.44,0-13.85-3.83.08-6.86,2-9.34,5.24-3-4.17-6.72-6.75-11.26-7.29-1.21,3.32-2.93,4.46-5.79,6.51-1.49,1.28-2.91-.37-1.49-1.54,8.36-6.6,1.57-18.76-12.92-14.7C713.49,43.55,700,37,689.29,40.51c-1.7-12.49-8.1-15-16.14-7.93,5,2.81,7.47,6.07,7.51,9.77,0,2.24-2,2.82-2.69.92-3.4-10.18-10.14-9-18.05-3.82-1.4.87-3,.1-1.56-1.42,2.87-2.74,5.77-5.34,9-6.16C653.6,26,646.86,33.34,642.3,44.75c-13.7.29-17.48,10.9-13.87,19.68-7.85-11.82-17.64-12.14-23.86-4.57-2.74,3.76-1.25,7,1.15,11-2.3-1.55-4.76-2.81-6.73-2.5C594,69.44,592.52,72.71,592.27,75.11Z"
                                transform="translate(270.16 -20.28)" />
                            <path class="cls-6"
                                d="M777.74,79.11c.1-4.44-5.14-8.15-11.71-8.3a17.25,17.25,0,0,0-3,.2,10.13,10.13,0,0,0-4.85-7,10.71,10.71,0,0,0-14.06,3.61A11.61,11.61,0,0,0,732,59.85a10.89,10.89,0,0,0-4.67-7.72c-3.45-2.22-8-2-12.12.23A16.08,16.08,0,0,0,691.68,36c.61-4.81-.73-9.07-4-11.17-4.51-2.9-11.23-.77-16.29,4.71a13.94,13.94,0,0,0-1.16-2.19c-4.49-6.81-14.54-8.11-22.44-2.9-5.87,3.87-8.9,10.23-8.23,16.05a14,14,0,0,0-9,2.76,13.68,13.68,0,0,0-5.69,10.89c-4.12-5.09-11.93-5.82-17.71-1.54-5,3.67-6.84,9.85-5,15a9.9,9.9,0,0,0-1.91-.19c-4.14,0-7.5,2.61-7.5,5.85a4.72,4.72,0,0,0,.23,1.4A6.94,6.94,0,1,0,590,87.8H768.66l.27,0a6.71,6.71,0,0,0,.78,0h0a8.25,8.25,0,0,0,8-7.82c0-.1,0-.19,0-.29A5.7,5.7,0,0,0,777.74,79.11Z"
                                transform="translate(270.16 -20.28)" />
                        </g>
                    </g>
                    <g id="bg_cloud_leftLarge">
                        <path class="cls-7"
                            d="M-15.45,158.61c.13-5.78-6.7-10.62-15.25-10.81a22.85,22.85,0,0,0-3.92.26,13.15,13.15,0,0,0-6.32-9.17c-6.15-3.55-14.1-1.42-18.3,4.7a15,15,0,0,0-6.11-7.74A14.91,14.91,0,0,0-75,133.52a14.14,14.14,0,0,0-6.08-10.06c-4.5-2.89-10.36-2.56-15.79.3a21.31,21.31,0,0,0-9.44-20.45,21.2,21.2,0,0,0-21.24-.82c.79-6.27-1-11.82-5.2-14.56-5.87-3.77-14.62-1-21.23,6.14a16.91,16.91,0,0,0-1.5-2.85c-5.86-8.88-18.95-10.57-29.24-3.78-7.64,5-11.59,13.33-10.72,20.91a18.17,18.17,0,0,0-11.69,3.6,17.81,17.81,0,0,0-7.41,14.19c-5.37-6.64-15.54-7.59-23.08-2-6.47,4.78-8.91,12.84-6.46,19.5a12.49,12.49,0,0,0-2.48-.25c-5.4,0-9.77,3.41-9.77,7.62a6.25,6.25,0,0,0,.29,1.83,8.9,8.9,0,0,0-4.05-1,9,9,0,0,0-9.05,9,9,9,0,0,0,9.05,9.05l.38,0v0H-27.28l.36,0c.34,0,.68,0,1,0h.05c5.68-.37,10.23-4.74,10.35-10.19,0-.13,0-.25,0-.38A6.51,6.51,0,0,0-15.45,158.61Z"
                            transform="translate(270.16 -20.28)" />
                        <path class="cls-5"
                            d="M-15.45,158.61c.13-5.78-6.7-10.62-15.25-10.81a22.85,22.85,0,0,0-3.92.26c-.2-1.11-22.85,3.67-48.68,2.39-19.11-.94-17.34-27.7-39.64-29.13-50.07-3.2-97.13,30.76-131.67,30.64-.63,0-4-.11-5.5-.11a9,9,0,0,0-9.05,9,9,9,0,0,0,9.05,9.05l.38,0v0H-27.28l.36,0c.34,0,.68,0,1,0h.05c5.68-.37,10.23-4.74,10.35-10.19,0-.13,0-.25,0-.38A6.51,6.51,0,0,0-15.45,158.61Z"
                            transform="translate(270.16 -20.28)" />
                        <path class="cls-8"
                            d="M-257.09,153.4c3.17,7.15,7.06,9.23,13.62,3.94,5.89,1.14,9.61-1.71,11.8-7.38,7.75,5.76,15.08,5.17,22.13.25,10,4.22,18.14,3,24.09-4.55-4.87-2.69-7.51-5.24-7-7.61,9,4.14,18.22,6.32,31.76-3-2,4.49-5.64,7.92-10.6,10.91,4.68,4.12,11,5.24,18.74-.68,9.76,11.24,19.07,11.85,27.91,1.11-16.48-3.8-19.9-12.69-20.65-22.62,8.91,9.61,15.5,22.23,39,12.89-.87,4.41-4.88,7.6-12.61,9.36,9.82,6.31,18.43,7,25.69,1.39,11,11.8,22,14.93,33.07,6.84a21.66,21.66,0,0,0,13.64,5.29c14.29-.06,15.12-17.51,0-18-5,.11-8.94,2.61-12.17,6.82-3.95-5.42-8.75-8.8-14.66-9.49-1.58,4.33-3.82,5.81-7.55,8.48-1.93,1.67-3.79-.48-1.94-2,10.89-8.6,2-24.44-16.83-19.15.41-13.88-17.19-22.36-31.12-17.84-2.21-16.27-10.55-19.5-21-10.33,6.5,3.67,9.73,7.91,9.78,12.73,0,2.92-2.67,3.67-3.51,1.2-4.42-13.26-13.2-11.73-23.51-5-1.83,1.13-3.85.14-2-1.85,3.74-3.57,7.52-7,11.71-8C-177.19,89.44-186,99-191.9,113.85c-17.85.37-22.78,14.2-18.07,25.63-10.24-15.39-23-15.81-31.1-5.95-3.56,4.91-1.63,9.15,1.5,14.34-3-2-6.2-3.65-8.76-3.24C-254.83,146-256.76,150.27-257.09,153.4Z"
                            transform="translate(270.16 -20.28)" />
                        <path class="cls-6"
                            d="M-15.45,158.61c.13-5.78-6.7-10.62-15.25-10.81a22.85,22.85,0,0,0-3.92.26,13.15,13.15,0,0,0-6.32-9.17c-6.15-3.55-14.1-1.42-18.3,4.7a15,15,0,0,0-6.11-7.74A14.91,14.91,0,0,0-75,133.52a14.14,14.14,0,0,0-6.08-10.06c-4.5-2.89-10.36-2.56-15.79.3a21.31,21.31,0,0,0-9.44-20.45,21.2,21.2,0,0,0-21.24-.82c.79-6.27-1-11.82-5.2-14.56-5.87-3.77-14.62-1-21.23,6.14a16.91,16.91,0,0,0-1.5-2.85c-5.86-8.88-18.95-10.57-29.24-3.78-7.64,5-11.59,13.33-10.72,20.91a18.17,18.17,0,0,0-11.69,3.6,17.81,17.81,0,0,0-7.41,14.19c-5.37-6.64-15.54-7.59-23.08-2-6.47,4.78-8.91,12.84-6.46,19.5a12.49,12.49,0,0,0-2.48-.25c-5.4,0-9.77,3.41-9.77,7.62a6.25,6.25,0,0,0,.29,1.83,8.9,8.9,0,0,0-4.05-1,9,9,0,0,0-9.05,9,9,9,0,0,0,9.05,9.05l.38,0v0H-27.28l.36,0c.34,0,.68,0,1,0h.05c5.68-.37,10.23-4.74,10.35-10.19,0-.13,0-.25,0-.38A6.51,6.51,0,0,0-15.45,158.61Z"
                            transform="translate(270.16 -20.28)" />
                    </g>
                    <g id="bg_cloudRight">
                        <path class="cls-7"
                            d="M583,177.41c-.1-4.15,4.81-7.63,11-7.77a16.11,16.11,0,0,1,2.81.19,9.49,9.49,0,0,1,4.54-6.59,10,10,0,0,1,13.16,3.38,10.9,10.9,0,0,1,11.33-7.24,10.18,10.18,0,0,1,4.37-7.23c3.23-2.08,7.45-1.84,11.35.22a15.06,15.06,0,0,1,22.05-15.29c-.57-4.5.68-8.49,3.73-10.46,4.22-2.71,10.51-.72,15.25,4.42a11.87,11.87,0,0,1,1.09-2c4.2-6.38,13.61-7.6,21-2.72,5.49,3.62,8.32,9.58,7.7,15a13.09,13.09,0,0,1,8.4,2.59,12.81,12.81,0,0,1,5.32,10.2c3.86-4.77,11.17-5.45,16.59-1.45a12.36,12.36,0,0,1,4.64,14,9.34,9.34,0,0,1,1.78-.18c3.88,0,7,2.45,7,5.47a4.45,4.45,0,0,1-.21,1.32,6.5,6.5,0,1,1,2.91,12.3H591.51l-.26,0-.72,0h0a7.73,7.73,0,0,1-7.44-7.32c0-.09,0-.18,0-.28A4.93,4.93,0,0,1,583,177.41Z"
                            transform="translate(270.16 -20.28)" />
                        <path class="cls-5"
                            d="M583,177.41c-.1-4.15,4.81-7.63,11-7.77a16.11,16.11,0,0,1,2.81.19c.15-.8,16.42,2.64,35,1.72,13.73-.68,12.46-19.91,28.49-20.93,36-2.31,69.79,22.1,94.61,22,.46,0,2.91-.08,3.95-.08a6.5,6.5,0,0,1,0,13H591.51l-.26,0-.72,0h0a7.73,7.73,0,0,1-7.44-7.32c0-.09,0-.18,0-.28A4.93,4.93,0,0,1,583,177.41Z"
                            transform="translate(270.16 -20.28)" />
                        <path class="cls-8"
                            d="M756.64,173.67c-2.27,5.13-5.07,6.63-9.78,2.83-4.24.82-6.91-1.23-8.48-5.3-5.57,4.13-10.84,3.71-15.9.17-7.19,3-13,2.18-17.31-3.26,3.49-1.94,5.39-3.77,5-5.47-6.49,3-13.1,4.54-22.83-2.15,1.44,3.23,4.06,5.69,7.62,7.84-3.36,3-7.9,3.76-13.47-.49-7,8.08-13.7,8.51-20,.8,11.84-2.73,14.3-9.12,14.84-16.26-6.4,6.91-11.14,16-28.06,9.27.63,3.16,3.51,5.46,9.07,6.72-7.06,4.53-13.24,5-18.46,1-7.9,8.48-15.82,10.73-23.76,4.92a15.68,15.68,0,0,1-9.81,3.8c-10.27-.05-10.86-12.58,0-13,3.58.08,6.42,1.88,8.75,4.91,2.83-3.9,6.28-6.33,10.53-6.83,1.14,3.11,2.74,4.18,5.43,6.1,1.39,1.2,2.72-.35,1.39-1.44-7.82-6.19-1.47-17.57,12.09-13.77-.29-10,12.36-16.06,22.36-12.82,1.59-11.69,7.59-14,15.11-7.42-4.67,2.64-7,5.69-7,9.15,0,2.09,1.91,2.64,2.51.86,3.18-9.53,9.49-8.43,16.9-3.58,1.31.82,2.77.1,1.45-1.32-2.68-2.57-5.39-5-8.41-5.77,12.88-5.48,19.18,1.38,23.45,12.06,12.83.27,16.37,10.2,13,18.42,7.35-11.07,16.51-11.37,22.34-4.28,2.56,3.53,1.17,6.58-1.08,10.31,2.15-1.45,4.46-2.63,6.3-2.34C755,168.36,756.41,171.42,756.64,173.67Z"
                            transform="translate(270.16 -20.28)" />
                        <path class="cls-6"
                            d="M583,177.41c-.1-4.15,4.81-7.63,11-7.77a16.11,16.11,0,0,1,2.81.19,9.49,9.49,0,0,1,4.54-6.59,10,10,0,0,1,13.16,3.38,10.9,10.9,0,0,1,11.33-7.24,10.18,10.18,0,0,1,4.37-7.23c3.23-2.08,7.45-1.84,11.35.22a15.06,15.06,0,0,1,22.05-15.29c-.57-4.5.68-8.49,3.73-10.46,4.22-2.71,10.51-.72,15.25,4.42a11.87,11.87,0,0,1,1.09-2c4.2-6.38,13.61-7.6,21-2.72,5.49,3.62,8.32,9.58,7.7,15a13.09,13.09,0,0,1,8.4,2.59,12.81,12.81,0,0,1,5.32,10.2c3.86-4.77,11.17-5.45,16.59-1.45a12.36,12.36,0,0,1,4.64,14,9.34,9.34,0,0,1,1.78-.18c3.88,0,7,2.45,7,5.47a4.45,4.45,0,0,1-.21,1.32,6.5,6.5,0,1,1,2.91,12.3H591.51l-.26,0-.72,0h0a7.73,7.73,0,0,1-7.44-7.32c0-.09,0-.18,0-.28A4.93,4.93,0,0,1,583,177.41Z"
                            transform="translate(270.16 -20.28)" />
                    </g>
                    <g id="desk_withClouds">
                        <g id="cloud_small-2" data-name="cloud_small">
                            <path class="cls-9"
                                d="M194.31,204.11a26.52,26.52,0,0,1,6,.69s0-.05,0-.07c0-7.19,6.45-13,14.41-13a15.24,15.24,0,0,1,9.68,3.39c3.12-13.23,16.13-23.15,31.72-23.15a35,35,0,0,1,16.65,4.15,35.91,35.91,0,0,1,25.09-9.88c18.92,0,34.25,13.84,34.25,30.92A28.2,28.2,0,0,1,331,205a20.57,20.57,0,0,1,5.87-.86c10.4,0,18.82,7.61,18.82,17a16.14,16.14,0,0,1-5.65,12.13c3.54,2.33,5.65,5.26,5.65,8.45,0,7.52-11.73,13.62-26.2,13.62H194.31c-14.47,0-26.2-11.46-26.2-25.6S179.84,204.11,194.31,204.11Z"
                                transform="translate(270.16 -20.28)" />
                            <path class="cls-10"
                                d="M348.9,231.7c8.55-13.6-4.63-29.42-24-23.49a.87.87,0,0,1-1.16-.9c7.66-46.35-47.67-47.25-56.61-8.86a.93.93,0,0,1-1.56.38c-1.73-1.93-1.26-6.49,3.43-16.1a2.24,2.24,0,0,0-1.4-3.09c-20.62-7.31-38.31,2-41.32,19.12a.92.92,0,0,1-1.45.48c-11.42-8.5-21.3-4.05-23,7.35a.9.9,0,0,1-1.15.68c-11.12-2.83-21.25-.93-22.69,1.81l-5.18,13a.74.74,0,0,0,0,.53l8.32,23.05a.89.89,0,0,0,.87.56L351,243.41a.85.85,0,0,0,.86-1l-3.08-10.06A.73.73,0,0,1,348.9,231.7Z"
                                transform="translate(270.16 -20.28)" />
                            <path class="cls-11"
                                d="M180.72,206.88c-2.26,2.21-5.61,8.39-5.48,15.83,0,8.9,8.94,16.11,20,16.11,8,0,14.92-3.82,18.1-9.33,2.31,2.87,7,4.83,12.34,4.83,7.68,0,13.91-4,13.91-8.94a2.28,2.28,0,0,0,0-.26c-10.13-3.09-9.22-6.85-8.66-9.43a27.12,27.12,0,0,0,12.14,6c7.83,1.79,16.13,1.74,20.77.05.41-.15.92.1.88.43-.06.54-.63,1-1.08,1.4-3.06,2.66-9.12,4.15-18.15,2.77a4.73,4.73,0,0,0-.74,2.45c0,4.94,8.5,8.94,19,8.94,8.23,0,15.21-2.47,17.84-5.91.73,4.44,9.85,8,21,8s20.27-3.51,21-7.94c2.05,3,6.66,5.07,12,5.07s11.55-.77,13.65-3.67c4.07,3.42,4.46,4.37,6,7.73,0,7.92-15.75,14.34-35.17,14.34l-1.84,0-.42,0H200.59a9.45,9.45,0,0,1-1.07-.07c-.64,0-1.3.07-2,.07-15.91,0-28.81-11.64-28.81-26C168.76,220.24,172.94,211.53,180.72,206.88Z"
                                transform="translate(270.16 -20.28)" />
                            <path class="cls-11"
                                d="M290.2,213.84c-9.39,1-16.41-3.1-15.8-7.23a4.11,4.11,0,0,1,.48-1.33.63.63,0,0,1,.89-.13c2.45,2.5,8.15,4.17,15.06,4.07s13.23-2,16.41-4.58c.29-.23.78-.17.86.1a3.29,3.29,0,0,1,.1,1.4C307.69,209.67,299.68,212.85,290.2,213.84Z"
                                transform="translate(270.16 -20.28)" />
                            <path class="cls-12"
                                d="M193.48,204.11a26.45,26.45,0,0,1,6,.69v-.07c0-7.19,6.44-13,14.4-13a15.24,15.24,0,0,1,9.68,3.39C226.7,181.88,239.71,172,255.3,172A35,35,0,0,1,272,176.11,35.91,35.91,0,0,1,297,166.23c18.92,0,34.25,13.84,34.25,30.92a28.2,28.2,0,0,1-1.1,7.82,20.57,20.57,0,0,1,5.87-.86c10.4,0,18.83,7.61,18.83,17a16.15,16.15,0,0,1-5.66,12.13c3.54,2.33,5.66,5.26,5.66,8.45,0,7.52-11.73,13.62-26.21,13.62H193.48c-14.47,0-26.2-11.46-26.2-25.6S179,204.11,193.48,204.11Z"
                                transform="translate(270.16 -20.28)" />
                        </g>
                        <g id="desk">
                            <g id="done">
                                <g id="right_horn">
                                    <path class="cls-13"
                                        d="M288.57,134.29s-15.44,9.28-17.74-5.57c-1.15-8.85,10.6-5.82,8.24.54,0,0,8.69-2.54,7.23-9.94-2.1-7.88-12.65-6.75-12.65-6.75s-20.54,1-14.3,22.07c3.88,11.21,21,16.5,22.71,11.09C282.47,144.42,286.55,136.59,288.57,134.29Z"
                                        transform="translate(270.16 -20.28)" />
                                    <path class="cls-14"
                                        d="M261.24,118.27s7.73-1.11,10.69,5.94c1.62-1.18,3.38-1.46,5.64,0,5.52-3.41,4.28-10.26,4.28-10.26C276,110.83,266.19,113,261.24,118.27Z"
                                        transform="translate(270.16 -20.28)" />
                                    <path class="cls-14"
                                        d="M259.16,134c4.15-6.5,11.81-4.46,11.81-4.46a9,9,0,0,0,3.36,6.17s-5.68,1.58-2.8,10.47C265.83,144,261.37,140.32,259.16,134Z"
                                        transform="translate(270.16 -20.28)" />
                                </g>
                                <g id="right_horn-2" data-name="right_horn">
                                    <path class="cls-13"
                                        d="M340.6,139.67s15.89,5.57,18.2-9.28c1.15-8.85-10.61-5.82-8.25.55,0,0-8.68-2.55-7.23-9.94,2.1-7.88,12.66-6.75,12.66-6.75s20.54,1,14.29,22.06c-3.88,11.22-20.5,18.26-23.12,13.23C346.47,148.24,342.34,142.15,340.6,139.67Z"
                                        transform="translate(270.16 -20.28)" />
                                    <path class="cls-14"
                                        d="M352.06,125.88c-5.53-3.41-4.28-10.26-4.28-10.26,6-2.84,14-1.58,20.61,4.32,0,0-7.74-1.1-10.7,5.94C356.13,124.6,354.27,124.51,352.06,125.88Z"
                                        transform="translate(270.16 -20.28)" />
                                    <path class="cls-14"
                                        d="M358.66,148.76c2.88-8.89-3.37-10.94-3.37-10.94a12.19,12.19,0,0,0,3.37-6.64s7.66-2.05,11.8,4.46C368.94,140.81,365,145.17,358.66,148.76Z"
                                        transform="translate(270.16 -20.28)" />
                                </g>
                                <path id="body" class="cls-15"
                                    d="M268.87,201.49a68.91,68.91,0,0,1,8.48-22.41l-5.58,3.15S275.89,160.9,283,153l-5.25,2.83s6.34-16.59,10.77-21.8a19.56,19.56,0,0,0-5,0,36,36,0,0,1,20.06-15.58c-5.76-8.27-7.46-8.7-7.46-8.7s11.76,1.28,14.13,3.43c1.6-2.58,8.78-5.82,12.36-4.82-2.45,5.64-2.53,7.34-2.53,7.34s13.32,3.09,20,10.16c-4.81-.85-6.93.31-6.93.31s5.47,1.36,11.82,12.07a17.47,17.47,0,0,0-5.74-.44s16,22,21.05,39.08c-4.79-4.37-5.35-4.28-5.35-4.28s8.46,24.75,7.68,28C343.38,228.37,295.58,234.44,268.87,201.49Z"
                                    transform="translate(270.16 -20.28)" />
                                <g id="eyes">
                                    <circle class="cls-16" cx="570.05" cy="134.14" r="2.3" />
                                    <circle class="cls-16" cx="594.78" cy="134.18" r="2.3" />
                                    <path id="eye2"
                                        d="M327.28,150.39a6,6,0,1,0,6,6A6,6,0,0,0,327.28,150.39Zm-2.65,5.92a1.85,1.85,0,1,1,1.84-1.85A1.84,1.84,0,0,1,324.63,156.31Z"
                                        transform="translate(270.16 -20.28)" />
                                    <path id="eye1"
                                        d="M300.73,150.35a6,6,0,1,0,6,6A6,6,0,0,0,300.73,150.35Zm-.83,5.92a1.85,1.85,0,1,1,1.85-1.85A1.85,1.85,0,0,1,299.9,156.27Z"
                                        transform="translate(270.16 -20.28)" />
                                </g>
                                <line class="cls-17" x1="563.73" y1="118.3" x2="578.04" y2="118.3" />
                                <line class="cls-17" x1="590.28" y1="118.3" x2="604.59" y2="118.3" />
                            </g>
                            <g id="highlights">
                                <path class="cls-18"
                                    d="M281.43,125.94a7.42,7.42,0,0,0-2.69-4.07,6.6,6.6,0,0,0-7.1-.44,7.59,7.59,0,0,0-3.55,4.85,10.09,10.09,0,0,0,.78,7,11,11,0,0,0,4.67,5.46,9.51,9.51,0,0,0,8.69.62"
                                    transform="translate(270.16 -20.28)" />
                                <path class="cls-18"
                                    d="M348.14,126.89a7.85,7.85,0,0,1,3.81-4,7.08,7.08,0,0,1,6.15-.09,7.25,7.25,0,0,1,3.38,4.76c.93,3.37-.42,6.28-1.21,8a12.8,12.8,0,0,1-5.2,6.16,12.46,12.46,0,0,1-8.58,1.3"
                                    transform="translate(270.16 -20.28)" />
                                <path class="cls-19" d="M302.19,121.13s-11.61,6.69-13.62,9.74,4.6-.5,4.6-.5"
                                    transform="translate(270.16 -20.28)" />
                                <path class="cls-19" d="M288.67,137.67s-5.54,8.65-5.71,11.76,2.85-1.31,2.85-1.31"
                                    transform="translate(270.16 -20.28)" />
                                <path class="cls-19" d="M283,156.76s-7.8,16.49-8,19.6,5.31-2.6,5.31-2.6"
                                    transform="translate(270.16 -20.28)" />
                                <path class="cls-19" d="M309.5,114.63s-5.81-2.42-7.06-2.29,1.51,2.29,1.51,2.29"
                                    transform="translate(270.16 -20.28)" />
                                <path class="cls-19" d="M312.1,113.68s4.42-3.68,7.49-3.73"
                                    transform="translate(270.16 -20.28)" />
                            </g>
                            <path id="desk_bg" class="cls-20"
                                d="M414.22,310.39c-68.23,1.74-133.38,1.95-194.13,0-.46-44.73.15-89.75-1.39-112.63H411.43C414.41,233.4,415.15,271.12,414.22,310.39Z"
                                transform="translate(270.16 -20.28)" />
                            <g id="cat_poster">
                                <path id="cat_poster_bg" class="cls-21"
                                    d="M308.72,286.82c-18.27,1.23-38.71,1.79-60.56,1.91.71-27.42.9-53,0-74.68,16.76-1.39,36.48-1.61,57.79-1.22C307.67,235.26,308.47,260.27,308.72,286.82Z"
                                    transform="translate(270.16 -20.28)" />
                                <g id="hang_in_there_text">
                                    <path class="cls-22" d="M252.23,219.57a49.43,49.43,0,0,0,.23,6.66"
                                        transform="translate(270.16 -20.28)" />
                                    <path class="cls-22" d="M255.45,219.31a42.79,42.79,0,0,0,.26,6.69"
                                        transform="translate(270.16 -20.28)" />
                                    <line class="cls-22" x1="522.36" y1="202.24" x2="525.57" y2="202.24" />
                                    <path class="cls-22"
                                        d="M257,222s1.7-.7,2.37.65a2.55,2.55,0,0,1,.23.84c.3,2.44,1.14,2.73,1.14,2.73"
                                        transform="translate(270.16 -20.28)" />
                                    <path class="cls-22" d="M259.34,222.66s-3,1.33-2.14,3,2.5-1.34,2.5-1.34"
                                        transform="translate(270.16 -20.28)" />
                                    <path class="cls-22" d="M261.65,226.1c-.68-4.55,2.44-6.11,3-.1"
                                        transform="translate(270.16 -20.28)" />
                                    <circle class="cls-22" cx="537.33" cy="203.74" r="1.82" />
                                    <path class="cls-22" d="M269,224s.74,8.89-3.94,4.7"
                                        transform="translate(270.16 -20.28)" />
                                    <path class="cls-22" d="M273.35,222.21a13.84,13.84,0,0,1,.26,3.79"
                                        transform="translate(270.16 -20.28)" />
                                    <circle cx="543.51" cy="199.61" r="0.41" />
                                    <path class="cls-22" d="M275.27,226.23c-.3-4,2.73-6.33,3.17-.38"
                                        transform="translate(270.16 -20.28)" />
                                    <path class="cls-22" d="M282.9,219.9s-.58,7.11,2.7,6.2"
                                        transform="translate(270.16 -20.28)" />
                                    <line class="cls-22" x1="551.53" y1="201.95" x2="555.17" y2="201.93" />
                                    <path class="cls-22" d="M286.25,219.12l.52,6.88c0-.52,2.76-7.11,3.44,0"
                                        transform="translate(270.16 -20.28)" />
                                    <path class="cls-22"
                                        d="M294.47,225.65s-3.46,1.59-3.06-1.79a1.55,1.55,0,0,1,2.83-.82c.31.88-.68,1-2.79.57"
                                        transform="translate(270.16 -20.28)" />
                                    <path class="cls-22"
                                        d="M302.44,225.54s-3.46,1.6-3.06-1.78a1.55,1.55,0,0,1,2.83-.82c.31.88-.68,1-2.79.57"
                                        transform="translate(270.16 -20.28)" />
                                    <polyline class="cls-22" points="565.57 201.97 565.83 204.11 565.97 205.28" />
                                    <path class="cls-22" d="M295.67,224.4s0-1.55,2.47-1.27"
                                        transform="translate(270.16 -20.28)" />
                                </g>
                                <g id="Cat">
                                    <path id="cat_body" class="cls-23"
                                        d="M271.55,270.27s.25,7.66.3,8.24c.16,1.65,2.48,3.26,2.42.22,0-4.29-.08-5.55-.08-5.55s4.62,1.82,8.06,0c0,4.09.2,7.53,1.43,7.53,2.21,0,1.5-7.53,1.5-7.53s1-25.6-.39-27.55.72-2.36.72-2.36a6.33,6.33,0,0,0-.31-6.18c1.86-2.73.47-4.2.47-4.2a4.07,4.07,0,0,0-3.85,2.12c-1.95-1.64-7.37-.17-7.37-.17s-2.42-2.86-4-2.86.52,4.33.52,4.33-2,5.89.13,7.54-.3,3.25-.3,3.25-.39,16,.21,17.93-8,14.13-8,14.13c-2.89,5.15-.31,5.11,2.6,2,0,0,5.63-8.45,5.93-10.92A52.45,52.45,0,0,0,271,265"
                                        transform="translate(270.16 -20.28)" />
                                    <g id="cat_face">
                                        <circle id="eye1-2" data-name="eye1" cx="544.97" cy="218.97" r="0.99" />
                                        <circle id="eye2-2" data-name="eye2" cx="551.89" cy="218.81" r="0.99" />
                                        <g id="cat_nose">
                                            <path
                                                d="M278.49,241a3.89,3.89,0,0,0,1.28-1.27.14.14,0,0,0-.1-.23,6.13,6.13,0,0,0-2.56,0,.14.14,0,0,0-.09.23A4.41,4.41,0,0,0,278.3,241a.11.11,0,0,0,.09,0A.13.13,0,0,0,278.49,241Z"
                                                transform="translate(270.16 -20.28)" />
                                            <line class="cls-24" x1="548.55" y1="220.38" x2="548.55" y2="221.64" />
                                        </g>
                                        <circle id="eye_l2" class="cls-16" cx="551.49" cy="218.52" r="0.23" />
                                        <circle id="eye_l1" class="cls-16" cx="544.57" cy="218.69" r="0.23" />
                                    </g>
                                    <g id="cat_highlights">
                                        <path class="cls-25" d="M271.69,235.23s-1.05-3,1.37.16"
                                            transform="translate(270.16 -20.28)" />
                                        <path class="cls-25" d="M284.47,235.42s1.06-3-1.36.16"
                                            transform="translate(270.16 -20.28)" />
                                        <path class="cls-26" d="M272.57,236.91s-2.05,4.48.32,7"
                                            transform="translate(270.16 -20.28)" />
                                        <path class="cls-27" d="M273.06,248.29a71.85,71.85,0,0,0,1.35,22.42"
                                            transform="translate(270.16 -20.28)" />
                                        <path class="cls-28" d="M272.75,277.79a1.66,1.66,0,0,0,.45,1.32"
                                            transform="translate(270.16 -20.28)" />
                                        <path class="cls-28" d="M283.59,278.28a1.74,1.74,0,0,0,.45,1.33"
                                            transform="translate(270.16 -20.28)" />
                                        <ellipse id="nose_l" class="cls-16" cx="548.09" cy="219.51" rx="0.39"
                                            ry="0.17" />
                                    </g>
                                    <g id="cat_dots">
                                        <path class="cls-29"
                                            d="M276,235.48c-.41-.32-1,0-1.24.46s.83,1.67,1.08,1.5C276.47,237.1,276.21,235.62,276,235.48Z"
                                            transform="translate(270.16 -20.28)" />
                                        <path class="cls-29"
                                            d="M281,235.84c-.21-.48-.92-.46-1.31-.17s-.05,1.86.26,1.83C280.68,237.5,281.14,236.08,281,235.84Z"
                                            transform="translate(270.16 -20.28)" />
                                        <path class="cls-29"
                                            d="M276.92,235.3a1.58,1.58,0,0,1,1.9-.05c.7.59-.25,2.6-.55,2.4C278.26,237.83,276.06,236.18,276.92,235.3Z"
                                            transform="translate(270.16 -20.28)" />
                                        <path class="cls-29"
                                            d="M264.19,281.37a1,1,0,0,0,0-1.29c-.35-.2-1.55.39-1.5.67C262.77,281.47,264,281.57,264.19,281.37Z"
                                            transform="translate(270.16 -20.28)" />
                                        <path class="cls-29"
                                            d="M265.51,279.69c.53.09.89-.53.84-1s-1.58-1.12-1.72-.84C264.23,278.47,265.23,279.69,265.51,279.69Z"
                                            transform="translate(270.16 -20.28)" />
                                        <path class="cls-29"
                                            d="M266.24,275.43c-.52.13-.59.85-.34,1.28s1.9.37,1.91.06C267.91,276,266.5,275.31,266.24,275.43Z"
                                            transform="translate(270.16 -20.28)" />
                                        <path class="cls-29"
                                            d="M268.68,274.9a.93.93,0,0,0,.63-1.13c-.22-.37-1.6-.51-1.68-.23C267.35,274.21,268.42,275,268.68,274.9Z"
                                            transform="translate(270.16 -20.28)" />
                                        <path class="cls-29"
                                            d="M269.28,271.59a.87.87,0,0,0-.64.89c.14.29,1.22.41,1.33.19C270.27,272.14,269.5,271.53,269.28,271.59Z"
                                            transform="translate(270.16 -20.28)" />
                                    </g>
                                </g>
                                <path id="tree_log" class="cls-30"
                                    d="M249.16,242a92.52,92.52,0,0,1,9.83,1.17c2.36.6,12,.6,12,.7s11.22.23,15.82-.48c2.51-.25,11.51.16,11.11,0l9.52-.16v4.84s-12.48-1.33-17.9-1.26-23.56,0-23.56,0l-5.42-.55s-11.39,7-11.39,6.2c0-1,0-2.11,0-2.85l6.5-3.68c.85.06-4.67-1.66-6.59-1.6C249.14,242.58,249.14,242.58,249.16,242Z"
                                    transform="translate(270.16 -20.28)" />
                                <g id="cat_paws">
                                    <path id="cat_paw1" class="cls-31"
                                        d="M269.16,243.11s-2.21-1-3.42.35c-.61.95,1.43,2.21,2,2.21S270.16,243.55,269.16,243.11Z"
                                        transform="translate(270.16 -20.28)" />
                                    <path id="cat_paw2" class="cls-31"
                                        d="M290.47,243.11s-2.21-1-3.42.35c-.6.95,1.43,2.21,2,2.21S291.47,243.55,290.47,243.11Z"
                                        transform="translate(270.16 -20.28)" />
                                    <path id="paw_l1" class="cls-26" d="M266.84,244.18a1,1,0,0,1,.8-.63"
                                        transform="translate(270.16 -20.28)" />
                                    <path id="paw_l2" class="cls-26" d="M288.15,244.18a1,1,0,0,1,.8-.63"
                                        transform="translate(270.16 -20.28)" />
                                </g>
                                <g id="cat_tape">
                                    <path class="cls-32"
                                        d="M242.7,217.88a46.87,46.87,0,0,1,8-8.88l-.26,1.32,1.12-.17-.91,1.69,2.43-.65a89.89,89.89,0,0,1-7.5,8.45l-1.25.21.37-1.21-1,.19.32-1.19Z"
                                        transform="translate(270.16 -20.28)" />
                                    <path class="cls-32"
                                        d="M313.75,282.78a47.22,47.22,0,0,1-8.14,8.77l.28-1.32-1.13.16.93-1.68-2.43.62a89.5,89.5,0,0,1,7.61-8.34l1.26-.2-.39,1.2,1-.18L312.4,283Z"
                                        transform="translate(270.16 -20.28)" />
                                    <path class="cls-32"
                                        d="M301.87,206.9a50,50,0,0,1,9.65,9.58l-1.85-.52.42,1.17-2.37-.42,1.46,2.89c-3.53-3.15-6.9-6.34-10-9.58l1.69.32-1.56-1.69,2.17.85-.94-1.69,2,.58Z"
                                        transform="translate(270.16 -20.28)" />
                                    <path class="cls-32"
                                        d="M246.51,283.18a50.66,50.66,0,0,1,9.65,9.59l-1.85-.52.42,1.17-2.37-.42,1.46,2.89c-3.53-3.16-6.9-6.35-10-9.59l1.69.33-1.56-1.69,2.18.84-.94-1.69,2,.59Z"
                                        transform="translate(270.16 -20.28)" />
                                </g>
                            </g>
                            <g id="note_papers">
                                <path class="cls-33"
                                    d="M322.09,264.37,342,261.25l5.29,18.63-18.2,3.72s-4.76,1-5.63-5S322.87,267.84,322.09,264.37Z"
                                    transform="translate(270.16 -20.28)" />
                                <g id="note_text1">
                                    <polyline class="cls-22"
                                        points="595.68 250.03 595.68 249.38 596.59 249.71 597.44 249.38 598.8 249.38" />
                                    <polyline class="cls-22"
                                        points="600.17 249.71 601.66 248.8 602.44 249.25 603.48 248.15 604.85 248.93 607.05 247.17 608.61 247.17 610.11 248.02 610.63 247.56" />
                                    <path class="cls-22"
                                        d="M326.37,273.89s-.84-1.95,1-1.17,1.24-.18,1.24-.18l1.81-.27h1.82l1.24-.26.71-1h1.5"
                                        transform="translate(270.16 -20.28)" />
                                    <polyline class="cls-22"
                                        points="606.99 250.75 608.68 249.71 609.65 250.23 611.73 250.03" />
                                    <polyline class="cls-22"
                                        points="596.85 257.57 597.24 255.95 598.35 256.76 599.58 255.95 601.53 255.56" />
                                    <path class="cls-22"
                                        d="M334.88,275.52l.85-.91,1.1.45h1.95l.42-1.75s.69,1,.95,1.1a7.63,7.63,0,0,0,1.43.26c.39,0,1.1-.78,1.1-.78"
                                        transform="translate(270.16 -20.28)" />
                                    <path class="cls-22"
                                        d="M334.36,279.94s.39-1.63.88-1.37a2.81,2.81,0,0,1,.88,1l.71-1.1,1.09.67.57-1"
                                        transform="translate(270.16 -20.28)" />
                                    <path class="cls-22"
                                        d="M327.59,281s.39-1.63.88-1.37a6.51,6.51,0,0,1,1.28,1.37l.31-1.43,1.09.67,1.2-.32"
                                        transform="translate(270.16 -20.28)" />
                                    <path class="cls-22" d="M340.47,278.83l.78-1.36s1.3.39,1.43.68,1.24-.29,1.24-.29"
                                        transform="translate(270.16 -20.28)" />
                                </g>
                                <path class="cls-34"
                                    d="M374.51,274l22-4.77,4.86,18.46a45.52,45.52,0,0,1-21.58,4.93C376.73,286.66,374.61,280.52,374.51,274Z"
                                    transform="translate(270.16 -20.28)" />
                                <g id="note_text1-2" data-name="note_text1">
                                    <polyline class="cls-22"
                                        points="647.95 258.94 647.85 258.3 648.79 258.48 649.58 258.03 650.93 257.82" />
                                    <polyline class="cls-22"
                                        points="652.33 257.93 653.66 256.8 654.5 257.13 655.36 255.88 656.83 256.44 658.74 254.37 660.28 254.13 661.89 254.73 662.33 254.2" />
                                    <path class="cls-22"
                                        d="M379.17,282.63s-1.13-1.8.85-1.32,1.19-.37,1.19-.37l1.76-.55,1.8-.28,1.18-.44.55-1.08,1.48-.23"
                                        transform="translate(270.16 -20.28)" />
                                    <polyline class="cls-22"
                                        points="659.23 257.91 660.74 256.62 661.78 256.99 663.8 256.47" />
                                    <polyline class="cls-22"
                                        points="650.26 266.21 650.39 264.54 651.61 265.18 652.71 264.18 654.57 263.5" />
                                    <path class="cls-22"
                                        d="M387.83,282.92l.7-1,1.16.28,1.93-.3.14-1.79s.84.92,1.1.94a7.62,7.62,0,0,0,1.46,0c.38-.06,1-.94,1-.94"
                                        transform="translate(270.16 -20.28)" />
                                    <path class="cls-22"
                                        d="M388,287.37s.13-1.67.66-1.48a2.77,2.77,0,0,1,1,.89l.54-1.2,1.18.49.4-1.1"
                                        transform="translate(270.16 -20.28)" />
                                    <path class="cls-22"
                                        d="M381.47,289.48s.14-1.67.66-1.48a6.37,6.37,0,0,1,1.48,1.15l.08-1.46,1.18.49,1.14-.5"
                                        transform="translate(270.16 -20.28)" />
                                    <path class="cls-22" d="M393.86,285.34l.57-1.47s1.34.19,1.51.45,1.18-.47,1.18-.47"
                                        transform="translate(270.16 -20.28)" />
                                </g>
                                <path class="cls-35"
                                    d="M363.25,228.94c-4.88,5.58-6.84,13.49-7.71,22.26a104.86,104.86,0,0,0,23.13,5.63l4.68-22C376.12,231.83,369.34,229.71,363.25,228.94Z"
                                    transform="translate(270.16 -20.28)" />
                                <g id="note_text1-3" data-name="note_text1">
                                    <polyline class="cls-22"
                                        points="633.38 214.71 633.67 214.13 634.34 214.83 635.24 214.92 636.46 215.53" />
                                    <polyline class="cls-22"
                                        points="637.53 216.43 639.28 216.29 639.77 217.04 641.19 216.52 642.06 217.83 644.83 217.25 646.22 217.95 647.18 219.38 647.85 219.2" />
                                    <path class="cls-22"
                                        d="M362.38,238.57s.11-2.12,1.45-.58,1.19.39,1.19.39l1.74.57,1.63.82,1.22.32,1.08-.55,1.33.67"
                                        transform="translate(270.16 -20.28)" />
                                    <polyline class="cls-22"
                                        points="643.16 220.42 645.14 220.25 645.78 221.15 647.73 221.91" />
                                    <polyline class="cls-22"
                                        points="631.05 221.97 632.12 220.7 632.75 221.92 634.21 221.75 636.13 222.27" />
                                    <path class="cls-22"
                                        d="M369.26,243.84l1.16-.44.78.91,1.75.87,1.16-1.38s.14,1.24.35,1.41a7.77,7.77,0,0,0,1.16.87c.35.18,1.34-.2,1.34-.2"
                                        transform="translate(270.16 -20.28)" />
                                    <path class="cls-22"
                                        d="M366.81,247.56s1.08-1.28,1.4-.83a2.8,2.8,0,0,1,.32,1.32l1.13-.67.67,1.09,1-.66"
                                        transform="translate(270.16 -20.28)" />
                                    <path class="cls-22"
                                        d="M360.27,245.49s1.08-1.28,1.4-.83a6.24,6.24,0,0,1,.53,1.79l.92-1.14.67,1.09,1.22.25"
                                        transform="translate(270.16 -20.28)" />
                                    <path class="cls-22" d="M372.77,249.31l1.31-.88s1,.94,1,1.26,1.23.29,1.23.29"
                                        transform="translate(270.16 -20.28)" />
                                </g>
                                <path class="cls-36"
                                    d="M340.37,215.77a251.62,251.62,0,0,1,29.07,3.89c-.42,9-.94,17.29-1.6,24.61-20.38-1.51-30.44-3.62-32.06-6.24C338.14,230.15,340,222.56,340.37,215.77Z"
                                    transform="translate(270.16 -20.28)" />
                                <g id="note_text_list1">
                                    <circle class="cls-22" cx="614.14" cy="203.03" r="1" />
                                    <circle class="cls-22" cx="612.58" cy="209.01" r="0.91" />
                                    <circle class="cls-22" cx="611.19" cy="214.83" r="1.09" />
                                    <path class="cls-22"
                                        d="M347.27,223.75s.52-1.26,1.52,0a2.57,2.57,0,0,1,1.6,0l1,.56,1.43-.73.26.95a12.13,12.13,0,0,0,1.6-.22c.13-.08.78.39.91.48a11.2,11.2,0,0,0,1.74,0l.3.56"
                                        transform="translate(270.16 -20.28)" />
                                    <path class="cls-22"
                                        d="M360.27,225.35l.62-.82.89.82s1-.52,1.13-.41.91.2,1,.41a4.9,4.9,0,0,0,.47.74l1.09-.26"
                                        transform="translate(270.16 -20.28)" />
                                    <path class="cls-22"
                                        d="M347.27,226.61a1.58,1.58,0,0,1,2.13.35c.39.34,1.42-.32,1.42-.32l1.17.92,1.3-.61s.52.53.39.83.44.82.44.82"
                                        transform="translate(270.16 -20.28)" />
                                    <path class="cls-22"
                                        d="M356.07,228.39l1.73-.92a15.73,15.73,0,0,1,.65,1.61c0,.17,1,.65,1.38.22a3.27,3.27,0,0,1,1.65-.91c.13.08.61,1,.74.91s.42.17.42.17A17.11,17.11,0,0,0,365,230c.37,0,1,.47,1,.47v1.13"
                                        transform="translate(270.16 -20.28)" />
                                    <path class="cls-22"
                                        d="M345.84,230.55a1.1,1.1,0,0,1,1.91.39c1.26-.81,1.91,0,1.91,0l1.25-.4a5,5,0,0,0,.48,1.27c.17.13,1.47-.48,1.47-.48l.91.5s1.43,0,1.73,0,.57.93.57.93"
                                        transform="translate(270.16 -20.28)" />
                                    <path class="cls-22"
                                        d="M358.54,233.5l1.12-.48a4.06,4.06,0,0,0,.61,1,9.46,9.46,0,0,0,2.11-.51h2.18l.45.51"
                                        transform="translate(270.16 -20.28)" />
                                    <path class="cls-22"
                                        d="M343.81,236.21l1.17-1.09a1.13,1.13,0,0,0,.56,1.09c.69.49,1.73-.4,1.73-.4s.74.33.7.76,2,0,2,0,.78.55.73.86"
                                        transform="translate(270.16 -20.28)" />
                                    <path class="cls-22"
                                        d="M352.47,237.43c.61-.9,1.13-.38,1.13-.38l.52,1.07.78-.69s1.3-.79,1.17,0,.73,1.39.73,1.39l.87-.7a4.26,4.26,0,0,1,1.13,0,15.83,15.83,0,0,1,.39,1.54h1.42"
                                        transform="translate(270.16 -20.28)" />
                                </g>
                                <path class="cls-37"
                                    d="M384.13,211.69l14.81-1.56c1.92,10.83,3.36,22.26,4.42,34.14-1.31,1.71-6.78,1.64-13.69.95C387.53,228.57,386,214.8,384.13,211.69Z"
                                    transform="translate(270.16 -20.28)" />
                                <g id="note_text_list2">
                                    <circle cx="658.97" cy="200.91" r="0.54" />
                                    <circle cx="659.84" cy="206.43" r="0.54" />
                                    <circle cx="660.25" cy="211.26" r="0.54" />
                                    <circle cx="660.79" cy="215.53" r="0.54" />
                                    <circle cx="661.54" cy="219.7" r="0.54" />
                                    <path class="cls-22"
                                        d="M393.21,240.15s.59-.93,1-.46a1.08,1.08,0,0,0,1.07.29s0-1.46.71-.74,1.52-.11,1.52-.11,1.12-.35,1.27.37,1.76.34,1.52-.28"
                                        transform="translate(270.16 -20.28)" />
                                    <path class="cls-22"
                                        d="M392.88,235.87s.44-1,.88-.59a1.06,1.06,0,0,0,1.09.13s-.17-1.45.6-.84,1.48-.34,1.48-.34,1.06-.51,1.32.18,1.79.08,1.46-.51"
                                        transform="translate(270.16 -20.28)" />
                                    <path class="cls-22"
                                        d="M392.09,231.27c0-.11.14-1.06.79-.48s.85-.32.85-.32.54-1,.8-.22,1-.52,1-.52.8.09.75.77"
                                        transform="translate(270.16 -20.28)" />
                                    <path class="cls-22"
                                        d="M397.54,230c.57-.87.89-.5.89-.5s0,2.23.59,1.3.93-2.27,1.06-1.49"
                                        transform="translate(270.16 -20.28)" />
                                    <path class="cls-22"
                                        d="M391.72,226.59s-.31-2.06.89-.91,1.42.52,1.38.28,1.67-.84,1.84.22,1.39.32,1.45,0"
                                        transform="translate(270.16 -20.28)" />
                                    <path class="cls-22"
                                        d="M390.76,221.58s.48-1.55,1.43-.49,2-.26,2-.26.33-.55.57.37c1,1.08.89-.46,1.55-1.13s2-.15,2,.17"
                                        transform="translate(270.16 -20.28)" />
                                </g>
                                <g id="note_tape">
                                    <path id="tape1" class="cls-32"
                                        d="M346.54,213.71a50.68,50.68,0,0,1-10.24,8.95l.65-1.81-1.2.33.59-2.33-3,1.25c3.4-3.3,6.82-6.44,10.27-9.33l-.44,1.66L345,211l-1,2.12,1.75-.82-.73,2Z"
                                        transform="translate(270.16 -20.28)" />
                                    <path id="tape1-2" data-name="tape1" class="cls-32"
                                        d="M335.06,232.66a44.65,44.65,0,0,1,5.83,10.55l-1.45-.9.07,1.09-1.91-.94.52,2.82c-2.22-3.56-4.29-7.11-6.15-10.64l1.35.69-.9-1.82,1.64,1.26-.39-1.67,1.57,1Z"
                                        transform="translate(270.16 -20.28)" />
                                    <path id="tape1-3" data-name="tape1" class="cls-32"
                                        d="M392.75,265.79a37,37,0,0,1,8.6,4.87H400l.52.74-1.74.16,1.58,1.75c-3.09-1.53-6.06-3.13-8.88-4.8l1.25-.09-1.42-.89,1.69.17-1-1,1.53,0Z"
                                        transform="translate(270.16 -20.28)" />
                                    <path id="tape2" class="cls-32"
                                        d="M379.85,270.11a47.22,47.22,0,0,1-8.14,8.77l.28-1.32-1.13.16.93-1.68-2.43.62a90.87,90.87,0,0,1,7.61-8.35l1.26-.19-.38,1.2,1-.18-.34,1.19Z"
                                        transform="translate(270.16 -20.28)" />
                                    <path id="tape2-2" data-name="tape2" class="cls-32"
                                        d="M372.92,224.52a47.11,47.11,0,0,1-9.11-7.74l1.33.22-.21-1.12,1.71.86-.72-2.41a91.87,91.87,0,0,1,8.67,7.24l.25,1.25-1.22-.33.22,1-1.2-.29Z"
                                        transform="translate(270.16 -20.28)" />
                                    <path id="tape2-3" data-name="tape2" class="cls-32"
                                        d="M392,217a47.1,47.1,0,0,1-1.42-11.88l.82,1.07.61-1,.68,1.79,1.1-2.25a91.19,91.19,0,0,1,1.44,11.2l-.66,1.09-.67-1.08-.51.88-.68-1Z"
                                        transform="translate(270.16 -20.28)" />
                                    <path id="tape3" class="cls-32"
                                        d="M326.63,257.13a26.2,26.2,0,0,0,2.21,10.13l.78-1,.71.52,1-1.43,1.75,1.1.33-1.94,1.75,2.27A38.45,38.45,0,0,0,333,255.44l-1.17,1.95-1.3-1.63-.13,2.08L328.26,256l.06,2.47Z"
                                        transform="translate(270.16 -20.28)" />
                                    <path id="tape3-2" data-name="tape3" class="cls-32"
                                        d="M376.2,236.77a20.43,20.43,0,0,0,1.86-7.89l-.88.42-.33-.6-1.16.68-.87-1.37-.88,1.26-.47-2.19a30.12,30.12,0,0,0-2.32,8.73l1.48-1,.37,1.58.79-1.42.9,2,.78-1.76Z"
                                        transform="translate(270.16 -20.28)" />
                                </g>
                            </g>
                            <g id="lamp">
                                <path class="cls-38"
                                    d="M222,197.93h30.21c-.29-2.07-.38-4-3-5.13-7.19-1.65-15-1.67-23.13-.59C223.61,192.8,222.58,194.89,222,197.93Z"
                                    transform="translate(270.16 -20.28)" />
                                <path class="cls-38"
                                    d="M233.19,191.47,232,164.53a2.1,2.1,0,0,1,2.15-2.14h1.42s1.92-.35,1.86,2.13.57,26.95.57,26.95Z"
                                    transform="translate(270.16 -20.28)" />
                                <g id="lamp_neck">
                                    <path class="cls-39"
                                        d="M236.12,162.41c.09-14.9.94-22.32,9.81-16.91l1.95-2.73c.5-.57-8-7.48-12.77-.75-3.68,5.34-1.62,17.93-2.05,20.36Z"
                                        transform="translate(270.16 -20.28)" />
                                    <line class="cls-12" x1="503.07" y1="135.51" x2="506.32" y2="135.51" />
                                    <line class="cls-12" x1="503.02" y1="133.17" x2="506.32" y2="133.17" />
                                    <line class="cls-12" x1="503.06" y1="130.93" x2="506.73" y2="131.16" />
                                    <line class="cls-12" x1="503.23" y1="128.48" x2="506.98" y2="129.36" />
                                    <line class="cls-12" x1="503.76" y1="125.32" x2="507.55" y2="126.96" />
                                    <line class="cls-12" x1="505.66" y1="121.22" x2="508.98" y2="124.38" />
                                    <line class="cls-12" x1="508.41" y1="119.2" x2="510.1" y2="123.66" />
                                    <line class="cls-12" x1="512.02" y1="118.94" x2="511.63" y2="123.46" />
                                    <line class="cls-12" x1="515.69" y1="120.35" x2="513.59" y2="123.94" />
                                    <line class="cls-12" x1="503.2" y1="138.56" x2="506.32" y2="138.56" />
                                </g>
                                <path id="lamp_hat" class="cls-38"
                                    d="M266.56,151.7c-6.06,6-12.07,11.45-17.61,13.09-5.18-7.29-7-14.06-2.29-20.32C252.33,137.47,259.6,144.1,266.56,151.7Z"
                                    transform="translate(270.16 -20.28)" />
                                <path id="lamp_pear" class="cls-40" d="M262,156c.41.72,2.48,10.52-7.55,6.06Z"
                                    transform="translate(270.16 -20.28)" />
                                <path id="hat_light" class="cls-41" d="M249,147.24c-.36.91-2.73,4.73.43,11.61"
                                    transform="translate(270.16 -20.28)" />
                            </g>
                            <g id="lamp_court">
                                <path class="cls-12"
                                    d="M226,307.23c-2.46-11.33-1.4-19.62.13-25.22,1-3.73,1.78-4.55,2.47-8.44,1.53-8.57-.61-13.14-1-21.45a57.4,57.4,0,0,1,1.78-17.39"
                                    transform="translate(270.16 -20.28)" />
                                <path class="cls-12"
                                    d="M226.78,194.64a19.53,19.53,0,0,0-2.49,5.73c-1.58,6.36,2.31,7.28,5.24,23.24.06.31.12,1.06.14,1.2"
                                    transform="translate(270.16 -20.28)" />
                                <path class="cls-42"
                                    d="M227.64,225.07l4.35.38c1,2.85.74,5.93-.26,9.13l-4.48-.55A18.85,18.85,0,0,1,227.64,225.07Z"
                                    transform="translate(270.16 -20.28)" />
                                <ellipse class="cls-42" cx="499.81" cy="209.68" rx="1.51" ry="2.38" />
                            </g>
                            <g id="cup">
                                <path class="cls-43"
                                    d="M277.25,183.77h-16s-6.43-.33-6.43,4.61,7.08,5.46,7.08,5.46-.16,3.51,2.08,3.64c2.08-.13,12.48,0,12.48,0a9.66,9.66,0,0,0,1.75-4.75C278.4,190.25,277.8,183.76,277.25,183.77Zm-15.79,7.41s-3.64-.26-3.64-2.67,3.31-2.66,3.31-2.66A21.7,21.7,0,0,1,261.46,191.18Z"
                                    transform="translate(270.16 -20.28)" />
                                <path class="cls-44"
                                    d="M263,187.93c.43-.67,1.07-1.44,1.8-1.39s1,1.16,1.88,1.3c1.18.19,1.7-1.64,3-1.56,1.1.07,1.25,1.41,2.36,1.43s1.49-1.24,2.61-1.21a2.42,2.42,0,0,1,1.68,1"
                                    transform="translate(270.16 -20.28)" />
                                <path class="cls-44"
                                    d="M263,191.67c.43-.67,1.07-1.44,1.8-1.39s1,1.16,1.88,1.3c1.18.19,1.7-1.64,3-1.56,1.1.07,1.25,1.41,2.36,1.43s1.49-1.24,2.61-1.21a2.42,2.42,0,0,1,1.68,1"
                                    transform="translate(270.16 -20.28)" />
                                <path class="cls-44"
                                    d="M263,195.2c.43-.67,1.07-1.44,1.8-1.39s1,1.16,1.88,1.3c1.18.19,1.7-1.64,3-1.56,1.1.07,1.25,1.4,2.36,1.43s1.49-1.24,2.61-1.21a2.42,2.42,0,0,1,1.68,1"
                                    transform="translate(270.16 -20.28)" />
                            </g>
                            <g id="laptop">
                                <g id="laptop-2" data-name="laptop">
                                    <rect class="cls-45" x="555.4" y="138.56" width="59.26" height="38.63" />
                                    <line class="cls-45" x1="555.4" y1="173.03" x2="614.66" y2="173.03" />
                                </g>
                                <g id="laptop_airflow">
                                    <line class="cls-22" x1="560.42" y1="174.38" x2="560.42" y2="175.81" />
                                    <line class="cls-22" x1="561.85" y1="174.38" x2="561.85" y2="175.81" />
                                    <line class="cls-22" x1="563.28" y1="174.38" x2="563.28" y2="175.81" />
                                    <line class="cls-22" x1="564.62" y1="174.38" x2="564.62" y2="175.81" />
                                    <line class="cls-22" x1="566.05" y1="174.38" x2="566.05" y2="175.81" />
                                    <line class="cls-22" x1="567.48" y1="174.38" x2="567.48" y2="175.81" />
                                    <line class="cls-22" x1="568.64" y1="174.38" x2="568.64" y2="175.81" />
                                    <line class="cls-22" x1="570.07" y1="174.38" x2="570.07" y2="175.81" />
                                </g>
                                <rect x="604.84" y="174.49" width="3.83" height="1.22" rx="0.54" />
                                <circle cx="611.16" cy="175.1" r="0.61" />
                                <g id="thinkpad_text"><text class="cls-46"
                                        transform="translate(559.7 150.84) rotate(-45)">Th nkpad</text>
                                    <line class="cls-47" x1="560.68" y1="146.85" x2="562.22" y2="148.33" />
                                    <rect class="cls-48" x="289.99" y="166.61" width="0.47" height="0.47"
                                        transform="translate(237.18 233.81) rotate(-45)" />
                                </g>
                                <g id="laptop_highlight" class="cls-49">
                                    <line class="cls-44" x1="578.96" y1="143.69" x2="564.15" y2="158.76" />
                                    <line class="cls-44" x1="590.57" y1="144.51" x2="568.64" y2="165.99" />
                                    <line class="cls-44" x1="601.66" y1="148.33" x2="580.09" y2="168.9" />
                                    <line class="cls-44" x1="606.76" y1="158.61" x2="594.73" y2="168.9" />
                                </g>
                            </g>
                            <g id="yarn_needles">
                                <line class="cls-50" x1="652.02" y1="126.19" x2="647.86" y2="117.67" />
                                <circle class="cls-51" cx="647.02" cy="116.15" r="1.82" />
                                <line class="cls-50" x1="657.58" y1="125.36" x2="659.25" y2="117.87" />
                                <circle class="cls-51" cx="659.54" cy="116.15" r="1.82" />
                            </g>
                            <g id="yarn_lines">
                                <circle class="cls-52" cx="656.83" cy="136.84" r="11.7" />
                                <path class="cls-52" d="M384.48,145.64a19.18,19.18,0,0,1,11.88,18.05"
                                    transform="translate(270.16 -20.28)" />
                                <path class="cls-52" d="M391.92,167.58s-1.17-16.91-12.4-19.7"
                                    transform="translate(270.16 -20.28)" />
                                <path class="cls-52" d="M386.29,152.25s-7.8,4.7-8.62,12.35"
                                    transform="translate(270.16 -20.28)" />
                                <path class="cls-52" d="M383.79,149.88s-7.05,3.6-8.38,10.43"
                                    transform="translate(270.16 -20.28)" />
                                <path class="cls-52" d="M378.51,161.24s6.48,2.29,11.94-.93"
                                    transform="translate(270.16 -20.28)" />
                                <path class="cls-52" d="M378.11,165.1s10.22.68,13.06-2.13"
                                    transform="translate(270.16 -20.28)" />
                                <path class="cls-52" d="M382.62,155.22s.78,4.2,0,6.59"
                                    transform="translate(270.16 -20.28)" />
                                <path class="cls-52" d="M387,153.08s.55,6.73-.66,8.55"
                                    transform="translate(270.16 -20.28)" />
                            </g>
                            <g id="yarn_highlight">
                                <path class="cls-53" d="M383.52,151.44s-5.39,4.35-6.73,8.42"
                                    transform="translate(270.16 -20.28)" />
                                <path class="cls-53" d="M380.16,149.33s-3.14,3.22-3.66,5.52"
                                    transform="translate(270.16 -20.28)" />
                                <path class="cls-53" d="M384,155.4s.88,3.61.13,5.43"
                                    transform="translate(270.16 -20.28)" />
                                <path class="cls-53" d="M381.9,158.25s-1.39,1.35-1.5,2.19"
                                    transform="translate(270.16 -20.28)" />
                                <path class="cls-53" d="M379.26,162.78c0,.27,8,1.42,10.4-1"
                                    transform="translate(270.16 -20.28)" />
                                <path class="cls-53" d="M381.44,166.29c.16,0,6.69.82,8.77-1.12"
                                    transform="translate(270.16 -20.28)" />
                                <path class="cls-53" d="M382.62,147.88s8.53,4,10.74,17"
                                    transform="translate(270.16 -20.28)" />
                                <path class="cls-53" d="M389.66,147s5.72,2,7.47,11.44"
                                    transform="translate(270.16 -20.28)" />
                            </g>
                            <g id="js_book">
                                <path class="cls-54"
                                    d="M414.16,178.16l-39.37.67c-1.25.19,0,8.2,1.24,8l37.57-1.36C416.08,185.67,416.63,178.35,414.16,178.16Z"
                                    transform="translate(270.16 -20.28)" />
                                <polygon class="cls-55"
                                    points="680.69 157.94 680.53 165.31 678.63 165.38 678.42 157.98 680.69 157.94" />
                                <polygon class="cls-55"
                                    points="678.63 165.38 676.8 165.45 676.49 158.01 678.42 157.98 678.63 165.38" />
                                <polygon class="cls-55"
                                    points="652.19 166.25 651.69 158.52 649.78 158.58 649.92 166.38 652.19 166.25" />
                                <polygon class="cls-55"
                                    points="649.78 158.58 647.95 158.65 647.98 166.48 649.92 166.38 649.78 158.58" />
                                <g id="js_text">
                                    <path class="cls-22" d="M387.56,180.76h4s2.43,5.24-3.25,3.29"
                                        transform="translate(270.16 -20.28)" />
                                    <path class="cls-22"
                                        d="M400,181.52s-.36-1.82-1.79-.55c-1.17,1.42,1,1.48,1.15,1.77.67.57-1.12,2.46-2.34.82"
                                        transform="translate(270.16 -20.28)" />
                                </g>
                            </g>
                            <g id="book_cover_1">
                                <path class="cls-56"
                                    d="M407,185.85a18.72,18.72,0,0,1,0,12H374.35c-1.46-1.32-1.5-5.25-.6-10.92C384.24,186.19,395.39,185.86,407,185.85Z"
                                    transform="translate(270.16 -20.28)" />
                                <path class="cls-57" d="M407.62,187.87,376,189.36v6l31.49.57A19,19,0,0,0,407.62,187.87Z"
                                    transform="translate(270.16 -20.28)" />
                                <path class="cls-22" d="M377.16,190.57c6.68-.52,18.5-.72,30.72-.9"
                                    transform="translate(270.16 -20.28)" />
                                <path class="cls-22" d="M376,192.08a88.56,88.56,0,0,1,12.13-.21"
                                    transform="translate(270.16 -20.28)" />
                                <path class="cls-22" d="M389.72,191.87c3.56.07,11,0,18.29,0"
                                    transform="translate(270.16 -20.28)" />
                                <path class="cls-22" d="M391,194a148.3,148.3,0,0,0-15,.61"
                                    transform="translate(270.16 -20.28)" />
                                <path class="cls-22" d="M392.5,193.6a136.42,136.42,0,0,0,15.42,0"
                                    transform="translate(270.16 -20.28)" />
                            </g>
                            <g id="book_cover_1-2" data-name="book_cover_1">
                                <path class="cls-58"
                                    d="M371.73,166.34a18.72,18.72,0,0,0,0,12h32.66c1.46-1.32,1.51-5.24.61-10.91C394.5,166.69,383.36,166.35,371.73,166.34Z"
                                    transform="translate(270.16 -20.28)" />
                                <path class="cls-57"
                                    d="M371.13,168.37l31.58,1.48v6l-31.49.56A18.77,18.77,0,0,1,371.13,168.37Z"
                                    transform="translate(270.16 -20.28)" />
                                <path class="cls-22" d="M401.58,171.06c-6.68-.52-18.49-.72-30.71-.89"
                                    transform="translate(270.16 -20.28)" />
                                <path class="cls-22" d="M402.71,172.58a87.23,87.23,0,0,0-12.13-.22"
                                    transform="translate(270.16 -20.28)" />
                                <path class="cls-22" d="M389,172.36c-3.56.07-11,0-18.28,0"
                                    transform="translate(270.16 -20.28)" />
                                <path class="cls-22" d="M387.72,174.53a142.77,142.77,0,0,1,15,.61"
                                    transform="translate(270.16 -20.28)" />
                                <path class="cls-22" d="M386.25,174.1a139,139,0,0,1-15.43,0"
                                    transform="translate(270.16 -20.28)" />
                            </g>
                        </g>
                        <g id="cloud_small-3" data-name="cloud_small">
                            <path class="cls-9"
                                d="M433.54,263.13a26.43,26.43,0,0,0-6,.69v-.07c0-7.19-6.45-13-14.4-13a15.21,15.21,0,0,0-9.68,3.39C400.33,240.9,387.31,231,371.73,231a35,35,0,0,0-16.65,4.15A35.92,35.92,0,0,0,330,225.24c-18.92,0-34.26,13.85-34.26,30.93a28.08,28.08,0,0,0,1.11,7.81,20.93,20.93,0,0,0-5.87-.85c-10.4,0-18.83,7.61-18.83,17a16.16,16.16,0,0,0,5.66,12.13c-3.54,2.33-5.66,5.26-5.66,8.45,0,7.52,11.73,13.62,26.2,13.62h135.2c14.47,0,26.2-11.46,26.2-25.6S448,263.13,433.54,263.13Z"
                                transform="translate(270.16 -20.28)" />
                            <path class="cls-10"
                                d="M279,290.72c-8.55-13.6,4.63-29.42,24-23.49a.87.87,0,0,0,1.16-.9c-7.66-46.35,47.67-47.25,56.61-8.86a.93.93,0,0,0,1.56.38c1.73-1.93,1.25-6.5-3.43-16.1a2.23,2.23,0,0,1,1.39-3.09c20.62-7.31,38.32,2,41.32,19.12a.93.93,0,0,0,1.46.48c11.41-8.5,21.3-4,23,7.35a.89.89,0,0,0,1.14.68c11.12-2.83,21.26-.93,22.69,1.81l5.19,13a.8.8,0,0,1,0,.53l-8.32,23.05a.91.91,0,0,1-.88.56l-169.07-2.84a.82.82,0,0,1-.85-1L279,291.32A.71.71,0,0,0,279,290.72Z"
                                transform="translate(270.16 -20.28)" />
                            <path class="cls-11"
                                d="M447.13,265.9c2.26,2.21,5.62,8.39,5.48,15.83,0,8.9-8.93,16.11-20,16.11-8,0-14.92-3.82-18.09-9.33-2.32,2.87-7,4.83-12.34,4.83-7.69,0-13.92-4-13.92-8.94,0-.09,0-.17,0-.26,10.13-3.09,9.22-6.85,8.66-9.43a27,27,0,0,1-12.14,6c-7.83,1.79-16.13,1.74-20.76.05-.41-.15-.92.1-.89.43.06.54.64,1,1.09,1.4,3.06,2.66,9.11,4.15,18.14,2.77a4.73,4.73,0,0,1,.74,2.45c0,4.94-8.5,8.94-19,8.94-8.22,0-15.2-2.47-17.84-5.91-.73,4.44-9.85,8-21,8s-20.26-3.51-21-7.94c-2.05,3-6.65,5.07-12,5.07s-11.54-.77-13.64-3.67c-4.07,3.42-4.46,4.37-6,7.73,0,7.92,15.74,14.34,35.16,14.34l1.84,0,.43,0h117.2a9.3,9.3,0,0,0,1.07-.07c.65,0,1.3.07,2,.07,15.91,0,28.81-11.65,28.81-26C459.1,279.26,454.92,270.55,447.13,265.9Z"
                                transform="translate(270.16 -20.28)" />
                            <path class="cls-11"
                                d="M337.66,272.86c9.38,1,16.4-3.1,15.79-7.23a4.08,4.08,0,0,0-.47-1.33.63.63,0,0,0-.89-.13c-2.46,2.5-8.16,4.17-15.07,4.07s-13.22-2-16.41-4.58c-.28-.23-.77-.17-.86.1a3.29,3.29,0,0,0-.1,1.4C320.16,268.69,328.18,271.87,337.66,272.86Z"
                                transform="translate(270.16 -20.28)" />
                            <path class="cls-12"
                                d="M434.37,263.13a26.43,26.43,0,0,0-6,.69v-.07c0-7.19-6.45-13-14.4-13a15.21,15.21,0,0,0-9.68,3.39C401.16,240.9,388.14,231,372.56,231a35,35,0,0,0-16.65,4.15,35.94,35.94,0,0,0-25.09-9.89c-18.92,0-34.26,13.85-34.26,30.93a28.08,28.08,0,0,0,1.11,7.81,20.93,20.93,0,0,0-5.87-.85c-10.4,0-18.83,7.61-18.83,17a16.16,16.16,0,0,0,5.66,12.13c-3.54,2.33-5.66,5.26-5.66,8.45,0,7.52,11.73,13.62,26.2,13.62h135.2c14.47,0,26.2-11.46,26.2-25.6S448.84,263.13,434.37,263.13Z"
                                transform="translate(270.16 -20.28)" />
                        </g>
                        <g id="cloud_large-2" data-name="cloud_large">
                            <path class="cls-9"
                                d="M363.23,303.54c.15-5.8-7.81-10.66-17.78-10.85a31,31,0,0,0-4.57.26,13.4,13.4,0,0,0-7.37-9.21,17.86,17.86,0,0,0-21.34,4.72,15.56,15.56,0,0,0-7.12-7.77,19.59,19.59,0,0,0-11.26-2.34,14.09,14.09,0,0,0-7.09-10.1c-5.25-2.9-12.09-2.57-18.41.31,1-8-2.89-16-11-20.54a28.21,28.21,0,0,0-24.76-.82c.93-6.3-1.1-11.87-6.06-14.62-6.84-3.79-17.05-1-24.74,6.17a16.2,16.2,0,0,0-1.76-2.86c-6.82-8.91-22.08-10.62-34.08-3.8-8.91,5.06-13.51,13.39-12.5,21a23.69,23.69,0,0,0-13.63,3.62c-5.61,3.57-8.63,9-8.63,14.24-6.26-6.66-18.12-7.62-26.9-2-7.55,4.81-10.4,12.89-7.53,19.58a17.09,17.09,0,0,0-2.9-.26c-6.29,0-11.39,3.43-11.39,7.65a5.45,5.45,0,0,0,.34,1.84,11.78,11.78,0,0,0-4.72-1c-5.83,0-10.55,4.06-10.55,9.08s4.72,9.08,10.55,9.08l.44,0v0h271l.42,0c.39,0,.78,0,1.17,0h.06c6.63-.38,11.92-4.76,12.07-10.23,0-.13,0-.25,0-.38A6.83,6.83,0,0,0,363.23,303.54Z"
                                transform="translate(270.16 -20.28)" />
                            <path class="cls-11"
                                d="M363.23,303.54c.15-5.8-7.81-10.66-17.78-10.85a31,31,0,0,0-4.57.26c-.23-1.12-26.63,3.68-56.75,2.4-22.27-1-20.21-27.81-46.21-29.25-58.37-3.21-113.71,30.36-154,30.24-.73,0-4.22.41-5.92.41-5.83,0-10.55,4.06-10.55,9.08s4.72,9.08,10.55,9.08l.44,0v0h271l.42,0c.39,0,.78,0,1.17,0h.06c6.63-.38,11.92-4.76,12.07-10.23,0-.13,0-.25,0-.38A6.83,6.83,0,0,0,363.23,303.54Z"
                                transform="translate(270.16 -20.28)" />
                            <path class="cls-59"
                                d="M81.54,298.31c3.69,7.17,8.23,9.27,15.87,3.95,6.87,1.15,11.21-1.72,13.76-7.4,9,5.77,17.59,5.18,25.79.24,11.67,4.24,21.15,3,28.09-4.56-5.67-2.7-8.75-5.27-8.11-7.64,10.52,4.15,21.24,6.34,37-3-2.33,4.52-6.57,7.95-12.36,11,5.46,4.13,12.82,5.26,21.86-.68,11.37,11.28,22.22,11.89,32.53,1.11-19.21-3.81-23.2-12.74-24.08-22.71,10.39,9.65,18.08,22.32,45.52,12.94-1,4.43-5.69,7.63-14.71,9.4,11.45,6.33,21.49,7,30,1.4,12.82,11.84,25.66,15,38.55,6.87a27.69,27.69,0,0,0,15.9,5.3c16.66-.06,17.63-17.58,0-18.11-5.8.11-10.42,2.62-14.18,6.85-4.6-5.45-10.2-8.83-17.09-9.53-1.85,4.34-6.77,7.27-11.12,9.95-1.92,1.06-2.06-2.83.94-4.31,14.66-7.68-4.31-19.65-20.51-18.37.49-13.93-20-22.44-36.27-17.91-2.58-16.33-12.3-19.57-24.5-10.36,7.57,3.67,11.34,7.94,11.39,12.77,0,2.93-3.1,3.69-4.08,1.2-5.16-13.31-15.39-11.77-27.41-5-2.13,1.15-4.5.14-2.36-1.85,4.35-3.59,8.75-7,13.64-8.05-20.89-7.66-31.11,1.92-38,16.85-20.81.37-26.55,14.25-21.07,25.73-11.93-15.46-27.73-15.83-37.18-5.93-4.15,4.93-2,9.67,2.68,14.35-3.48-2-6.84-3.47-9.83-3.06C84.55,291.09,81.92,295.16,81.54,298.31Z"
                                transform="translate(270.16 -20.28)" />
                            <ellipse class="cls-59" cx="444.63" cy="265.01" rx="20.91" ry="7.49" />
                            <path class="cls-12"
                                d="M363.23,303.54c.15-5.8-7.81-10.66-17.78-10.85a31,31,0,0,0-4.57.26,13.4,13.4,0,0,0-7.37-9.21,17.86,17.86,0,0,0-21.34,4.72,15.56,15.56,0,0,0-7.12-7.77,19.59,19.59,0,0,0-11.26-2.34,14.09,14.09,0,0,0-7.09-10.1c-5.25-2.9-12.09-2.57-18.41.31,1-8-2.89-16-11-20.54a28.21,28.21,0,0,0-24.76-.82c.93-6.3-1.1-11.87-6.06-14.62-6.84-3.79-17.05-1-24.74,6.17a16.2,16.2,0,0,0-1.76-2.86c-6.82-8.91-22.08-10.62-34.08-3.8-8.91,5.06-13.51,13.39-12.5,21a23.69,23.69,0,0,0-13.63,3.62c-5.61,3.57-8.63,9-8.63,14.24-6.26-6.66-18.12-7.62-26.9-2-7.55,4.81-10.4,12.89-7.53,19.58a17.09,17.09,0,0,0-2.9-.26c-6.29,0-11.39,3.43-11.39,7.65a5.45,5.45,0,0,0,.34,1.84,11.78,11.78,0,0,0-4.72-1c-5.83,0-10.55,4.06-10.55,9.08s4.72,9.08,10.55,9.08l.44,0v0h271l.42,0c.39,0,.78,0,1.17,0h.06c6.63-.38,11.92-4.76,12.07-10.23,0-.13,0-.25,0-.38A6.83,6.83,0,0,0,363.23,303.54Z"
                                transform="translate(270.16 -20.28)" />
                            <path class="cls-60"
                                d="M190,280.92c-1.57,8.79-10.18,16.27-22.73,16.27s-22.73-7.28-22.73-16.27,11.39-9.83,22.73-16.27C183.79,255.28,192.86,265.22,190,280.92Z"
                                transform="translate(270.16 -20.28)" />
                            <g id="html_book">
                                <path class="cls-61"
                                    d="M168.67,248s5.44,6.43,1.41,10.42l-2.45.18-2,.14c-9.53.65-26,1.71-26,1.71s-4.93-6.5-1.06-10.72l3.19-.18,23.45-1.35,1.7-.1Z"
                                    transform="translate(270.16 -20.28)" />
                                <path class="cls-62"
                                    d="M140.81,260.34a19.67,19.67,0,0,1-.41-10.74l1.38-.08a19.63,19.63,0,0,0,.44,10.73Z"
                                    transform="translate(270.16 -20.28)" />
                                <path class="cls-62"
                                    d="M165.67,258.71a13.26,13.26,0,0,0-.44-10.54l1.7-.1a16.74,16.74,0,0,1,.7,10.5Z"
                                    transform="translate(270.16 -20.28)" />
                                <g id="html_text">
                                    <polyline class="cls-63" points="435.36 231.17 433 231.28 430.65 231.38" />
                                    <polyline class="cls-22" points="433 231.28 432.92 234.21 435.38 234.1" />
                                    <line class="cls-62" x1="432.92" y1="234.21" x2="430.57" y2="234.17" />
                                    <polyline class="cls-63" points="428.12 230.75 428.11 232.66 428.09 234.26" />
                                    <line class="cls-63" x1="428.11" y1="232.66" x2="424.74" y2="232.89" />
                                    <polyline class="cls-22"
                                        points="418.36 231.57 422.47 230.95 420.71 232.72 422.42 234.25 418.84 234.99" />
                                    <polyline class="cls-22" points="415.65 231.67 412.83 232.16 413.36 235.5" />
                                </g>
                            </g>
                            <g id="css_book">
                                <path class="cls-64"
                                    d="M178.49,258l-38.62,2c-1.21.23.29,8.05,1.51,7.82l36.82-2.65C180.64,265.26,180.92,258.05,178.49,258Z"
                                    transform="translate(270.16 -20.28)" />
                                <polygon class="cls-65"
                                    points="445.09 237.86 445.19 245.1 443.33 245.24 442.87 237.98 445.09 237.86" />
                                <polygon class="cls-65"
                                    points="443.33 245.24 441.54 245.37 440.97 238.08 442.87 237.98 443.33 245.24" />
                                <polygon class="cls-65"
                                    points="417.42 247.02 416.65 239.45 414.78 239.57 415.19 247.22 417.42 247.02" />
                                <polygon class="cls-65"
                                    points="414.78 239.57 412.99 239.7 413.29 247.38 415.19 247.22 414.78 239.57" />
                                <g id="css_text">
                                    <path class="cls-22" d="M152.84,261s-2.29.8-1.63,2.94,3.34,0,3.34,0"
                                        transform="translate(270.16 -20.28)" />
                                    <path class="cls-22"
                                        d="M158.85,261.1s-2.37-1.16-2,.74c.2.93,1.82.35,2.08,1.43,0,0,.51,2-2.22.74"
                                        transform="translate(270.16 -20.28)" />
                                    <path class="cls-22"
                                        d="M164.12,261s-2.37-1.15-2,.75c.19.93,1.81.35,2.08,1.42,0,0,.51,2-2.22.75"
                                        transform="translate(270.16 -20.28)" />
                                </g>
                            </g>
                            <g id="book_filler1">
                                <path class="cls-66"
                                    d="M137.73,267.81c12.69-.81,25.89-1,39.5-.77l-.76,1.6,1.08.83-1.28,2.36,1,1.78-.7,1.09.57,1.59-.57,1.66,1,1.6-1.15,1.78c-11.53.57-24.65.8-38.67.83l.77-1.91-1.09-1.47,1-1.47-1-2.29,1.28-.42-1.28-2.39,1.09-1.34-1.09-1.47Z"
                                    transform="translate(270.16 -20.28)" />
                                <path class="cls-57" d="M138.5,270.87c12-1.06,25.15-1.47,39.05-1.4"
                                    transform="translate(270.16 -20.28)" />
                                <line class="cls-57" x1="407.91" y1="252.55" x2="416.25" y2="252.55" />
                                <path class="cls-57" d="M151.52,272.84c7.38-.41,15.77-.73,24.75-1"
                                    transform="translate(270.16 -20.28)" />
                                <path class="cls-57" d="M137.41,275c10.37-.13,21.3-.31,25.78,0"
                                    transform="translate(270.16 -20.28)" />
                                <path class="cls-57" d="M168.11,274.19a85.59,85.59,0,0,0,9.12-.58"
                                    transform="translate(270.16 -20.28)" />
                                <path class="cls-57" d="M177.1,276.29c-15.25.83-29.73,1.56-39.07,1.6"
                                    transform="translate(270.16 -20.28)" />
                                <path class="cls-57" d="M138.5,280.25c9.76-.48,21.19-.84,33.44-1.15"
                                    transform="translate(270.16 -20.28)" />
                            </g>
                            <g id="book_filler2">
                                <path class="cls-66"
                                    d="M145.26,282.23c13-.55,25.57-.77,37.71-.58l.83,1.41-.89,1.27.89,1.54-.57,1.65,1.28,1.15L183,290.14l.83,1.28c-13.27,0-26.35.09-39.18.38l.9-1.4-1.41-1.92,1.15-1.15-.76-1.46,1-.52-.77-1.4.7-.89Z"
                                    transform="translate(270.16 -20.28)" />
                                <path class="cls-57" d="M145.52,285.35c11.77-.78,24.27-1,37.39-1"
                                    transform="translate(270.16 -20.28)" />
                                <path class="cls-57" d="M145.26,287.33c3.76-.24,7.27-.41,9.77-.32"
                                    transform="translate(270.16 -20.28)" />
                                <path class="cls-57" d="M165,286.73c5.38-.05,11.75,0,18.59,0"
                                    transform="translate(270.16 -20.28)" />
                                <path class="cls-57" d="M144.83,289.46c9.17-.45,17.89-.72,26-.72"
                                    transform="translate(270.16 -20.28)" />
                                <line class="cls-57" x1="444.49" y1="268.81" x2="454.22" y2="268.81" />
                            </g>
                            <g id="book_filler2-2" data-name="book_filler2">
                                <path class="cls-66"
                                    d="M142,292.44c13-.55,25.57-.76,37.71-.57l.83,1.4-.89,1.28.89,1.53-.57,1.66,1.27,1.15-1.53,1.46.83,1.28c-13.27,0-26.36.09-39.18.38l.9-1.4-1.41-1.91,1.15-1.15-.77-1.47,1-.51-.77-1.41.7-.89Z"
                                    transform="translate(270.16 -20.28)" />
                                <path class="cls-57" d="M142.3,295.57c11.76-.78,24.27-1,37.39-1"
                                    transform="translate(270.16 -20.28)" />
                                <path class="cls-57" d="M142,297.55c3.76-.25,7.27-.42,9.76-.32"
                                    transform="translate(270.16 -20.28)" />
                                <path class="cls-57" d="M161.82,296.94c5.38-.05,11.75,0,18.59,0"
                                    transform="translate(270.16 -20.28)" />
                                <path class="cls-57" d="M141.61,299.67c9.16-.45,17.89-.72,25.95-.72"
                                    transform="translate(270.16 -20.28)" />
                                <line class="cls-57" x1="441.27" y1="279.03" x2="451" y2="279.03" />
                            </g>
                            <path class="cls-59"
                                d="M205.64,288.22c-1.47-3.46-9.87-3.19-18.77.59a40.14,40.14,0,0,0-8,4.49,10.46,10.46,0,0,0-5.45-1.5,10.79,10.79,0,0,0-2.14.22,8.66,8.66,0,0,0-6-2.25,8.51,8.51,0,0,0-6.32,2.54,25.89,25.89,0,0,0-5.6-1.82c-6.86-1.39-13.2.06-15.83,3.29a10.13,10.13,0,0,0-2.3-.27c-4.22,0-7.65,2.6-7.65,5.8s3.43,5.8,7.65,5.8A9.19,9.19,0,0,0,140,303.8a22.86,22.86,0,0,0,9.7,4.33c6.9,1.4,13.26-.08,15.87-3.34a9.94,9.94,0,0,0,7.82,3.6,9.77,9.77,0,0,0,8.25-4.2,37.43,37.43,0,0,0,10.52-2.88C201.08,297.53,207.11,291.67,205.64,288.22Z"
                                transform="translate(270.16 -20.28)" />
                        </g>
                    </g>
                    <g id="front_cloud_right">
                        <path class="cls-9"
                            d="M578.91,344.51c-.15-6.73,7.81-12.37,17.78-12.59a26.08,26.08,0,0,1,4.56.3,15.38,15.38,0,0,1,7.37-10.69c7.17-4.14,16.44-1.66,21.34,5.48a17.63,17.63,0,0,1,18.39-11.74c.77-5,3.15-9.2,7.09-11.73,5.24-3.37,12.08-3,18.41.36a24.43,24.43,0,0,1,35.77-24.81c-.93-7.3,1.1-13.78,6.06-17,6.84-4.4,17-1.16,24.74,7.17a19.63,19.63,0,0,1,1.75-3.33c6.83-10.35,22.09-12.32,34.09-4.41,8.91,5.87,13.51,15.55,12.5,24.37a21.2,21.2,0,0,1,13.62,4.21A20.76,20.76,0,0,1,811,306.66c6.25-7.73,18.12-8.84,26.9-2.35,7.54,5.58,10.39,15,7.53,22.74a14.38,14.38,0,0,1,2.89-.3c6.3,0,11.4,4,11.4,8.88a6.89,6.89,0,0,1-.35,2.13,10.54,10.54,0,1,1,4.73,20l-.44,0v0h-271l-.42,0c-.4,0-.79,0-1.17,0h-.06c-6.63-.43-11.93-5.53-12.07-11.87,0-.15,0-.3,0-.45S578.92,344.81,578.91,344.51Z"
                            transform="translate(270.16 -20.28)" />
                        <path class="cls-11"
                            d="M578.91,344.51c-.15-6.73,7.81-12.37,17.78-12.59a26.08,26.08,0,0,1,4.56.3c.24-1.29,26.64,4.28,56.75,2.79,22.28-1.1,20.21-32.3,46.22-34,58.37-3.74,113.7,35.25,154,35.11.74,0,4.23.47,5.93.47a10.55,10.55,0,0,1,0,21.09l-.44,0v0h-271l-.42,0c-.4,0-.79,0-1.17,0h-.06c-6.63-.43-11.93-5.53-12.07-11.87,0-.15,0-.3,0-.45S578.92,344.81,578.91,344.51Z"
                            transform="translate(270.16 -20.28)" />
                        <path class="cls-59"
                            d="M860.59,338.45c-3.68,8.32-8.23,10.76-15.87,4.58-6.87,1.33-11.2-2-13.76-8.59-9,6.7-17.58,6-25.79.28-11.66,4.93-21.15,3.53-28.09-5.3,5.68-3.13,8.76-6.11,8.12-8.87-10.53,4.82-21.24,7.36-37-3.49,2.34,5.24,6.58,9.23,12.36,12.72-5.45,4.8-12.81,6.11-21.85-.79-11.37,13.11-22.23,13.81-32.53,1.29,19.2-4.43,23.19-14.79,24.08-26.37-10.4,11.21-18.08,25.92-45.52,15,1,5.14,5.69,8.86,14.71,10.91-11.46,7.35-21.49,8.12-29.95,1.63-12.82,13.75-25.67,17.39-38.55,8A25.31,25.31,0,0,1,615,345.61c-16.66-.07-17.62-20.41,0-21,5.81.13,10.42,3.05,14.19,8,4.6-6.33,10.19-10.26,17.09-11.07,1.85,5,6.77,8.44,11.12,11.55,1.92,1.24,2.06-3.28-.94-5-14.66-8.92,4.31-22.81,20.5-21.33-.48-16.18,20-26.06,36.27-20.8,2.58-19,12.31-22.73,24.51-12-7.58,4.27-11.34,9.22-11.39,14.83,0,3.4,3.1,4.28,4.08,1.39,5.16-15.45,15.39-13.66,27.41-5.8,2.13,1.33,4.49.16,2.36-2.15-4.36-4.17-8.76-8.11-13.65-9.35,20.89-8.9,31.12,2.23,38.05,19.56,20.8.43,26.54,16.55,21.06,29.88,11.93-18,27.73-18.38,37.19-6.88,4.15,5.72,1.95,11.23-2.69,16.66,3.48-2.35,6.85-4,9.84-3.55C857.58,330.07,860.22,334.79,860.59,338.45Z"
                            transform="translate(270.16 -20.28)" />
                        <path class="cls-12"
                            d="M578.91,344.51c-.15-6.73,7.81-12.37,17.78-12.59a26.08,26.08,0,0,1,4.56.3,15.38,15.38,0,0,1,7.37-10.69c7.17-4.14,16.44-1.66,21.34,5.48a17.63,17.63,0,0,1,18.39-11.74c.77-5,3.15-9.2,7.09-11.73,5.24-3.37,12.08-3,18.41.36a24.43,24.43,0,0,1,35.77-24.81c-.93-7.3,1.1-13.78,6.06-17,6.84-4.4,17-1.16,24.74,7.17a19.63,19.63,0,0,1,1.75-3.33c6.83-10.35,22.09-12.32,34.09-4.41,8.91,5.87,13.51,15.55,12.5,24.37a21.2,21.2,0,0,1,13.62,4.21A20.76,20.76,0,0,1,811,306.66c6.25-7.73,18.12-8.84,26.9-2.35,7.54,5.58,10.39,15,7.53,22.74a14.38,14.38,0,0,1,2.89-.3c6.3,0,11.4,4,11.4,8.88a6.89,6.89,0,0,1-.35,2.13,10.54,10.54,0,1,1,4.73,20l-.44,0v0h-271l-.42,0c-.4,0-.79,0-1.17,0h-.06c-6.63-.43-11.93-5.53-12.07-11.87,0-.15,0-.3,0-.45S578.92,344.81,578.91,344.51Z"
                            transform="translate(270.16 -20.28)" />
                    </g>
                    <g id="front_cloud_small">
                        <path class="cls-9"
                            d="M-38.5,344.76a33.45,33.45,0,0,0-7.54.86v-.09c0-9-8.09-16.31-18.07-16.31a19.12,19.12,0,0,0-12.14,4.25c-3.91-16.59-20.24-29-39.79-29a43.88,43.88,0,0,0-20.88,5.2,45.08,45.08,0,0,0-31.48-12.4c-23.73,0-43,17.37-43,38.79a35.44,35.44,0,0,0,1.38,9.81,25.78,25.78,0,0,0-7.36-1.07c-13,0-23.62,9.55-23.62,21.32a20.27,20.27,0,0,0,7.1,15.22c-4.44,2.92-7.1,6.59-7.1,10.6,0,9.43,14.72,17.08,32.87,17.08H-38.5c18.16,0,32.87-14.37,32.87-32.11S-20.34,344.76-38.5,344.76Z"
                            transform="translate(270.16 -20.28)" />
                        <path class="cls-10"
                            d="M-232.41,379.36c-10.73-17.06,5.8-36.9,30.14-29.46a1.1,1.1,0,0,0,1.46-1.13c-9.6-58.14,59.8-59.27,71-11.11a1.17,1.17,0,0,0,2,.48c2.17-2.42,1.57-8.15-4.3-20.21a2.78,2.78,0,0,1,1.75-3.86c25.87-9.18,48.06,2.47,51.83,24a1.15,1.15,0,0,0,1.82.61C-62.42,328-50,333.56-47.9,347.87a1.14,1.14,0,0,0,1.44.86c14-3.55,26.66-1.18,28.47,2.26l6.5,16.33a1,1,0,0,1,0,.66L-21.92,396.9a1.12,1.12,0,0,1-1.09.71l-212.09-3.56a1,1,0,0,1-1.07-1.29l3.87-12.63A1,1,0,0,0-232.41,379.36Z"
                            transform="translate(270.16 -20.28)" />
                        <path class="cls-11"
                            d="M-21.45,348.23c2.84,2.78,7,10.53,6.88,19.86,0,11.16-11.21,20.21-25,20.21-10.06,0-18.72-4.8-22.7-11.7-2.9,3.59-8.74,6-15.48,6-9.64,0-17.45-5-17.45-11.22,0-.1,0-.21,0-.31,12.71-3.89,11.57-8.6,10.86-11.83a33.93,33.93,0,0,1-15.22,7.52c-9.82,2.25-20.24,2.18-26,.06-.51-.19-1.15.12-1.11.54.07.68.79,1.27,1.36,1.75,3.84,3.34,11.43,5.22,22.76,3.48a5.94,5.94,0,0,1,.93,3.07c0,6.2-10.66,11.22-23.81,11.22-10.32,0-19.07-3.1-22.38-7.42-.91,5.58-12.36,10-26.38,10s-25.42-4.4-26.37-10c-2.57,3.75-8.35,6.36-15.08,6.36s-14.48-1-17.11-4.6c-5.11,4.29-5.6,5.49-7.52,9.7,0,9.93,19.74,18,44.1,18l2.31,0,.54,0h147A11.9,11.9,0,0,0-45,408.9c.81.05,1.63.08,2.45.08,20,0,36.14-14.6,36.14-32.62C-6.44,365-11.68,354.07-21.45,348.23Z"
                            transform="translate(270.16 -20.28)" />
                        <path class="cls-11"
                            d="M-158.77,357c11.77,1.22,20.57-3.9,19.81-9.07a4.87,4.87,0,0,0-.6-1.67.78.78,0,0,0-1.11-.17c-3.08,3.14-10.23,5.23-18.9,5.11s-16.59-2.47-20.58-5.75c-.36-.29-1-.22-1.08.13a4.13,4.13,0,0,0-.13,1.75C-180.72,351.74-170.67,355.73-158.77,357Z"
                            transform="translate(270.16 -20.28)" />
                        <path class="cls-12"
                            d="M-37.45,344.76a33.47,33.47,0,0,0-7.55.86v-.09c0-9-8.09-16.31-18.06-16.31a19.1,19.1,0,0,0-12.14,4.25c-3.92-16.59-20.25-29-39.8-29a43.88,43.88,0,0,0-20.88,5.2,45.08,45.08,0,0,0-31.48-12.4c-23.73,0-43,17.37-43,38.79a35.44,35.44,0,0,0,1.38,9.81,25.73,25.73,0,0,0-7.36-1.07c-13,0-23.62,9.55-23.62,21.32a20.27,20.27,0,0,0,7.1,15.22c-4.44,2.92-7.1,6.59-7.1,10.6,0,9.43,14.72,17.08,32.87,17.08h169.6c18.15,0,32.86-14.37,32.86-32.11S-19.3,344.76-37.45,344.76Z"
                            transform="translate(270.16 -20.28)" />
                    </g>
                </g>
            </g>
        </g>
    </g>
</svg>