<svg xmlns="http://www.w3.org/2000/svg" xmlns:xlink="http://www.w3.org/1999/xlink" viewBox="-114.5 27.33 658.62 301.45">
    <defs>
        <style>
            .cls-1,
            .cls-12,
            .cls-17,
            .cls-18,
            .cls-19,
            .cls-22,
            .cls-24,
            .cls-25,
            .cls-26,
            .cls-27,
            .cls-28,
            .cls-41,
            .cls-44,
            .cls-47,
            .cls-53,
            .cls-6 {
                fill: none;
            }

            .cls-2 {
                clip-path: url(#clip-path);
            }

            .cls-3 {
                fill: #fffcf3;
            }

            .cls-3,
            .cls-6,
            .cls-7 {
                stroke: #3d3d3d;
            }

            .cls-11,
            .cls-12,
            .cls-13,
            .cls-14,
            .cls-15,
            .cls-17,
            .cls-18,
            .cls-19,
            .cls-21,
            .cls-22,
            .cls-24,
            .cls-25,
            .cls-26,
            .cls-27,
            .cls-28,
            .cls-3,
            .cls-38,
            .cls-39,
            .cls-4,
            .cls-40,
            .cls-41,
            .cls-42,
            .cls-43,
            .cls-44,
            .cls-45,
            .cls-5,
            .cls-50,
            .cls-51,
            .cls-52,
            .cls-53,
            .cls-54,
            .cls-55,
            .cls-56,
            .cls-57,
            .cls-58,
            .cls-59,
            .cls-6,
            .cls-61,
            .cls-63,
            .cls-64,
            .cls-65,
            .cls-66,
            .cls-67,
            .cls-7,
            .cls-9 {
                stroke-linecap: round;
            }

            .cls-11,
            .cls-12,
            .cls-13,
            .cls-14,
            .cls-15,
            .cls-18,
            .cls-19,
            .cls-21,
            .cls-22,
            .cls-25,
            .cls-26,
            .cls-27,
            .cls-28,
            .cls-3,
            .cls-32,
            .cls-33,
            .cls-34,
            .cls-35,
            .cls-36,
            .cls-37,
            .cls-38,
            .cls-39,
            .cls-4,
            .cls-40,
            .cls-41,
            .cls-42,
            .cls-43,
            .cls-44,
            .cls-45,
            .cls-5,
            .cls-50,
            .cls-51,
            .cls-52,
            .cls-53,
            .cls-54,
            .cls-55,
            .cls-56,
            .cls-57,
            .cls-58,
            .cls-59,
            .cls-6,
            .cls-61,
            .cls-63,
            .cls-64,
            .cls-65,
            .cls-66,
            .cls-67,
            .cls-7,
            .cls-9 {
                stroke-linejoin: round;
            }

            .cls-12,
            .cls-13,
            .cls-14,
            .cls-15,
            .cls-17,
            .cls-19,
            .cls-20,
            .cls-21,
            .cls-27,
            .cls-3,
            .cls-33,
            .cls-34,
            .cls-35,
            .cls-36,
            .cls-37,
            .cls-38,
            .cls-39,
            .cls-40,
            .cls-44,
            .cls-45,
            .cls-52,
            .cls-6,
            .cls-66,
            .cls-7,
            .cls-9 {
                stroke-width: 2px;
            }

            .cls-4 {
                fill: #efa081;
                stroke: #efa081;
            }

            .cls-5,
            .cls-8 {
                fill: #f2cba5;
            }

            .cls-5 {
                stroke: #f2cba5;
            }

            .cls-67,
            .cls-7,
            .cls-9 {
                fill: #fff2e9;
            }

            .cls-12,
            .cls-13,
            .cls-14,
            .cls-15,
            .cls-17,
            .cls-20,
            .cls-21,
            .cls-22,
            .cls-23,
            .cls-24,
            .cls-30,
            .cls-31,
            .cls-32,
            .cls-33,
            .cls-34,
            .cls-35,
            .cls-36,
            .cls-37,
            .cls-38,
            .cls-39,
            .cls-40,
            .cls-42,
            .cls-43,
            .cls-45,
            .cls-47,
            .cls-50,
            .cls-51,
            .cls-52,
            .cls-54,
            .cls-55,
            .cls-56,
            .cls-57,
            .cls-58,
            .cls-61,
            .cls-62,
            .cls-63,
            .cls-64,
            .cls-65,
            .cls-66,
            .cls-9 {
                stroke: #000;
            }

            .cls-10,
            .cls-59 {
                fill: #ffba6e;
            }

            .cls-11,
            .cls-60 {
                fill: #ef7443;
            }

            .cls-11 {
                stroke: #ef7443;
            }

            .cls-13 {
                fill: #f0ff64;
            }

            .cls-14 {
                fill: #fdb3ff;
            }

            .cls-15 {
                fill: #93dfff;
            }

            .cls-16,
            .cls-32 {
                fill: #fff;
            }

            .cls-17,
            .cls-20,
            .cls-23,
            .cls-24,
            .cls-30,
            .cls-31,
            .cls-47,
            .cls-62 {
                stroke-miterlimit: 10;
            }

            .cls-18,
            .cls-19,
            .cls-25,
            .cls-26,
            .cls-27,
            .cls-28,
            .cls-41,
            .cls-44,
            .cls-53 {
                stroke: #fff;
            }

            .cls-18 {
                stroke-width: 3px;
            }

            .cls-19 {
                opacity: 0.8;
            }

            .cls-20 {
                fill: #c1c1c1;
            }

            .cls-21 {
                fill: #b3ffff;
            }

            .cls-23 {
                fill: #feb75d;
            }

            .cls-25,
            .cls-67 {
                stroke-width: 0.5px;
            }

            .cls-28,
            .cls-47 {
                stroke-width: 0.75px;
            }

            .cls-29 {
                fill: #ff6d00;
            }

            .cls-30 {
                fill: #af8857;
            }

            .cls-31 {
                fill: #ffb75d;
            }

            .cls-33 {
                fill: #f4e190;
            }

            .cls-34,
            .cls-64 {
                fill: #e96bf7;
            }

            .cls-35 {
                fill: #a1f8ff;
            }

            .cls-36 {
                fill: #b1ffa9;
            }

            .cls-37 {
                fill: #ffc6a6;
            }

            .cls-38,
            .cls-42 {
                fill: #fffbb6;
            }

            .cls-39 {
                fill: #969696;
            }

            .cls-40 {
                fill: #ffad3f;
            }

            .cls-41 {
                stroke-width: 4px;
            }

            .cls-43 {
                fill: #ea8c3f;
            }

            .cls-44 {
                opacity: 0.5;
            }

            .cls-45 {
                fill: #727272;
            }

            .cls-46 {
                font-size: 3.29px;
                font-family: Impact;
            }

            .cls-48 {
                fill: red;
            }

            .cls-49 {
                opacity: 0.21;
            }

            .cls-50,
            .cls-52 {
                fill: #e27e2b;
            }

            .cls-51 {
                fill: #16c9d6;
            }

            .cls-53 {
                opacity: 0.49;
            }

            .cls-54 {
                fill: #ffb666;
            }

            .cls-55 {
                fill: #f7d33c;
            }

            .cls-56 {
                fill: #ff64ff;
            }

            .cls-57,
            .cls-66 {
                fill: #fff6cf;
            }

            .cls-58 {
                fill: #66a1ff;
            }

            .cls-59 {
                stroke: #ffba6e;
            }

            .cls-61 {
                fill: #99ff94;
            }

            .cls-62,
            .cls-63 {
                fill: #128c00;
            }

            .cls-65 {
                fill: #bc5900;
            }

            .cls-67 {
                stroke: #fff2e9;
            }

            /* ------------------------------------------------------------ */
            /* ------------------------ ANIMATIONS ------------------------ */
            /* ------------------------------------------------------------ */

            /* Clouds */
            #bg_cloud_grp {
                opacity: 0;
                animation: cloud_fast 20s infinite linear;
            }
            #bg_cloudRight {
                opacity: 0;
                animation: cloud_fast 25s infinite linear;
            }
            #bg_cloud_leftLarge {
                opacity: 0;
                animation: cloud_medium 26s infinite linear;
            }
            #front_cloud_right {
                opacity: 0;
                animation: cloud_slow2 18s infinite linear;
            }
            #front_cloud_small {
                opacity: 0;
                animation: cloud_slow 20s infinite linear;
            }

            /* Desk */
            #desk_withClouds {
                animation: desk_move 15s infinite ease-in-out;
            }
            /* Desk Clouds */
            #cloud_small-2 {
                animation: cloud_small 9s ease-in-out infinite;
            }
            #cloud_small-3 {
                animation: cloud_small_2 15s ease-in-out infinite;
            }
            #cloud_large-2 {
                animation: cloud_small_3 11s ease-in-out infinite;
            }

            /* Clouds */
            @keyframes cloud_fast {
                28% {opacity: 0;}
                31% {opacity: 1;}
                67% {opacity: 1;}
                70% {opacity: 0;}
                100% {
                    opacity: 0;
                    transform: translateX(-1000px);
                }
            }
            @keyframes cloud_medium {
                38% {opacity: 0;}
                41% {opacity: 1;}
                10% {transform: translateX(0px);}
                67% {opacity: 1;}
                70% {opacity: 0;}
                100% {
                    transform: translateX(-1000px);
                    opacity: 0;
                }
            }
            @keyframes cloud_slow {
                40% {opacity: 0;}
                42% {opacity: 1;}
                72% {opacity: 1;}
                75% {opacity: 0;}
                10% {transform: translateX(0px);}
                100% {
                    transform: translateX(-1000px);
                    opacity: 0;
                }
            }
            @keyframes cloud_slow2 {
                40% {opacity: 0;}
                42% {opacity: 1;}
                68% {opacity: 1;}
                70% {opacity: 0;}
                10% {transform: translateX(0px);}
                100% {
                    transform: translateX(-1000px);
                    opacity: 0;
                }
            }

            @keyframes cloud_small {
                50% {transform: translate(-10px, 20px); }
            }
            @keyframes cloud_small_2 {
                30% {transform: translate(15px, 20px); }
                70% {transform: translate(-5px, 10px); }
            }
            @keyframes cloud_small_3 {
                30% {transform: translate(-10px, 20px); }
                70% {transform: translate(-5px, 10px); }
            }

            @keyframes desk_move {
                30% { transform: translate(30px, 10px); }
                70% { transform: translate(-20px, -20px); }
            }

        </style>
        <clipPath id="clip-path" transform="translate(-114.5 -4.93)">
            <rect class="cls-1" width="658.62" height="301.45" />
        </clipPath>
    </defs>
    <g id="Layer_2" data-name="Layer 2">
        <g id="NEW_desk">
            <g class="cls-2">
                <g id="bg_cloudRight">
                    <path class="cls-3"
                        d="M805.37,86c-.06-2.79,3.24-5.12,7.37-5.22a11.69,11.69,0,0,1,1.89.13,6.36,6.36,0,0,1,3-4.43,6.74,6.74,0,0,1,8.84,2.27,7.3,7.3,0,0,1,7.61-4.86,6.85,6.85,0,0,1,2.94-4.86c2.17-1.4,5-1.24,7.62.15a10.12,10.12,0,0,1,14.82-10.28c-.39-3,.45-5.7,2.51-7,2.83-1.83,7.06-.49,10.25,3a7.81,7.81,0,0,1,.72-1.37c2.83-4.29,9.15-5.11,14.12-1.83a10.93,10.93,0,0,1,5.17,10.09,8.82,8.82,0,0,1,5.65,1.74,8.65,8.65,0,0,1,3.58,6.85c2.59-3.2,7.5-3.66,11.14-1a8.33,8.33,0,0,1,3.12,9.42,5.78,5.78,0,0,1,1.19-.13c2.61,0,4.72,1.65,4.72,3.68a2.84,2.84,0,0,1-.14.88,4.42,4.42,0,0,1,2-.46,4.37,4.37,0,0,1,0,8.73H810.91a4,4,0,0,1-.49,0h0a5.2,5.2,0,0,1-5-4.92c0-.06,0-.12,0-.18S805.38,86.16,805.37,86Z"
                        transform="translate(-114.5 -4.93)" />
                    <path class="cls-4"
                        d="M805.37,86c-.06-2.79,3.24-5.12,7.37-5.22a11.69,11.69,0,0,1,1.89.13c.09-.54,11,1.77,23.5,1.15,9.23-.45,8.37-13.37,19.14-14.06,24.18-1.55,46.9,14.85,63.57,14.79.31,0,1.95,0,2.66,0a4.37,4.37,0,0,1,0,8.73H810.91a4,4,0,0,1-.49,0h0a5.2,5.2,0,0,1-5-4.92c0-.06,0-.12,0-.18S805.38,86.16,805.37,86Z"
                        transform="translate(-114.5 -4.93)" />
                    <path class="cls-5"
                        d="M922,83.53c-1.53,3.45-3.41,4.45-6.58,1.9-2.84.55-4.64-.83-5.69-3.56-3.75,2.78-7.29,2.49-10.69.12-4.83,2-8.76,1.46-11.63-2.2,2.35-1.3,3.63-2.53,3.36-3.67-4.36,2-8.8,3-15.33-1.45a12,12,0,0,0,5.12,5.27c-2.26,2-5.31,2.53-9.06-.33-4.71,5.43-9.2,5.72-13.47.54,8-1.84,9.61-6.13,10-10.93-4.3,4.65-7.48,10.74-18.85,6.23.42,2.13,2.36,3.67,6.09,4.52-4.74,3-8.9,3.36-12.4.67-5.31,5.7-10.63,7.21-16,3.3a10.42,10.42,0,0,1-6.58,2.56c-6.9,0-7.3-8.46,0-8.71a7.46,7.46,0,0,1,5.87,3.29c1.91-2.62,4.22-4.25,7.08-4.58.76,2.09,1.84,2.8,3.65,4.09.93.81,1.82-.23.93-1-5.25-4.15-1-11.8,8.13-9.25-.2-6.69,8.3-10.79,15-8.61,1.07-7.85,5.1-9.41,10.15-5-3.14,1.76-4.7,3.82-4.72,6.14,0,1.41,1.29,1.77,1.69.58,2.14-6.4,6.37-5.66,11.35-2.41.89.55,1.86.07,1-.89-1.8-1.72-3.63-3.36-5.65-3.87,8.65-3.68,12.89.93,15.76,8.1,8.61.18,11,6.86,8.72,12.38,4.94-7.44,11.09-7.64,15-2.88,1.72,2.37.79,4.42-.72,6.93,1.44-1,3-1.77,4.23-1.57C921,80,921.88,82,922,83.53Z"
                        transform="translate(-114.5 -4.93)" />
                    <path class="cls-6"
                        d="M805.37,86c-.06-2.79,3.24-5.12,7.37-5.22a11.69,11.69,0,0,1,1.89.13,6.36,6.36,0,0,1,3-4.43,6.74,6.74,0,0,1,8.84,2.27,7.3,7.3,0,0,1,7.61-4.86,6.85,6.85,0,0,1,2.94-4.86c2.17-1.4,5-1.24,7.62.15a10.12,10.12,0,0,1,14.82-10.28c-.39-3,.45-5.7,2.51-7,2.83-1.83,7.06-.49,10.25,3a7.81,7.81,0,0,1,.72-1.37c2.83-4.29,9.15-5.11,14.12-1.83a10.93,10.93,0,0,1,5.17,10.09,8.82,8.82,0,0,1,5.65,1.74,8.65,8.65,0,0,1,3.58,6.85c2.59-3.2,7.5-3.66,11.14-1a8.33,8.33,0,0,1,3.12,9.42,5.78,5.78,0,0,1,1.19-.13c2.61,0,4.72,1.65,4.72,3.68a2.84,2.84,0,0,1-.14.88,4.42,4.42,0,0,1,2-.46,4.37,4.37,0,0,1,0,8.73H810.91a4,4,0,0,1-.49,0h0a5.2,5.2,0,0,1-5-4.92c0-.06,0-.12,0-.18S805.38,86.16,805.37,86Z"
                        transform="translate(-114.5 -4.93)" />
                </g>
                <g id="bg_cloud_grp">
                    <g id="cloud_small">
                        <path class="cls-7"
                            d="M845.81,30.34a12.92,12.92,0,0,1,3.25.41v0a7.78,7.78,0,0,1,13-5.76,17.54,17.54,0,0,1,26.16-11.39,18.53,18.53,0,0,1,31.51,17.29,10.18,10.18,0,0,1,10.3,16.95c1.92,1.39,3.06,3.15,3.06,5.06,0,4.51-6.34,8.16-14.17,8.16H845.81c-7.83,0-14.18-6.87-14.18-15.34S838,30.34,845.81,30.34Z"
                            transform="translate(-114.5 40.93)" />
                        <path class="cls-8"
                            d="M929.44,46.87c4.62-8.15-2.51-17.63-13-14.08a.48.48,0,0,1-.63-.54C920,4.48,890,3.94,885.18,27a.49.49,0,0,1-.84.23c-.94-1.16-.68-3.9,1.85-9.66a1.37,1.37,0,0,0-.75-1.84c-11.16-4.39-20.73,1.18-22.35,11.45a.48.48,0,0,1-.79.29c-6.18-5.09-11.52-2.43-12.44,4.4a.48.48,0,0,1-.62.41c-6-1.69-11.5-.56-12.27,1.09l-2.81,7.8a.47.47,0,0,0,0,.31l4.5,13.82a.5.5,0,0,0,.47.34l91.47-1.7a.5.5,0,0,0,.46-.62l-1.67-6A.46.46,0,0,1,929.44,46.87Z"
                            transform="translate(-114.5 40.93)" />
                        <path class="cls-4"
                            d="M838.45,32c-1.22,1.32-3,5-3,9.49,0,5.33,4.83,9.65,10.8,9.65a10.94,10.94,0,0,0,9.79-5.59,8.25,8.25,0,0,0,6.67,2.89c4.16,0,7.53-2.4,7.53-5.36,0,0,0-.1,0-.15-5.48-1.85-5-4.1-4.69-5.65a14.39,14.39,0,0,0,6.57,3.59c4.24,1.08,8.73,1,11.23,0,.23-.09.5.06.48.26s-.34.6-.58.84c-1.66,1.59-4.93,2.49-9.82,1.66a3.12,3.12,0,0,0-.4,1.47c0,3,4.6,5.36,10.27,5.36,4.45,0,8.23-1.48,9.65-3.55.39,2.67,5.33,4.77,11.38,4.77s11-2.1,11.37-4.76c1.11,1.79,3.6,3,6.5,3s6.25-.47,7.38-2.2a9.81,9.81,0,0,1,3.25,4.63c0,4.74-8.52,8.59-19,8.59H849.2a5.65,5.65,0,0,1-.58,0c-.35,0-.7,0-1,0A15.59,15.59,0,0,1,832,45.43C832,40,834.24,34.79,838.45,32Z"
                            transform="translate(-114.5 40.93)" />
                        <path class="cls-4"
                            d="M897.68,36.17c-5.08.59-8.88-1.86-8.55-4.33a2.68,2.68,0,0,1,.26-.8.33.33,0,0,1,.48-.08c1.33,1.5,4.41,2.5,8.15,2.44s7.16-1.18,8.88-2.74c.15-.14.42-.11.46.06a1.94,1.94,0,0,1,.06.83C907.14,33.67,902.81,35.58,897.68,36.17Z"
                            transform="translate(-114.5 40.93)" />
                        <path class="cls-6"
                            d="M845.36,30.34a12.92,12.92,0,0,1,3.25.41v0a7.78,7.78,0,0,1,13-5.76A17.54,17.54,0,0,1,887.8,13.56a18.53,18.53,0,0,1,31.51,17.29,10.18,10.18,0,0,1,10.3,16.95c1.92,1.39,3.06,3.15,3.06,5.06,0,4.51-6.34,8.16-14.17,8.16H845.36c-7.83,0-14.18-6.87-14.18-15.34S837.53,30.34,845.36,30.34Z"
                            transform="translate(-114.5 40.93)" />
                    </g>
                    <g id="cloud_large">
                        <path class="cls-3"
                            d="M898.37,63.75c.1-4.44-5.14-8.15-11.71-8.3a18.29,18.29,0,0,0-3,.2,10.15,10.15,0,0,0-4.85-7c-4.72-2.72-10.83-1.09-14.06,3.61a11.61,11.61,0,0,0-12.1-7.73A10.89,10.89,0,0,0,848,36.77c-3.45-2.22-8-2-12.12.23a16.09,16.09,0,0,0-23.55-16.33c.61-4.81-.73-9.07-4-11.17-4.51-2.9-11.23-.77-16.29,4.71A13.85,13.85,0,0,0,790.87,12c-4.49-6.82-14.54-8.12-22.44-2.91-5.87,3.87-8.9,10.24-8.23,16.05a13.93,13.93,0,0,0-9,2.77,13.67,13.67,0,0,0-5.69,10.89c-4.12-5.1-11.93-5.83-17.71-1.55a13.21,13.21,0,0,0-5,15,9.14,9.14,0,0,0-1.9-.2c-4.15,0-7.51,2.62-7.51,5.85a4.72,4.72,0,0,0,.23,1.4,6.94,6.94,0,1,0-3.11,13.14H889.29l.28,0a6.6,6.6,0,0,0,.77,0h0a8.25,8.25,0,0,0,7.94-7.81c0-.1,0-.2,0-.3A3.8,3.8,0,0,0,898.37,63.75Z"
                            transform="translate(-114.5 40.93)" />
                        <path class="cls-4"
                            d="M898.37,63.75c.1-4.44-5.14-8.15-11.71-8.3a18.29,18.29,0,0,0-3,.2c-.16-.85-17.54,2.82-37.37,1.84-14.67-.73-13.31-21.27-30.43-22.36-38.43-2.46-74.55,23.61-101.06,23.52-.49,0-3.1-.09-4.22-.09a6.94,6.94,0,0,0,0,13.88H889.29l.28,0a6.6,6.6,0,0,0,.77,0h0a8.25,8.25,0,0,0,7.94-7.81c0-.1,0-.2,0-.3A3.8,3.8,0,0,0,898.37,63.75Z"
                            transform="translate(-114.5 40.93)" />
                        <path class="cls-5"
                            d="M712.9,59.75c2.43,5.49,5.42,7.09,10.45,3,4.52.88,7.38-1.31,9.06-5.66,6,4.42,11.58,4,17,.19,7.68,3.24,13.93,2.32,18.49-3.49-3.73-2.06-5.76-4-5.34-5.84,6.93,3.18,14,4.85,24.38-2.3-1.54,3.45-4.33,6.08-8.14,8.38,3.6,3.16,8.44,4,14.39-.52,7.49,8.63,14.64,9.09,21.42.85-12.65-2.92-15.27-9.74-15.85-17.37,6.84,7.38,11.9,17.07,30,9.9C828,50.29,825,52.74,819,54.09c7.55,4.85,14.15,5.35,19.72,1.07,8.44,9.06,16.9,11.46,25.38,5.25a16.68,16.68,0,0,0,10.48,4.06c11,0,11.6-13.44,0-13.84-3.83.08-6.86,2-9.34,5.23-3-4.16-6.72-6.75-11.25-7.29-1.22,3.33-2.94,4.46-5.8,6.51-1.49,1.28-2.91-.37-1.49-1.54,8.36-6.6,1.57-18.76-12.92-14.7.32-10.65-13.2-17.16-23.88-13.69-1.7-12.49-8.1-15-16.14-7.93,5,2.82,7.47,6.08,7.51,9.77,0,2.24-2,2.82-2.69.92-3.4-10.18-10.13-9-18.05-3.82-1.4.87-3,.1-1.56-1.42,2.88-2.74,5.77-5.34,9-6.15C774.23,10.66,767.49,18,762.93,29.4c-13.7.28-17.48,10.89-13.87,19.67-7.85-11.82-17.63-12.14-23.86-4.57-2.73,3.77-1.25,7,1.15,11-2.3-1.55-4.76-2.81-6.73-2.49C714.63,54.08,713.15,57.35,712.9,59.75Z"
                            transform="translate(-114.5 40.93)" />
                        <path class="cls-6"
                            d="M898.37,63.75c.1-4.44-5.14-8.15-11.71-8.3a18.29,18.29,0,0,0-3,.2,10.15,10.15,0,0,0-4.85-7c-4.72-2.72-10.83-1.09-14.06,3.61a11.61,11.61,0,0,0-12.1-7.73A10.89,10.89,0,0,0,848,36.77c-3.45-2.22-8-2-12.12.23a16.09,16.09,0,0,0-23.55-16.33c.61-4.81-.73-9.07-4-11.17-4.51-2.9-11.23-.77-16.29,4.71A13.85,13.85,0,0,0,790.87,12c-4.49-6.82-14.54-8.12-22.44-2.91-5.87,3.87-8.9,10.24-8.23,16.05a13.93,13.93,0,0,0-9,2.77,13.67,13.67,0,0,0-5.69,10.89c-4.12-5.1-11.93-5.83-17.71-1.55a13.21,13.21,0,0,0-5,15,9.14,9.14,0,0,0-1.9-.2c-4.15,0-7.51,2.62-7.51,5.85a4.72,4.72,0,0,0,.23,1.4,6.94,6.94,0,1,0-3.11,13.14H889.29l.28,0a6.6,6.6,0,0,0,.77,0h0a8.25,8.25,0,0,0,7.94-7.81c0-.1,0-.2,0-.3A3.8,3.8,0,0,0,898.37,63.75Z"
                            transform="translate(-114.5 40.93)" />
                    </g>
                </g>
                <g id="bg_cloud_leftLarge">
                    <path class="cls-3"
                        d="M951,116.52c.13-5.78-6.7-10.62-15.25-10.81a22.79,22.79,0,0,0-3.92.26,13.17,13.17,0,0,0-6.32-9.17c-6.15-3.55-14.1-1.42-18.3,4.71a15.14,15.14,0,0,0-15.78-10.08,14.14,14.14,0,0,0-6.08-10.06c-4.5-2.89-10.37-2.56-15.79.31A21,21,0,0,0,838.91,60.4c.8-6.27-.94-11.82-5.19-14.56-5.87-3.77-14.63-1-21.23,6.15a16.62,16.62,0,0,0-1.5-2.86c-5.86-8.87-19-10.57-29.24-3.78-7.64,5-11.59,13.34-10.72,20.91a18.23,18.23,0,0,0-11.69,3.6,17.81,17.81,0,0,0-7.41,14.19c-5.37-6.64-15.54-7.59-23.08-2-6.47,4.79-8.91,12.84-6.46,19.5a12.49,12.49,0,0,0-2.48-.25c-5.4,0-9.77,3.41-9.77,7.62a6.25,6.25,0,0,0,.29,1.83,8.9,8.9,0,0,0-4-1,9,9,0,1,0,0,18.09l.38,0v0H939.21l.36,0c.34,0,.67,0,1,0h0c5.69-.37,10.24-4.74,10.36-10.19,0-.13,0-.25,0-.38S951,116.78,951,116.52Z"
                        transform="translate(-114.5 50.93)" />
                    <path class="cls-4"
                        d="M951,116.52c.13-5.78-6.7-10.62-15.25-10.81a22.79,22.79,0,0,0-3.92.26c-.2-1.11-22.85,3.67-48.68,2.4-19.11-1-17.34-27.71-39.64-29.14C793.48,76,746.42,110,711.88,109.87c-.64,0-4-.11-5.5-.11a9,9,0,1,0,0,18.09l.38,0v0H939.21l.36,0c.34,0,.67,0,1,0h0c5.69-.37,10.24-4.74,10.36-10.19,0-.13,0-.25,0-.38S951,116.78,951,116.52Z"
                        transform="translate(-114.5 50.93)" />
                    <path class="cls-5"
                        d="M709.4,111.32c3.16,7.14,7.06,9.22,13.62,3.93,5.89,1.14,9.61-1.71,11.8-7.38,7.75,5.76,15.08,5.17,22.12.25,10,4.23,18.15,3,24.1-4.55-4.87-2.69-7.51-5.24-7-7.6,9,4.13,18.22,6.31,31.76-3-2,4.5-5.64,7.92-10.6,10.91,4.68,4.12,11,5.24,18.74-.68,9.76,11.24,19.07,11.85,27.91,1.11-16.48-3.8-19.9-12.69-20.65-22.62,8.91,9.61,15.5,22.23,39,12.89-.87,4.41-4.88,7.6-12.61,9.36,9.82,6.31,18.43,7,25.69,1.39,11,11.81,22,14.93,33.07,6.85a21.71,21.71,0,0,0,13.64,5.28c14.29-.06,15.12-17.51,0-18-5,.11-8.94,2.61-12.17,6.83-3.95-5.43-8.75-8.8-14.66-9.5-1.59,4.33-3.82,5.81-7.55,8.48-1.93,1.67-3.79-.48-1.94-2,10.89-8.61,2-24.45-16.83-19.16.41-13.87-17.2-22.36-31.12-17.84-2.21-16.27-10.55-19.5-21-10.32,6.5,3.66,9.73,7.91,9.78,12.72,0,2.92-2.67,3.67-3.51,1.2-4.42-13.26-13.2-11.73-23.51-5-1.83,1.14-3.86.14-2-1.84,3.74-3.58,7.52-7,11.71-8-17.92-7.63-26.69,1.92-32.63,16.78-17.85.37-22.78,14.2-18.08,25.63-10.23-15.39-23-15.81-31.09-6-3.56,4.91-1.63,9.15,1.5,14.34-3-2-6.2-3.65-8.76-3.24C711.66,103.92,709.73,108.18,709.4,111.32Z"
                        transform="translate(-114.5 50.93)" />
                    <path class="cls-6"
                        d="M951,116.52c.13-5.78-6.7-10.62-15.25-10.81a22.79,22.79,0,0,0-3.92.26,13.17,13.17,0,0,0-6.32-9.17c-6.15-3.55-14.1-1.42-18.3,4.71a15.14,15.14,0,0,0-15.78-10.08,14.14,14.14,0,0,0-6.08-10.06c-4.5-2.89-10.37-2.56-15.79.31A21,21,0,0,0,838.91,60.4c.8-6.27-.94-11.82-5.19-14.56-5.87-3.77-14.63-1-21.23,6.15a16.62,16.62,0,0,0-1.5-2.86c-5.86-8.87-19-10.57-29.24-3.78-7.64,5-11.59,13.34-10.72,20.91a18.23,18.23,0,0,0-11.69,3.6,17.81,17.81,0,0,0-7.41,14.19c-5.37-6.64-15.54-7.59-23.08-2-6.47,4.79-8.91,12.84-6.46,19.5a12.49,12.49,0,0,0-2.48-.25c-5.4,0-9.77,3.41-9.77,7.62a6.25,6.25,0,0,0,.29,1.83,8.9,8.9,0,0,0-4-1,9,9,0,1,0,0,18.09l.38,0v0H939.21l.36,0c.34,0,.67,0,1,0h0c5.69-.37,10.24-4.74,10.36-10.19,0-.13,0-.25,0-.38S951,116.78,951,116.52Z"
                        transform="translate(-114.5 50.93)" />
                </g>
                <g id="desk_withClouds">
                    <g id="cloud_small-2" data-name="cloud_small">
                        <path class="cls-9"
                            d="M242.34,156.5a27.16,27.16,0,0,1,6,.68s0,0,0-.07c0-7.18,6.45-13,14.41-13a15.19,15.19,0,0,1,9.67,3.39c3.13-13.23,16.14-23.16,31.73-23.16a35,35,0,0,1,16.64,4.15,36,36,0,0,1,25.1-9.88c18.91,0,34.25,13.85,34.25,30.92a28.2,28.2,0,0,1-1.11,7.82,20.57,20.57,0,0,1,5.87-.85c10.4,0,18.83,7.61,18.83,17a16.21,16.21,0,0,1-5.65,12.14c3.53,2.32,5.65,5.25,5.65,8.45,0,7.52-11.73,13.61-26.2,13.61H242.34c-14.47,0-26.2-11.46-26.2-25.59S227.87,156.5,242.34,156.5Z"
                            transform="translate(-114.5 -4.93)" />
                        <path class="cls-10"
                            d="M396.93,184.08c8.55-13.6-4.63-29.41-24-23.48a.87.87,0,0,1-1.16-.91c7.65-46.34-47.68-47.25-56.62-8.85a.93.93,0,0,1-1.56.38c-1.72-1.93-1.25-6.5,3.44-16.11a2.23,2.23,0,0,0-1.4-3.08c-20.62-7.32-38.32,2-41.32,19.11a.92.92,0,0,1-1.45.49c-11.42-8.5-21.3-4.06-23,7.35a.91.91,0,0,1-1.15.68c-11.12-2.83-21.25-.93-22.69,1.8l-5.18,13a.75.75,0,0,0,0,.53l8.32,23.06a.9.9,0,0,0,.87.56l169.07-2.84a.83.83,0,0,0,.85-1l-3.08-10.07A.74.74,0,0,1,396.93,184.08Z"
                            transform="translate(-114.5 -4.93)" />
                        <path class="cls-11"
                            d="M228.75,159.26c-2.26,2.22-5.61,8.4-5.48,15.84,0,8.9,8.94,16.11,20,16.11,8,0,14.92-3.83,18.09-9.33,2.32,2.86,7,4.82,12.35,4.82,7.68,0,13.91-4,13.91-8.94a2.11,2.11,0,0,0,0-.25c-10.13-3.1-9.22-6.85-8.66-9.43a27.16,27.16,0,0,0,12.14,6c7.83,1.79,16.13,1.73,20.76,0,.41-.15.92.09.89.42-.06.54-.64,1-1.08,1.4-3.07,2.66-9.12,4.16-18.15,2.78a4.7,4.7,0,0,0-.74,2.44c0,4.94,8.5,9,19,9,8.22,0,15.21-2.47,17.84-5.92.73,4.45,9.85,8,21,8s20.27-3.5,21-7.94c2.05,3,6.66,5.08,12,5.08s11.54-.77,13.65-3.67c4.06,3.42,4.46,4.37,6,7.73,0,7.92-15.74,14.33-35.16,14.33H248.62a9.46,9.46,0,0,1-1.07-.06c-.65,0-1.3.06-2,.06-15.91,0-28.81-11.64-28.81-26C216.78,172.63,221,163.92,228.75,159.26Z"
                            transform="translate(-114.5 -4.93)" />
                        <path class="cls-11"
                            d="M338.22,166.23c-9.38,1-16.4-3.11-15.79-7.23a3.82,3.82,0,0,1,.48-1.33.63.63,0,0,1,.89-.14c2.45,2.51,8.15,4.18,15.06,4.08s13.23-2,16.41-4.59c.28-.23.78-.17.86.11a3.25,3.25,0,0,1,.1,1.39C355.72,162.06,347.71,165.24,338.22,166.23Z"
                            transform="translate(-114.5 -4.93)" />
                        <path class="cls-12"
                            d="M241.51,156.5a27.16,27.16,0,0,1,6,.68s0,0,0-.07c0-7.18,6.45-13,14.41-13a15.24,15.24,0,0,1,9.68,3.39c3.12-13.23,16.13-23.16,31.72-23.16A35,35,0,0,1,320,128.49a36,36,0,0,1,25.1-9.88c18.91,0,34.25,13.85,34.25,30.92a28.2,28.2,0,0,1-1.11,7.82,20.57,20.57,0,0,1,5.87-.85c10.4,0,18.83,7.61,18.83,17a16.21,16.21,0,0,1-5.65,12.14c3.53,2.32,5.65,5.25,5.65,8.45,0,7.52-11.73,13.61-26.2,13.61H241.51c-14.47,0-26.2-11.46-26.2-25.59S227,156.5,241.51,156.5Z"
                            transform="translate(-114.5 -4.93)" />
                    </g>
                    <g id="desk">
                        <g id="done">
                            <g id="right_horn">
                                <path class="cls-13"
                                    d="M336.59,86.68S321.16,96,318.85,81.1c-1.15-8.85,10.61-5.82,8.25.55,0,0,8.69-2.55,7.23-9.94-2.1-7.88-12.66-6.75-12.66-6.75s-20.53,1-14.29,22.06c3.88,11.21,21,16.5,22.71,11.09C330.5,96.8,334.58,89,336.59,86.68Z"
                                    transform="translate(-114.5 -4.93)" />
                                <path class="cls-14"
                                    d="M309.26,70.65s7.74-1.1,10.7,5.94c1.61-1.17,3.37-1.46,5.64,0,5.52-3.41,4.27-10.26,4.27-10.26C324,63.22,314.22,65.4,309.26,70.65Z"
                                    transform="translate(-114.5 -4.93)" />
                                <path class="cls-14"
                                    d="M307.19,86.35c4.15-6.51,11.8-4.46,11.8-4.46a9,9,0,0,0,3.37,6.17s-5.68,1.58-2.81,10.46C313.86,96.36,309.4,92.7,307.19,86.35Z"
                                    transform="translate(-114.5 -4.93)" />
                            </g>
                            <g id="right_horn-2" data-name="right_horn">
                                <path class="cls-13"
                                    d="M388.63,92.06s15.89,5.57,18.19-9.28c1.16-8.85-10.6-5.82-8.24.54,0,0-8.69-2.54-7.23-9.94,2.1-7.88,12.65-6.74,12.65-6.74s20.54,1,14.3,22.06c-3.88,11.21-20.5,18.25-23.12,13.22C394.5,100.62,390.37,94.53,388.63,92.06Z"
                                    transform="translate(-114.5 -4.93)" />
                                <path class="cls-14"
                                    d="M400.08,78.27C394.56,74.86,395.8,68,395.8,68c5.95-2.85,14-1.58,20.62,4.32,0,0-7.74-1.11-10.7,5.94C404.16,77,402.3,76.89,400.08,78.27Z"
                                    transform="translate(-114.5 -4.93)" />
                                <path class="cls-14"
                                    d="M406.68,101.14c2.88-8.88-3.36-10.93-3.36-10.93a12.12,12.12,0,0,0,3.36-6.65s7.66-2,11.81,4.46C417,93.2,413,97.55,406.68,101.14Z"
                                    transform="translate(-114.5 -4.93)" />
                            </g>
                            <path id="body" class="cls-15"
                                d="M316.89,153.87a69.39,69.39,0,0,1,8.48-22.4l-5.57,3.15s4.12-21.34,11.27-29.22l-5.25,2.83s6.34-16.58,10.76-21.8a20.25,20.25,0,0,0-5,0,36.07,36.07,0,0,1,20.07-15.57c-5.76-8.28-7.46-8.7-7.46-8.7s11.76,1.27,14.12,3.42c1.61-2.57,8.79-5.82,12.37-4.81-2.46,5.63-2.53,7.34-2.53,7.34s13.32,3.09,20,10.16c-4.8-.85-6.93.3-6.93.3s5.48,1.36,11.82,12.07a17.27,17.27,0,0,0-5.73-.43s16,22,21.05,39.07C403.56,124.92,403,125,403,125s8.47,24.76,7.69,28.05C391.41,180.75,343.61,186.82,316.89,153.87Z"
                                transform="translate(-114.5 -4.93)" />
                            <g id="eyes">
                                <circle class="cls-16" cx="233.42" cy="101.88" r="2.3" />
                                <circle class="cls-16" cx="258.15" cy="101.92" r="2.3" />
                                <path id="eye2"
                                    d="M375.3,102.77a6,6,0,1,0,6,6A6,6,0,0,0,375.3,102.77Zm-2.65,5.93a1.85,1.85,0,1,1,1.85-1.85A1.85,1.85,0,0,1,372.65,108.7Z"
                                    transform="translate(-114.5 -4.93)" />
                                <path id="eye1"
                                    d="M348.76,102.73a6,6,0,1,0,6,6A6,6,0,0,0,348.76,102.73Zm-.84,5.93a1.85,1.85,0,1,1,1.85-1.85A1.84,1.84,0,0,1,347.92,108.66Z"
                                    transform="translate(-114.5 -4.93)" />
                            </g>
                            <line class="cls-17" x1="227.1" y1="86.04" x2="241.41" y2="86.04" />
                            <line class="cls-17" x1="253.65" y1="86.04" x2="267.95" y2="86.04" />
                        </g>
                        <g id="highlights">
                            <path class="cls-18"
                                d="M329.46,78.32a7.45,7.45,0,0,0-2.69-4.07,6.58,6.58,0,0,0-7.1-.43,7.57,7.57,0,0,0-3.56,4.85,10.21,10.21,0,0,0,.78,7,11.11,11.11,0,0,0,4.68,5.46,9.54,9.54,0,0,0,8.69.62"
                                transform="translate(-114.5 -4.93)" />
                            <path class="cls-18"
                                d="M396.17,79.28a7.85,7.85,0,0,1,3.81-4,7.12,7.12,0,0,1,6.15-.09A7.28,7.28,0,0,1,409.51,80c.93,3.37-.43,6.27-1.21,8a12.84,12.84,0,0,1-5.2,6.15,12.4,12.4,0,0,1-8.58,1.3"
                                transform="translate(-114.5 -4.93)" />
                            <path class="cls-19" d="M350.22,73.51s-11.61,6.69-13.63,9.75,4.6-.5,4.6-.5"
                                transform="translate(-114.5 -4.93)" />
                            <path class="cls-19" d="M336.69,90.05s-5.53,8.66-5.7,11.76,2.85-1.31,2.85-1.31"
                                transform="translate(-114.5 -4.93)" />
                            <path class="cls-19" d="M331,109.15s-7.8,16.49-8,19.6,5.31-2.6,5.31-2.6"
                                transform="translate(-114.5 -4.93)" />
                            <path class="cls-19" d="M357.53,67s-5.81-2.43-7.07-2.3S352,67,352,67"
                                transform="translate(-114.5 -4.93)" />
                            <path class="cls-19" d="M360.12,66.06s4.42-3.68,7.5-3.72"
                                transform="translate(-114.5 -4.93)" />
                        </g>
                        <path id="desk_bg" class="cls-20"
                            d="M462.25,262.77c-68.23,1.74-133.38,2-194.13,0-.46-44.72.14-89.74-1.39-112.62H459.45C462.43,185.78,463.18,223.5,462.25,262.77Z"
                            transform="translate(-114.5 -4.93)" />
                        <g id="cat_poster">
                            <path id="cat_poster_bg" class="cls-21"
                                d="M356.75,239.21c-18.28,1.23-38.72,1.78-60.56,1.9.71-27.41.9-53,0-74.68,16.75-1.38,36.48-1.61,57.78-1.21C355.69,187.64,356.49,212.65,356.75,239.21Z"
                                transform="translate(-114.5 -4.93)" />
                            <g id="hang_in_there_text">
                                <path class="cls-22" d="M300.26,172a47.84,47.84,0,0,0,.23,6.66"
                                    transform="translate(-114.5 -4.93)" />
                                <path class="cls-22" d="M303.47,171.7a45.37,45.37,0,0,0,.26,6.69"
                                    transform="translate(-114.5 -4.93)" />
                                <line class="cls-22" x1="185.73" y1="169.99" x2="188.94" y2="169.99" />
                                <path class="cls-22"
                                    d="M305,174.39s1.7-.69,2.37.65a2.54,2.54,0,0,1,.23.85c.29,2.43,1.14,2.73,1.14,2.73"
                                    transform="translate(-114.5 -4.93)" />
                                <path class="cls-22" d="M307.37,175s-3.05,1.33-2.14,3,2.49-1.34,2.49-1.34"
                                    transform="translate(-114.5 -4.93)" />
                                <path class="cls-22" d="M309.68,178.48c-.68-4.54,2.44-6.1,3-.09"
                                    transform="translate(-114.5 -4.93)" />
                                <circle class="cls-22" cx="200.7" cy="171.49" r="1.82" />
                                <path class="cls-22" d="M317,176.41s.75,8.9-3.93,4.71"
                                    transform="translate(-114.5 -4.93)" />
                                <path class="cls-22" d="M321.38,174.6a14.22,14.22,0,0,1,.26,3.79"
                                    transform="translate(-114.5 -4.93)" />
                                <circle cx="206.88" cy="167.35" r="0.41" />
                                <path class="cls-22" d="M323.29,178.62c-.29-4,2.73-6.34,3.18-.39"
                                    transform="translate(-114.5 -4.93)" />
                                <path class="cls-22" d="M330.93,172.28s-.59,7.11,2.69,6.2"
                                    transform="translate(-114.5 -4.93)" />
                                <line class="cls-22" x1="214.9" y1="169.69" x2="218.54" y2="169.67" />
                                <path class="cls-22" d="M334.27,171.5l.52,6.89c0-.52,2.77-7.12,3.45,0"
                                    transform="translate(-114.5 -4.93)" />
                                <path class="cls-22"
                                    d="M342.49,178s-3.46,1.59-3.05-1.79a1.55,1.55,0,0,1,2.83-.82c.3.89-.68,1.05-2.79.57"
                                    transform="translate(-114.5 -4.93)" />
                                <path class="cls-22"
                                    d="M350.46,177.93s-3.46,1.59-3-1.79a1.55,1.55,0,0,1,2.83-.82c.31.89-.68,1.05-2.79.57"
                                    transform="translate(-114.5 -4.93)" />
                                <polyline class="cls-22" points="228.94 169.71 229.2 171.86 229.34 173.02" />
                                <path class="cls-22" d="M343.7,176.78s0-1.54,2.47-1.27"
                                    transform="translate(-114.5 -4.93)" />
                            </g>
                            <g id="Cat">
                                <path id="cat_body" class="cls-23"
                                    d="M319.58,222.66s.25,7.66.3,8.23c.15,1.65,2.48,3.27,2.42.22,0-4.29-.08-5.55-.08-5.55s4.61,1.82,8.06,0c0,4.1.19,7.54,1.43,7.54,2.21,0,1.49-7.54,1.49-7.54s1-25.6-.39-27.55.73-2.35.73-2.35a6.35,6.35,0,0,0-.32-6.18c1.87-2.73.48-4.2.48-4.2a4,4,0,0,0-3.85,2.12c-2-1.65-7.37-.17-7.37-.17s-2.42-2.86-4-2.86.52,4.33.52,4.33-2,5.89.13,7.54-.31,3.24-.31,3.24-.39,16,.22,17.94-8,14.12-8,14.12c-2.88,5.15-.3,5.11,2.6,2,0,0,5.64-8.45,5.94-10.92a52,52,0,0,0-.52-5.24"
                                    transform="translate(-114.5 -4.93)" />
                                <g id="cat_face">
                                    <circle id="eye1-2" data-name="eye1" cx="208.34" cy="186.72" r="0.99" />
                                    <circle id="eye2-2" data-name="eye2" cx="215.26" cy="186.55" r="0.99" />
                                    <g id="cat_nose">
                                        <path
                                            d="M326.51,193.42a3.82,3.82,0,0,0,1.28-1.28.13.13,0,0,0-.09-.22,6.13,6.13,0,0,0-2.56,0,.13.13,0,0,0-.09.22,4.43,4.43,0,0,0,1.28,1.28.12.12,0,0,0,.18,0Z"
                                            transform="translate(-114.5 -4.93)" />
                                        <line class="cls-24" x1="211.92" y1="188.12" x2="211.92" y2="189.38" />
                                    </g>
                                    <circle id="eye_l2" class="cls-16" cx="214.86" cy="186.27" r="0.23" />
                                    <circle id="eye_l1" class="cls-16" cx="207.94" cy="186.43" r="0.23" />
                                </g>
                                <g id="cat_highlights">
                                    <path class="cls-25" d="M319.72,187.62s-1.05-3,1.36.16"
                                        transform="translate(-114.5 -4.93)" />
                                    <path class="cls-25" d="M332.5,187.81s1.05-3-1.36.16"
                                        transform="translate(-114.5 -4.93)" />
                                    <path class="cls-26" d="M320.6,189.29s-2.05,4.49.32,7"
                                        transform="translate(-114.5 -4.93)" />
                                    <path class="cls-27" d="M321.08,200.68a71.76,71.76,0,0,0,1.36,22.41"
                                        transform="translate(-114.5 -4.93)" />
                                    <path class="cls-28" d="M320.77,230.18a1.73,1.73,0,0,0,.45,1.32"
                                        transform="translate(-114.5 -4.93)" />
                                    <path class="cls-28" d="M331.61,230.67a1.66,1.66,0,0,0,.46,1.32"
                                        transform="translate(-114.5 -4.93)" />
                                    <ellipse id="nose_l" class="cls-16" cx="211.46" cy="187.25" rx="0.39" ry="0.17" />
                                </g>
                                <g id="cat_dots">
                                    <path class="cls-29"
                                        d="M324,187.87c-.42-.33-1,0-1.24.45s.82,1.67,1.08,1.5C324.49,189.48,324.24,188,324,187.87Z"
                                        transform="translate(-114.5 -4.93)" />
                                    <path class="cls-29"
                                        d="M329,188.23a.89.89,0,0,0-1.31-.18c-.3.39-.05,1.86.25,1.83C328.7,189.89,329.16,188.46,329,188.23Z"
                                        transform="translate(-114.5 -4.93)" />
                                    <path class="cls-29"
                                        d="M324.94,187.69a1.59,1.59,0,0,1,1.9-.05c.7.58-.24,2.6-.54,2.4C326.29,190.22,324.09,188.57,324.94,187.69Z"
                                        transform="translate(-114.5 -4.93)" />
                                    <path class="cls-29"
                                        d="M312.22,233.76a1,1,0,0,0,0-1.3c-.36-.2-1.56.39-1.5.68C310.8,233.86,312,234,312.22,233.76Z"
                                        transform="translate(-114.5 -4.93)" />
                                    <path class="cls-29"
                                        d="M313.54,232.08c.53.09.89-.54.84-1s-1.59-1.12-1.72-.84C312.26,230.85,313.25,232.07,313.54,232.08Z"
                                        transform="translate(-114.5 -4.93)" />
                                    <path class="cls-29"
                                        d="M314.27,227.81c-.53.14-.6.86-.35,1.29s1.91.36,1.92.05C315.93,228.4,314.53,227.7,314.27,227.81Z"
                                        transform="translate(-114.5 -4.93)" />
                                    <path class="cls-29"
                                        d="M316.7,227.29a1,1,0,0,0,.64-1.14c-.22-.37-1.6-.51-1.69-.23C315.37,226.6,316.44,227.37,316.7,227.29Z"
                                        transform="translate(-114.5 -4.93)" />
                                    <path class="cls-29"
                                        d="M317.31,224a.85.85,0,0,0-.64.88c.13.3,1.22.41,1.32.19C318.3,224.53,317.53,223.92,317.31,224Z"
                                        transform="translate(-114.5 -4.93)" />
                                </g>
                            </g>
                            <path id="tree_log" class="cls-30"
                                d="M297.18,194.37a95.73,95.73,0,0,1,9.84,1.17c2.35.6,12,.61,12,.7s11.22.24,15.83-.47c2.51-.26,11.51.16,11.11,0l9.52-.16v4.84s-12.48-1.33-17.9-1.27-23.56,0-23.56,0l-5.42-.55s-11.4,7-11.4,6.21c0-1,.05-2.12.05-2.85l6.49-3.68c.86.06-4.66-1.66-6.58-1.61C297.17,195,297.17,195,297.18,194.37Z"
                                transform="translate(-114.5 -4.93)" />
                            <g id="cat_paws">
                                <path id="cat_paw1" class="cls-31"
                                    d="M317.19,195.5s-2.21-1-3.42.35c-.61,1,1.43,2.21,2,2.21S318.19,195.93,317.19,195.5Z"
                                    transform="translate(-114.5 -4.93)" />
                                <path id="cat_paw2" class="cls-31"
                                    d="M338.5,195.5s-2.21-1-3.42.35c-.61,1,1.43,2.21,2,2.21S339.5,195.93,338.5,195.5Z"
                                    transform="translate(-114.5 -4.93)" />
                                <path id="paw_l1" class="cls-26" d="M314.86,196.56a1,1,0,0,1,.81-.63"
                                    transform="translate(-114.5 -4.93)" />
                                <path id="paw_l2" class="cls-26" d="M336.18,196.56a1,1,0,0,1,.8-.63"
                                    transform="translate(-114.5 -4.93)" />
                            </g>
                            <g id="cat_tape">
                                <path class="cls-32"
                                    d="M290.73,170.27a46.52,46.52,0,0,1,8-8.88l-.26,1.32,1.13-.18-.91,1.69,2.42-.65a91.18,91.18,0,0,1-7.49,8.45l-1.26.22.37-1.22-1,.2.32-1.19Z"
                                    transform="translate(-114.5 -4.93)" />
                                <path class="cls-32"
                                    d="M361.77,235.17a46.79,46.79,0,0,1-8.13,8.76l.27-1.31-1.12.15.93-1.67-2.44.61a93.6,93.6,0,0,1,7.61-8.34l1.26-.2-.38,1.21,1-.18-.34,1.19Z"
                                    transform="translate(-114.5 -4.93)" />
                                <path class="cls-32"
                                    d="M349.9,159.29a50.32,50.32,0,0,1,9.65,9.58l-1.85-.52.42,1.17-2.37-.42,1.46,2.89c-3.54-3.16-6.9-6.35-10-9.59l1.69.33L347.3,161l2.18.84-.94-1.68,2,.58Z"
                                    transform="translate(-114.5 -4.93)" />
                                <path class="cls-32"
                                    d="M294.54,235.57a50.32,50.32,0,0,1,9.65,9.58l-1.85-.52.42,1.17-2.37-.42,1.46,2.89c-3.54-3.15-6.9-6.34-10-9.58l1.69.32-1.56-1.69,2.18.85-.94-1.69,2,.58Z"
                                    transform="translate(-114.5 -4.93)" />
                            </g>
                        </g>
                        <g id="note_papers">
                            <path class="cls-33"
                                d="M370.12,216.76l19.93-3.12,5.28,18.62L377.14,236s-4.77.95-5.63-5S370.9,220.22,370.12,216.76Z"
                                transform="translate(-114.5 -4.93)" />
                            <g id="note_text1">
                                <polyline class="cls-22"
                                    points="259.05 217.78 259.05 217.13 259.96 217.45 260.81 217.13 262.17 217.13" />
                                <polyline class="cls-22"
                                    points="263.54 217.45 265.03 216.54 265.81 217 266.85 215.89 268.21 216.67 270.42 214.92 271.98 214.92 273.48 215.76 274 215.31" />
                                <path class="cls-22"
                                    d="M374.4,226.28s-.85-1.95,1-1.17,1.23-.19,1.23-.19l1.82-.27h1.82l1.24-.26.71-1h1.5"
                                    transform="translate(-114.5 -4.93)" />
                                <polyline class="cls-22"
                                    points="270.36 218.49 272.05 217.45 273.02 217.97 275.1 217.78" />
                                <polyline class="cls-22"
                                    points="260.22 225.31 260.61 223.69 261.72 224.5 262.95 223.69 264.9 223.3" />
                                <path class="cls-22"
                                    d="M382.91,227.9l.85-.91,1.1.46h1.95l.42-1.76s.68,1,.94,1.11a8.54,8.54,0,0,0,1.43.26c.39,0,1.11-.78,1.11-.78"
                                    transform="translate(-114.5 -4.93)" />
                                <path class="cls-22"
                                    d="M382.39,232.32s.39-1.62.88-1.36a2.74,2.74,0,0,1,.87,1l.72-1.11,1.09.67.57-1"
                                    transform="translate(-114.5 -4.93)" />
                                <path class="cls-22"
                                    d="M375.62,233.4s.39-1.62.87-1.36a6.38,6.38,0,0,1,1.29,1.36l.31-1.43,1.08.68,1.21-.33"
                                    transform="translate(-114.5 -4.93)" />
                                <path class="cls-22" d="M388.5,231.22l.78-1.37s1.3.39,1.43.68,1.23-.29,1.23-.29"
                                    transform="translate(-114.5 -4.93)" />
                            </g>
                            <path class="cls-34"
                                d="M422.54,226.37l22-4.76,4.85,18.45A45.57,45.57,0,0,1,427.82,245C424.76,239,422.64,232.9,422.54,226.37Z"
                                transform="translate(-114.5 -4.93)" />
                            <g id="note_text1-2" data-name="note_text1">
                                <polyline class="cls-22"
                                    points="311.31 226.68 311.21 226.04 312.16 226.22 312.95 225.77 314.3 225.56" />
                                <polyline class="cls-22"
                                    points="315.69 225.67 317.03 224.54 317.87 224.87 318.73 223.62 320.2 224.18 322.11 222.11 323.65 221.87 325.26 222.47 325.7 221.95" />
                                <path class="cls-22"
                                    d="M427.2,235s-1.13-1.8.85-1.31,1.19-.38,1.19-.38l1.76-.54,1.79-.28,1.18-.45.56-1.07,1.48-.23"
                                    transform="translate(-114.5 -4.93)" />
                                <polyline class="cls-22"
                                    points="322.6 225.65 324.11 224.36 325.15 224.73 327.17 224.22" />
                                <polyline class="cls-22"
                                    points="313.63 233.95 313.76 232.28 314.98 232.92 316.08 231.93 317.94 231.24" />
                                <path class="cls-22"
                                    d="M435.86,235.31l.7-1,1.16.28,1.92-.3.15-1.8s.83.92,1.1.95a8.51,8.51,0,0,0,1.45,0c.39-.06,1-.94,1-.94"
                                    transform="translate(-114.5 -4.93)" />
                                <path class="cls-22"
                                    d="M436,239.75s.13-1.66.65-1.48a2.84,2.84,0,0,1,1,.89l.54-1.2,1.17.5.41-1.11"
                                    transform="translate(-114.5 -4.93)" />
                                <path class="cls-22"
                                    d="M429.5,241.86s.13-1.66.66-1.48a6.25,6.25,0,0,1,1.47,1.15l.09-1.46,1.18.5,1.14-.51"
                                    transform="translate(-114.5 -4.93)" />
                                <path class="cls-22" d="M441.89,237.72l.56-1.46s1.35.18,1.52.45,1.17-.48,1.17-.48"
                                    transform="translate(-114.5 -4.93)" />
                            </g>
                            <path class="cls-35"
                                d="M411.27,181.32c-4.88,5.58-6.83,13.49-7.71,22.27a105.56,105.56,0,0,0,23.13,5.63l4.68-22C424.15,184.21,417.37,182.09,411.27,181.32Z"
                                transform="translate(-114.5 -4.93)" />
                            <g id="note_text1-3" data-name="note_text1">
                                <polyline class="cls-22"
                                    points="296.75 182.46 297.04 181.88 297.71 182.57 298.61 182.66 299.83 183.27" />
                                <polyline class="cls-22"
                                    points="300.9 184.18 302.65 184.03 303.14 184.79 304.56 184.27 305.43 185.57 308.19 185 309.59 185.69 310.55 187.12 311.21 186.95" />
                                <path class="cls-22"
                                    d="M410.4,191s.12-2.12,1.46-.58,1.18.39,1.18.39l1.75.57,1.63.81,1.22.33,1.07-.56,1.34.67"
                                    transform="translate(-114.5 -4.93)" />
                                <polyline class="cls-22"
                                    points="306.54 188.16 308.51 187.99 309.15 188.89 311.1 189.65" />
                                <polyline class="cls-22"
                                    points="294.42 189.72 295.49 188.44 296.12 189.66 297.58 189.49 299.5 190.01" />
                                <path class="cls-22"
                                    d="M417.28,196.22l1.17-.43.78.9,1.74.87,1.17-1.37a4.58,4.58,0,0,0,.34,1.41,9.36,9.36,0,0,0,1.17.87c.34.17,1.33-.2,1.33-.2"
                                    transform="translate(-114.5 -4.93)" />
                                <path class="cls-22"
                                    d="M414.84,199.94s1.08-1.28,1.39-.83a2.84,2.84,0,0,1,.32,1.33l1.14-.67.67,1.09,1-.67"
                                    transform="translate(-114.5 -4.93)" />
                                <path class="cls-22"
                                    d="M408.3,197.87s1.08-1.28,1.39-.83a6.48,6.48,0,0,1,.54,1.8l.92-1.14.67,1.09L413,199"
                                    transform="translate(-114.5 -4.93)" />
                                <path class="cls-22" d="M420.79,201.69l1.31-.87s1,.93,1,1.25,1.23.29,1.23.29"
                                    transform="translate(-114.5 -4.93)" />
                            </g>
                            <path class="cls-36"
                                d="M388.4,168.15a252,252,0,0,1,29.07,3.9c-.42,9-1,17.29-1.6,24.61-20.38-1.51-30.44-3.63-32.06-6.24C386.16,182.53,388,174.94,388.4,168.15Z"
                                transform="translate(-114.5 -4.93)" />
                            <g id="note_text_list1">
                                <circle class="cls-22" cx="277.51" cy="170.78" r="1" />
                                <circle class="cls-22" cx="275.95" cy="176.75" r="0.91" />
                                <circle class="cls-22" cx="274.56" cy="182.57" r="1.09" />
                                <path class="cls-22"
                                    d="M395.3,176.14s.52-1.26,1.52,0a2.57,2.57,0,0,1,1.6,0l1,.56,1.43-.74.26,1a12.13,12.13,0,0,0,1.6-.22c.13-.09.78.39.91.48a12.45,12.45,0,0,0,1.73,0l.31.56"
                                    transform="translate(-114.5 -4.93)" />
                                <path class="cls-22"
                                    d="M408.3,177.74l.62-.82.89.82s.95-.52,1.13-.41.91.19,1,.41a5.64,5.64,0,0,0,.48.74l1.08-.26"
                                    transform="translate(-114.5 -4.93)" />
                                <path class="cls-22"
                                    d="M395.3,179a1.56,1.56,0,0,1,2.12.34c.39.35,1.43-.31,1.43-.31L400,180l1.3-.62s.52.53.39.83.43.83.43.83"
                                    transform="translate(-114.5 -4.93)" />
                                <path class="cls-22"
                                    d="M404.09,180.77l1.74-.92a15.73,15.73,0,0,1,.65,1.61c0,.18,1,.65,1.38.22a3.35,3.35,0,0,1,1.65-.91c.13.09.6.95.73.91s.43.18.43.18a17.31,17.31,0,0,0,2.37.47c.37,0,1,.48,1,.48v1.12"
                                    transform="translate(-114.5 -4.93)" />
                                <path class="cls-22"
                                    d="M393.87,182.94a1.1,1.1,0,0,1,1.91.39c1.25-.81,1.9,0,1.9,0l1.26-.41a5.32,5.32,0,0,0,.47,1.27c.18.13,1.48-.47,1.48-.47l.91.49s1.43,0,1.73,0,.56.94.56.94"
                                    transform="translate(-114.5 -4.93)" />
                                <path class="cls-22"
                                    d="M406.56,185.88l1.13-.47a3.87,3.87,0,0,0,.61,1,9.39,9.39,0,0,0,2.1-.5h2.18l.46.51"
                                    transform="translate(-114.5 -4.93)" />
                                <path class="cls-22"
                                    d="M391.83,188.59,393,187.5a1.12,1.12,0,0,0,.57,1.09c.69.5,1.73-.39,1.73-.39s.74.33.69.76,2,0,2,0,.77.54.73.86"
                                    transform="translate(-114.5 -4.93)" />
                                <path class="cls-22"
                                    d="M400.5,189.82c.6-.9,1.12-.38,1.12-.38l.52,1.06.78-.68s1.3-.79,1.17,0,.74,1.38.74,1.38l.87-.7a4.19,4.19,0,0,1,1.12,0,13.51,13.51,0,0,1,.39,1.55h1.43"
                                    transform="translate(-114.5 -4.93)" />
                            </g>
                            <path class="cls-37"
                                d="M432.15,164.08,447,162.52c1.92,10.82,3.35,22.25,4.42,34.14-1.32,1.71-6.79,1.64-13.69,1C435.55,181,434,167.19,432.15,164.08Z"
                                transform="translate(-114.5 -4.93)" />
                            <g id="note_text_list2">
                                <circle cx="322.34" cy="168.65" r="0.54" />
                                <circle cx="323.21" cy="174.18" r="0.54" />
                                <circle cx="323.62" cy="179.01" r="0.54" />
                                <circle cx="324.16" cy="183.27" r="0.54" />
                                <circle cx="324.91" cy="187.44" r="0.54" />
                                <path class="cls-22"
                                    d="M441.24,192.53s.58-.93.95-.45a1.09,1.09,0,0,0,1.06.29s.05-1.46.72-.75,1.51-.11,1.51-.11,1.13-.34,1.28.37,1.76.35,1.52-.28"
                                    transform="translate(-114.5 -4.93)" />
                                <path class="cls-22"
                                    d="M440.91,188.26s.44-1,.88-.6a1.06,1.06,0,0,0,1.09.13s-.18-1.45.59-.84,1.49-.33,1.49-.33,1.06-.51,1.32.17,1.78.08,1.45-.5"
                                    transform="translate(-114.5 -4.93)" />
                                <path class="cls-22"
                                    d="M440.11,183.65c.05-.11.15-1.06.8-.47s.85-.33.85-.33.54-1,.8-.22,1-.52,1-.52.8.09.75.77"
                                    transform="translate(-114.5 -4.93)" />
                                <path class="cls-22"
                                    d="M445.57,182.4c.56-.87.89-.5.89-.5s0,2.23.58,1.3.93-2.28,1.06-1.5"
                                    transform="translate(-114.5 -4.93)" />
                                <path class="cls-22"
                                    d="M439.74,179s-.3-2.05.89-.91,1.43.52,1.39.28,1.67-.84,1.84.22,1.39.33,1.45,0"
                                    transform="translate(-114.5 -4.93)" />
                                <path class="cls-22"
                                    d="M438.79,174s.48-1.56,1.43-.5,2-.26,2-.26.33-.55.57.37c1,1.08.89-.45,1.55-1.13s2-.15,2,.18"
                                    transform="translate(-114.5 -4.93)" />
                            </g>
                            <g id="note_tape">
                                <path id="tape1" class="cls-32"
                                    d="M394.57,166.1A50.38,50.38,0,0,1,384.32,175l.65-1.81-1.19.34.59-2.34-3,1.26c3.4-3.31,6.82-6.44,10.27-9.34l-.44,1.66,1.79-1.43-1,2.11,1.75-.82-.73,2Z"
                                    transform="translate(-114.5 -4.93)" />
                                <path id="tape1-2" data-name="tape1" class="cls-32"
                                    d="M383.09,185.05a44.55,44.55,0,0,1,5.82,10.54l-1.44-.9.07,1.1-1.91-.95.52,2.82c-2.22-3.56-4.3-7.1-6.16-10.64l1.36.7-.91-1.82,1.64,1.25-.38-1.67,1.57,1Z"
                                    transform="translate(-114.5 -4.93)" />
                                <path id="tape1-3" data-name="tape1" class="cls-32"
                                    d="M440.77,218.18a36.68,36.68,0,0,1,8.61,4.87H448l.52.74-1.75.16,1.58,1.74c-3.08-1.53-6.06-3.12-8.87-4.79l1.24-.1-1.41-.89,1.68.18-1-1,1.52,0Z"
                                    transform="translate(-114.5 -4.93)" />
                                <path id="tape2" class="cls-32"
                                    d="M427.88,222.49a46.59,46.59,0,0,1-8.14,8.77l.28-1.32-1.13.16.93-1.67-2.43.61A92.11,92.11,0,0,1,425,220.7l1.26-.2-.39,1.21,1-.18-.34,1.18Z"
                                    transform="translate(-114.5 -4.93)" />
                                <path id="tape2-2" data-name="tape2" class="cls-32"
                                    d="M421,176.91a47.17,47.17,0,0,1-9.12-7.75l1.33.22-.2-1.12,1.71.86-.72-2.4a91.72,91.72,0,0,1,8.67,7.23l.25,1.25-1.22-.33.22,1-1.2-.29Z"
                                    transform="translate(-114.5 -4.93)" />
                                <path id="tape2-3" data-name="tape2" class="cls-32"
                                    d="M440.05,169.43a46.31,46.31,0,0,1-1.42-11.88l.82,1.06.61-1,.67,1.8,1.11-2.26a91.19,91.19,0,0,1,1.44,11.2l-.66,1.09-.68-1.07-.5.88-.69-1Z"
                                    transform="translate(-114.5 -4.93)" />
                                <path id="tape3" class="cls-32"
                                    d="M374.66,209.51a26,26,0,0,0,2.21,10.14l.78-1,.71.51,1-1.42,1.75,1.1.33-2,1.75,2.27A38.9,38.9,0,0,0,381,207.82l-1.17,2-1.3-1.62-.13,2.08-2.15-1.82.07,2.47Z"
                                    transform="translate(-114.5 -4.93)" />
                                <path id="tape3-2" data-name="tape3" class="cls-32"
                                    d="M424.23,189.15a20.38,20.38,0,0,0,1.86-7.88l-.88.42-.33-.61-1.17.68-.86-1.37-.89,1.27-.47-2.2a30.14,30.14,0,0,0-2.31,8.74l1.48-1,.37,1.58.79-1.42.89,2,.79-1.76Z"
                                    transform="translate(-114.5 -4.93)" />
                            </g>
                        </g>
                        <g id="lamp">
                            <path class="cls-38"
                                d="M270,150.32h30.22c-.3-2.07-.38-4-3-5.13a64.8,64.8,0,0,0-23.13-.59C271.64,145.19,270.61,147.28,270,150.32Z"
                                transform="translate(-114.5 -4.93)" />
                            <path class="cls-38"
                                d="M281.22,143.85l-1.17-26.93a2.1,2.1,0,0,1,2.14-2.14h1.43s1.92-.36,1.86,2.12.57,26.95.57,26.95Z"
                                transform="translate(-114.5 -4.93)" />
                            <g id="lamp_neck">
                                <path class="cls-39"
                                    d="M284.15,114.79c.09-14.89.94-22.31,9.81-16.91l2-2.73c.49-.56-8-7.48-12.77-.75-3.68,5.35-1.62,17.94-2.05,20.37Z"
                                    transform="translate(-114.5 -4.93)" />
                                <line class="cls-12" x1="166.44" y1="103.25" x2="169.69" y2="103.25" />
                                <line class="cls-12" x1="166.39" y1="100.91" x2="169.69" y2="100.91" />
                                <line class="cls-12" x1="166.43" y1="98.67" x2="170.1" y2="98.9" />
                                <line class="cls-12" x1="166.6" y1="96.23" x2="170.35" y2="97.1" />
                                <line class="cls-12" x1="167.13" y1="93.07" x2="170.92" y2="94.7" />
                                <line class="cls-12" x1="169.03" y1="88.97" x2="172.35" y2="92.12" />
                                <line class="cls-12" x1="171.78" y1="86.94" x2="173.47" y2="91.4" />
                                <line class="cls-12" x1="175.39" y1="86.68" x2="175" y2="91.21" />
                                <line class="cls-12" x1="179.06" y1="88.09" x2="176.96" y2="91.69" />
                                <line class="cls-12" x1="166.57" y1="106.31" x2="169.69" y2="106.31" />
                            </g>
                            <path id="lamp_hat" class="cls-38"
                                d="M314.59,104.09c-6.07,6-12.07,11.44-17.61,13.09-5.18-7.29-7-14.06-2.29-20.33C300.35,89.86,307.63,96.49,314.59,104.09Z"
                                transform="translate(-114.5 -4.93)" />
                            <path id="lamp_pear" class="cls-40" d="M310.07,108.4c.41.73,2.48,10.52-7.55,6.07Z"
                                transform="translate(-114.5 -4.93)" />
                            <path id="hat_light" class="cls-41" d="M297.05,99.63c-.35.91-2.72,4.72.44,11.61"
                                transform="translate(-114.5 -4.93)" />
                        </g>
                        <g id="lamp_court">
                            <path class="cls-12"
                                d="M274,259.61c-2.47-11.33-1.4-19.61.13-25.21,1-3.73,1.77-4.55,2.47-8.45,1.52-8.57-.61-13.13-1-21.44a57.49,57.49,0,0,1,1.78-17.4"
                                transform="translate(-114.5 -4.93)" />
                            <path class="cls-12"
                                d="M274.8,147a19.48,19.48,0,0,0-2.48,5.74c-1.59,6.35,2.31,7.27,5.24,23.24.06.31.12,1.05.14,1.2"
                                transform="translate(-114.5 -4.93)" />
                            <path class="cls-42"
                                d="M275.66,177.46l4.36.38c1,2.84.74,5.92-.26,9.13l-4.49-.56A18.93,18.93,0,0,1,275.66,177.46Z"
                                transform="translate(-114.5 -4.93)" />
                            <ellipse class="cls-42" cx="163.18" cy="177.42" rx="1.51" ry="2.38" />
                        </g>
                        <g id="cup">
                            <path class="cls-43"
                                d="M325.28,136.15h-16s-6.43-.32-6.43,4.62,7.08,5.45,7.08,5.45-.16,3.51,2.08,3.64c2.08-.13,12.48,0,12.48,0a9.66,9.66,0,0,0,1.75-4.75C326.43,142.63,325.83,136.14,325.28,136.15Zm-15.79,7.41s-3.64-.26-3.64-2.66,3.31-2.67,3.31-2.67A22.23,22.23,0,0,1,309.49,143.56Z"
                                transform="translate(-114.5 -4.93)" />
                            <path class="cls-44"
                                d="M311,140.31c.43-.66,1.08-1.44,1.81-1.38s1,1.15,1.88,1.3c1.18.19,1.7-1.64,3-1.56,1.1.06,1.24,1.4,2.36,1.43s1.49-1.25,2.6-1.22a2.45,2.45,0,0,1,1.69,1"
                                transform="translate(-114.5 -4.93)" />
                            <path class="cls-44"
                                d="M311,144.05c.43-.66,1.08-1.44,1.81-1.38s1,1.15,1.88,1.3c1.18.19,1.7-1.64,3-1.56,1.1.06,1.24,1.4,2.36,1.43s1.49-1.25,2.6-1.22a2.45,2.45,0,0,1,1.69,1"
                                transform="translate(-114.5 -4.93)" />
                            <path class="cls-44"
                                d="M311,147.58c.43-.66,1.08-1.44,1.81-1.38s1,1.15,1.88,1.29c1.18.2,1.7-1.63,3-1.55,1.1.06,1.24,1.4,2.36,1.42s1.49-1.24,2.6-1.21a2.45,2.45,0,0,1,1.69,1"
                                transform="translate(-114.5 -4.93)" />
                        </g>
                        <g id="laptop">
                            <g id="laptop-2" data-name="laptop">
                                <rect class="cls-45" x="218.77" y="106.31" width="59.26" height="38.63" />
                                <line class="cls-45" x1="218.77" y1="140.78" x2="278.03" y2="140.78" />
                            </g>
                            <g id="laptop_airflow">
                                <line class="cls-22" x1="223.79" y1="142.12" x2="223.79" y2="143.55" />
                                <line class="cls-22" x1="225.22" y1="142.12" x2="225.22" y2="143.55" />
                                <line class="cls-22" x1="226.65" y1="142.12" x2="226.65" y2="143.55" />
                                <line class="cls-22" x1="227.99" y1="142.12" x2="227.99" y2="143.55" />
                                <line class="cls-22" x1="229.42" y1="142.12" x2="229.42" y2="143.55" />
                                <line class="cls-22" x1="230.85" y1="142.12" x2="230.85" y2="143.55" />
                                <line class="cls-22" x1="232.01" y1="142.12" x2="232.01" y2="143.55" />
                                <line class="cls-22" x1="233.44" y1="142.12" x2="233.44" y2="143.55" />
                            </g>
                            <rect x="268.21" y="142.23" width="3.83" height="1.22" rx="0.54" />
                            <circle cx="274.53" cy="142.85" r="0.61" />
                            <g id="thinkpad_text"><text class="cls-46"
                                    transform="translate(223.08 118.59) rotate(-45)">Th nkpad</text>
                                <line class="cls-47" x1="224.05" y1="114.6" x2="225.58" y2="116.07" />
                                <rect class="cls-48" x="338.02" y="119" width="0.47" height="0.47"
                                    transform="translate(-99.74 269.18) rotate(-45)" />
                            </g>
                            <g id="laptop_highlight" class="cls-49">
                                <line class="cls-44" x1="242.33" y1="111.43" x2="227.52" y2="126.5" />
                                <line class="cls-44" x1="253.94" y1="112.25" x2="232.01" y2="133.74" />
                                <line class="cls-44" x1="265.03" y1="116.07" x2="243.46" y2="136.64" />
                                <line class="cls-44" x1="270.13" y1="126.35" x2="258.1" y2="136.64" />
                            </g>
                        </g>
                        <g id="yarn_needles">
                            <line class="cls-50" x1="315.39" y1="93.93" x2="311.23" y2="85.42" />
                            <circle class="cls-51" cx="310.39" cy="83.89" r="1.82" />
                            <line class="cls-50" x1="320.95" y1="93.1" x2="322.62" y2="85.61" />
                            <circle class="cls-51" cx="322.91" cy="83.89" r="1.82" />
                        </g>
                        <g id="yarn_lines">
                            <circle class="cls-52" cx="320.2" cy="104.58" r="11.7" />
                            <path class="cls-52" d="M432.51,98a19.16,19.16,0,0,1,11.87,18"
                                transform="translate(-114.5 -4.93)" />
                            <path class="cls-52" d="M440,120s-1.17-16.92-12.41-19.71"
                                transform="translate(-114.5 -4.93)" />
                            <path class="cls-52" d="M434.32,104.64s-7.81,4.7-8.62,12.34"
                                transform="translate(-114.5 -4.93)" />
                            <path class="cls-52" d="M431.81,102.27s-7,3.59-8.37,10.42"
                                transform="translate(-114.5 -4.93)" />
                            <path class="cls-52" d="M426.54,113.63s6.47,2.28,11.94-.94"
                                transform="translate(-114.5 -4.93)" />
                            <path class="cls-52" d="M426.14,117.48s10.22.69,13.06-2.12"
                                transform="translate(-114.5 -4.93)" />
                            <path class="cls-52" d="M430.65,107.61s.78,4.2,0,6.58"
                                transform="translate(-114.5 -4.93)" />
                            <path class="cls-52" d="M435,105.47s.56,6.73-.65,8.55"
                                transform="translate(-114.5 -4.93)" />
                        </g>
                        <g id="yarn_highlight">
                            <path class="cls-53" d="M431.55,103.83s-5.4,4.35-6.73,8.41"
                                transform="translate(-114.5 -4.93)" />
                            <path class="cls-53" d="M428.18,101.71s-3.13,3.22-3.65,5.53"
                                transform="translate(-114.5 -4.93)" />
                            <path class="cls-53" d="M432,107.79s.88,3.61.13,5.43" transform="translate(-114.5 -4.93)" />
                            <path class="cls-53" d="M429.93,110.64s-1.39,1.34-1.5,2.19"
                                transform="translate(-114.5 -4.93)" />
                            <path class="cls-53" d="M427.29,115.17c0,.26,8,1.41,10.4-1"
                                transform="translate(-114.5 -4.93)" />
                            <path class="cls-53" d="M429.47,118.67c.16,0,6.69.82,8.77-1.11"
                                transform="translate(-114.5 -4.93)" />
                            <path class="cls-53" d="M430.65,100.26s8.53,4,10.74,17"
                                transform="translate(-114.5 -4.93)" />
                            <path class="cls-53" d="M437.69,99.38s5.71,2,7.47,11.43"
                                transform="translate(-114.5 -4.93)" />
                        </g>
                        <g id="js_book">
                            <path class="cls-54"
                                d="M462.18,130.55l-39.37.66c-1.25.2,0,8.21,1.25,8l37.57-1.35C464.11,138.06,464.66,130.73,462.18,130.55Z"
                                transform="translate(-114.5 -4.93)" />
                            <polygon class="cls-55"
                                points="344.06 125.68 343.9 133.06 342 133.13 341.79 125.72 344.06 125.68" />
                            <polygon class="cls-55"
                                points="342 133.13 340.17 133.19 339.86 125.75 341.79 125.72 342 133.13" />
                            <polygon class="cls-55"
                                points="315.56 134 315.06 126.26 313.15 126.33 313.29 134.12 315.56 134" />
                            <polygon class="cls-55"
                                points="313.15 126.33 311.32 126.39 311.35 134.22 313.29 134.12 313.15 126.33" />
                            <g id="js_text">
                                <path class="cls-22" d="M435.59,133.14h4s2.43,5.24-3.25,3.29"
                                    transform="translate(-114.5 -4.93)" />
                                <path class="cls-22"
                                    d="M448.05,133.9s-.36-1.82-1.79-.54c-1.17,1.42,1,1.47,1.15,1.77.66.56-1.12,2.46-2.34.82"
                                    transform="translate(-114.5 -4.93)" />
                            </g>
                        </g>
                        <g id="book_cover_1">
                            <path class="cls-56"
                                d="M455,138.23a18.61,18.61,0,0,1,0,12.05H422.38c-1.46-1.33-1.51-5.25-.61-10.92C432.27,138.58,443.41,138.24,455,138.23Z"
                                transform="translate(-114.5 -4.93)" />
                            <path class="cls-57"
                                d="M455.64,140.26l-31.58,1.48v6l31.49.56A18.77,18.77,0,0,0,455.64,140.26Z"
                                transform="translate(-114.5 -4.93)" />
                            <path class="cls-22" d="M425.19,143c6.68-.52,18.49-.72,30.71-.89"
                                transform="translate(-114.5 -4.93)" />
                            <path class="cls-22" d="M424.06,144.47a87.23,87.23,0,0,1,12.13-.22"
                                transform="translate(-114.5 -4.93)" />
                            <path class="cls-22" d="M437.75,144.25c3.56.07,11,0,18.29,0"
                                transform="translate(-114.5 -4.93)" />
                            <path class="cls-22" d="M439.05,146.42a142.77,142.77,0,0,0-15,.61"
                                transform="translate(-114.5 -4.93)" />
                            <path class="cls-22" d="M440.52,146A139,139,0,0,0,456,146"
                                transform="translate(-114.5 -4.93)" />
                        </g>
                        <g id="book_cover_1-2" data-name="book_cover_1">
                            <path class="cls-58"
                                d="M419.76,118.73a18.58,18.58,0,0,0,0,12h32.66c1.46-1.32,1.51-5.25.6-10.92C442.53,119.07,431.38,118.74,419.76,118.73Z"
                                transform="translate(-114.5 -4.93)" />
                            <path class="cls-57"
                                d="M419.16,120.75l31.58,1.49v6l-31.49.57A18.66,18.66,0,0,1,419.16,120.75Z"
                                transform="translate(-114.5 -4.93)" />
                            <path class="cls-22" d="M449.61,123.45c-6.68-.52-18.49-.72-30.71-.9"
                                transform="translate(-114.5 -4.93)" />
                            <path class="cls-22" d="M450.74,125a88.59,88.59,0,0,0-12.13-.21"
                                transform="translate(-114.5 -4.93)" />
                            <path class="cls-22" d="M437.05,124.75c-3.56.07-11,0-18.29,0"
                                transform="translate(-114.5 -4.93)" />
                            <path class="cls-22" d="M435.75,126.91a148.59,148.59,0,0,1,15,.61"
                                transform="translate(-114.5 -4.93)" />
                            <path class="cls-22" d="M434.27,126.48a136.42,136.42,0,0,1-15.42,0"
                                transform="translate(-114.5 -4.93)" />
                        </g>
                    </g>
                    <g id="cloud_small-3" data-name="cloud_small">
                        <path class="cls-9"
                            d="M481.57,215.52a27.16,27.16,0,0,0-6,.68s0,0,0-.07c0-7.18-6.45-13-14.41-13a15.24,15.24,0,0,0-9.68,3.39c-3.12-13.23-16.13-23.16-31.72-23.16a35,35,0,0,0-16.64,4.15,36,36,0,0,0-25.1-9.88c-18.91,0-34.25,13.85-34.25,30.92a28.2,28.2,0,0,0,1.11,7.82,20.57,20.57,0,0,0-5.87-.85c-10.4,0-18.83,7.61-18.83,17a16.21,16.21,0,0,0,5.65,12.14c-3.53,2.32-5.65,5.25-5.65,8.45,0,7.52,11.73,13.61,26.2,13.61h135.2c14.47,0,26.2-11.46,26.2-25.59S496,215.52,481.57,215.52Z"
                            transform="translate(-114.5 -4.93)" />
                        <path class="cls-10"
                            d="M327,243.1c-8.55-13.6,4.63-29.42,24-23.49a.86.86,0,0,0,1.16-.9c-7.65-46.34,47.68-47.25,56.62-8.85a.93.93,0,0,0,1.56.38c1.72-1.93,1.25-6.5-3.44-16.11a2.23,2.23,0,0,1,1.4-3.08c20.62-7.32,38.32,2,41.32,19.11a.92.92,0,0,0,1.45.49c11.42-8.5,21.3-4.06,23,7.34a.91.91,0,0,0,1.15.69c11.12-2.83,21.25-.93,22.69,1.8l5.18,13a.75.75,0,0,1,0,.53l-8.32,23a.89.89,0,0,1-.87.57l-169.07-2.84a.83.83,0,0,1-.85-1l3.08-10.07A.74.74,0,0,0,327,243.1Z"
                            transform="translate(-114.5 -4.93)" />
                        <path class="cls-11"
                            d="M495.16,218.28c2.26,2.22,5.61,8.4,5.48,15.84,0,8.9-8.94,16.11-20,16.11-8,0-14.92-3.83-18.09-9.33-2.32,2.86-7,4.82-12.35,4.82-7.68,0-13.91-4-13.91-8.94a2.11,2.11,0,0,1,0-.25c10.13-3.1,9.22-6.85,8.66-9.43a27.1,27.1,0,0,1-12.14,6c-7.83,1.8-16.13,1.74-20.76,0-.41-.15-.92.1-.89.43.06.54.63,1,1.08,1.4,3.07,2.66,9.12,4.16,18.15,2.78a4.67,4.67,0,0,1,.74,2.44c0,4.94-8.5,8.95-19,8.95-8.23,0-15.21-2.47-17.84-5.92-.73,4.45-9.85,8-21,8s-20.27-3.5-21-7.94c-2.05,3-6.66,5.08-12,5.08s-11.54-.77-13.65-3.67c-4.07,3.42-4.46,4.37-6,7.73,0,7.92,15.74,14.33,35.16,14.33.62,0,1.23,0,1.84,0l.43,0h117.2a9.46,9.46,0,0,0,1.07-.06c.65,0,1.3.06,2,.06,15.91,0,28.8-11.64,28.8-26C507.12,231.64,502.94,222.94,495.16,218.28Z"
                            transform="translate(-114.5 -4.93)" />
                        <path class="cls-11"
                            d="M385.68,225.25c9.39,1,16.41-3.11,15.8-7.23a3.82,3.82,0,0,0-.48-1.33.63.63,0,0,0-.89-.14c-2.45,2.5-8.15,4.18-15.06,4.08s-13.23-2-16.41-4.59c-.28-.23-.78-.17-.86.11a3.25,3.25,0,0,0-.1,1.39C368.19,221.08,376.2,224.26,385.68,225.25Z"
                            transform="translate(-114.5 -4.93)" />
                        <path class="cls-12"
                            d="M482.4,215.52a27.16,27.16,0,0,0-6,.68s0,0,0-.07c0-7.18-6.45-13-14.41-13a15.24,15.24,0,0,0-9.68,3.39c-3.12-13.23-16.13-23.16-31.72-23.16a35,35,0,0,0-16.64,4.15,36,36,0,0,0-25.1-9.88c-18.91,0-34.25,13.85-34.25,30.92a27.83,27.83,0,0,0,1.11,7.82,20.57,20.57,0,0,0-5.87-.85c-10.4,0-18.83,7.61-18.83,17a16.21,16.21,0,0,0,5.65,12.14C323.12,247,321,249.9,321,253.1c0,7.52,11.73,13.61,26.2,13.61H482.4c14.47,0,26.2-11.46,26.2-25.59S496.87,215.52,482.4,215.52Z"
                            transform="translate(-114.5 -4.93)" />
                    </g>
                    <g id="cloud_large-2" data-name="cloud_large">
                        <path class="cls-9"
                            d="M411.25,255.92c.15-5.8-7.81-10.66-17.78-10.85a30.82,30.82,0,0,0-4.56.26,13.36,13.36,0,0,0-7.37-9.2,17.83,17.83,0,0,0-21.34,4.72,15.63,15.63,0,0,0-7.12-7.78,19.7,19.7,0,0,0-11.27-2.34,14.08,14.08,0,0,0-7.08-10.09c-5.25-2.91-12.09-2.58-18.42.3,1.05-8-2.89-16-11-20.53a28.18,28.18,0,0,0-24.76-.83c.92-6.29-1.1-11.87-6.06-14.61-6.84-3.79-17.05-1-24.75,6.17a16.22,16.22,0,0,0-1.75-2.87c-6.83-8.91-22.09-10.61-34.09-3.79-8.9,5.05-13.5,13.38-12.49,21a23.76,23.76,0,0,0-13.63,3.62c-5.61,3.57-8.63,9-8.64,14.25-6.25-6.67-18.11-7.62-26.9-2-7.54,4.8-10.39,12.89-7.53,19.58a15.93,15.93,0,0,0-2.89-.26c-6.29,0-11.39,3.42-11.39,7.65a5.26,5.26,0,0,0,.34,1.84,11.8,11.8,0,0,0-4.73-1c-5.82,0-10.54,4.07-10.54,9.08s4.72,9.08,10.54,9.08l.45,0v0h271l.42,0c.4,0,.79,0,1.18,0h.05c6.63-.37,11.93-4.76,12.07-10.22,0-.13,0-.26,0-.39A4.78,4.78,0,0,0,411.25,255.92Z"
                            transform="translate(-114.5 -4.93)" />
                        <path class="cls-11"
                            d="M411.25,255.92c.15-5.8-7.81-10.66-17.78-10.85a30.82,30.82,0,0,0-4.56.26c-.24-1.11-26.64,3.69-56.75,2.4-22.28-.94-20.21-27.81-46.21-29.24-58.37-3.22-113.71,30.36-154,30.23-.73,0-4.22.41-5.93.41-5.82,0-10.54,4.07-10.54,9.08s4.72,9.08,10.54,9.08l.45,0v0h271l.42,0c.4,0,.79,0,1.18,0h.05c6.63-.37,11.93-4.76,12.07-10.22,0-.13,0-.26,0-.39A4.78,4.78,0,0,0,411.25,255.92Z"
                            transform="translate(-114.5 -4.93)" />
                        <path class="cls-59"
                            d="M129.57,250.7c3.69,7.17,8.23,9.26,15.87,4,6.87,1.14,11.2-1.72,13.76-7.41,9,5.78,17.58,5.19,25.79.25,11.66,4.24,21.15,3,28.09-4.57-5.68-2.7-8.75-5.26-8.12-7.63,10.53,4.15,21.25,6.34,37-3-2.33,4.51-6.58,7.95-12.36,10.95,5.46,4.14,12.81,5.26,21.85-.68,11.37,11.29,22.23,11.89,32.53,1.11-19.2-3.81-23.19-12.73-24.07-22.7,10.39,9.64,18.07,22.31,45.51,12.94-1,4.42-5.69,7.63-14.7,9.39,11.45,6.34,21.48,7,29.95,1.4,12.81,11.85,25.66,15,38.54,6.87a27.83,27.83,0,0,0,15.91,5.31c16.66-.06,17.63-17.58,0-18.11-5.81.1-10.42,2.62-14.19,6.85-4.6-5.45-10.19-8.84-17.08-9.54-1.85,4.35-6.77,7.27-11.13,10-1.91,1.07-2.06-2.82.95-4.3,14.65-7.68-4.31-19.65-20.51-18.37.49-13.93-20-22.45-36.27-17.91-2.58-16.34-12.31-19.58-24.51-10.37,7.58,3.68,11.34,7.94,11.4,12.77,0,2.94-3.11,3.69-4.09,1.21-5.15-13.31-15.38-11.77-27.4-5-2.13,1.14-4.5.14-2.37-1.85,4.36-3.59,8.76-7,13.65-8-20.89-7.67-31.12,1.92-38,16.84-20.81.37-26.55,14.25-21.07,25.73-11.93-15.46-27.73-15.83-37.19-5.92-4.15,4.92-2,9.67,2.69,14.34-3.48-2-6.85-3.46-9.83-3C132.58,243.48,130,247.55,129.57,250.7Z"
                            transform="translate(-114.5 -4.93)" />
                        <ellipse class="cls-59" cx="108" cy="232.75" rx="20.91" ry="7.49" />
                        <path class="cls-12"
                            d="M411.25,255.92c.15-5.8-7.81-10.66-17.78-10.85a30.82,30.82,0,0,0-4.56.26,13.36,13.36,0,0,0-7.37-9.2,17.83,17.83,0,0,0-21.34,4.72,15.63,15.63,0,0,0-7.12-7.78,19.7,19.7,0,0,0-11.27-2.34,14.08,14.08,0,0,0-7.08-10.09c-5.25-2.91-12.09-2.58-18.42.3,1.05-8-2.89-16-11-20.53a28.18,28.18,0,0,0-24.76-.83c.92-6.29-1.1-11.87-6.06-14.61-6.84-3.79-17.05-1-24.75,6.17a16.22,16.22,0,0,0-1.75-2.87c-6.83-8.91-22.09-10.61-34.09-3.79-8.9,5.05-13.5,13.38-12.49,21a23.76,23.76,0,0,0-13.63,3.62c-5.61,3.57-8.63,9-8.64,14.25-6.25-6.67-18.11-7.62-26.9-2-7.54,4.8-10.39,12.89-7.53,19.58a15.93,15.93,0,0,0-2.89-.26c-6.29,0-11.39,3.42-11.39,7.65a5.26,5.26,0,0,0,.34,1.84,11.8,11.8,0,0,0-4.73-1c-5.82,0-10.54,4.07-10.54,9.08s4.72,9.08,10.54,9.08l.45,0v0h271l.42,0c.4,0,.79,0,1.18,0h.05c6.63-.37,11.93-4.76,12.07-10.22,0-.13,0-.26,0-.39A4.78,4.78,0,0,0,411.25,255.92Z"
                            transform="translate(-114.5 -4.93)" />
                        <path class="cls-60"
                            d="M238.07,233.3c-1.58,8.79-10.18,16.28-22.73,16.28s-22.73-7.29-22.73-16.28S204,223.48,215.34,217C231.82,207.66,240.88,217.61,238.07,233.3Z"
                            transform="translate(-114.5 -4.93)" />
                        <g id="html_book">
                            <path class="cls-61"
                                d="M216.7,200.36s5.44,6.43,1.41,10.42l-2.45.18-2,.13c-9.53.66-26,1.71-26,1.71s-4.92-6.5-1-10.71l3.18-.18,23.46-1.36,1.7-.09Z"
                                transform="translate(-114.5 -4.93)" />
                            <path class="cls-62"
                                d="M188.83,212.73a19.67,19.67,0,0,1-.4-10.74l1.37-.08a19.73,19.73,0,0,0,.44,10.73Z"
                                transform="translate(-114.5 -4.93)" />
                            <path class="cls-62"
                                d="M213.7,211.09a13.26,13.26,0,0,0-.44-10.54l1.7-.09a16.74,16.74,0,0,1,.7,10.5Z"
                                transform="translate(-114.5 -4.93)" />
                            <g id="html_text">
                                <polyline class="cls-63" points="98.73 198.92 96.37 199.02 94.02 199.12" />
                                <polyline class="cls-22" points="96.37 199.02 96.29 201.95 98.75 201.84" />
                                <line class="cls-62" x1="96.29" y1="201.95" x2="93.94" y2="201.92" />
                                <polyline class="cls-63" points="91.49 198.5 91.48 200.4 91.46 202.01" />
                                <line class="cls-63" x1="91.48" y1="200.4" x2="88.11" y2="200.63" />
                                <polyline class="cls-22"
                                    points="81.73 199.31 85.84 198.69 84.08 200.46 85.79 201.99 82.21 202.74" />
                                <polyline class="cls-22" points="79.02 199.41 76.2 199.91 76.73 203.25" />
                            </g>
                        </g>
                        <g id="css_book">
                            <path class="cls-64"
                                d="M226.52,210.34l-38.62,2c-1.22.23.29,8,1.5,7.81l36.83-2.64C228.67,217.64,229,210.44,226.52,210.34Z"
                                transform="translate(-114.5 -4.93)" />
                            <polygon class="cls-65"
                                points="108.46 205.6 108.56 212.85 106.7 212.98 106.24 205.72 108.46 205.6" />
                            <polygon class="cls-65"
                                points="106.7 212.98 104.91 213.11 104.34 205.82 106.24 205.72 106.7 212.98" />
                            <polygon class="cls-65"
                                points="80.79 214.76 80.02 207.19 78.15 207.32 78.56 214.96 80.79 214.76" />
                            <polygon class="cls-65"
                                points="78.15 207.32 76.35 207.44 76.66 215.13 78.56 214.96 78.15 207.32" />
                            <g id="css_text">
                                <path class="cls-22" d="M200.87,213.4s-2.29.8-1.64,2.94,3.35,0,3.35,0"
                                    transform="translate(-114.5 -4.93)" />
                                <path class="cls-22"
                                    d="M206.88,213.48s-2.37-1.15-2,.75c.19.93,1.82.35,2.08,1.42,0,0,.51,2-2.22.75"
                                    transform="translate(-114.5 -4.93)" />
                                <path class="cls-22"
                                    d="M212.15,213.42s-2.37-1.16-2,.74c.2.94,1.82.35,2.08,1.43,0,0,.51,2-2.21.74"
                                    transform="translate(-114.5 -4.93)" />
                            </g>
                        </g>
                        <g id="book_filler1">
                            <path class="cls-66"
                                d="M185.76,220.19c12.68-.8,25.88-1,39.5-.76l-.77,1.59,1.09.83-1.28,2.36,1,1.79-.7,1.08.57,1.6-.57,1.66,1,1.59-1.15,1.79c-11.54.57-24.66.79-38.67.83l.77-1.91-1.09-1.47,1-1.47-1-2.3,1.28-.41-1.28-2.4,1.09-1.34-1.09-1.46Z"
                                transform="translate(-114.5 -4.93)" />
                            <path class="cls-57" d="M186.53,223.25c12-1.05,25.14-1.46,39.05-1.4"
                                transform="translate(-114.5 -4.93)" />
                            <line class="cls-57" x1="71.28" y1="220.3" x2="79.62" y2="220.3" />
                            <path class="cls-57" d="M199.54,225.22c7.38-.4,15.77-.73,24.76-1"
                                transform="translate(-114.5 -4.93)" />
                            <path class="cls-57" d="M185.44,227.4c10.37-.13,21.3-.3,25.78,0"
                                transform="translate(-114.5 -4.93)" />
                            <path class="cls-57" d="M216.13,226.57a82.32,82.32,0,0,0,9.13-.57"
                                transform="translate(-114.5 -4.93)" />
                            <path class="cls-57" d="M225.13,228.68c-15.25.83-29.73,1.56-39.07,1.6"
                                transform="translate(-114.5 -4.93)" />
                            <path class="cls-57" d="M186.53,232.64c9.76-.48,21.18-.85,33.43-1.15"
                                transform="translate(-114.5 -4.93)" />
                        </g>
                        <g id="book_filler2">
                            <path class="cls-66"
                                d="M193.29,234.61q19.46-.83,37.71-.57l.83,1.4-.89,1.28.89,1.53-.57,1.66,1.27,1.15L231,242.53l.83,1.27c-13.27,0-26.36.09-39.18.38l.89-1.4-1.4-1.91,1.15-1.15-.77-1.47,1-.51-.76-1.4.7-.9Z"
                                transform="translate(-114.5 -4.93)" />
                            <path class="cls-57" d="M193.54,237.74c11.77-.78,24.27-1,37.4-1"
                                transform="translate(-114.5 -4.93)" />
                            <path class="cls-57" d="M193.29,239.72c3.76-.24,7.26-.42,9.76-.32"
                                transform="translate(-114.5 -4.93)" />
                            <path class="cls-57" d="M213.07,239.11c5.38-.05,11.75,0,18.59,0"
                                transform="translate(-114.5 -4.93)" />
                            <path class="cls-57" d="M192.86,241.84c9.16-.45,17.88-.72,25.95-.72"
                                transform="translate(-114.5 -4.93)" />
                            <line class="cls-57" x1="107.86" y1="236.56" x2="117.59" y2="236.56" />
                        </g>
                        <g id="book_filler2-2" data-name="book_filler2">
                            <path class="cls-66"
                                d="M190.07,244.83c13-.55,25.56-.77,37.71-.58l.83,1.41-.89,1.27.89,1.53-.58,1.66,1.28,1.15-1.53,1.47.83,1.28c-13.27,0-26.36.09-39.18.38l.89-1.4-1.4-1.92,1.15-1.15-.77-1.47,1-.51-.76-1.4.7-.89Z"
                                transform="translate(-114.5 -4.93)" />
                            <path class="cls-57" d="M190.32,248c11.77-.78,24.27-1,37.4-1"
                                transform="translate(-114.5 -4.93)" />
                            <path class="cls-57" d="M190.07,249.93c3.75-.24,7.26-.41,9.76-.32"
                                transform="translate(-114.5 -4.93)" />
                            <path class="cls-57" d="M209.85,249.33c5.38-.05,11.75,0,18.59,0"
                                transform="translate(-114.5 -4.93)" />
                            <path class="cls-57" d="M189.63,252.06c9.17-.45,17.89-.72,26-.72"
                                transform="translate(-114.5 -4.93)" />
                            <line class="cls-57" x1="104.64" y1="246.77" x2="114.37" y2="246.77" />
                        </g>
                        <path class="cls-59"
                            d="M253.67,240.6c-1.47-3.45-9.87-3.19-18.77.59a40.15,40.15,0,0,0-8,4.5,10.4,10.4,0,0,0-5.45-1.51,10.71,10.71,0,0,0-2.14.23,8.66,8.66,0,0,0-6-2.25,8.51,8.51,0,0,0-6.33,2.54,25.27,25.27,0,0,0-5.59-1.82c-6.87-1.4-13.2.06-15.84,3.29a9.45,9.45,0,0,0-2.29-.27c-4.23,0-7.65,2.59-7.65,5.8s3.42,5.79,7.65,5.79a9.22,9.22,0,0,0,4.84-1.31,22.62,22.62,0,0,0,9.7,4.33c6.9,1.41,13.26-.07,15.87-3.34a10.25,10.25,0,0,0,16.07-.59,37.82,37.82,0,0,0,10.52-2.89C249.11,249.92,255.13,244.05,253.67,240.6Z"
                            transform="translate(-114.5 -4.93)" />
                        <path class="cls-67"
                            d="M227.7,246.54a23.12,23.12,0,0,1,6.92-5.82,40.11,40.11,0,0,0-7.68,4.34,10.45,10.45,0,0,0-5.44-1.5,10.81,10.81,0,0,0-2.15.22,8.66,8.66,0,0,0-6-2.25,8.47,8.47,0,0,0-6.32,2.54,25.36,25.36,0,0,0-5.6-1.82c-6.86-1.4-13.2.06-15.83,3.29a9.6,9.6,0,0,0-2.3-.27,8.08,8.08,0,0,0-6.95,3.38,9,9,0,0,1,10.4,0l.06,0,.07.07a5.44,5.44,0,0,1,.42.41l3.17,3.06L188.84,248a.57.57,0,0,1,0-.18,2.59,2.59,0,0,1-.12-1.13c.37-2.62,5.08-4.12,10.53-3.36a16.16,16.16,0,0,1,7.08,2.58c1.09-1.94,4.17-3.06,7.59-2.58a9,9,0,0,1,5.83,3,10,10,0,0,1,5-.5,11.22,11.22,0,0,1,3,.86A.38.38,0,0,1,227.7,246.54Z"
                            transform="translate(-114.5 -4.93)" />
                    </g>
                </g>
                <g id="front_cloud_right">
                    <path class="cls-9"
                        d="M692.21,277.76C692.06,271,700,265.39,710,265.17a26.26,26.26,0,0,1,4.57.3,15.33,15.33,0,0,1,7.36-10.69c7.17-4.14,16.44-1.66,21.34,5.48a17.63,17.63,0,0,1,18.39-11.74c.77-5,3.15-9.2,7.09-11.73,5.25-3.37,12.08-3,18.41.36a24.43,24.43,0,0,1,35.77-24.81c-.93-7.3,1.1-13.78,6.06-17,6.84-4.4,17-1.16,24.74,7.16a19.93,19.93,0,0,1,1.75-3.32c6.83-10.35,22.09-12.32,34.09-4.41,8.91,5.87,13.51,15.55,12.5,24.37a21.23,21.23,0,0,1,13.62,4.2,20.79,20.79,0,0,1,8.64,16.54c6.26-7.73,18.12-8.84,26.9-2.35,7.55,5.58,10.39,15,7.53,22.74a14.4,14.4,0,0,1,2.9-.31c6.29,0,11.39,4,11.39,8.89a6.89,6.89,0,0,1-.35,2.13,10.54,10.54,0,1,1,4.73,20l-.44,0v0H706l-.42,0c-.39,0-.78,0-1.17,0h-.06c-6.63-.43-11.93-5.53-12.07-11.87,0-.15,0-.3,0-.45A8.65,8.65,0,0,1,692.21,277.76Z"
                        transform="translate(-114.5 4.93)" />
                    <path class="cls-11"
                        d="M692.21,277.76C692.06,271,700,265.39,710,265.17a26.26,26.26,0,0,1,4.57.3c.23-1.29,26.63,4.28,56.74,2.79,22.28-1.1,20.22-32.3,46.22-34,58.37-3.74,113.71,35.25,154,35.1.74,0,4.23.48,5.93.48a10.55,10.55,0,0,1,0,21.09l-.44,0v0H706l-.42,0c-.39,0-.78,0-1.17,0h-.06c-6.63-.43-11.93-5.53-12.07-11.87,0-.15,0-.3,0-.45A8.65,8.65,0,0,1,692.21,277.76Z"
                        transform="translate(-114.5 4.93)" />
                    <path class="cls-59"
                        d="M973.89,271.7c-3.68,8.32-8.22,10.76-15.87,4.58-6.86,1.33-11.2-2-13.75-8.6-9,6.71-17.59,6-25.8.29-11.66,4.93-21.15,3.53-28.08-5.3,5.67-3.13,8.75-6.11,8.11-8.87-10.53,4.82-21.24,7.36-37-3.49,2.33,5.24,6.57,9.23,12.35,12.72-5.45,4.8-12.81,6.11-21.85-.79-11.37,13.1-22.22,13.81-32.53,1.29,19.21-4.43,23.19-14.79,24.08-26.37-10.39,11.21-18.08,25.92-45.52,15,1,5.14,5.69,8.86,14.71,10.91-11.46,7.35-21.49,8.12-30,1.62-12.82,13.76-25.66,17.4-38.55,8a25.29,25.29,0,0,1-15.91,6.16c-16.66-.07-17.62-20.41,0-21,5.81.13,10.42,3.05,14.19,8,4.6-6.33,10.2-10.26,17.09-11.07,1.85,5,6.77,8.44,11.12,11.55,1.92,1.24,2.06-3.28-.94-5-14.66-8.92,4.31-22.82,20.5-21.33-.48-16.18,20.05-26.06,36.28-20.8,2.58-19,12.3-22.73,24.5-12-7.58,4.28-11.34,9.23-11.39,14.84,0,3.4,3.1,4.28,4.08,1.39,5.16-15.45,15.39-13.66,27.41-5.8,2.13,1.33,4.49.16,2.36-2.15-4.36-4.17-8.76-8.11-13.65-9.35,20.89-8.9,31.12,2.23,38,19.56,20.8.43,26.55,16.55,21.06,29.88,11.93-17.95,27.73-18.38,37.19-6.88,4.15,5.72,2,11.23-2.69,16.66,3.49-2.35,6.85-4,9.84-3.55C970.88,263.31,973.52,268,973.89,271.7Z"
                        transform="translate(-114.5 4.93)" />
                    <path class="cls-12"
                        d="M692.21,277.76C692.06,271,700,265.39,710,265.17a26.26,26.26,0,0,1,4.57.3,15.33,15.33,0,0,1,7.36-10.69c7.17-4.14,16.44-1.66,21.34,5.48a17.63,17.63,0,0,1,18.39-11.74c.77-5,3.15-9.2,7.09-11.73,5.25-3.37,12.08-3,18.41.36a24.43,24.43,0,0,1,35.77-24.81c-.93-7.3,1.1-13.78,6.06-17,6.84-4.4,17-1.16,24.74,7.16a19.93,19.93,0,0,1,1.75-3.32c6.83-10.35,22.09-12.32,34.09-4.41,8.91,5.87,13.51,15.55,12.5,24.37a21.23,21.23,0,0,1,13.62,4.2,20.79,20.79,0,0,1,8.64,16.54c6.26-7.73,18.12-8.84,26.9-2.35,7.55,5.58,10.39,15,7.53,22.74a14.4,14.4,0,0,1,2.9-.31c6.29,0,11.39,4,11.39,8.89a6.89,6.89,0,0,1-.35,2.13,10.54,10.54,0,1,1,4.73,20l-.44,0v0H706l-.42,0c-.39,0-.78,0-1.17,0h-.06c-6.63-.43-11.93-5.53-12.07-11.87,0-.15,0-.3,0-.45A8.65,8.65,0,0,1,692.21,277.76Z"
                        transform="translate(-114.5 4.93)" />
                </g>
                <g id="front_cloud_small">
                    <path class="cls-9"
                        d="M921.81,242.14a34.13,34.13,0,0,0-7.55.86s0-.06,0-.09c0-9-8.09-16.31-18.07-16.31a19.07,19.07,0,0,0-12.14,4.26c-3.92-16.6-20.24-29.05-39.8-29.05A43.77,43.77,0,0,0,823.38,207a45,45,0,0,0-31.47-12.4c-23.73,0-43,17.37-43,38.79a35,35,0,0,0,1.39,9.8,26.15,26.15,0,0,0-7.37-1.07c-13,0-23.62,9.55-23.62,21.33a20.28,20.28,0,0,0,7.1,15.22c-4.44,2.91-7.1,6.59-7.1,10.59,0,9.44,14.72,17.09,32.87,17.09h169.6c18.15,0,32.86-14.38,32.86-32.12S940,242.14,921.81,242.14Z"
                        transform="translate(-114.5 -10.93)" />
                    <path class="cls-10"
                        d="M727.89,276.75c-10.73-17.06,5.81-36.9,30.15-29.47a1.08,1.08,0,0,0,1.45-1.13c-9.6-58.13,59.8-59.27,71-11.11a1.16,1.16,0,0,0,2,.48c2.17-2.42,1.58-8.15-4.3-20.2a2.79,2.79,0,0,1,1.75-3.87c25.87-9.18,48.06,2.47,51.83,24a1.16,1.16,0,0,0,1.82.61c14.33-10.66,26.72-5.09,28.84,9.21a1.14,1.14,0,0,0,1.44.86c13.95-3.55,26.66-1.17,28.47,2.26l6.5,16.34a.94.94,0,0,1,0,.66l-10.44,28.92a1.12,1.12,0,0,1-1.09.7L725.2,291.43a1,1,0,0,1-1.07-1.29L728,277.51A.93.93,0,0,0,727.89,276.75Z"
                        transform="translate(-114.5 -10.93)" />
                    <path class="cls-11"
                        d="M938.85,245.61c2.84,2.78,7,10.53,6.88,19.87,0,11.16-11.21,20.21-25,20.21-10.06,0-18.71-4.8-22.69-11.71-2.91,3.59-8.75,6-15.49,6-9.64,0-17.45-5-17.45-11.21,0-.11,0-.21,0-.32,12.71-3.88,11.57-8.59,10.87-11.83a34,34,0,0,1-15.23,7.52c-9.82,2.25-20.23,2.18-26.05.07-.51-.19-1.15.12-1.11.53.08.68.8,1.27,1.36,1.76,3.84,3.34,11.43,5.21,22.76,3.48a5.89,5.89,0,0,1,.93,3.07c0,6.19-10.66,11.22-23.81,11.22-10.32,0-19.07-3.1-22.38-7.42-.91,5.57-12.35,10-26.37,10s-25.43-4.39-26.38-10c-2.56,3.75-8.34,6.37-15.07,6.37s-14.48-1-17.12-4.6c-5.1,4.28-5.59,5.48-7.52,9.69,0,9.94,19.74,18,44.1,18q1.17,0,2.31,0l.54,0h147a11.75,11.75,0,0,0,1.34-.09c.81.05,1.63.09,2.46.09,19.95,0,36.13-14.61,36.13-32.63C953.86,262.37,948.62,251.45,938.85,245.61Z"
                        transform="translate(-114.5 -10.93)" />
                    <path class="cls-11"
                        d="M801.53,254.35c11.77,1.23,20.58-3.89,19.81-9.07a4.74,4.74,0,0,0-.6-1.67.79.79,0,0,0-1.11-.17c-3.08,3.14-10.23,5.24-18.9,5.12s-16.59-2.47-20.58-5.76c-.36-.29-1-.21-1.08.14a4.07,4.07,0,0,0-.13,1.74C779.58,249.12,789.64,253.11,801.53,254.35Z"
                        transform="translate(-114.5 -10.93)" />
                    <path class="cls-12"
                        d="M922.85,242.14a34.13,34.13,0,0,0-7.55.86s0-.06,0-.09c0-9-8.09-16.31-18.07-16.31a19.07,19.07,0,0,0-12.14,4.26c-3.92-16.6-20.24-29.05-39.79-29.05A43.79,43.79,0,0,0,824.42,207,45,45,0,0,0,793,194.62c-23.73,0-43,17.37-43,38.79a35,35,0,0,0,1.39,9.8,26.15,26.15,0,0,0-7.37-1.07c-13,0-23.62,9.55-23.62,21.33a20.32,20.32,0,0,0,7.1,15.22c-4.44,2.91-7.1,6.59-7.1,10.59,0,9.44,14.72,17.09,32.87,17.09h169.6c18.15,0,32.86-14.38,32.86-32.12S941,242.14,922.85,242.14Z"
                        transform="translate(-114.5 -10.93)" />
                </g>
            </g>
        </g>
    </g>
</svg>