<svg xmlns="http://www.w3.org/2000/svg" viewBox="0 0 398.3 53.02">
    <defs>
        <style>
             .cls-1 {
                fill: rgba(255,255,255,.5);
                position: absolute;
            }

            #one {
                animation: one 1.5s linear infinite;
            }
            #two {
                animation: two 1.5s linear infinite;
            }
            #three {
                animation: three 1.5s linear infinite;
            }

            @keyframes one {
                16.5% {
                    fill: rgba(255, 255, 255, 1);
                }
                33% {
                    fill: rgba(255,255,255,.5);
                }
            }
            @keyframes two {
                33% {
                    fill: rgba(255,255,255,.5);
                }
                49.5% {
                    fill: rgba(255, 255, 255, 1);
                }
                66% {
                    fill: rgba(255,255,255,.5);
                }
            }
            @keyframes three {
                66% {
                    fill: rgba(255,255,255,.5);
                }
                82.5% {
                    fill: rgba(255, 255, 255, 1);
                }
                99% {
                    fill: rgba(255,255,255,.5);
                }
            }
        </style>
    </defs>
    <g id="Layer_2" data-name="Layer 2">
        <g id="icons_v3">
            <g id="loading_screen">
                <path id="one" class="cls-1"
                    d="M14.08,22.55a12.82,12.82,0,0,1,3.23.41v0a7.74,7.74,0,0,1,12.94-5.73,17.43,17.43,0,0,1,26-11.31A18.4,18.4,0,0,1,87.53,23.06,10.12,10.12,0,0,1,97.77,39.89a6.39,6.39,0,0,1,3,5c0,4.47-6.3,8.1-14.07,8.1H14.08C6.3,53,0,46.2,0,37.79S6.3,22.55,14.08,22.55Z" />
                <path id="two" class="cls-1"
                    d="M162.83,22.55a12.82,12.82,0,0,1,3.23.41v0A7.74,7.74,0,0,1,179,17.19,17.43,17.43,0,0,1,205,5.88a18.41,18.41,0,0,1,31.29,17.18,10,10,0,0,1,3.15-.51,10.11,10.11,0,0,1,7.08,17.34c1.9,1.38,3,3.13,3,5,0,4.47-6.3,8.1-14.08,8.1H162.83c-7.78,0-14.08-6.82-14.08-15.23S155.05,22.55,162.83,22.55Z" />
                <path id="three" class="cls-1"
                    d="M311.57,22.55a12.84,12.84,0,0,1,3.24.41s0,0,0,0a7.74,7.74,0,0,1,12.94-5.73,17.43,17.43,0,0,1,26-11.31,18.4,18.4,0,0,1,31.89,12.53,18.81,18.81,0,0,1-.59,4.65,10,10,0,0,1,3.15-.51,10.11,10.11,0,0,1,7.08,17.34c1.9,1.38,3,3.13,3,5,0,4.47-6.3,8.1-14.08,8.1H311.57c-7.77,0-14.08-6.82-14.08-15.23S303.8,22.55,311.57,22.55Z" />
            </g>
        </g>
    </g>
</svg>