<svg xmlns="http://www.w3.org/2000/svg" viewBox="0 0 240.55 57.58">
    <defs>
        <style>
            .cls-1 {
                fill: none;
                stroke: #fff;
                stroke-linecap: round;
                stroke-linejoin: round;
            }

            .cls-2 {
                font-size: 40px;
                font-family: 'Segoe UI', Tahoma, Geneva, Verdana, sans-serif;
                font-weight: 100;
            }

            .cls-2,
            .cls-3 {
                fill: #fff;
            }
        </style>
    </defs>
    <g id="Layer_2" data-name="Layer 2">
        <g id="icon">
            <circle class="cls-1" cx="28.79" cy="28.79" r="28.29" /><text class="cls-2"
                transform="translate(62.79 45.67)">PINKTREE</text>
            <path class="cls-3"
                d="M48.15,40.32a2,2,0,0,0,1-.8,2.12,2.12,0,0,0,1.11.5,8.61,8.61,0,0,0,.62-2.28,5.34,5.34,0,0,0,.81.59c.31-.19.37-1,.21-1.68H52a7.84,7.84,0,0,0,.54-1.33,5.2,5.2,0,0,0,.49.34c.46-.27.39-1.8-.1-2.38.27-.66.77-2.23,0-3.14,0-1-.21-3.24-2-3.84-.35-.82-1.12-2-2.55-1.73a1.45,1.45,0,0,0-1.74-1.08,1.82,1.82,0,0,0-.75-.85c-.73-.38-2.72.3-2.72.3a4.2,4.2,0,0,0-3.12-1.26,2.41,2.41,0,0,0-2.13,1.79l-.05,0c-.3-.34-.88-.12-1.42.3a6.68,6.68,0,0,0-3.05,1.41c-.14-.11-.07-.36,0-.45a6.75,6.75,0,0,0-1.28-2l.21-.06c0-.76-2-2.26-3.27-2.43-.51-.49-1.05-.76-1.32-.35l-.05,0a2.57,2.57,0,0,0-2-2.13,3.06,3.06,0,0,0-2.46,1,2.92,2.92,0,0,0-.94.3c-.6-.2-1.59-.47-2.05-.17a2.11,2.11,0,0,0-.7,1c-.94-.29-1.41.6-1.62,1.28-1.34-.37-2.06,1.07-2.38,2.05-1.29.56-1.69,2.32-1.79,3.63l-.07,0A3.46,3.46,0,0,0,12,26.62a3.06,3.06,0,0,0-2.84-.71,4.48,4.48,0,0,0-1.88,1.35c-.93.28-1.39,1.64-1.56,2.28-1,.51-1.18,2.22-1.18,3a3.27,3.27,0,0,0,0,2.48c-.3.46-.34,1.66-.06,1.88a2.76,2.76,0,0,0,.31-.27,7.2,7.2,0,0,0,.33,1.05h0c-.1.52-.07,1.17.13,1.32a3.33,3.33,0,0,0,.5-.47,8.34,8.34,0,0,0,.39,1.81,1.36,1.36,0,0,0,.69-.4,1.29,1.29,0,0,0,.63.63,1.32,1.32,0,0,0,.09-.17c.49.54,1.06.94,1.39.9,0,0,0-.21,0-.51.13.16.65,1.31.87,1.4a2.92,2.92,0,0,0,.29-.44,1.41,1.41,0,0,0,.76.46,1,1,0,0,0,.07.15c.08.19.16.37.25.54.41.83.88,1.58,1.26,1.7a5.67,5.67,0,0,0,3.73,1.32l.07,0a4.93,4.93,0,0,1,.89.4,2.1,2.1,0,0,1,.47.58.69.69,0,0,0,.37.3,7.84,7.84,0,0,0,2.51.69,7.48,7.48,0,0,1,1.55.46,8.53,8.53,0,0,1,2.74,3.15,5.35,5.35,0,0,1,.1.64l.15,1.1a23.12,23.12,0,0,1,.06,3.12,1.13,1.13,0,0,1-.21.5,28.46,28.46,0,0,0,3.08.18,28.08,28.08,0,0,0,4.23-.32c-.33-1-.86-2.56-1.21-3.77a20.17,20.17,0,0,1-.71-3.31c0-.47,0-.82.22-1a.13.13,0,0,0,.06-.07c.07,0,.53.21.62.22s.92.78,5.88-2.22l.28-.16a12.72,12.72,0,0,1,2.54-1,2.31,2.31,0,0,0,.85-.44l.19-.13.54-.54a13.15,13.15,0,0,0,1.62-2.08,4.07,4.07,0,0,0,.74-.45,4.94,4.94,0,0,0,.46.55c.35-.11.66-.8.76-1.45l0,0a1.37,1.37,0,0,0,.63-.36,4.35,4.35,0,0,0,.06.64A3.88,3.88,0,0,0,48,40.11Zm-34.43.84Zm10,1.36a.62.62,0,0,1,0,.09c-.11.72-.21,1.34-.28,1.72a.25.25,0,0,1-.28.2h0c-.57-.53-2.4-.74-2.93-.86-.33-.07-.59,0-1.47,0l-.9,0c-.44,0-1-.1-1.64-.19a3,3,0,0,1-.88-.36l-.1-.09a5.93,5.93,0,0,1-.92-.86,4,4,0,0,1-.28-.43,2.42,2.42,0,0,0,.74-1l.11-.1a4.55,4.55,0,0,0,.17.53c.18,0,.41-.29.62-.64l.08.11a1.22,1.22,0,0,0,.47-.68l.06,0a2.81,2.81,0,0,0,.16-.27.84.84,0,0,0,.36.48,4.11,4.11,0,0,0,.56-1,1.71,1.71,0,0,0,.84.78l.13-.25c.74.8,1.6,1.41,2.09,1.34,0,0,0-.3.06-.76a1.15,1.15,0,0,0,.58.43l0,0c.09.77.38,1.58.7,1.72a6.27,6.27,0,0,0,.44-.66,2,2,0,0,0,1.19.68,5.77,5.77,0,0,0,.11-.58,4.92,4.92,0,0,0,.22.59Zm4.6,5.4c0,1-.49,2.48-1.24,2.55-1,.1-2.15-2.19-1.64-2.88.29-.39,1.09-.22,1.19-.6s-.47-.6-.38-.93.76-.55,1.24-.36C28.34,46,28.3,47.71,28.3,47.92Zm7.05-3.65a9.89,9.89,0,0,1-2.7.54h-.09A5.86,5.86,0,0,1,29,41.61a1.37,1.37,0,0,1,.29-.5,1.49,1.49,0,0,0,.26-.48,2.06,2.06,0,0,0,.9-1l.11.16a1.78,1.78,0,0,0,.71-1l.1,0,.23-.39a1.37,1.37,0,0,0,.54.71s.14-.18.31-.45a5.57,5.57,0,0,0,.75,1,1.15,1.15,0,0,0,.57-.6l.25.34.1,0a1.62,1.62,0,0,0,.77.86l.12-.13A1.89,1.89,0,0,0,36,41a4.84,4.84,0,0,0,.26-.67l.19.12c.39.71,1,1.34,1.37,1.38a5.25,5.25,0,0,0,.27-.69,3,3,0,0,0,.78,1,2,2,0,0,0,.52.4A17.26,17.26,0,0,1,35.35,44.27Z" />
        </g>
    </g>
</svg>