<svg xmlns="http://www.w3.org/2000/svg" viewBox="0 0 249.3 57.08"><defs><style>.cls-1{fill:none;stroke:#231f20;stroke-linecap:round;stroke-linejoin:round;stroke-width:0.5px;}.cls-2{font-size:40px;fill:#231f20;font-family:Lato-Hairline, Lato;font-weight:100;}</style></defs><g id="Layer_2" data-name="Layer 2"><g id="icon"><path class="cls-1" d="M47.9,37.79a2,2,0,0,0,1-.8A2.22,2.22,0,0,0,50,37.5a8.76,8.76,0,0,0,.62-2.29,5.87,5.87,0,0,0,.81.6c.31-.2.37-1,.21-1.68h.06a7.75,7.75,0,0,0,.54-1.34,5.2,5.2,0,0,0,.49.34c.46-.27.39-1.8-.1-2.38.27-.66.77-2.23,0-3.14,0-1-.21-3.24-2-3.84-.35-.82-1.12-2-2.55-1.73A1.46,1.46,0,0,0,46.39,21a1.82,1.82,0,0,0-.75-.85c-.73-.38-2.72.3-2.72.3a4.2,4.2,0,0,0-3.12-1.26A2.41,2.41,0,0,0,37.67,21l-.05,0c-.3-.34-.88-.11-1.42.31a6.66,6.66,0,0,0-3.05,1.4,1.15,1.15,0,0,0-.47-.23.25.25,0,0,0,0-.07,1,1,0,0,0,.55-.15,6.75,6.75,0,0,0-1.28-2l.21-.06c0-.76-2-2.26-3.27-2.43-.51-.49-1.05-.76-1.32-.35l-.05,0a2.58,2.58,0,0,0-2-2.13,3.06,3.06,0,0,0-2.46,1,.47.47,0,0,0-.3.12l0,0-.08,0a.48.48,0,0,0-.53.14c-.6-.21-1.59-.48-2.05-.18a2.11,2.11,0,0,0-.7,1c-.94-.29-1.41.6-1.62,1.28-1.34-.37-2.06,1.08-2.38,2.05-1.29.56-1.69,2.32-1.79,3.64l-.07-.05a3.46,3.46,0,0,0-1.75-.25,3.06,3.06,0,0,0-2.84-.71A4.48,4.48,0,0,0,7,24.73C6.08,25,5.62,26.38,5.45,27c-1,.5-1.18,2.21-1.18,3a3.22,3.22,0,0,0,0,2.48c-.3.46-.34,1.66-.06,1.88a2.76,2.76,0,0,0,.31-.27,7.1,7.1,0,0,0,.33,1.06h0c-.1.52-.07,1.17.13,1.32a3.33,3.33,0,0,0,.5-.47,8.34,8.34,0,0,0,.39,1.81,1.29,1.29,0,0,0,.69-.4,1.29,1.29,0,0,0,.63.63,1.32,1.32,0,0,0,.09-.17c.49.54,1.06,1,1.39.9,0,0,0-.21,0-.51a.76.76,0,0,0,.39.29v0c.06.51.25,1.05.47,1.14a2.92,2.92,0,0,0,.29-.44,1.41,1.41,0,0,0,.76.46,1,1,0,0,0,.07.15c.08.19.16.37.25.54.41.83.88,1.59,1.26,1.7A5.72,5.72,0,0,0,16,43.42H16a4.93,4.93,0,0,1,.89.4,2.26,2.26,0,0,1,.47.58.76.76,0,0,0,.37.31,8.26,8.26,0,0,0,2.51.68,7.48,7.48,0,0,1,1.55.46A8.53,8.53,0,0,1,24.57,49a5.35,5.35,0,0,1,.1.64v0l.15,1.08a23.26,23.26,0,0,1,.06,3.13s-.06,1-1.8,1.42a7.3,7.3,0,0,0-2,.59,25.87,25.87,0,0,0,14.44-.33,15.84,15.84,0,0,0-3-.41.34.34,0,0,1-.29-.21c-.23-.68-1-2.9-1.45-4.48a20,20,0,0,1-.71-3.31c0-.47,0-.82.22-1a.13.13,0,0,0,.06-.07.51.51,0,0,1,.26.08l.15.07a.4.4,0,0,0,.21.07s.92.78,5.88-2.22l.28-.16a12.72,12.72,0,0,1,2.54-1,2.31,2.31,0,0,0,.85-.44l.19-.13.21-.2q.17-.15.33-.33a13.8,13.8,0,0,0,1.62-2.09,4.07,4.07,0,0,0,.74-.45,4.57,4.57,0,0,0,.46.56c.35-.12.66-.81.76-1.45l0,0a1.29,1.29,0,0,0,.63-.36,4.35,4.35,0,0,0,.06.64,3.88,3.88,0,0,0,2.24-1.13Zm-34.44.84h0Zm10,1.36a.51.51,0,0,1,0,.09c-.11.72-.21,1.34-.28,1.72a.27.27,0,0,1-.28.21h0c-.57-.53-2.4-.74-2.93-.86a13.62,13.62,0,0,0-1.47,0l-.9-.05c-.44,0-1-.1-1.64-.19a3,3,0,0,1-.88-.36l-.1-.08a6.48,6.48,0,0,1-.92-.87,4,4,0,0,1-.28-.43,2.42,2.42,0,0,0,.74-1l.11-.09a4.76,4.76,0,0,0,.17.52c.18,0,.41-.28.62-.64l.08.11a1.18,1.18,0,0,0,.47-.68l.06,0a2.81,2.81,0,0,0,.16-.27.84.84,0,0,0,.36.48,4.11,4.11,0,0,0,.56-1,1.66,1.66,0,0,0,.84.78l.13-.25c.74.81,1.6,1.41,2.09,1.34,0,0,0-.3.06-.76a1.1,1.1,0,0,0,.58.43l0,0c.09.77.38,1.58.7,1.72a6.27,6.27,0,0,0,.44-.66,2,2,0,0,0,1.19.68,5.1,5.1,0,0,0,.11-.58,4.92,4.92,0,0,0,.22.59Zm5.15,6.1c0,1.27-.62,3.18-1.58,3.28-1.26.13-2.77-2.81-2.12-3.7.37-.5,1.4-.29,1.54-.77s-.61-.78-.49-1.2,1-.71,1.59-.47C28.66,43.67,28.61,45.82,28.6,46.09Zm6.5-4.34a10.33,10.33,0,0,1-2.7.53h-.09a5.86,5.86,0,0,1-3.56-3.19,1.37,1.37,0,0,1,.29-.5,1.4,1.4,0,0,0,.26-.48,2.06,2.06,0,0,0,.9-1l.11.16a1.78,1.78,0,0,0,.71-1l.1,0,.23-.39a1.37,1.37,0,0,0,.54.71s.14-.18.31-.45a5.57,5.57,0,0,0,.75,1,1.15,1.15,0,0,0,.57-.6l.25.34.1,0a1.62,1.62,0,0,0,.77.86l.12-.13a1.89,1.89,0,0,0,1,.81,4.84,4.84,0,0,0,.26-.67l.19.13c.39.7,1,1.33,1.37,1.37a5.25,5.25,0,0,0,.27-.69,3,3,0,0,0,.78,1,2,2,0,0,0,.52.4A18,18,0,0,1,35.1,41.75Z"/><circle class="cls-1" cx="28.54" cy="28.54" r="28.29"/><text class="cls-2" transform="translate(62.54 45.42)">PINKTREE</text></g></g></svg>