<svg xmlns="http://www.w3.org/2000/svg" viewBox="0 0 79.37 71.21"><defs><style>.cls-1{fill:#ea3661;}.cls-1,.cls-2,.cls-3{stroke:#000;stroke-linecap:round;stroke-linejoin:round;stroke-width:2px;}.cls-2{fill:#fff200;}.cls-3{fill:#20d3ce;}</style></defs><g id="Layer_2" data-name="Layer 2"><g id="_3_ones" data-name="3 ones"><path id="puzzle1" class="cls-1" d="M37.53,45.42a4.07,4.07,0,0,1,2.18,1.85l-2.57,9.54,27.11,8,2.62-8.92c0-.08,1.66-1.38,2.7-1.24.83.13,1.29,1.17,1.72,1.62a4.19,4.19,0,0,0,4.15.84,4.36,4.36,0,0,0,2.88-3.51A4.63,4.63,0,0,0,75.4,48.7c-1.29-.48-2.11.65-3.59.2a4.15,4.15,0,0,1-2.18-1.85l2.72-9.33L63.44,35.1c-.09,0-1.4-1.66-1.26-2.71.14-.82,1.18-1.28,1.62-1.71a4.2,4.2,0,0,0,.85-4.16,4.42,4.42,0,0,0-3.51-2.88,4.64,4.64,0,0,0-4.91,2.93c-.48,1.28.65,2.11.19,3.58a4.09,4.09,0,0,1-1.85,2.19L45.09,29.5l-2.62,8.92c0,.07-1.66,1.38-2.7,1.24-.83-.14-1.29-1.17-1.72-1.62a4.21,4.21,0,0,0-4.15-.85A4.38,4.38,0,0,0,31,40.7a4.64,4.64,0,0,0,2.92,4.92C35.23,46.09,36.05,45,37.53,45.42Z"/><path id="puzzle2" class="cls-2" d="M33.44,61.55a4.1,4.1,0,0,1,.05-2.86l9-4.06-11-26-8.55,3.63c-.08,0-2.13-.41-2.68-1.3-.42-.73.09-1.74.16-2.36a4.17,4.17,0,0,0-2-3.74,4.38,4.38,0,0,0-4.54,0A4.62,4.62,0,0,0,12,30.19c.44,1.3,1.84,1.22,2.43,2.65a4.1,4.1,0,0,1-.05,2.86L5.4,39.51,9,48.07c0,.08-.4,2.13-1.29,2.69-.73.41-1.74-.1-2.36-.17a4.2,4.2,0,0,0-3.75,2,4.4,4.4,0,0,0,0,4.54A4.63,4.63,0,0,0,7,59.05c1.3-.44,1.22-1.83,2.65-2.42a4.16,4.16,0,0,1,2.86,0l3.82,9.13,8.55-3.63c.08,0,2.13.41,2.68,1.3.42.73-.09,1.74-.16,2.36a4.19,4.19,0,0,0,2,3.75,4.43,4.43,0,0,0,4.54,0,4.64,4.64,0,0,0,1.94-5.38C35.43,62.9,34,63,33.44,61.55Z"/><g id="_" data-name="?"><path class="cls-3" d="M55,15.58A18.12,18.12,0,0,0,38,1a18.8,18.8,0,0,0-9.36,2.24A18.39,18.39,0,0,0,22,8.46a18.12,18.12,0,0,0-3.56,11.41L29,20c1.21-5.24,5.35-8.64,9.36-8.44a8.52,8.52,0,0,1,5.94,3.36c2.75,3.86.74,8.55.46,9.17-1.85,4.12-6.6,6.71-12,6.53V46.9H43v-10a19,19,0,0,0,10.09-8.57A19,19,0,0,0,55,15.58Z"/><circle class="cls-3" cx="38.01" cy="57.72" r="6.13" transform="translate(-29.68 43.78) rotate(-45)"/></g></g></g></svg>