<svg xmlns="http://www.w3.org/2000/svg" viewBox="0 0 90.61 90.61"><defs><style>.cls-1{fill:#ddaf52;stroke-width:2px;}.cls-1,.cls-2,.cls-3,.cls-4,.cls-5,.cls-6{stroke:#000;stroke-linecap:round;stroke-linejoin:round;}.cls-2{fill:#d134e8;}.cls-3{fill:#35e56f;}.cls-4{fill:#ff3f5f;}.cls-5,.cls-6{fill:none;}.cls-5{stroke-width:3px;}</style></defs><g id="Layer_2" data-name="Layer 2"><g id="_3_ones" data-name="3 ones"><path class="cls-1" d="M70.34,25.7C55.93,13.41,36.49,18.19,35,18.58c-4,1.05-18.07,4.74-23.73,17.8-4,9.16-1.58,17.77-.79,20.44.38,1.32,4.52,14.62,17.27,20,2.18.93,10.47,4.46,16.62.79a11.89,11.89,0,0,0,5.27-5.8c.69-1.87.12-2.26.92-4.61.33-1,1.63-4.8,4.88-6.33a8,8,0,0,1,3.69-.66c4.35,0,11.1-.7,14.77-2.51,5.38-2.64,7.14-9.16,7.26-9.62C83.92,37.27,72.09,27.18,70.34,25.7ZM36.31,60c-4.19,0-7.58-2.36-7.58-5.28s3.39-5.27,7.58-5.27,7.58,2.36,7.58,5.27S40.5,60,36.31,60Z"/><path class="cls-1" d="M70.34,21.55C55.93,9.27,36.49,14,35,14.43c-4,1.06-18.07,4.75-23.73,17.81-4,9.15-1.58,17.76-.79,20.44C10.86,54,15,67.3,27.75,72.72c2.18.93,10.47,4.45,16.62.79a11.89,11.89,0,0,0,5.27-5.8c.69-1.87.12-2.26.92-4.62.33-1,1.63-4.79,4.88-6.33a8.23,8.23,0,0,1,3.69-.66c4.35,0,11.1-.7,14.77-2.5C79.28,51,81,44.44,81.16,44,83.92,33.13,72.09,23,70.34,21.55Zm-34,34.31c-4.19,0-7.58-2.36-7.58-5.28s3.39-5.27,7.58-5.27,7.58,2.36,7.58,5.27S40.5,55.86,36.31,55.86Z"/><path class="cls-2" d="M40,22.29c.93-.59.79-1.32,1.58-1.52s1.73.42,2.64,1.06c1.2.85,1.14,1.25,1.78,1.38,1.2.25,1.82-1.08,3-.79a2,2,0,0,1,1.39,1.52c.23,1.21-1.18,1.67-1.12,3S50.88,28.5,51,30a2.3,2.3,0,0,1-1,2.11c-1.11.58-2-1-4.28-1.05-1.76,0-2.1.9-3.5.53a3.9,3.9,0,0,1-2.44-2.05c-.53-1.14,0-1.68-.52-2.37-.82-1-2.39-.24-3.1-1.19a2.49,2.49,0,0,1,.52-3C37.62,22.18,38.7,23.12,40,22.29Z"/><path class="cls-3" d="M16.58,36.26c.68-.87.31-1.51,1-2s1.77-.18,2.84.12c1.42.4,1.5.8,2.14.71,1.22-.16,1.36-1.62,2.54-1.73a2.05,2.05,0,0,1,1.81,1c.62,1.08-.56,2-.07,3.17s2.06,1,2.64,2.36a2.32,2.32,0,0,1-.23,2.32c-.86.91-2.24-.29-4.39.42-1.67.55-1.68,1.55-3.12,1.66a3.87,3.87,0,0,1-3-1.12c-.88-.89-.55-1.59-1.29-2.06-1.11-.7-2.33.57-3.32-.09a2.49,2.49,0,0,1-.51-3C14.28,37,15.61,37.48,16.58,36.26Z"/><path class="cls-4" d="M65.36,30.92c1.1.13,1.45-.52,2.19-.18s1.08,1.41,1.38,2.48c.41,1.42.1,1.69.52,2.2.77.95,2.1.3,2.8,1.25a2,2,0,0,1,.12,2c-.59,1.09-2,.56-2.74,1.6s.26,2.26-.61,3.49a2.33,2.33,0,0,1-2.1,1c-1.23-.25-.93-2-2.67-3.51-1.34-1.14-2.19-.62-3-1.79a3.9,3.9,0,0,1-.61-3.13c.3-1.21,1.07-1.29,1.08-2.17,0-1.32-1.7-1.69-1.66-2.88a2.47,2.47,0,0,1,2.32-2C63.57,29.33,63.82,30.74,65.36,30.92Z"/><circle class="cls-5" cx="45.31" cy="45.31" r="43.81"/><line class="cls-6" x1="45.31" y1="1.5" x2="45.31" y2="89.11"/><line class="cls-6" x1="1.5" y1="45.31" x2="89.11" y2="45.31"/></g></g></svg>