<svg xmlns="http://www.w3.org/2000/svg" viewBox="0 0 847.36 70.76"><defs><style>.cls-1{fill:#282828;}.cls-2{fill:#020202;}</style></defs><g id="Layer_2" data-name="Layer 2"><g id="skyline"><path class="cls-1" d="M25.91,49.74V47.08l8.84,6.79,9.52-7.32h.47V57.36H70.65V34.62H73.1v15.7a1,1,0,0,0,1,1h.28l2,4h1v1.54a1.44,1.44,0,0,0,1,1.39l1.53,5.54a.63.63,0,0,0,1.21,0l1.53-5.54a1.45,1.45,0,0,0,1-1.39V55.28h1l2-4h.28a1,1,0,0,0,1-1V34.62h3.37v4.43l6.41,16.76a1.41,1.41,0,0,0,2.63,0l5-13V58.29h17.67V38.55h7.89V44h25.92V39.72h1.79v8.33l9.56,20.2,8-16.82v2.44h1.73l2.73,10.2a1,1,0,0,0,1.87,0l2.73-10.2h1.74V40.35h12.89V34.8h2.69V47.88h14.44V34.23h4.43v11a2.62,2.62,0,0,0,1.16,2.18,6.11,6.11,0,0,0,12.13,0,2.63,2.63,0,0,0,1.15-2.18V40.13h.7l3.23,4.5,3.23-4.5h2.6l5.83,8.12,5.84-8.12V33.62h1.06v5.74H261V53.87h21.89V48.25h7.39v9.89h.05l5.83,8.12L302,58.14h.06V50h2v6.3a1,1,0,0,0,1,1h.72l2.73,4h1.29v1.54a1.46,1.46,0,0,0,1.43,1.46l2.27,6.08a.62.62,0,0,0,1.17,0L317,64.27a1.45,1.45,0,0,0,1.42-1.46V61.27h1.3l2.73-4h.71a1,1,0,0,0,1-1V46.76a6.07,6.07,0,0,0,6.45-1.64v3.13L336,56.38,339.63,51v3.09l5.48,8.12,5.47-8.12V44.73h1.84V42h5.05V55.57l6.88,10.22,6.89-10.22v-6h4.19V42h10.25v4.54H388c0,.18,0,.37,0,.56,0,3.38,1.84,6.12,4.11,6.12s4.12-2.74,4.12-6.12c0-.19,0-.38,0-.56h2.29v-6.4h1.16V66.51h12.77V48.25l8.12-10.07V34.07h2.18V49.74H448.6V47.08l8.83,6.79L467,46.55h.47V57.36h25.92V34.62h2.44v15.7a1,1,0,0,0,1,1H497l2,4h1v1.54a1.44,1.44,0,0,0,1,1.39l1.54,5.54a.62.62,0,0,0,1.2,0l1.53-5.54a1.45,1.45,0,0,0,1-1.39V55.28h1l2-4h.28a1,1,0,0,0,1-1V34.62h3.36v4.43l6.41,16.76a1.41,1.41,0,0,0,2.63,0l5-13V58.29h17.67V38.55h7.89V44H579.4V39.72h1.79v8.33l9.56,20.2,8-16.82v2.44h1.73l2.73,10.2a1,1,0,0,0,1.88,0l2.73-10.2h1.73V40.35H622.4V34.8h2.69V47.88h14.44V34.23H644v11a2.62,2.62,0,0,0,1.16,2.18,6.11,6.11,0,0,0,12.13,0,2.61,2.61,0,0,0,1.15-2.18V40.13h.7l3.23,4.5,3.23-4.5h2.6L674,48.25l5.83-8.12V33.62h1.06v5.74h2.83V53.87h21.89V48.25H713v9.89h0l5.83,8.12,5.83-8.12h.06V50h2v6.3a1,1,0,0,0,1,1h.72l2.73,4h1.29v1.54a1.46,1.46,0,0,0,1.43,1.46l2.27,6.08a.62.62,0,0,0,1.17,0l2.28-6.08a1.46,1.46,0,0,0,1.43-1.46V61.27h1.29l2.73-4h.71a1,1,0,0,0,1-1V46.76a6.09,6.09,0,0,0,6.46-1.64v3.13l5.47,8.13L762.31,51v3.09l5.48,8.12,5.47-8.12V44.73h1.84V42h5V55.57L787,65.79l6.88-10.22v-6h4.2V42h10.24v4.54h2.29a5.15,5.15,0,0,0,0,.56c0,3.38,1.84,6.12,4.11,6.12s4.12-2.74,4.12-6.12a5.15,5.15,0,0,0,0-.56h2.29v-6.4h1.16V66.51h12.77V48.25l8.13-10.07V34.07h4.17V0H0V49.74Z"/><path class="cls-2" d="M10.6,24.92v9.31a1.63,1.63,0,0,0,1.63,1.63h1.15V37A1.63,1.63,0,0,0,15,38.63h.17A1.63,1.63,0,0,0,16.81,37V35.86H20v2.53A1.63,1.63,0,0,0,21.63,40h3.76A1.63,1.63,0,0,0,27,38.39V35.86h.75a1.63,1.63,0,0,0,1.63-1.63V17.41H32V32.06l9.41,6,4.07-2.59v2.06H48V34h-.17l3.08-2V21.56h8.66v5.87a1.63,1.63,0,0,0,1.63,1.63H71.37v1.37A1.63,1.63,0,0,0,73,32.06h.17a1.63,1.63,0,0,0,1.63-1.63V29.06h1.9a1.63,1.63,0,0,0,1.63-1.63V20.37h9.58v.93a3.57,3.57,0,1,0,7.13,0v-.93H103V29l9.4,6,4.07-2.59v2.06h2.43v-3.5h-.16L121.77,29v-3.8l5.36,2v3.32h4.12V28.71l5.86,2.2,15.95-6V17.41h3.15v14h11L173.06,39l5.83-7.57V27.63l.42.51,2.53-3,2.52,3,3.06-3.67,3.07,3.67,3.07-3.67,3.06,3.67,3.63-4.34h.1V17.41h4.13V33.26c0,1.35,2.52,2.45,5.62,2.45s5.62-1.1,5.62-2.45V17.41h1.86v12c0,1.08,2,2,4.51,2s4.51-.88,4.51-2v-12h13.84v9.1a1.63,1.63,0,0,0,1.63,1.63h1.16v1.14a1.63,1.63,0,0,0,1.63,1.63H245a1.63,1.63,0,0,0,1.63-1.63V28.14h3.19v2.53a1.63,1.63,0,0,0,1.63,1.63h3.76a1.63,1.63,0,0,0,1.63-1.63V28.14h.75a1.63,1.63,0,0,0,1.63-1.63v-9.1h2.64v6.93l9.41,6,4.07-2.59V29.8h2.43V26.3h-.17l3.07-2V17.41h4.64V32.19l4.7,6,2-2.59v2.06h1.21v-3.5h-.08l1.54-2V32l3.8,4.84,2-2.59v2.06h1.22v-3.5h-.08l1.53-2v-.63L307,34.94l2-2.59v2h1.22V30.9h-.09L311.66,29V21.39h3.42V33.55a1.63,1.63,0,0,0,1.63,1.63h4.75v2.46H323V35.18h1.19v2.46h1.58V35.18H327v2.46h1.58V35.18h.22a1.63,1.63,0,0,0,1.63-1.63v-3.5a1.58,1.58,0,0,0,.65.14h12.09a1.63,1.63,0,0,0,1.63-1.63V17.41h9.44V31.94h15.35V30.19h7.06v4.37h2.17V30.19h1v4.37H382V30.19h1.85V17.41h2.27v6.8l7.1,6,3.08-2.59v2.06h1.83v-3.5H398l2.32-1.95V22.94l5.55,4.68L409,25v2h1.83V23.59h-.12l1.49-1.26v3.83h5.53v3.76h6.09v-5h9.28v9.31a1.63,1.63,0,0,0,1.63,1.63h1.15V37a1.63,1.63,0,0,0,1.63,1.63h.17A1.64,1.64,0,0,0,439.27,37V35.86h3.18v2.53A1.63,1.63,0,0,0,444.08,40h3.77a1.63,1.63,0,0,0,1.63-1.63V35.86h.75a1.63,1.63,0,0,0,1.63-1.63V17.41h2.63V32.06l9.41,6L468,35.46v2.06h2.43V34h-.16l3.07-2V21.56H482v5.87a1.63,1.63,0,0,0,1.63,1.63h10.22v1.37a1.63,1.63,0,0,0,1.63,1.63h.17a1.63,1.63,0,0,0,1.63-1.63V29.06h1.9a1.63,1.63,0,0,0,1.63-1.63V20.37h9.58v.93a3.57,3.57,0,1,0,7.13,0v-.93h7.92V29l9.4,6,4.07-2.59v2.06h2.43v-3.5h-.16L544.22,29v-3.8l5.36,2v3.32h4.12V28.71l5.86,2.2,16-6V17.41h3.15v14h11L595.51,39l5.83-7.57V27.63l.42.51,2.53-3,2.52,3,3.06-3.67,3.07,3.67L616,24.47l3.06,3.67,3.63-4.34h.1V17.41h4.13V33.26c0,1.35,2.52,2.45,5.62,2.45s5.62-1.1,5.62-2.45V17.41H640v12c0,1.08,2,2,4.51,2s4.51-.88,4.51-2v-12h13.84v9.1a1.63,1.63,0,0,0,1.63,1.63h1.16v1.14a1.63,1.63,0,0,0,1.63,1.63h.17a1.63,1.63,0,0,0,1.63-1.63V28.14h3.19v2.53a1.63,1.63,0,0,0,1.63,1.63h3.76a1.63,1.63,0,0,0,1.63-1.63V28.14h.75a1.64,1.64,0,0,0,1.64-1.63v-9.1h2.63v6.93l9.41,6,4.07-2.59V29.8h2.43V26.3h-.17l3.07-2V17.41h4.64V32.19l4.7,6,2-2.59v2.06h1.21v-3.5h-.08l1.54-2V32l3.8,4.84,2-2.59v2.06h1.22v-3.5h-.08l1.53-2v-.63l3.71,4.72,2-2.59v2h1.22V30.9h-.09L734.11,29V21.39h3.42V33.55a1.63,1.63,0,0,0,1.63,1.63h4.75v2.46h1.58V35.18h1.19v2.46h1.58V35.18h1.19v2.46H751V35.18h.22a1.63,1.63,0,0,0,1.63-1.63v-3.5a1.58,1.58,0,0,0,.65.14h12.09a1.63,1.63,0,0,0,1.63-1.63V17.41h9.44V31.94H792V30.19h7.06v4.37h2.17V30.19h1v4.37h2.18V30.19h1.85V17.41h2.27v6.8l7.1,6,3.08-2.59v2.06h1.83v-3.5h-.12l2.32-1.95V22.94l5.55,4.68L831.4,25v2h1.83V23.59h-.12l1.49-1.26v3.83h5.53v3.76h6.09V17.41h1.14V0H.23V24.92Z"/></g></g></svg>