<svg xmlns="http://www.w3.org/2000/svg" viewBox="0 0 847.36 70.76"><defs><style>.cls-1{fill:#efefef;}.cls-2{fill:#fff;}</style></defs><g id="Layer_2" data-name="Layer 2"><g id="skyline"><path class="cls-1" d="M821.45,21v2.66l-8.84-6.79-9.52,7.31h-.47V13.4H776.71V36.14h-2.45V20.44a1,1,0,0,0-1-1H773l-2-4h-1V13.94a1.47,1.47,0,0,0-1-1.4L767.48,7a.63.63,0,0,0-1.21,0l-1.53,5.53a1.46,1.46,0,0,0-1,1.4v1.54h-1l-2,4h-.28a1,1,0,0,0-1,1v15.7h-3.37V31.71L749.72,15a1.41,1.41,0,0,0-2.64,0l-5,13V12.47H724.46V32.21h-7.9V26.77H690.65V31h-1.8V22.71l-9.56-20.2-7.95,16.82V16.89H669.6L666.87,6.68a1,1,0,0,0-1.87,0l-2.73,10.21h-1.74V30.41H647.64V36H645V22.88H630.51V36.52h-4.43v-11a2.63,2.63,0,0,0-1.15-2.18,6.11,6.11,0,0,0-12.13,0,2.62,2.62,0,0,0-1.16,2.18v5.12h-.7l-3.23-4.5-3.23,4.5h-2.6l-5.83-8.12-5.83,8.12v6.51h-1.06V31.4h-2.84V16.89H564.43v5.62h-7.38V12.62H557L551.16,4.5l-5.83,8.12h-.05v8.13h-2v-6.3a1,1,0,0,0-1-1h-.72l-2.72-4h-1.3V8a1.47,1.47,0,0,0-1.42-1.47L533.86.41a.62.62,0,0,0-1.17,0l-2.28,6.07A1.47,1.47,0,0,0,529,8V9.49H527.7l-2.73,4h-.72a1,1,0,0,0-1,1V24a6,6,0,0,0-2-.33,6.09,6.09,0,0,0-4.49,2V22.51l-5.47-8.13-3.63,5.39V16.68l-5.47-8.12-5.48,8.12V26h-1.84v2.73h-5V15.19L483,5l-6.89,10.22v6h-4.19v7.54H461.68V24.23H459.4c0-.19,0-.37,0-.56,0-3.38-1.85-6.12-4.12-6.12s-4.12,2.74-4.12,6.12c0,.19,0,.37,0,.56h-2.28v6.4h-1.17V4.25H435V22.51l-8.13,10.06v4.12h-2.18V21H398.77v2.66l-8.84-6.79-9.52,7.31h-.47V13.4H354V36.14h-2.45V20.44a1,1,0,0,0-1-1h-.28l-2-4h-.95V13.94a1.47,1.47,0,0,0-1-1.4L344.8,7a.63.63,0,0,0-1.21,0l-1.53,5.53a1.47,1.47,0,0,0-1,1.4v1.54h-.95l-2,4h-.28a1,1,0,0,0-1,1v15.7h-3.37V31.71L327,15a1.41,1.41,0,0,0-2.63,0l-5,13V12.47H301.78V32.21h-7.9V26.77H268V31h-1.8V22.71l-9.56-20.2-8,16.82V16.89h-1.74L244.19,6.68a1,1,0,0,0-1.87,0l-2.73,10.21h-1.74V30.41H225V36h-2.69V22.88H207.83V36.52H203.4v-11a2.62,2.62,0,0,0-1.16-2.18,6.1,6.1,0,0,0-12.12,0A2.62,2.62,0,0,0,189,25.51v5.12h-.7L185,26.13l-3.23,4.5h-2.6l-5.83-8.12-5.84,8.12v6.51h-1.05V31.4h-2.84V16.89H141.75v5.62h-7.38V12.62h-.06L128.48,4.5l-5.83,8.12h-.05v8.13h-2v-6.3a1,1,0,0,0-1-1h-.72l-2.73-4h-1.29V8a1.47,1.47,0,0,0-1.42-1.47L111.18.41a.62.62,0,0,0-1.17,0l-2.28,6.07A1.47,1.47,0,0,0,106.31,8V9.49H105l-2.72,4h-.72a1,1,0,0,0-1,1V24a6.07,6.07,0,0,0-6.45,1.64V22.51l-5.48-8.13-3.62,5.39V16.68L79.58,8.56,74.1,16.68V26H72.26v2.73h-5V15.19L60.33,5,53.44,15.19v6H49.25v7.54H39V24.23H36.72c0-.19,0-.37,0-.56,0-3.38-1.85-6.12-4.12-6.12s-4.12,2.74-4.12,6.12c0,.19,0,.37,0,.56H26.24v6.4H25.07V4.25H12.3V22.51L4.18,32.57v4.12H0V70.76H847.36V21Z"/><path class="cls-2" d="M837,45.84V36.53a1.63,1.63,0,0,0-1.63-1.63h-1.15V33.76a1.63,1.63,0,0,0-1.63-1.63h-.17a1.63,1.63,0,0,0-1.64,1.63V34.9h-3.18V32.37A1.63,1.63,0,0,0,826,30.74h-3.76a1.63,1.63,0,0,0-1.63,1.63V34.9h-.75a1.63,1.63,0,0,0-1.63,1.63V53.35h-2.64V38.69l-9.41-6-4.07,2.59V33.24h-2.43v3.5h.17l-3.08,1.95V49.2h-8.66V43.33a1.64,1.64,0,0,0-1.63-1.64H776.2V40.33a1.63,1.63,0,0,0-1.63-1.64h-.17a1.63,1.63,0,0,0-1.63,1.64v1.36h-1.9a1.64,1.64,0,0,0-1.63,1.64v7.06h-9.58v-.94a3.57,3.57,0,0,0-7.14,0v.94h-7.91V41.8l-9.41-6-4.07,2.59V36.35H728.7v3.5h.16l-3.07,1.95v3.8l-5.36-2V40.27h-4.12v1.78l-5.86-2.2-16,6v7.52h-3.15v-14h-11l-5.83-7.56-5.84,7.56v3.75l-.42-.5-2.52,3-2.52-3-3.07,3.67-3.07-3.67L654,46.29l-3.07-3.67L647.29,47h-.1v6.39h-4.13V37.5c0-1.35-2.52-2.45-5.62-2.45s-5.62,1.1-5.62,2.45V53.35H630v-12c0-1.09-2-2-4.51-2s-4.51.88-4.51,2v12H607.09v-9.1a1.63,1.63,0,0,0-1.64-1.63H604.3V41.48a1.63,1.63,0,0,0-1.63-1.63h-.17a1.63,1.63,0,0,0-1.63,1.63v1.14h-3.19V40.09a1.63,1.63,0,0,0-1.63-1.63h-3.77a1.63,1.63,0,0,0-1.63,1.63v2.53h-.75a1.63,1.63,0,0,0-1.63,1.63v9.1h-2.64V46.41l-9.41-6L572.15,43V41h-2.43v3.5h.17l-3.08,1.95v6.94h-4.63V38.57l-4.71-6-2,2.59V33.12h-1.22v3.5h.08l-1.53,2v.19L549,33.92l-2,2.59V34.45h-1.22V38h.08l-1.53,2v.63l-3.71-4.72-2,2.59v-2H537.3v3.49h.09l-1.54,2v7.56h-3.42V37.21a1.63,1.63,0,0,0-1.63-1.63H526V33.12h-1.58v2.46h-1.19V33.12h-1.58v2.46H520.5V33.12h-1.58v2.46h-.21a1.64,1.64,0,0,0-1.64,1.63v3.5a1.58,1.58,0,0,0-.65-.14H504.33a1.63,1.63,0,0,0-1.63,1.63V53.35h-9.45V38.82H477.9v1.75h-7.06V36.2h-2.17v4.37h-1V36.2H465.5v4.37h-1.85V53.35h-2.27v-6.8l-7.11-6-3.07,2.59V41.1h-1.84v3.5h.13l-2.32,1.95v1.27l-5.56-4.68-3.07,2.59V43.67H436.7v3.5h.12l-1.48,1.26V44.6H429.8V40.84h-6.09v5h-9.28V36.53a1.63,1.63,0,0,0-1.63-1.63h-1.16V33.76A1.63,1.63,0,0,0,410,32.13h-.17a1.63,1.63,0,0,0-1.63,1.63V34.9H405V32.37a1.63,1.63,0,0,0-1.63-1.63h-3.76A1.63,1.63,0,0,0,398,32.37V34.9h-.75a1.63,1.63,0,0,0-1.63,1.63V53.35H393V38.69l-9.41-6L379.5,35.3V33.24h-2.44v3.5h.17l-3.07,1.95V49.2h-8.67V43.33a1.64,1.64,0,0,0-1.63-1.64H353.64V40.33A1.63,1.63,0,0,0,352,38.69h-.17a1.63,1.63,0,0,0-1.64,1.64v1.36h-1.89a1.65,1.65,0,0,0-1.64,1.64v7.06H337.1v-.94a3.57,3.57,0,0,0-7.14,0v.94H322V41.8l-9.41-6-4.07,2.59V36.35h-2.43v3.5h.17l-3.07,1.95v3.8l-5.36-2V40.27h-4.13v1.78l-5.85-2.2-16,6v7.52h-3.15v-14h-11l-5.83-7.56-5.83,7.56v3.75l-.42-.5-2.53,3-2.52-3-3.07,3.67-3.06-3.67-3.07,3.67-3.07-3.67L224.73,47h-.11v6.39h-4.13V37.5c0-1.35-2.52-2.45-5.62-2.45s-5.62,1.1-5.62,2.45V53.35h-1.86v-12c0-1.09-2-2-4.51-2s-4.51.88-4.51,2v12H184.52v-9.1a1.63,1.63,0,0,0-1.63-1.63h-1.16V41.48a1.63,1.63,0,0,0-1.63-1.63h-.17a1.63,1.63,0,0,0-1.63,1.63v1.14h-3.19V40.09a1.63,1.63,0,0,0-1.63-1.63h-3.76a1.63,1.63,0,0,0-1.63,1.63v2.53h-.76a1.63,1.63,0,0,0-1.63,1.63v9.1h-2.63V46.41l-9.41-6L149.59,43V41h-2.43v3.5h.16l-3.07,1.95v6.94h-4.64V38.57l-4.7-6-2,2.59V33.12h-1.22v3.5h.09l-1.54,2v.19l-3.8-4.84-2,2.59V34.45h-1.21V38h.08l-1.54,2v.63L118,35.82l-2,2.59v-2h-1.21v3.49h.08l-1.54,2v7.56h-3.42V37.21a1.63,1.63,0,0,0-1.63-1.63h-4.75V33.12H101.9v2.46h-1.19V33.12H99.13v2.46H97.94V33.12H96.36v2.46h-.22a1.63,1.63,0,0,0-1.63,1.63v3.5a1.59,1.59,0,0,0-.66-.14H81.76a1.63,1.63,0,0,0-1.63,1.63V53.35H70.69V38.82H55.33v1.75h-7V36.2H46.1v4.37h-1V36.2H42.93v4.37H41.09V53.35H38.81v-6.8l-7.1-6-3.08,2.59V41.1H26.8v3.5h.12L24.6,46.55v1.27L19,43.14,16,45.73V43.67H14.13v3.5h.13l-1.49,1.26V44.6H7.23V40.84H1.15V53.35H0V70.76H847.36V45.84Z"/></g></g></svg>