<svg xmlns="http://www.w3.org/2000/svg" viewBox="0 0 91.82 31.33"><defs><style>.cls-1{font-size:8.99px;font-family:MyriadPro-Regular, Myriad Pro;}.cls-1,.cls-4,.cls-5{fill:#fff;}.cls-2{letter-spacing:0.02em;}.cls-3{letter-spacing:-0.04em;}.cls-4,.cls-5{stroke:#fff;}.cls-4{stroke-miterlimit:10;}.cls-5{stroke-linecap:round;stroke-linejoin:round;}.cls-6{fill:#b22918;}</style></defs><g id="Layer_2" data-name="Layer 2"><g id="Layer_2-2" data-name="Layer 2"><text class="cls-1" transform="translate(0.53 7.52)">S<tspan class="cls-2" x="4.43" y="0">E</tspan><tspan x="9.01" y="0">JLK</tspan><tspan class="cls-3" x="21.45" y="0">L</tspan><tspan x="25.37" y="0">UBBEN </tspan><tspan x="19.95" y="10.78">NEPTUN</tspan><tspan class="cls-3" x="28.09" y="21.57"> </tspan><tspan x="29.67" y="21.57">V</tspan><tspan class="cls-2" x="34.68" y="21.57">E</tspan><tspan x="39.27" y="21.57">JLE</tspan></text><g id="flag"><path class="cls-4" d="M61.47,4.18a6.4,6.4,0,0,0,2.24,2,19,19,0,0,0,5.36,1.34,2.73,2.73,0,0,1,1.54.56,5.5,5.5,0,0,1,1,1.57A15.24,15.24,0,0,0,72.46,11c1.27,1.74,4,.39,5.87,2.15.92.86.41,1.29,1.47,2.2A9,9,0,0,0,83.66,17a4.88,4.88,0,0,1,2.07.71A6.64,6.64,0,0,1,87,19.11c.35.52.3.59.47.79,1,1.15,3.67,0,3.86.48.12.3-.82,1.19-2.1,1.64-1.56.55-2.1-.08-4.26,0a21.66,21.66,0,0,0-5.37,1.13,11.45,11.45,0,0,1-2.11.36,3.13,3.13,0,0,1-2.17-.34c-.17-.11-.49-.33-.51-.66s.29-.52.24-.73-.57-.41-1.39-.39c-1.92,0-2.64,1-4.87,1.51-1.18.29-2,.49-2.76.1-1-.49-.86-1.34-1.78-1.81-.66-.33-1.07-.08-3.67.51a16.23,16.23,0,0,0-3.81,1.2,2.36,2.36,0,0,0-1.42,1.3s6.14-13,4.57-16.3Z"/><path class="cls-5" d="M60.8,4.18a2.94,2.94,0,0,1,1.56-1.36,1.69,1.69,0,0,0-2-.68A2.93,2.93,0,0,1,60.8,4.18Z"/><path class="cls-5" d="M55.32,24.2c-.93.41-1.72,3-2.55,4.86L61,3.73"/><polygon class="cls-6" points="62.87 6.88 63.59 7.54 64.58 7.36 64.18 8.2 64.66 9.14 63.72 9.03 63.04 9.77 62.83 8.86 61.88 8.38 62.75 7.87 62.87 6.88"/><polygon class="cls-6" points="65.32 8.86 66.03 9.51 67.03 9.33 66.63 10.17 67.11 11.11 66.16 11 65.48 11.74 65.27 10.82 64.33 10.35 65.2 9.84 65.32 8.86"/><polygon class="cls-6" points="61.84 10.15 62.55 10.8 63.54 10.62 63.15 11.47 63.62 12.4 62.68 12.29 62 13.03 61.79 12.12 60.85 11.64 61.72 11.13 61.84 10.15"/></g></g></g></svg>