<svg xmlns="http://www.w3.org/2000/svg" viewBox="0 0 210.69 210.69">
    <defs>

        <style>
            #bulb-2 {
                animation: animate_draw 2s infinite linear;
                transform-origin: 178.22px 174.91px;
            }

            @keyframes animate_draw {
                0% {
                    transform: rotate(0);
                }

                10% {
                    transform: rotate(-5deg);
                }

                20% {
                    transform: rotate(5deg);
                }

                30% {
                    transform: rotate(-5deg);
                }

                40% {
                    transform: rotate(5deg);
                }

                50% {
                    transform: rotate(-5deg);
                }

                60% {
                    transform: rotate(5deg);
                }

                60% {
                    transform: rotate(0);
                }

                100% {
                    transform: rotate(0);
                }
            }

            .cls-1,
            .cls-14,
            .cls-6,
            .cls-9 {
                fill: none;
            }

            .cls-1,
            .cls-10,
            .cls-11,
            .cls-12,
            .cls-13,
            .cls-14,
            .cls-15,
            .cls-2,
            .cls-3,
            .cls-4,
            .cls-6,
            .cls-7,
            .cls-8,
            .cls-9 {
                stroke: #000;
            }

            .cls-1,
            .cls-11,
            .cls-6 {
                stroke-miterlimit: 10;
            }

            .cls-1,
            .cls-11 {
                stroke-width: 3px;
            }

            .cls-2 {
                fill: #f0ff64;
            }

            .cls-10,
            .cls-12,
            .cls-13,
            .cls-14,
            .cls-15,
            .cls-2,
            .cls-3,
            .cls-4,
            .cls-6,
            .cls-7,
            .cls-8,
            .cls-9 {
                stroke-linecap: round;
            }

            .cls-10,
            .cls-12,
            .cls-13,
            .cls-14,
            .cls-15,
            .cls-2,
            .cls-3,
            .cls-4,
            .cls-7,
            .cls-8,
            .cls-9 {
                stroke-linejoin: round;
            }

            .cls-10,
            .cls-12,
            .cls-13,
            .cls-15,
            .cls-2,
            .cls-3,
            .cls-4,
            .cls-6,
            .cls-7,
            .cls-8,
            .cls-9 {
                stroke-width: 2px;
            }

            .cls-3 {
                fill: #fdb3ff;
            }

            .cls-4 {
                fill: #93dfff;
            }

            .cls-11,
            .cls-5,
            .cls-8 {
                fill: #fff;
            }

            .cls-7 {
                fill: #62007a;
            }

            .cls-10 {
                fill: #f424ff;
            }

            .cls-12 {
                fill: #fff188;
            }

            .cls-13 {
                fill: #878787;
            }

            .cls-15 {
                fill: #ff1f75;
            }
            .cloud {
                fill: white;
            }

            #mouth {
                opacity: ;
            }
            .hide {
                opacity: 0;
            }
        </style>
    </defs>
    <g id="Layer_2" data-name="Layer 2">
        <g id="icons_v3">
            <g id="challenge">
                <g id="ideas">
                    <g id="challenge-2" data-name="challenge">
                        <circle class="cls-1" cx="105.35" cy="105.35" r="103.85" />
                        <g id="done">
                            <g id="right_horn">
                                <path class="cls-2"
                                    d="M73.91,120.11s-18.48,11.11-21.24-6.67c-1.38-10.6,12.7-7,9.87.65,0,0,10.41-3,8.66-11.91-2.51-9.43-15.15-8.08-15.15-8.08s-24.6,1.17-17.12,26.42c4.64,13.43,25.15,19.76,27.19,13.29C66.62,132.24,71.5,122.86,73.91,120.11Z" />
                                <path class="cls-3"
                                    d="M41.19,100.92S50.45,99.6,54,108c1.94-1.4,4-1.74,6.75,0,6.62-4.08,5.13-12.28,5.13-12.28C58.8,92,47.12,94.63,41.19,100.92Z" />
                                <path class="cls-3"
                                    d="M38.7,119.71c5-7.78,14.14-5.33,14.14-5.33a10.81,10.81,0,0,0,4,7.39s-6.81,1.89-3.36,12.53C46.69,131.71,41.35,127.33,38.7,119.71Z" />
                            </g>
                            <g id="right_horn-2" data-name="right_horn">
                                <path class="cls-2"
                                    d="M136.23,126.55s19,6.68,21.79-11.11c1.38-10.6-12.7-7-9.87.66,0,0-10.4-3-8.66-11.91,2.51-9.43,15.15-8.08,15.15-8.08s24.6,1.16,17.12,26.42c-4.64,13.43-24.54,21.86-27.69,15.84C143.26,136.81,138.31,129.52,136.23,126.55Z" />
                                <path class="cls-3"
                                    d="M150,110c-6.62-4.08-5.13-12.29-5.13-12.29,7.13-3.4,16.78-1.89,24.69,5.18,0,0-9.27-1.33-12.81,7.11C154.83,108.5,152.6,108.4,150,110Z" />
                                <path class="cls-3"
                                    d="M157.85,137.43c3.45-10.64-4-13.09-4-13.09a14.52,14.52,0,0,0,4-8s9.17-2.45,14.14,5.34C170.17,127.92,165.4,133.14,157.85,137.43Z" />
                            </g>
                            <path id="body" class="cls-4"
                                d="M51.81,194.35c2-9.78,3.74-12.62,8.67-20.6l-6.68,3.77s4.93-25.55,13.5-35L61,145.92s7.6-19.86,12.89-26.1a24.14,24.14,0,0,0-6,0,43.15,43.15,0,0,1,24-18.65C85,91.26,83,90.75,83,90.75s14.08,1.52,16.91,4.1c1.92-3.08,10.52-7,14.81-5.77-2.94,6.75-3,8.79-3,8.79s16,3.7,24,12.17c-5.76-1-8.3.37-8.3.37s6.56,1.63,14.16,14.45a20.87,20.87,0,0,0-6.88-.52s19.19,26.33,25.21,46.8c-5.73-5.23-6.41-5.13-6.41-5.13s9.09,22.71,8.16,26.65C139.08,211.59,84.49,217,51.81,194.35Z" />
                            <g id="eyes">
                                <circle class="cls-5" cx="85.97" cy="139.77" r="2.75" />
                                <circle class="cls-5" cx="116.83" cy="139.77" r="2.75" />
                                <path id="eye2"
                                    d="M120,134.88a7.15,7.15,0,1,0,7.15,7.15A7.15,7.15,0,0,0,120,134.88Zm-3.18,7.1a2.21,2.21,0,1,1,2.22-2.21A2.21,2.21,0,0,1,116.83,142Z" />
                                <path id="eye2-2" data-name="eye2"
                                    d="M89,134.84A7.15,7.15,0,1,0,96.13,142,7.15,7.15,0,0,0,89,134.84Zm-3.18,7.09A2.21,2.21,0,1,1,88,139.72,2.21,2.21,0,0,1,85.8,141.93Z" />
                            </g>
                            <g id="eyebrow3">
                                <g id="eyebrow1">
                                    <path class="cls-6" d="M75.57,135.23a20.15,20.15,0,0,1,16-6" />
                                </g>
                                <g id="eyebrow1-2" data-name="eyebrow1">
                                    <path class="cls-6" d="M132.15,135.23a20.15,20.15,0,0,0-16-6" />
                                </g>
                            </g>
                            <g id="mouth">
                                <path class="cls-7 hide"
                                    d="M88.11,163.15c8.93,28.61,27.94,24.27,34.65-.68L115,160l1.28,3.83L105.21,160c-1.81,1.17-5.82,2.69-9.67,4.19l.55-4.13Z" />
                                <path class="cls-8"
                                    d="M91.21,161.94s3,9.79,5.65,9.79,3.89-9.58,3.89-9.58-3.83,1.52-5.21,2c.14-1,.44-3.27.55-4.13C94.8,160.54,92.16,161.49,91.21,161.94Z" />
                                <path class="cls-8"
                                    d="M120.14,161.64s-3.15,10.09-5.76,10.09-3.65-9.84-3.65-9.84l5.55,1.92c-.22-.64-1.18-3.21-1.28-3.83C116,160.3,119.1,161.29,120.14,161.64Z" />
                                <path id="mustache_line" class="cls-9"
                                    d="M83.2,154.08l-3.32,5.28L84.6,159l1.7,4.81L96.09,160l-.55,4.13s6.88-2.43,9.67-4.19l11.07,3.83L115,160l9.85,3.16-.36-4.26,6.32.61s-.91-3.16-2.25-4.32" />
                                <path class="cls-10 hide"
                                    d="M107.08,178c-.6-.86-1.75-1.29-2.38-1.84-4.84-4.24-10.15.15-10.15.15-.14-2.56,9.11,16.47,22.28-.58-1.7-4.19-10-3.09-12.13.43Z" />
                            </g>
                        </g>
                        <g id="bulb">
                            <circle class="cls-11" cx="174.91" cy="174.91" r="34.29" />
                            <g id="bulb-2" data-name="bulb">
                                <path class="cls-12"
                                    d="M183.59,172.64a8.69,8.69,0,1,0-14.15,6.75h0c2.12,2,2.12,4,2.12,6h6.69c0-2,0-4,2.12-6h0A8.64,8.64,0,0,0,183.59,172.64Z" />
                                <path class="cls-9" d="M174.91,166.78a6,6,0,0,0-3.66,1.46,7.12,7.12,0,0,0-2.1,3.22" />
                                <line class="cls-9" x1="174.99" y1="157.41" x2="174.99" y2="161.6" />
                                <line class="cls-9" x1="185.99" y1="161.6" x2="183.02" y2="164.57" />
                                <line class="cls-9" x1="185.99" y1="184.84" x2="183.02" y2="181.87" />
                                <line class="cls-9" x1="163.25" y1="184.84" x2="166.22" y2="181.87" />
                                <line class="cls-9" x1="163.25" y1="160.99" x2="166.22" y2="163.95" />
                                <line class="cls-9" x1="190.18" y1="172.28" x2="185.99" y2="172.28" />
                                <line class="cls-9" x1="163.82" y1="172.28" x2="159.63" y2="172.28" />
                                <path class="cls-13"
                                    d="M172.23,188.4v3.33c0,1,1.24,1.82,2.76,1.82s2.75-.82,2.75-1.82V188.4Z" />
                                <path class="cls-14" d="M172.23,190.6h0Z" />
                            </g>
                        </g>
                    </g>
                    <path class="cls-9 cloud"
                        d="M153.23,40.17c0-7.39-6.84-13.39-15.28-13.39l-.47,0a17.91,17.91,0,0,0-6.61-12.19c-6.93-5.79-16.33-5.94-21-.34-.12.13-.21.28-.32.42-3.24-3.17-8.46-5.22-14.36-5.22C88,9.47,81.73,12.56,78.94,17a10.05,10.05,0,0,0-1.56-.13A10.85,10.85,0,0,0,66.54,27.71a12.12,12.12,0,0,0,.07,1.22A14.85,14.85,0,0,0,69.94,57.2c.65,6.86,6.86,12.23,14.42,12.23a15,15,0,0,0,10.49-4.18,11.06,11.06,0,0,0,15.26-3.07,22.58,22.58,0,0,0,12.28,3.38c9.76,0,17.67-5.37,17.67-12,0,0,0-.1,0-.15C147.49,52.52,153.23,46.94,153.23,40.17Z" />
                    <path class="cls-9 cloud"
                        d="M142.74,88.82a3,3,0,0,0-1.66-2.66,3,3,0,0,0-2.94-2.56,3,3,0,0,0-1.13.22,3.52,3.52,0,0,0-5.38,3,.71.71,0,0,0,0,.14,3.53,3.53,0,0,0,1.62,6.67,3.69,3.69,0,0,0,1.11-.18,3.53,3.53,0,0,0,5.84-1.7A3,3,0,0,0,142.74,88.82Z" />
                    <path class="cls-9 cloud"
                        d="M144.53,64.71a4.51,4.51,0,0,0-.28,4.77,4.53,4.53,0,0,0,1.4,5.78,4.6,4.6,0,0,0,1.6.72,5.38,5.38,0,0,0,9.34,1l.12-.19a5.38,5.38,0,0,0,3.87-9.72,5.72,5.72,0,0,0-1.55-.76,5.37,5.37,0,0,0-8.76-3A4.54,4.54,0,0,0,144.53,64.71Z" />
                </g>
                <path class="cls-15"
                    d="M114.48,31.18a8.79,8.79,0,0,0-17.58,0h4.78A4,4,0,1,1,106.8,35c-2.32.53-3.35,2.13-3.46,4.54V46h4.71V39.65A8.79,8.79,0,0,0,114.48,31.18Z" />
                <circle class="cls-15" cx="105.69" cy="53.04" r="3.48" />
            </g>
        </g>
    </g>
</svg>