<svg xmlns="http://www.w3.org/2000/svg" xmlns:xlink="http://www.w3.org/1999/xlink" viewBox="0 0 214 230.01"><defs>

<style>

#pencil {
    animation: animate_draw 1s infinite ease-in-out;
    transform-origin: 178.22px 174.91px;
}
@keyframes animate_draw {
    0% {transform: rotate(0);}
    50% {transform: rotate(-5deg);}
    100% {transform: rotate(0);}
}

.cls-1,.cls-10,.cls-14{fill:none;}.cls-2{clip-path:url(#clip-path);}.cls-3{fill:#fc325e;}.cls-10,.cls-11,.cls-12,.cls-13,.cls-14,.cls-15,.cls-16,.cls-17,.cls-3,.cls-4,.cls-5,.cls-6,.cls-7,.cls-8,.cls-9{stroke:#000;}.cls-10,.cls-11,.cls-12,.cls-13,.cls-16,.cls-17,.cls-3,.cls-4{stroke-linecap:round;}.cls-10,.cls-11,.cls-12,.cls-13,.cls-16,.cls-17,.cls-3,.cls-4,.cls-6,.cls-7,.cls-8{stroke-linejoin:round;}.cls-10,.cls-11,.cls-12,.cls-13,.cls-16,.cls-17,.cls-3,.cls-4,.cls-5,.cls-6,.cls-7,.cls-8,.cls-9{stroke-width:2px;}.cls-4{fill:#839bff;}.cls-5{fill:#ffc364;}.cls-14,.cls-15,.cls-5,.cls-9{stroke-miterlimit:10;}.cls-15,.cls-6{fill:#fff;}.cls-7{fill:#b6ffb0;}.cls-8{fill:#ff929f;}.cls-9{fill:#fff78f;}.cls-11{fill:#f0ff64;}.cls-12{fill:#fdb3ff;}.cls-13{fill:#93dfff;}.cls-14,.cls-15{stroke-width:3px;}.cls-16{fill:#fff7e9;}.cls-17{fill:#ffe161;}</style><clipPath id="clip-path" transform="translate(3.31)"><circle class="cls-1" cx="105.35" cy="105.35" r="103.85"/></clipPath></defs><g id="Layer_2" data-name="Layer 2"><g id="icons_v3"><g id="design"><g class="cls-2"><g id="done"><g id="backwall"><rect class="cls-3" x="51.55" y="29.06" width="47.81" height="30.63" rx="6.28"/><polygon class="cls-4" points="59.58 34.74 61.13 31.34 62.89 34.64 66.6 35.06 64.01 37.76 64.75 41.42 61.39 39.78 58.14 41.63 58.65 37.92 55.9 35.4 59.58 34.74"/><path class="cls-5" d="M92,54.87l-8.4-14.55a1,1,0,0,0-1.79,0l-5.32,9.21-4.24-7.35a1,1,0,0,0-1.79,0L64.17,53a1,1,0,0,0,.9,1.56h8.48l-.18.31a1,1,0,0,0,.9,1.55H91.06A1,1,0,0,0,92,54.87Z" transform="translate(3.31)"/><path class="cls-6" d="M56.22,26.19A71.53,71.53,0,0,1,43.84,39.53l.42-2-1.72.24L44,35.21l-3.7.94a138.69,138.69,0,0,1,11.58-12.7l1.92-.3L53.17,25l1.52-.28-.52,1.81Z" transform="translate(3.31)"/><path class="cls-6" d="M88.13,62.72a71.12,71.12,0,0,1,12.2-13.52l-.39,2,1.71-.26-1.39,2.57,3.7-1A140,140,0,0,1,92.55,65.39l-1.91.33.56-1.85-1.52.3.5-1.82Z" transform="translate(3.31)"/><g id="paper"><rect class="cls-7" x="147.06" y="44.38" width="42.46" height="51.33" rx="2.19"/><rect class="cls-8" x="152.87" y="52.98" width="15.22" height="8.87"/><rect class="cls-8" x="171.5" y="69.58" width="15.22" height="8.87"/><rect class="cls-8" x="152.87" y="81.65" width="15.22" height="8.87"/><line class="cls-6" x1="168.09" y1="81.65" x2="178.78" y2="78.45"/><line class="cls-6" x1="179.11" y1="69.58" x2="160.48" y2="61.85"/><path class="cls-6" d="M148.62,101.3A71.7,71.7,0,0,1,135.1,89.11l2,.39-.27-1.71,2.57,1.38-1-3.69a137.45,137.45,0,0,1,12.86,11.41l.33,1.91-1.85-.56.3,1.52-1.81-.5Z" transform="translate(3.31)"/><path class="cls-6" d="M192.21,52.29a71.74,71.74,0,0,1-13.52-12.2l2,.39-.27-1.71L183,40.16l-1-3.7a137.45,137.45,0,0,1,12.86,11.41l.33,1.91-1.84-.56.29,1.52-1.81-.5Z" transform="translate(3.31)"/></g><rect class="cls-9" x="9.26" y="55.87" width="37.12" height="37.12" rx="0.65"/><line class="cls-10" x1="15.01" y1="64.08" x2="40.09" y2="64.08"/><line class="cls-10" x1="15.01" y1="70.92" x2="40.09" y2="70.92"/><line class="cls-10" x1="15.01" y1="77.76" x2="40.09" y2="77.76"/><line class="cls-10" x1="15.01" y1="84.6" x2="40.09" y2="84.6"/><path class="cls-6" d="M46.63,63.78a71.43,71.43,0,0,1-13.52-12.2l2,.4-.26-1.72,2.57,1.39-1-3.69A137.3,137.3,0,0,1,49.3,59.36l.33,1.91-1.85-.56.3,1.52-1.81-.49Z" transform="translate(3.31)"/><path class="cls-6" d="M11.21,98.43A71.42,71.42,0,0,1-2.31,86.24l2,.39-.26-1.71L2,86.3,1,82.61A138.73,138.73,0,0,1,13.88,94l.33,1.91-1.85-.56.3,1.51-1.82-.49Z" transform="translate(3.31)"/></g><g id="right_horn"><path class="cls-11" d="M75.31,113s-20,12-23-7.22c-1.49-11.46,13.73-7.54,10.67.7,0,0,11.25-3.29,9.37-12.87C69.66,83.39,56,84.85,56,84.85s-26.6,1.26-18.51,28.57c5,14.52,27.2,21.37,29.4,14.37C67.42,126.09,72.7,116,75.31,113Z" transform="translate(3.31)"/><path class="cls-12" d="M39.92,92.22s10-1.43,13.85,7.7c2.09-1.52,4.37-1.89,7.3,0,7.15-4.42,5.54-13.29,5.54-13.29C59,82.59,46.33,85.43,39.92,92.22Z" transform="translate(3.31)"/><path class="cls-12" d="M37.23,112.55c5.37-8.42,15.29-5.77,15.29-5.77a11.64,11.64,0,0,0,4.36,8s-7.36,2-3.64,13.55C45.87,125.52,40.1,120.78,37.23,112.55Z" transform="translate(3.31)"/></g><g id="right_horn-2" data-name="right_horn"><path class="cls-11" d="M142.7,119.94s20.58,7.22,23.56-12c1.49-11.46-13.74-7.54-10.68.7,0,0-11.25-3.29-9.36-12.87,2.72-10.2,16.39-8.74,16.39-8.74s26.59,1.26,18.51,28.57c-5,14.52-26.55,23.64-29.94,17.13C150.3,131,145,123.15,142.7,119.94Z" transform="translate(3.31)"/><path class="cls-12" d="M157.53,102.09C150.37,97.67,152,88.8,152,88.8c7.7-3.68,18.13-2,26.69,5.59,0,0-10-1.43-13.85,7.7C162.81,100.42,160.4,100.31,157.53,102.09Z" transform="translate(3.31)"/><path class="cls-12" d="M166.08,131.71c3.72-11.51-4.36-14.16-4.36-14.16a15.78,15.78,0,0,0,4.36-8.6s9.91-2.65,15.29,5.77C179.4,121.42,174.24,127.06,166.08,131.71Z" transform="translate(3.31)"/></g><path id="body" class="cls-13" d="M49.8,200c2.21-10.57,5.65-20.38,11-29l-7.22,4.08s5.33-27.63,14.6-37.83l-6.81,3.66s8.22-21.48,13.95-28.23a26.16,26.16,0,0,0-6.52,0,46.71,46.71,0,0,1,26-20.17c-7.45-10.72-9.65-11.26-9.65-11.26s15.23,1.64,18.29,4.43c2.08-3.34,11.38-7.53,16-6.24-3.18,7.3-3.27,9.51-3.27,9.51s17.24,4,25.93,13.16c-6.23-1.1-9,.39-9,.39s7.09,1.76,15.31,15.63a22.6,22.6,0,0,0-7.43-.56s20.74,28.47,27.26,50.6c-6.2-5.65-6.93-5.54-6.93-5.54s11,32,9.95,36.32C146.29,234.8,84.4,242.66,49.8,200Z" transform="translate(3.31)"/></g></g><circle class="cls-14" cx="108.66" cy="105.35" r="103.85"/><circle class="cls-15" cx="178.22" cy="174.91" r="34.29"/><g id="pencil"><polygon class="cls-16" points="161.81 193.7 171.2 190.7 168.71 186.11 163.91 184.07 161.81 193.7"/><polygon points="161.82 193.69 166.03 192.34 162.76 189.37 161.82 193.69"/><polygon class="cls-17" points="188.16 157.38 195.46 164 171.2 190.7 168.71 186.11 163.91 184.07 188.16 157.38"/><line class="cls-10" x1="168.71" y1="186.11" x2="191.81" y2="160.69"/><path class="cls-3" d="M184.85,157.35h9.86a0,0,0,0,1,0,0v0a3.83,3.83,0,0,1-3.83,3.83h-2.2a3.83,3.83,0,0,1-3.83-3.83v0A0,0,0,0,1,184.85,157.35Z" transform="translate(226.43 404.76) rotate(-137.74)"/></g><path class="cls-10" d="M72.11,182a21.21,21.21,0,0,0,4.71,10.58,13.66,13.66,0,0,1,5.58-7,22.85,22.85,0,0,0,4.8,8.62c2.17-2.91,6.1-5.58,11-8.11a12.25,12.25,0,0,0,3,9.3,21,21,0,0,1,7.23-5.36" transform="translate(3.31)"/><path class="cls-10" d="M138.94,138.77a21.14,21.14,0,0,1-6,10.84c-1-2.59-3.25-4.77-6.79-6.54A24.16,24.16,0,0,1,120,152c-2.64-2.73-4-2.79-10-5" transform="translate(3.31)"/></g></g></g></svg>