<svg xmlns="http://www.w3.org/2000/svg" viewBox="0 0 63.47 63.47"><defs><style>.cls-1{fill:none;stroke:#000;stroke-miterlimit:10;}</style></defs><g id="Layer_2" data-name="Layer 2"><g id="Layer_1-2" data-name="Layer 1"><circle class="cls-1" cx="31.74" cy="31.74" r="31.24"/></g><g id="Layer_2-2" data-name="Layer 2"><path class="cls-1" d="M44.71,20.17a8.88,8.88,0,0,0-.23-6c-1.57-.3-3.75.83-6.1,2.38a20.9,20.9,0,0,0-11.1,0s-4.13-2.91-6.1-2.38a8.83,8.83,0,0,0-.23,6c-2,1.57-2.39,5.35-1.93,7.58s1,7.06,9.77,7.39a5.23,5.23,0,0,0-1.41,3s-4.12,2.21-6.44-1.84A4.64,4.64,0,0,0,17.56,34c-.27,0-2.09-.05-.18,1.36a6.65,6.65,0,0,1,2.44,3.19c.88,2.56,4.11,3.88,7.5,2.68,0,3.05,0,6.53,0,6.53,0,2.15,11,2.15,11,.1v-9a5.44,5.44,0,0,0-1.5-3.73c2.3,0,9.43-1,10-7.3C47.45,21.89,45.81,21.61,44.71,20.17Z"/><path d="M18.66,34.92a.33.33,0,0,1-.44,0c-.17-.11-.24-.28-.17-.4s.27-.12.44,0S18.73,34.81,18.66,34.92Z"/><path d="M19.64,35.94c-.11.11-.34.07-.5-.1s-.21-.39-.1-.5a.45.45,0,0,1,.6.6Z"/><path d="M20.58,37.36c-.15.1-.39,0-.53-.22s-.14-.48,0-.57.38,0,.53.22A.43.43,0,0,1,20.58,37.36Z"/><path d="M21.83,38.72c-.15.12-.41,0-.59-.18s-.22-.49-.07-.61.42,0,.6.17S22,38.59,21.83,38.72Z"/><path d="M23.11,39.69c-.3-.06-.51-.26-.47-.46s.3-.32.6-.27.5.26.46.46S23.4,39.74,23.11,39.69Z"/><path d="M25.18,40c-.3,0-.56-.1-.59-.3s.19-.39.49-.43.56.09.58.29S25.47,39.93,25.18,40Z"/><path d="M27,39.74c-.3,0-.56-.09-.58-.29s.19-.4.48-.44.56.09.59.29S27.3,39.7,27,39.74Z"/></g></g></svg>