<svg xmlns="http://www.w3.org/2000/svg" viewBox="0 0 63.47 63.47"><defs><style>.cls-1{fill:none;stroke:#fff;stroke-miterlimit:10;}.cls-2{fill:#fff;}</style></defs><g id="Layer_2" data-name="Layer 2"><g id="Layer_1-2" data-name="Layer 1"><circle class="cls-1" cx="31.74" cy="31.74" r="31.24"/></g><g id="Layer_2-2" data-name="Layer 2"><path class="cls-2" d="M44.71,20.17a8.88,8.88,0,0,0-.23-6c-1.57-.3-3.75.83-6.1,2.38a20.9,20.9,0,0,0-11.1,0s-4.13-2.91-6.1-2.38a8.83,8.83,0,0,0-.23,6c-2,1.57-2.39,5.35-1.93,7.58s1,7.06,9.77,7.39a5.23,5.23,0,0,0-1.41,3s-4.12,2.21-6.44-1.84A4.64,4.64,0,0,0,17.56,34c-.27,0-2.09-.05-.18,1.36a6.65,6.65,0,0,1,2.44,3.19c.88,2.56,4.11,3.88,7.5,2.68,0,3.05,0,6.53,0,6.53,0,2.15,11,2.15,11,.1v-9a5.44,5.44,0,0,0-1.5-3.73c2.3,0,9.43-1,10-7.3C47.45,21.89,45.81,21.61,44.71,20.17ZM19.05,35.1a.3.3,0,0,1-.4,0c-.16-.1-.23-.27-.16-.37s.25-.11.4,0S19.12,35,19.05,35.1ZM20,36c-.11.11-.31.07-.47-.08a.35.35,0,0,1-.08-.47c.1-.1.31-.06.46.09S20.06,35.93,20,36Zm.86,1.32c-.14.09-.35,0-.48-.21s-.13-.43,0-.52.35,0,.48.2S21,37.26,20.82,37.35ZM22,38.6c-.13.12-.38,0-.55-.16a.35.35,0,1,1,.49-.41C22.09,38.23,22.12,38.49,22,38.6Zm1.18.9c-.27,0-.46-.24-.43-.42s.28-.3.55-.25.46.24.43.42S23.43,39.55,23.16,39.5Zm1.91.26c-.27,0-.51-.09-.54-.27s.18-.37.45-.4.52.08.54.27S25.34,39.72,25.07,39.76Zm1.69-.21c-.27,0-.51-.09-.54-.27s.18-.37.45-.4.52.08.54.27S27,39.51,26.76,39.55Z"/></g></g></svg>