<svg xmlns="http://www.w3.org/2000/svg" viewBox="0 0 63.47 63.47"><defs><style>.cls-1{fill:none;stroke:#fff;stroke-miterlimit:10;}.cls-2{fill:#fff;}</style></defs><g id="Layer_2" data-name="Layer 2"><g id="Layer_1-2" data-name="Layer 1"><circle class="cls-1" cx="31.74" cy="31.74" r="31.24"/><path class="cls-2" d="M31.87,22.73A9.08,9.08,0,1,0,41,31.81,9.06,9.06,0,0,0,31.87,22.73Zm0,15a5.91,5.91,0,1,1,5.91-5.9,5.92,5.92,0,0,1-5.91,5.9ZM43.44,22.36a2.12,2.12,0,1,1-2.12-2.12A2.11,2.11,0,0,1,43.44,22.36Zm6,2.15c-.14-2.84-.79-5.35-2.86-7.42S42,14.37,39.18,14.23s-11.69-.17-14.61,0-5.35.78-7.42,2.85-2.72,4.58-2.86,7.42-.17,11.68,0,14.61.78,5.35,2.86,7.42,4.58,2.72,7.42,2.86,11.68.16,14.61,0,5.34-.78,7.42-2.86,2.71-4.58,2.86-7.42.16-11.68,0-14.6ZM45.68,42.25a6,6,0,0,1-3.37,3.36c-2.33.93-7.86.71-10.44.71s-8.11.21-10.43-.71a6,6,0,0,1-3.37-3.36c-.92-2.34-.71-7.87-.71-10.44s-.21-8.12.71-10.44A6,6,0,0,1,21.44,18c2.33-.92,7.86-.71,10.43-.71s8.12-.2,10.44.71a6,6,0,0,1,3.37,3.37c.92,2.33.71,7.86.71,10.44S46.6,39.92,45.68,42.25Z"/></g></g></svg>