<svg xmlns="http://www.w3.org/2000/svg" xmlns:xlink="http://www.w3.org/1999/xlink" viewBox="0 0 210.69 223.19"><defs>

<style>

.cls-14 {
    animation: rotate_center 10s infinite linear;
    transform-origin: 174.91px 174.91px;
    /* It works to use the cordinates from the circle and then just add px at the end */

} 
@keyframes rotate_center {
    from {transform: rotate(0deg);}
    to {transform: rotate(360deg);}
} 

#sun_moon {
    transform-origin: 105.35px 102.37px;
    animation: rotate_center 20s infinite linear;
}


.cls-1,.cls-10,.cls-12,.cls-5{fill:none;}.cls-2{clip-path:url(#clip-path);}.cls-3{fill:#f4f4f4;}.cls-10,.cls-11,.cls-12,.cls-13,.cls-14,.cls-3,.cls-4,.cls-5,.cls-6,.cls-7,.cls-8{stroke:#000;}.cls-10,.cls-11,.cls-14,.cls-3,.cls-4,.cls-5,.cls-6,.cls-7,.cls-8{stroke-linecap:round;}.cls-11,.cls-14,.cls-3,.cls-4,.cls-5,.cls-6,.cls-7,.cls-8{stroke-linejoin:round;}.cls-10,.cls-14,.cls-3,.cls-4,.cls-5,.cls-6,.cls-7,.cls-8{stroke-width:2px;}.cls-4{fill:#fff188;}.cls-6{fill:#f0ff64;}.cls-7{fill:#fdb3ff;}.cls-8{fill:#93dfff;}.cls-13,.cls-9{fill:#fff;}.cls-10,.cls-12,.cls-13{stroke-miterlimit:10;}.cls-11{fill:#ff1f75;}.cls-11,.cls-12,.cls-13{stroke-width:3px;}.cls-14{fill:#e2e2e2;}</style><clipPath id="clip-path"><circle class="cls-1" cx="105.35" cy="105.35" r="102.37"/></clipPath></defs><g id="Layer_2" data-name="Layer 2"><g id="icons_v3"><g id="process"><g class="cls-2"><g id="sun_moon"><circle class="cls-1" cx="105.35" cy="105.35" r="79.49"/><path class="cls-3" d="M104.08,6.76H104A18,18,0,0,1,88.58,34a18,18,0,1,0,15.5-27.24Z"/><circle class="cls-4" cx="105.35" cy="172.12" r="18.03"/><line class="cls-5" x1="105.35" y1="139.99" x2="105.35" y2="146.97"/><line class="cls-5" x1="105.35" y1="197.28" x2="105.35" y2="204.26"/><line class="cls-5" x1="130.51" y1="172.12" x2="137.48" y2="172.12"/><line class="cls-5" x1="123.37" y1="154.1" x2="128.31" y2="149.16"/><line class="cls-5" x1="82.38" y1="195.09" x2="87.32" y2="190.15"/><line class="cls-5" x1="123.37" y1="190.15" x2="128.31" y2="195.09"/><line class="cls-5" x1="82.38" y1="149.16" x2="87.32" y2="154.1"/><line class="cls-5" x1="73.21" y1="172.12" x2="80.19" y2="172.12"/></g><g id="done"><g id="right_horn"><path class="cls-6" d="M73.63,102S55,113.19,52.19,95.24c-1.39-10.69,12.82-7,10,.66,0,0,10.5-3.08,8.74-12-2.54-9.53-15.29-8.16-15.29-8.16S30.78,76.9,38.32,102.39C43,115.94,63.7,122.33,65.77,115.8,66.26,114.21,71.19,104.75,73.63,102Z"/><path class="cls-7" d="M40.6,82.61S50,81.27,53.52,89.79c2-1.42,4.08-1.76,6.82,0,6.67-4.12,5.17-12.4,5.17-12.4C58.38,73.62,46.59,76.27,40.6,82.61Z"/><path class="cls-7" d="M38.09,101.58c5-7.86,14.27-5.39,14.27-5.39a10.85,10.85,0,0,0,4.07,7.46s-6.87,1.9-3.4,12.64C46.15,113.68,40.77,109.26,38.09,101.58Z"/></g><g id="right_horn-2" data-name="right_horn"><path class="cls-6" d="M136.51,108.48s19.21,6.73,22-11.22c1.39-10.69-12.82-7-10,.66,0,0-10.5-3.07-8.74-12,2.54-9.52,15.29-8.15,15.29-8.15s24.82,1.17,17.28,26.66c-4.69,13.55-24.77,22.06-27.94,16C143.61,118.83,138.61,111.47,136.51,108.48Z"/><path class="cls-7" d="M150.36,91.81c-6.68-4.12-5.18-12.39-5.18-12.39,7.19-3.44,16.93-1.92,24.91,5.21,0,0-9.34-1.33-12.92,7.18C155.28,90.26,153,90.15,150.36,91.81Z"/><path class="cls-7" d="M158.33,119.46c3.48-10.74-4.06-13.22-4.06-13.22a14.59,14.59,0,0,0,4.06-8s9.26-2.47,14.27,5.39C170.76,109.86,166,115.12,158.33,119.46Z"/></g><path id="body" class="cls-8" d="M49.82,183.18c2.06-9.87,5.27-19,10.25-27.08l-6.74,3.81s5-25.78,13.62-35.3L60.6,128s7.67-20,13-26.35a24.63,24.63,0,0,0-6.08,0A43.53,43.53,0,0,1,91.78,82.86c-7-10-9-10.51-9-10.51S97,73.88,99.84,76.48c1.94-3.11,10.62-7,14.94-5.82-3,6.81-3,8.88-3,8.88s16.09,3.73,24.2,12.27c-5.81-1-8.38.37-8.38.37s6.62,1.65,14.29,14.59a21.06,21.06,0,0,0-6.94-.53s19.36,26.57,25.44,47.23c-5.79-5.28-6.47-5.18-6.47-5.18s10.23,29.92,9.29,33.9C139.87,215.67,82.11,223,49.82,183.18Z"/><g id="eyes"><circle class="cls-9" cx="87.32" cy="126.31" r="2.77"/><circle class="cls-9" cx="117.21" cy="126.36" r="2.77"/><path id="eye2" d="M120.41,121.43a7.21,7.21,0,1,0,7.21,7.21A7.21,7.21,0,0,0,120.41,121.43Zm-3.2,7.16a2.24,2.24,0,1,1,2.23-2.23A2.23,2.23,0,0,1,117.21,128.59Z"/><path id="eye1" d="M88.33,121.38a7.21,7.21,0,1,0,7.21,7.21A7.21,7.21,0,0,0,88.33,121.38Zm-1,7.16a2.24,2.24,0,1,1,2.24-2.23A2.23,2.23,0,0,1,87.32,128.54Z"/></g><line class="cls-10" x1="79.68" y1="107.16" x2="96.97" y2="107.16"/><line class="cls-10" x1="111.77" y1="107.16" x2="129.05" y2="107.16"/></g><path class="cls-11" d="M51.87,142.28h107a7.24,7.24,0,0,1,7.24,7.24v72.16a0,0,0,0,1,0,0H44.63a0,0,0,0,1,0,0V149.53A7.24,7.24,0,0,1,51.87,142.28Z"/></g><circle id="bg" class="cls-12" cx="105.35" cy="105.35" r="103.85"/><circle class="cls-13" cx="174.91" cy="174.91" r="34.29"/><path class="cls-14" d="M190.28,175.56l-.23-3.38,3.19-2.51L191.77,166l-4,.39-2.17-2.6,1.1-3.91-3.34-2.09-3,2.69-3.28-.83-1.41-3.81-3.93.27-.88,4-3.14,1.26-3.38-2.26-3,2.52,1.62,3.73-1.8,2.87-4.06.16-1,3.82,3.5,2.06.22,3.38-3.18,2.52L158,183.8l4.05-.39,2.17,2.6-1.1,3.91,3.33,2.09,3-2.69,3.29.83,1.4,3.81,3.93-.27.88-4,3.14-1.26,3.38,2.25,3-2.52L187,184.47l1.8-2.87,4.06-.16,1-3.81Zm-5.17.83a10.31,10.31,0,1,1-7-11.28A10.31,10.31,0,0,1,185.11,176.39Z"/></g></g></g></svg>